%TF.GenerationSoftware,KiCad,Pcbnew,7.0.5*%
%TF.CreationDate,2023-11-06T22:37:59+10:00*%
%TF.ProjectId,TallyLight_Panel,54616c6c-794c-4696-9768-745f50616e65,rev?*%
%TF.SameCoordinates,Original*%
%TF.FileFunction,Paste,Bot*%
%TF.FilePolarity,Positive*%
%FSLAX46Y46*%
G04 Gerber Fmt 4.6, Leading zero omitted, Abs format (unit mm)*
G04 Created by KiCad (PCBNEW 7.0.5) date 2023-11-06 22:37:59*
%MOMM*%
%LPD*%
G01*
G04 APERTURE LIST*
G04 Aperture macros list*
%AMRoundRect*
0 Rectangle with rounded corners*
0 $1 Rounding radius*
0 $2 $3 $4 $5 $6 $7 $8 $9 X,Y pos of 4 corners*
0 Add a 4 corners polygon primitive as box body*
4,1,4,$2,$3,$4,$5,$6,$7,$8,$9,$2,$3,0*
0 Add four circle primitives for the rounded corners*
1,1,$1+$1,$2,$3*
1,1,$1+$1,$4,$5*
1,1,$1+$1,$6,$7*
1,1,$1+$1,$8,$9*
0 Add four rect primitives between the rounded corners*
20,1,$1+$1,$2,$3,$4,$5,0*
20,1,$1+$1,$4,$5,$6,$7,0*
20,1,$1+$1,$6,$7,$8,$9,0*
20,1,$1+$1,$8,$9,$2,$3,0*%
%AMRotRect*
0 Rectangle, with rotation*
0 The origin of the aperture is its center*
0 $1 length*
0 $2 width*
0 $3 Rotation angle, in degrees counterclockwise*
0 Add horizontal line*
21,1,$1,$2,0,0,$3*%
G04 Aperture macros list end*
%ADD10RoundRect,0.250000X0.350000X0.450000X-0.350000X0.450000X-0.350000X-0.450000X0.350000X-0.450000X0*%
%ADD11R,1.450000X1.150000*%
%ADD12RoundRect,0.250000X-0.350000X-0.450000X0.350000X-0.450000X0.350000X0.450000X-0.350000X0.450000X0*%
%ADD13RoundRect,0.243750X0.243750X0.456250X-0.243750X0.456250X-0.243750X-0.456250X0.243750X-0.456250X0*%
%ADD14R,2.000000X1.000000*%
%ADD15R,0.940000X0.750000*%
%ADD16R,2.100000X5.600000*%
%ADD17RotRect,1.150000X1.450000X315.000000*%
%ADD18RotRect,0.600000X1.500000X315.000000*%
%ADD19RotRect,0.600000X1.500000X45.000000*%
G04 APERTURE END LIST*
D10*
%TO.C,R2*%
X90000000Y-121875000D03*
X88000000Y-121875000D03*
%TD*%
D11*
%TO.C,C17*%
X109500000Y-129525000D03*
X109500000Y-127725000D03*
%TD*%
D12*
%TO.C,R4*%
X124000000Y-129625000D03*
X126000000Y-129625000D03*
%TD*%
D13*
%TO.C,5V*%
X129625000Y-118125000D03*
X127750000Y-118125000D03*
%TD*%
D14*
%TO.C,NRF24L01*%
X133550000Y-127005000D03*
X133550000Y-128275000D03*
X133550000Y-125735000D03*
X133550000Y-124465000D03*
X133550000Y-123195000D03*
X133550000Y-121925000D03*
X133550000Y-120655000D03*
X133550000Y-119385000D03*
%TD*%
D15*
%TO.C,C12*%
X131500000Y-128525000D03*
X131500000Y-127125000D03*
%TD*%
D13*
%TO.C,3V3*%
X129687500Y-129625000D03*
X127812500Y-129625000D03*
%TD*%
D11*
%TO.C,C18*%
X109500000Y-118475000D03*
X109500000Y-120275000D03*
%TD*%
D12*
%TO.C,R5*%
X124000000Y-118125000D03*
X126000000Y-118125000D03*
%TD*%
D16*
%TO.C,16M*%
X105000000Y-128375000D03*
X105000000Y-118875000D03*
%TD*%
D17*
%TO.C,C16*%
X120363604Y-118238604D03*
X121636396Y-119511396D03*
%TD*%
D10*
%TO.C,R1*%
X90000000Y-119125000D03*
X88000000Y-119125000D03*
%TD*%
D11*
%TO.C,C14*%
X111750000Y-130875000D03*
X111750000Y-129075000D03*
%TD*%
D18*
%TO.C,ATMEGA328P*%
X114949390Y-128756371D03*
X114383705Y-128190685D03*
X113818019Y-127625000D03*
X113252334Y-127059315D03*
X112686648Y-126493629D03*
X112120963Y-125927944D03*
X111555278Y-125362258D03*
X110989592Y-124796573D03*
D19*
X110989592Y-122745963D03*
X111555278Y-122180278D03*
X112120963Y-121614592D03*
X112686648Y-121048907D03*
X113252334Y-120483221D03*
X113818019Y-119917536D03*
X114383705Y-119351851D03*
X114949390Y-118786165D03*
D18*
X117000000Y-118786165D03*
X117565685Y-119351851D03*
X118131371Y-119917536D03*
X118697056Y-120483221D03*
X119262742Y-121048907D03*
X119828427Y-121614592D03*
X120394112Y-122180278D03*
X120959798Y-122745963D03*
D19*
X120959798Y-124796573D03*
X120394112Y-125362258D03*
X119828427Y-125927944D03*
X119262742Y-126493629D03*
X118697056Y-127059315D03*
X118131371Y-127625000D03*
X117565685Y-128190685D03*
X117000000Y-128756371D03*
%TD*%
D11*
%TO.C,C17*%
X109500000Y-109025000D03*
X109500000Y-107225000D03*
%TD*%
D12*
%TO.C,R4*%
X124000000Y-109125000D03*
X126000000Y-109125000D03*
%TD*%
D13*
%TO.C,5V*%
X129625000Y-97625000D03*
X127750000Y-97625000D03*
%TD*%
D14*
%TO.C,NRF24L01*%
X133550000Y-106505000D03*
X133550000Y-107775000D03*
X133550000Y-105235000D03*
X133550000Y-103965000D03*
X133550000Y-102695000D03*
X133550000Y-101425000D03*
X133550000Y-100155000D03*
X133550000Y-98885000D03*
%TD*%
D15*
%TO.C,C12*%
X131500000Y-108025000D03*
X131500000Y-106625000D03*
%TD*%
D11*
%TO.C,C18*%
X109500000Y-97975000D03*
X109500000Y-99775000D03*
%TD*%
D16*
%TO.C,16M*%
X105000000Y-107875000D03*
X105000000Y-98375000D03*
%TD*%
D10*
%TO.C,R1*%
X90000000Y-98625000D03*
X88000000Y-98625000D03*
%TD*%
D17*
%TO.C,C16*%
X120363604Y-97738604D03*
X121636396Y-99011396D03*
%TD*%
D12*
%TO.C,R5*%
X124000000Y-97625000D03*
X126000000Y-97625000D03*
%TD*%
D11*
%TO.C,C14*%
X111750000Y-110375000D03*
X111750000Y-108575000D03*
%TD*%
D18*
%TO.C,ATMEGA328P*%
X114949390Y-108256371D03*
X114383705Y-107690685D03*
X113818019Y-107125000D03*
X113252334Y-106559315D03*
X112686648Y-105993629D03*
X112120963Y-105427944D03*
X111555278Y-104862258D03*
X110989592Y-104296573D03*
D19*
X110989592Y-102245963D03*
X111555278Y-101680278D03*
X112120963Y-101114592D03*
X112686648Y-100548907D03*
X113252334Y-99983221D03*
X113818019Y-99417536D03*
X114383705Y-98851851D03*
X114949390Y-98286165D03*
D18*
X117000000Y-98286165D03*
X117565685Y-98851851D03*
X118131371Y-99417536D03*
X118697056Y-99983221D03*
X119262742Y-100548907D03*
X119828427Y-101114592D03*
X120394112Y-101680278D03*
X120959798Y-102245963D03*
D19*
X120959798Y-104296573D03*
X120394112Y-104862258D03*
X119828427Y-105427944D03*
X119262742Y-105993629D03*
X118697056Y-106559315D03*
X118131371Y-107125000D03*
X117565685Y-107690685D03*
X117000000Y-108256371D03*
%TD*%
D10*
%TO.C,R2*%
X90000000Y-101375000D03*
X88000000Y-101375000D03*
%TD*%
D13*
%TO.C,3V3*%
X129687500Y-109125000D03*
X127812500Y-109125000D03*
%TD*%
D10*
%TO.C,R2*%
X90000000Y-80875000D03*
X88000000Y-80875000D03*
%TD*%
D11*
%TO.C,C17*%
X109500000Y-88525000D03*
X109500000Y-86725000D03*
%TD*%
D12*
%TO.C,R4*%
X124000000Y-88625000D03*
X126000000Y-88625000D03*
%TD*%
D13*
%TO.C,5V*%
X129625000Y-77125000D03*
X127750000Y-77125000D03*
%TD*%
D14*
%TO.C,NRF24L01*%
X133550000Y-86005000D03*
X133550000Y-87275000D03*
X133550000Y-84735000D03*
X133550000Y-83465000D03*
X133550000Y-82195000D03*
X133550000Y-80925000D03*
X133550000Y-79655000D03*
X133550000Y-78385000D03*
%TD*%
D13*
%TO.C,3V3*%
X129687500Y-88625000D03*
X127812500Y-88625000D03*
%TD*%
D12*
%TO.C,R5*%
X124000000Y-77125000D03*
X126000000Y-77125000D03*
%TD*%
D16*
%TO.C,16M*%
X105000000Y-87375000D03*
X105000000Y-77875000D03*
%TD*%
D10*
%TO.C,R1*%
X90000000Y-78125000D03*
X88000000Y-78125000D03*
%TD*%
D17*
%TO.C,C16*%
X120363604Y-77238604D03*
X121636396Y-78511396D03*
%TD*%
D11*
%TO.C,C14*%
X111750000Y-89875000D03*
X111750000Y-88075000D03*
%TD*%
D18*
%TO.C,ATMEGA328P*%
X114949390Y-87756371D03*
X114383705Y-87190685D03*
X113818019Y-86625000D03*
X113252334Y-86059315D03*
X112686648Y-85493629D03*
X112120963Y-84927944D03*
X111555278Y-84362258D03*
X110989592Y-83796573D03*
D19*
X110989592Y-81745963D03*
X111555278Y-81180278D03*
X112120963Y-80614592D03*
X112686648Y-80048907D03*
X113252334Y-79483221D03*
X113818019Y-78917536D03*
X114383705Y-78351851D03*
X114949390Y-77786165D03*
D18*
X117000000Y-77786165D03*
X117565685Y-78351851D03*
X118131371Y-78917536D03*
X118697056Y-79483221D03*
X119262742Y-80048907D03*
X119828427Y-80614592D03*
X120394112Y-81180278D03*
X120959798Y-81745963D03*
D19*
X120959798Y-83796573D03*
X120394112Y-84362258D03*
X119828427Y-84927944D03*
X119262742Y-85493629D03*
X118697056Y-86059315D03*
X118131371Y-86625000D03*
X117565685Y-87190685D03*
X117000000Y-87756371D03*
%TD*%
D11*
%TO.C,C18*%
X109500000Y-77475000D03*
X109500000Y-79275000D03*
%TD*%
D15*
%TO.C,C12*%
X131500000Y-87525000D03*
X131500000Y-86125000D03*
%TD*%
%TO.C,C12*%
X131500000Y-67025000D03*
X131500000Y-65625000D03*
%TD*%
D13*
%TO.C,5V*%
X129625000Y-56625000D03*
X127750000Y-56625000D03*
%TD*%
D11*
%TO.C,C17*%
X109500000Y-68025000D03*
X109500000Y-66225000D03*
%TD*%
D10*
%TO.C,R1*%
X90000000Y-57625000D03*
X88000000Y-57625000D03*
%TD*%
D17*
%TO.C,C16*%
X120363604Y-56738604D03*
X121636396Y-58011396D03*
%TD*%
D11*
%TO.C,C14*%
X111750000Y-69375000D03*
X111750000Y-67575000D03*
%TD*%
D14*
%TO.C,NRF24L01*%
X133550000Y-65505000D03*
X133550000Y-66775000D03*
X133550000Y-64235000D03*
X133550000Y-62965000D03*
X133550000Y-61695000D03*
X133550000Y-60425000D03*
X133550000Y-59155000D03*
X133550000Y-57885000D03*
%TD*%
D16*
%TO.C,16M*%
X105000000Y-66875000D03*
X105000000Y-57375000D03*
%TD*%
D12*
%TO.C,R5*%
X124000000Y-56625000D03*
X126000000Y-56625000D03*
%TD*%
D13*
%TO.C,3V3*%
X129687500Y-68125000D03*
X127812500Y-68125000D03*
%TD*%
D12*
%TO.C,R4*%
X124000000Y-68125000D03*
X126000000Y-68125000D03*
%TD*%
D11*
%TO.C,C18*%
X109500000Y-56975000D03*
X109500000Y-58775000D03*
%TD*%
D18*
%TO.C,ATMEGA328P*%
X114949390Y-67256371D03*
X114383705Y-66690685D03*
X113818019Y-66125000D03*
X113252334Y-65559315D03*
X112686648Y-64993629D03*
X112120963Y-64427944D03*
X111555278Y-63862258D03*
X110989592Y-63296573D03*
D19*
X110989592Y-61245963D03*
X111555278Y-60680278D03*
X112120963Y-60114592D03*
X112686648Y-59548907D03*
X113252334Y-58983221D03*
X113818019Y-58417536D03*
X114383705Y-57851851D03*
X114949390Y-57286165D03*
D18*
X117000000Y-57286165D03*
X117565685Y-57851851D03*
X118131371Y-58417536D03*
X118697056Y-58983221D03*
X119262742Y-59548907D03*
X119828427Y-60114592D03*
X120394112Y-60680278D03*
X120959798Y-61245963D03*
D19*
X120959798Y-63296573D03*
X120394112Y-63862258D03*
X119828427Y-64427944D03*
X119262742Y-64993629D03*
X118697056Y-65559315D03*
X118131371Y-66125000D03*
X117565685Y-66690685D03*
X117000000Y-67256371D03*
%TD*%
D10*
%TO.C,R2*%
X90000000Y-60375000D03*
X88000000Y-60375000D03*
%TD*%
M02*
