%TF.GenerationSoftware,KiCad,Pcbnew,7.0.5*%
%TF.CreationDate,2023-11-06T22:37:59+10:00*%
%TF.ProjectId,TallyLight_Panel,54616c6c-794c-4696-9768-745f50616e65,rev?*%
%TF.SameCoordinates,Original*%
%TF.FileFunction,Soldermask,Bot*%
%TF.FilePolarity,Negative*%
%FSLAX46Y46*%
G04 Gerber Fmt 4.6, Leading zero omitted, Abs format (unit mm)*
G04 Created by KiCad (PCBNEW 7.0.5) date 2023-11-06 22:37:59*
%MOMM*%
%LPD*%
G01*
G04 APERTURE LIST*
G04 APERTURE END LIST*
G36*
X101600000Y-131925000D02*
G01*
X99900000Y-131925000D01*
X99900000Y-130225000D01*
X101600000Y-130225000D01*
X101600000Y-131925000D01*
G37*
G36*
X112475000Y-131450000D02*
G01*
X111025000Y-131450000D01*
X111025000Y-130300000D01*
X112475000Y-130300000D01*
X112475000Y-131450000D01*
G37*
G36*
X106050000Y-131175000D02*
G01*
X103950000Y-131175000D01*
X103950000Y-125575000D01*
X106050000Y-125575000D01*
X106050000Y-131175000D01*
G37*
G36*
X124354850Y-128925964D02*
G01*
X124405040Y-128931787D01*
X124422189Y-128939359D01*
X124445671Y-128944030D01*
X124470810Y-128960827D01*
X124490696Y-128969608D01*
X124504277Y-128983189D01*
X124526777Y-128998223D01*
X124541810Y-129020722D01*
X124555391Y-129034303D01*
X124564170Y-129054186D01*
X124580970Y-129079329D01*
X124585641Y-129102812D01*
X124593212Y-129119959D01*
X124599033Y-129170139D01*
X124600000Y-129175000D01*
X124600000Y-130075000D01*
X124599032Y-130079863D01*
X124593212Y-130130040D01*
X124585641Y-130147185D01*
X124580970Y-130170671D01*
X124564169Y-130195815D01*
X124555391Y-130215696D01*
X124541812Y-130229274D01*
X124526777Y-130251777D01*
X124504274Y-130266812D01*
X124490696Y-130280391D01*
X124470815Y-130289169D01*
X124445671Y-130305970D01*
X124422185Y-130310641D01*
X124405040Y-130318212D01*
X124354861Y-130324032D01*
X124350000Y-130325000D01*
X123650000Y-130325000D01*
X123645138Y-130324032D01*
X123594959Y-130318212D01*
X123577812Y-130310641D01*
X123554329Y-130305970D01*
X123529186Y-130289170D01*
X123509303Y-130280391D01*
X123495722Y-130266810D01*
X123473223Y-130251777D01*
X123458189Y-130229277D01*
X123444608Y-130215696D01*
X123435827Y-130195810D01*
X123419030Y-130170671D01*
X123414359Y-130147189D01*
X123406787Y-130130040D01*
X123400964Y-130079849D01*
X123400000Y-130075000D01*
X123400000Y-129175000D01*
X123400964Y-129170150D01*
X123406787Y-129119959D01*
X123414359Y-129102808D01*
X123419030Y-129079329D01*
X123435826Y-129054191D01*
X123444608Y-129034303D01*
X123458191Y-129020719D01*
X123473223Y-128998223D01*
X123495719Y-128983191D01*
X123509303Y-128969608D01*
X123529191Y-128960826D01*
X123554329Y-128944030D01*
X123577808Y-128939359D01*
X123594959Y-128931787D01*
X123645151Y-128925964D01*
X123650000Y-128925000D01*
X124350000Y-128925000D01*
X124354850Y-128925964D01*
G37*
G36*
X126354850Y-128925964D02*
G01*
X126405040Y-128931787D01*
X126422189Y-128939359D01*
X126445671Y-128944030D01*
X126470810Y-128960827D01*
X126490696Y-128969608D01*
X126504277Y-128983189D01*
X126526777Y-128998223D01*
X126541810Y-129020722D01*
X126555391Y-129034303D01*
X126564170Y-129054186D01*
X126580970Y-129079329D01*
X126585641Y-129102812D01*
X126593212Y-129119959D01*
X126599033Y-129170139D01*
X126600000Y-129175000D01*
X126600000Y-130075000D01*
X126599032Y-130079863D01*
X126593212Y-130130040D01*
X126585641Y-130147185D01*
X126580970Y-130170671D01*
X126564169Y-130195815D01*
X126555391Y-130215696D01*
X126541812Y-130229274D01*
X126526777Y-130251777D01*
X126504274Y-130266812D01*
X126490696Y-130280391D01*
X126470815Y-130289169D01*
X126445671Y-130305970D01*
X126422185Y-130310641D01*
X126405040Y-130318212D01*
X126354861Y-130324032D01*
X126350000Y-130325000D01*
X125650000Y-130325000D01*
X125645138Y-130324032D01*
X125594959Y-130318212D01*
X125577812Y-130310641D01*
X125554329Y-130305970D01*
X125529186Y-130289170D01*
X125509303Y-130280391D01*
X125495722Y-130266810D01*
X125473223Y-130251777D01*
X125458189Y-130229277D01*
X125444608Y-130215696D01*
X125435827Y-130195810D01*
X125419030Y-130170671D01*
X125414359Y-130147189D01*
X125406787Y-130130040D01*
X125400964Y-130079849D01*
X125400000Y-130075000D01*
X125400000Y-129175000D01*
X125400964Y-129170150D01*
X125406787Y-129119959D01*
X125414359Y-129102808D01*
X125419030Y-129079329D01*
X125435826Y-129054191D01*
X125444608Y-129034303D01*
X125458191Y-129020719D01*
X125473223Y-128998223D01*
X125495719Y-128983191D01*
X125509303Y-128969608D01*
X125529191Y-128960826D01*
X125554329Y-128944030D01*
X125577808Y-128939359D01*
X125594959Y-128931787D01*
X125645151Y-128925964D01*
X125650000Y-128925000D01*
X126350000Y-128925000D01*
X126354850Y-128925964D01*
G37*
G36*
X128061100Y-128925964D02*
G01*
X128109860Y-128931621D01*
X128126520Y-128938977D01*
X128149529Y-128943554D01*
X128174161Y-128960013D01*
X128193414Y-128968514D01*
X128206564Y-128981664D01*
X128228607Y-128996393D01*
X128243335Y-129018435D01*
X128256485Y-129031585D01*
X128264985Y-129050836D01*
X128281446Y-129075471D01*
X128286023Y-129098481D01*
X128293378Y-129115139D01*
X128299033Y-129163889D01*
X128300000Y-129168750D01*
X128300000Y-130081250D01*
X128299032Y-130086112D01*
X128293378Y-130134860D01*
X128286023Y-130151516D01*
X128281446Y-130174529D01*
X128264983Y-130199165D01*
X128256485Y-130218414D01*
X128243337Y-130231561D01*
X128228607Y-130253607D01*
X128206561Y-130268337D01*
X128193414Y-130281485D01*
X128174165Y-130289983D01*
X128149529Y-130306446D01*
X128126516Y-130311023D01*
X128109860Y-130318378D01*
X128061111Y-130324032D01*
X128056250Y-130325000D01*
X127568750Y-130325000D01*
X127563888Y-130324032D01*
X127515139Y-130318378D01*
X127498481Y-130311023D01*
X127475471Y-130306446D01*
X127450836Y-130289985D01*
X127431585Y-130281485D01*
X127418435Y-130268335D01*
X127396393Y-130253607D01*
X127381664Y-130231564D01*
X127368514Y-130218414D01*
X127360013Y-130199161D01*
X127343554Y-130174529D01*
X127338977Y-130151520D01*
X127331621Y-130134860D01*
X127325964Y-130086099D01*
X127325000Y-130081250D01*
X127325000Y-129168750D01*
X127325964Y-129163900D01*
X127331621Y-129115139D01*
X127338977Y-129098477D01*
X127343554Y-129075471D01*
X127360011Y-129050840D01*
X127368514Y-129031585D01*
X127381666Y-129018432D01*
X127396393Y-128996393D01*
X127418432Y-128981666D01*
X127431585Y-128968514D01*
X127450840Y-128960011D01*
X127475471Y-128943554D01*
X127498477Y-128938977D01*
X127515139Y-128931621D01*
X127563901Y-128925964D01*
X127568750Y-128925000D01*
X128056250Y-128925000D01*
X128061100Y-128925964D01*
G37*
G36*
X129936100Y-128925964D02*
G01*
X129984860Y-128931621D01*
X130001520Y-128938977D01*
X130024529Y-128943554D01*
X130049161Y-128960013D01*
X130068414Y-128968514D01*
X130081564Y-128981664D01*
X130103607Y-128996393D01*
X130118335Y-129018435D01*
X130131485Y-129031585D01*
X130139985Y-129050836D01*
X130156446Y-129075471D01*
X130161023Y-129098481D01*
X130168378Y-129115139D01*
X130174033Y-129163889D01*
X130175000Y-129168750D01*
X130175000Y-130081250D01*
X130174032Y-130086112D01*
X130168378Y-130134860D01*
X130161023Y-130151516D01*
X130156446Y-130174529D01*
X130139983Y-130199165D01*
X130131485Y-130218414D01*
X130118337Y-130231561D01*
X130103607Y-130253607D01*
X130081561Y-130268337D01*
X130068414Y-130281485D01*
X130049165Y-130289983D01*
X130024529Y-130306446D01*
X130001516Y-130311023D01*
X129984860Y-130318378D01*
X129936111Y-130324032D01*
X129931250Y-130325000D01*
X129443750Y-130325000D01*
X129438888Y-130324032D01*
X129390139Y-130318378D01*
X129373481Y-130311023D01*
X129350471Y-130306446D01*
X129325836Y-130289985D01*
X129306585Y-130281485D01*
X129293435Y-130268335D01*
X129271393Y-130253607D01*
X129256664Y-130231564D01*
X129243514Y-130218414D01*
X129235013Y-130199161D01*
X129218554Y-130174529D01*
X129213977Y-130151520D01*
X129206621Y-130134860D01*
X129200964Y-130086099D01*
X129200000Y-130081250D01*
X129200000Y-129168750D01*
X129200964Y-129163900D01*
X129206621Y-129115139D01*
X129213977Y-129098477D01*
X129218554Y-129075471D01*
X129235011Y-129050840D01*
X129243514Y-129031585D01*
X129256666Y-129018432D01*
X129271393Y-128996393D01*
X129293432Y-128981666D01*
X129306585Y-128968514D01*
X129325840Y-128960011D01*
X129350471Y-128943554D01*
X129373477Y-128938977D01*
X129390139Y-128931621D01*
X129438901Y-128925964D01*
X129443750Y-128925000D01*
X129931250Y-128925000D01*
X129936100Y-128925964D01*
G37*
G36*
X110225000Y-130100000D02*
G01*
X108775000Y-130100000D01*
X108775000Y-128950000D01*
X110225000Y-128950000D01*
X110225000Y-130100000D01*
G37*
G36*
X92270000Y-129725000D02*
G01*
X90570000Y-129725000D01*
X90570000Y-128025000D01*
X92270000Y-128025000D01*
X92270000Y-129725000D01*
G37*
G36*
X122100000Y-129725000D02*
G01*
X120400000Y-129725000D01*
X120400000Y-128025000D01*
X122100000Y-128025000D01*
X122100000Y-129725000D01*
G37*
G36*
X94222664Y-128066602D02*
G01*
X94385000Y-128138878D01*
X94528761Y-128243327D01*
X94647664Y-128375383D01*
X94736514Y-128529274D01*
X94791425Y-128698275D01*
X94810000Y-128875000D01*
X94791425Y-129051725D01*
X94736514Y-129220726D01*
X94647664Y-129374617D01*
X94528761Y-129506673D01*
X94385000Y-129611122D01*
X94222664Y-129683398D01*
X94048849Y-129720344D01*
X93871151Y-129720344D01*
X93697336Y-129683398D01*
X93535000Y-129611122D01*
X93391239Y-129506673D01*
X93272336Y-129374617D01*
X93183486Y-129220726D01*
X93128575Y-129051725D01*
X93110000Y-128875000D01*
X93128575Y-128698275D01*
X93183486Y-128529274D01*
X93272336Y-128375383D01*
X93391239Y-128243327D01*
X93535000Y-128138878D01*
X93697336Y-128066602D01*
X93871151Y-128029656D01*
X94048849Y-128029656D01*
X94222664Y-128066602D01*
G37*
G36*
X96762664Y-128066602D02*
G01*
X96925000Y-128138878D01*
X97068761Y-128243327D01*
X97187664Y-128375383D01*
X97276514Y-128529274D01*
X97331425Y-128698275D01*
X97350000Y-128875000D01*
X97331425Y-129051725D01*
X97276514Y-129220726D01*
X97187664Y-129374617D01*
X97068761Y-129506673D01*
X96925000Y-129611122D01*
X96762664Y-129683398D01*
X96588849Y-129720344D01*
X96411151Y-129720344D01*
X96237336Y-129683398D01*
X96075000Y-129611122D01*
X95931239Y-129506673D01*
X95812336Y-129374617D01*
X95723486Y-129220726D01*
X95668575Y-129051725D01*
X95650000Y-128875000D01*
X95668575Y-128698275D01*
X95723486Y-128529274D01*
X95812336Y-128375383D01*
X95931239Y-128243327D01*
X96075000Y-128138878D01*
X96237336Y-128066602D01*
X96411151Y-128029656D01*
X96588849Y-128029656D01*
X96762664Y-128066602D01*
G37*
G36*
X112475000Y-129650000D02*
G01*
X111025000Y-129650000D01*
X111025000Y-128500000D01*
X112475000Y-128500000D01*
X112475000Y-129650000D01*
G37*
G36*
X115691852Y-128438173D02*
G01*
X114631192Y-129498833D01*
X114206928Y-129074569D01*
X114987407Y-128294090D01*
X115263411Y-128018085D01*
X115263414Y-128018082D01*
X115267588Y-128013909D01*
X115691852Y-128438173D01*
G37*
G36*
X117742462Y-129074569D02*
G01*
X117318198Y-129498833D01*
X116257538Y-128438173D01*
X116556833Y-128138878D01*
X116677627Y-128018083D01*
X116677630Y-128018080D01*
X116681802Y-128013909D01*
X117742462Y-129074569D01*
G37*
G36*
X101012664Y-127726602D02*
G01*
X101175000Y-127798878D01*
X101318761Y-127903327D01*
X101437664Y-128035383D01*
X101526514Y-128189274D01*
X101581425Y-128358275D01*
X101600000Y-128535000D01*
X101581425Y-128711725D01*
X101526514Y-128880726D01*
X101437664Y-129034617D01*
X101318761Y-129166673D01*
X101175000Y-129271122D01*
X101012664Y-129343398D01*
X100838849Y-129380344D01*
X100661151Y-129380344D01*
X100487336Y-129343398D01*
X100325000Y-129271122D01*
X100181239Y-129166673D01*
X100062336Y-129034617D01*
X99973486Y-128880726D01*
X99918575Y-128711725D01*
X99900000Y-128535000D01*
X99918575Y-128358275D01*
X99973486Y-128189274D01*
X100062336Y-128035383D01*
X100181239Y-127903327D01*
X100325000Y-127798878D01*
X100487336Y-127726602D01*
X100661151Y-127689656D01*
X100838849Y-127689656D01*
X101012664Y-127726602D01*
G37*
G36*
X115126167Y-127872487D02*
G01*
X114065507Y-128933147D01*
X113641243Y-128508883D01*
X114423524Y-127726602D01*
X114697726Y-127452399D01*
X114697729Y-127452396D01*
X114701903Y-127448223D01*
X115126167Y-127872487D01*
G37*
G36*
X118308147Y-128508883D02*
G01*
X117883883Y-128933147D01*
X116823223Y-127872487D01*
X117106265Y-127589445D01*
X117243312Y-127452397D01*
X117243315Y-127452394D01*
X117247487Y-127448223D01*
X118308147Y-128508883D01*
G37*
G36*
X131970000Y-128900000D02*
G01*
X131030000Y-128900000D01*
X131030000Y-128150000D01*
X131970000Y-128150000D01*
X131970000Y-128900000D01*
G37*
G36*
X134550000Y-128775000D02*
G01*
X132550000Y-128775000D01*
X132550000Y-127775000D01*
X134550000Y-127775000D01*
X134550000Y-128775000D01*
G37*
G36*
X137650493Y-127137239D02*
G01*
X137789242Y-127210060D01*
X137906532Y-127313970D01*
X137995546Y-127442930D01*
X138051112Y-127589445D01*
X138070000Y-127745000D01*
X138051112Y-127900555D01*
X137995546Y-128047070D01*
X137906532Y-128176030D01*
X137789242Y-128279940D01*
X137650493Y-128352761D01*
X137498349Y-128390261D01*
X137341651Y-128390261D01*
X137189507Y-128352761D01*
X137050758Y-128279940D01*
X136933468Y-128176030D01*
X136844454Y-128047070D01*
X136788888Y-127900555D01*
X136770000Y-127745000D01*
X136788888Y-127589445D01*
X136844454Y-127442930D01*
X136933468Y-127313970D01*
X137050758Y-127210060D01*
X137189507Y-127137239D01*
X137341651Y-127099739D01*
X137498349Y-127099739D01*
X137650493Y-127137239D01*
G37*
G36*
X140190493Y-127137239D02*
G01*
X140329242Y-127210060D01*
X140446532Y-127313970D01*
X140535546Y-127442930D01*
X140591112Y-127589445D01*
X140610000Y-127745000D01*
X140591112Y-127900555D01*
X140535546Y-128047070D01*
X140446532Y-128176030D01*
X140329242Y-128279940D01*
X140190493Y-128352761D01*
X140038349Y-128390261D01*
X139881651Y-128390261D01*
X139729507Y-128352761D01*
X139590758Y-128279940D01*
X139473468Y-128176030D01*
X139384454Y-128047070D01*
X139328888Y-127900555D01*
X139310000Y-127745000D01*
X139328888Y-127589445D01*
X139384454Y-127442930D01*
X139473468Y-127313970D01*
X139590758Y-127210060D01*
X139729507Y-127137239D01*
X139881651Y-127099739D01*
X140038349Y-127099739D01*
X140190493Y-127137239D01*
G37*
G36*
X142730493Y-127137239D02*
G01*
X142869242Y-127210060D01*
X142986532Y-127313970D01*
X143075546Y-127442930D01*
X143131112Y-127589445D01*
X143150000Y-127745000D01*
X143131112Y-127900555D01*
X143075546Y-128047070D01*
X142986532Y-128176030D01*
X142869242Y-128279940D01*
X142730493Y-128352761D01*
X142578349Y-128390261D01*
X142421651Y-128390261D01*
X142269507Y-128352761D01*
X142130758Y-128279940D01*
X142013468Y-128176030D01*
X141924454Y-128047070D01*
X141868888Y-127900555D01*
X141850000Y-127745000D01*
X141868888Y-127589445D01*
X141924454Y-127442930D01*
X142013468Y-127313970D01*
X142130758Y-127210060D01*
X142269507Y-127137239D01*
X142421651Y-127099739D01*
X142578349Y-127099739D01*
X142730493Y-127137239D01*
G37*
G36*
X114560481Y-127306802D02*
G01*
X113499821Y-128367462D01*
X113075557Y-127943198D01*
X113868755Y-127150000D01*
X114132040Y-126886714D01*
X114132043Y-126886711D01*
X114136217Y-126882538D01*
X114560481Y-127306802D01*
G37*
G36*
X118873833Y-127943198D02*
G01*
X118449569Y-128367462D01*
X117388909Y-127306802D01*
X117601041Y-127094669D01*
X117808998Y-126886712D01*
X117809001Y-126886709D01*
X117813173Y-126882538D01*
X118873833Y-127943198D01*
G37*
G36*
X110225000Y-128300000D02*
G01*
X108775000Y-128300000D01*
X108775000Y-127150000D01*
X110225000Y-127150000D01*
X110225000Y-128300000D01*
G37*
G36*
X126000000Y-127875000D02*
G01*
X124500000Y-127875000D01*
X124500000Y-126375000D01*
X126000000Y-126375000D01*
X126000000Y-127875000D01*
G37*
G36*
X129916891Y-126393804D02*
G01*
X130075413Y-126449273D01*
X130217617Y-126538626D01*
X130336374Y-126657383D01*
X130425727Y-126799587D01*
X130481196Y-126958109D01*
X130500000Y-127125000D01*
X130481196Y-127291891D01*
X130425727Y-127450413D01*
X130336374Y-127592617D01*
X130217617Y-127711374D01*
X130075413Y-127800727D01*
X129916891Y-127856196D01*
X129750000Y-127875000D01*
X129583109Y-127856196D01*
X129424587Y-127800727D01*
X129282383Y-127711374D01*
X129163626Y-127592617D01*
X129074273Y-127450413D01*
X129018804Y-127291891D01*
X129000000Y-127125000D01*
X129018804Y-126958109D01*
X129074273Y-126799587D01*
X129163626Y-126657383D01*
X129282383Y-126538626D01*
X129424587Y-126449273D01*
X129583109Y-126393804D01*
X129750000Y-126375000D01*
X129916891Y-126393804D01*
G37*
G36*
X113994796Y-126741117D02*
G01*
X112934136Y-127801777D01*
X112509872Y-127377513D01*
X113260959Y-126626426D01*
X113566355Y-126321029D01*
X113566358Y-126321026D01*
X113570532Y-126316853D01*
X113994796Y-126741117D01*
G37*
G36*
X119439518Y-127377513D02*
G01*
X119015254Y-127801777D01*
X117954594Y-126741117D01*
X118246438Y-126449273D01*
X118374683Y-126321027D01*
X118374686Y-126321024D01*
X118378858Y-126316853D01*
X119439518Y-127377513D01*
G37*
G36*
X134550000Y-127505000D02*
G01*
X132550000Y-127505000D01*
X132550000Y-126505000D01*
X134550000Y-126505000D01*
X134550000Y-127505000D01*
G37*
G36*
X131970000Y-127500000D02*
G01*
X131030000Y-127500000D01*
X131030000Y-126750000D01*
X131970000Y-126750000D01*
X131970000Y-127500000D01*
G37*
G36*
X113429110Y-126175431D02*
G01*
X112368450Y-127236091D01*
X111944186Y-126811827D01*
X112655472Y-126100541D01*
X113000669Y-125755343D01*
X113000672Y-125755340D01*
X113004846Y-125751167D01*
X113429110Y-126175431D01*
G37*
G36*
X120005204Y-126811827D02*
G01*
X119580940Y-127236091D01*
X118520280Y-126175431D01*
X118835307Y-125860404D01*
X118940369Y-125755341D01*
X118940372Y-125755338D01*
X118944544Y-125751167D01*
X120005204Y-126811827D01*
G37*
G36*
X101012664Y-125186602D02*
G01*
X101175000Y-125258878D01*
X101318761Y-125363327D01*
X101437664Y-125495383D01*
X101526514Y-125649274D01*
X101581425Y-125818275D01*
X101600000Y-125995000D01*
X101581425Y-126171725D01*
X101526514Y-126340726D01*
X101437664Y-126494617D01*
X101318761Y-126626673D01*
X101175000Y-126731122D01*
X101012664Y-126803398D01*
X100838849Y-126840344D01*
X100661151Y-126840344D01*
X100487336Y-126803398D01*
X100325000Y-126731122D01*
X100181239Y-126626673D01*
X100062336Y-126494617D01*
X99973486Y-126340726D01*
X99918575Y-126171725D01*
X99900000Y-125995000D01*
X99918575Y-125818275D01*
X99973486Y-125649274D01*
X100062336Y-125495383D01*
X100181239Y-125363327D01*
X100325000Y-125258878D01*
X100487336Y-125186602D01*
X100661151Y-125149656D01*
X100838849Y-125149656D01*
X101012664Y-125186602D01*
G37*
G36*
X112863425Y-125609746D02*
G01*
X111802765Y-126670406D01*
X111378501Y-126246142D01*
X112129260Y-125495383D01*
X112434984Y-125189658D01*
X112434987Y-125189655D01*
X112439161Y-125185482D01*
X112863425Y-125609746D01*
G37*
G36*
X120570889Y-126246142D02*
G01*
X120146625Y-126670406D01*
X119085965Y-125609746D01*
X119332384Y-125363327D01*
X119506054Y-125189656D01*
X119506057Y-125189653D01*
X119510229Y-125185482D01*
X120570889Y-126246142D01*
G37*
G36*
X134550000Y-126235000D02*
G01*
X132550000Y-126235000D01*
X132550000Y-125235000D01*
X134550000Y-125235000D01*
X134550000Y-126235000D01*
G37*
G36*
X112297740Y-125044060D02*
G01*
X111237080Y-126104720D01*
X110812816Y-125680456D01*
X111534182Y-124959090D01*
X111869299Y-124623972D01*
X111869302Y-124623969D01*
X111873476Y-124619796D01*
X112297740Y-125044060D01*
G37*
G36*
X121136574Y-125680456D02*
G01*
X120712310Y-126104720D01*
X119651650Y-125044060D01*
X119863782Y-124831926D01*
X120071739Y-124623970D01*
X120071742Y-124623967D01*
X120075914Y-124619796D01*
X121136574Y-125680456D01*
G37*
G36*
X88446066Y-123889311D02*
G01*
X88634597Y-123946501D01*
X88808348Y-124039373D01*
X88960642Y-124164358D01*
X89085627Y-124316652D01*
X89178499Y-124490403D01*
X89235689Y-124678934D01*
X89255000Y-124875000D01*
X89235689Y-125071066D01*
X89178499Y-125259597D01*
X89085627Y-125433348D01*
X88960642Y-125585642D01*
X88808348Y-125710627D01*
X88634597Y-125803499D01*
X88446066Y-125860689D01*
X88250000Y-125880000D01*
X88053934Y-125860689D01*
X87865403Y-125803499D01*
X87691652Y-125710627D01*
X87539358Y-125585642D01*
X87414373Y-125433348D01*
X87321501Y-125259597D01*
X87264311Y-125071066D01*
X87245000Y-124875000D01*
X87264311Y-124678934D01*
X87321501Y-124490403D01*
X87414373Y-124316652D01*
X87539358Y-124164358D01*
X87691652Y-124039373D01*
X87865403Y-123946501D01*
X88053934Y-123889311D01*
X88250000Y-123870000D01*
X88446066Y-123889311D01*
G37*
G36*
X92246066Y-123889311D02*
G01*
X92434597Y-123946501D01*
X92608348Y-124039373D01*
X92760642Y-124164358D01*
X92885627Y-124316652D01*
X92978499Y-124490403D01*
X93035689Y-124678934D01*
X93055000Y-124875000D01*
X93035689Y-125071066D01*
X92978499Y-125259597D01*
X92885627Y-125433348D01*
X92760642Y-125585642D01*
X92608348Y-125710627D01*
X92434597Y-125803499D01*
X92246066Y-125860689D01*
X92050000Y-125880000D01*
X91853934Y-125860689D01*
X91665403Y-125803499D01*
X91491652Y-125710627D01*
X91339358Y-125585642D01*
X91214373Y-125433348D01*
X91121501Y-125259597D01*
X91064311Y-125071066D01*
X91045000Y-124875000D01*
X91064311Y-124678934D01*
X91121501Y-124490403D01*
X91214373Y-124316652D01*
X91339358Y-124164358D01*
X91491652Y-124039373D01*
X91665403Y-123946501D01*
X91853934Y-123889311D01*
X92050000Y-123870000D01*
X92246066Y-123889311D01*
G37*
G36*
X111732054Y-124478375D02*
G01*
X110671394Y-125539035D01*
X110247130Y-125114771D01*
X110887702Y-124474199D01*
X111303613Y-124058287D01*
X111303616Y-124058284D01*
X111307790Y-124054111D01*
X111732054Y-124478375D01*
G37*
G36*
X121702260Y-125114771D02*
G01*
X121277996Y-125539035D01*
X120217336Y-124478375D01*
X120531353Y-124164358D01*
X120637425Y-124058285D01*
X120637428Y-124058282D01*
X120641600Y-124054111D01*
X121702260Y-125114771D01*
G37*
G36*
X134550000Y-124965000D02*
G01*
X132550000Y-124965000D01*
X132550000Y-123965000D01*
X134550000Y-123965000D01*
X134550000Y-124965000D01*
G37*
G36*
X101012664Y-122646602D02*
G01*
X101175000Y-122718878D01*
X101318761Y-122823327D01*
X101437664Y-122955383D01*
X101526514Y-123109274D01*
X101581425Y-123278275D01*
X101600000Y-123455000D01*
X101581425Y-123631725D01*
X101526514Y-123800726D01*
X101437664Y-123954617D01*
X101318761Y-124086673D01*
X101175000Y-124191122D01*
X101012664Y-124263398D01*
X100838849Y-124300344D01*
X100661151Y-124300344D01*
X100487336Y-124263398D01*
X100325000Y-124191122D01*
X100181239Y-124086673D01*
X100062336Y-123954617D01*
X99973486Y-123800726D01*
X99918575Y-123631725D01*
X99900000Y-123455000D01*
X99918575Y-123278275D01*
X99973486Y-123109274D01*
X100062336Y-122955383D01*
X100181239Y-122823327D01*
X100325000Y-122718878D01*
X100487336Y-122646602D01*
X100661151Y-122609656D01*
X100838849Y-122609656D01*
X101012664Y-122646602D01*
G37*
G36*
X134550000Y-123695000D02*
G01*
X132550000Y-123695000D01*
X132550000Y-122695000D01*
X134550000Y-122695000D01*
X134550000Y-123695000D01*
G37*
G36*
X111732054Y-123064161D02*
G01*
X111307790Y-123488425D01*
X110247130Y-122427765D01*
X110459263Y-122215631D01*
X110667219Y-122007675D01*
X110667222Y-122007672D01*
X110671394Y-122003501D01*
X111732054Y-123064161D01*
G37*
G36*
X121702260Y-122427765D02*
G01*
X120641600Y-123488425D01*
X120217336Y-123064161D01*
X120959964Y-122321533D01*
X121273819Y-122007677D01*
X121273822Y-122007674D01*
X121277996Y-122003501D01*
X121702260Y-122427765D01*
G37*
G36*
X112297740Y-122498476D02*
G01*
X111873476Y-122922740D01*
X110812816Y-121862080D01*
X111128470Y-121546426D01*
X111232905Y-121441990D01*
X111232908Y-121441987D01*
X111237080Y-121437816D01*
X112297740Y-122498476D01*
G37*
G36*
X121136574Y-121862080D02*
G01*
X120075914Y-122922740D01*
X119651650Y-122498476D01*
X120427043Y-121723083D01*
X120708133Y-121441992D01*
X120708136Y-121441989D01*
X120712310Y-121437816D01*
X121136574Y-121862080D01*
G37*
G36*
X88354850Y-121175964D02*
G01*
X88405040Y-121181787D01*
X88422189Y-121189359D01*
X88445671Y-121194030D01*
X88470810Y-121210827D01*
X88490696Y-121219608D01*
X88504277Y-121233189D01*
X88526777Y-121248223D01*
X88541810Y-121270722D01*
X88555391Y-121284303D01*
X88564170Y-121304186D01*
X88580970Y-121329329D01*
X88585641Y-121352812D01*
X88593212Y-121369959D01*
X88599033Y-121420139D01*
X88600000Y-121425000D01*
X88600000Y-122325000D01*
X88599032Y-122329863D01*
X88593212Y-122380040D01*
X88585641Y-122397185D01*
X88580970Y-122420671D01*
X88564169Y-122445815D01*
X88555391Y-122465696D01*
X88541812Y-122479274D01*
X88526777Y-122501777D01*
X88504274Y-122516812D01*
X88490696Y-122530391D01*
X88470815Y-122539169D01*
X88445671Y-122555970D01*
X88422185Y-122560641D01*
X88405040Y-122568212D01*
X88354861Y-122574032D01*
X88350000Y-122575000D01*
X87650000Y-122575000D01*
X87645138Y-122574032D01*
X87594959Y-122568212D01*
X87577812Y-122560641D01*
X87554329Y-122555970D01*
X87529186Y-122539170D01*
X87509303Y-122530391D01*
X87495722Y-122516810D01*
X87473223Y-122501777D01*
X87458189Y-122479277D01*
X87444608Y-122465696D01*
X87435827Y-122445810D01*
X87419030Y-122420671D01*
X87414359Y-122397189D01*
X87406787Y-122380040D01*
X87400964Y-122329849D01*
X87400000Y-122325000D01*
X87400000Y-121425000D01*
X87400964Y-121420150D01*
X87406787Y-121369959D01*
X87414359Y-121352808D01*
X87419030Y-121329329D01*
X87435826Y-121304191D01*
X87444608Y-121284303D01*
X87458191Y-121270719D01*
X87473223Y-121248223D01*
X87495719Y-121233191D01*
X87509303Y-121219608D01*
X87529191Y-121210826D01*
X87554329Y-121194030D01*
X87577808Y-121189359D01*
X87594959Y-121181787D01*
X87645151Y-121175964D01*
X87650000Y-121175000D01*
X88350000Y-121175000D01*
X88354850Y-121175964D01*
G37*
G36*
X90354850Y-121175964D02*
G01*
X90405040Y-121181787D01*
X90422189Y-121189359D01*
X90445671Y-121194030D01*
X90470810Y-121210827D01*
X90490696Y-121219608D01*
X90504277Y-121233189D01*
X90526777Y-121248223D01*
X90541810Y-121270722D01*
X90555391Y-121284303D01*
X90564170Y-121304186D01*
X90580970Y-121329329D01*
X90585641Y-121352812D01*
X90593212Y-121369959D01*
X90599033Y-121420139D01*
X90600000Y-121425000D01*
X90600000Y-122325000D01*
X90599032Y-122329863D01*
X90593212Y-122380040D01*
X90585641Y-122397185D01*
X90580970Y-122420671D01*
X90564169Y-122445815D01*
X90555391Y-122465696D01*
X90541812Y-122479274D01*
X90526777Y-122501777D01*
X90504274Y-122516812D01*
X90490696Y-122530391D01*
X90470815Y-122539169D01*
X90445671Y-122555970D01*
X90422185Y-122560641D01*
X90405040Y-122568212D01*
X90354861Y-122574032D01*
X90350000Y-122575000D01*
X89650000Y-122575000D01*
X89645138Y-122574032D01*
X89594959Y-122568212D01*
X89577812Y-122560641D01*
X89554329Y-122555970D01*
X89529186Y-122539170D01*
X89509303Y-122530391D01*
X89495722Y-122516810D01*
X89473223Y-122501777D01*
X89458189Y-122479277D01*
X89444608Y-122465696D01*
X89435827Y-122445810D01*
X89419030Y-122420671D01*
X89414359Y-122397189D01*
X89406787Y-122380040D01*
X89400964Y-122329849D01*
X89400000Y-122325000D01*
X89400000Y-121425000D01*
X89400964Y-121420150D01*
X89406787Y-121369959D01*
X89414359Y-121352808D01*
X89419030Y-121329329D01*
X89435826Y-121304191D01*
X89444608Y-121284303D01*
X89458191Y-121270719D01*
X89473223Y-121248223D01*
X89495719Y-121233191D01*
X89509303Y-121219608D01*
X89529191Y-121210826D01*
X89554329Y-121194030D01*
X89577808Y-121189359D01*
X89594959Y-121181787D01*
X89645151Y-121175964D01*
X89650000Y-121175000D01*
X90350000Y-121175000D01*
X90354850Y-121175964D01*
G37*
G36*
X134550000Y-122425000D02*
G01*
X132550000Y-122425000D01*
X132550000Y-121425000D01*
X134550000Y-121425000D01*
X134550000Y-122425000D01*
G37*
G36*
X112863425Y-121932790D02*
G01*
X112439161Y-122357054D01*
X111378501Y-121296394D01*
X111590634Y-121084260D01*
X111798590Y-120876304D01*
X111798593Y-120876301D01*
X111802765Y-120872130D01*
X112863425Y-121932790D01*
G37*
G36*
X120570889Y-121296394D02*
G01*
X119510229Y-122357054D01*
X119085965Y-121932790D01*
X119869665Y-121149090D01*
X120142448Y-120876306D01*
X120142451Y-120876303D01*
X120146625Y-120872130D01*
X120570889Y-121296394D01*
G37*
G36*
X113429110Y-121367105D02*
G01*
X113004846Y-121791369D01*
X111944186Y-120730709D01*
X112259512Y-120415383D01*
X112364275Y-120310619D01*
X112364278Y-120310616D01*
X112368450Y-120306445D01*
X113429110Y-121367105D01*
G37*
G36*
X120005204Y-120730709D02*
G01*
X118944544Y-121791369D01*
X118520280Y-121367105D01*
X119262386Y-120624999D01*
X119576763Y-120310621D01*
X119576766Y-120310618D01*
X119580940Y-120306445D01*
X120005204Y-120730709D01*
G37*
G36*
X101012664Y-120106602D02*
G01*
X101175000Y-120178878D01*
X101318761Y-120283327D01*
X101437664Y-120415383D01*
X101526514Y-120569274D01*
X101581425Y-120738275D01*
X101600000Y-120915000D01*
X101581425Y-121091725D01*
X101526514Y-121260726D01*
X101437664Y-121414617D01*
X101318761Y-121546673D01*
X101175000Y-121651122D01*
X101012664Y-121723398D01*
X100838849Y-121760344D01*
X100661151Y-121760344D01*
X100487336Y-121723398D01*
X100325000Y-121651122D01*
X100181239Y-121546673D01*
X100062336Y-121414617D01*
X99973486Y-121260726D01*
X99918575Y-121091725D01*
X99900000Y-120915000D01*
X99918575Y-120738275D01*
X99973486Y-120569274D01*
X100062336Y-120415383D01*
X100181239Y-120283327D01*
X100325000Y-120178878D01*
X100487336Y-120106602D01*
X100661151Y-120069656D01*
X100838849Y-120069656D01*
X101012664Y-120106602D01*
G37*
G36*
X106050000Y-121675000D02*
G01*
X103950000Y-121675000D01*
X103950000Y-116075000D01*
X106050000Y-116075000D01*
X106050000Y-121675000D01*
G37*
G36*
X125416891Y-119893804D02*
G01*
X125575413Y-119949273D01*
X125717617Y-120038626D01*
X125836374Y-120157383D01*
X125925727Y-120299587D01*
X125981196Y-120458109D01*
X126000000Y-120625000D01*
X125981196Y-120791891D01*
X125925727Y-120950413D01*
X125836374Y-121092617D01*
X125717617Y-121211374D01*
X125575413Y-121300727D01*
X125416891Y-121356196D01*
X125250000Y-121375000D01*
X125083109Y-121356196D01*
X124924587Y-121300727D01*
X124782383Y-121211374D01*
X124663626Y-121092617D01*
X124574273Y-120950413D01*
X124518804Y-120791891D01*
X124500000Y-120625000D01*
X124518804Y-120458109D01*
X124574273Y-120299587D01*
X124663626Y-120157383D01*
X124782383Y-120038626D01*
X124924587Y-119949273D01*
X125083109Y-119893804D01*
X125250000Y-119875000D01*
X125416891Y-119893804D01*
G37*
G36*
X129916891Y-119893804D02*
G01*
X130075413Y-119949273D01*
X130217617Y-120038626D01*
X130336374Y-120157383D01*
X130425727Y-120299587D01*
X130481196Y-120458109D01*
X130500000Y-120625000D01*
X130481196Y-120791891D01*
X130425727Y-120950413D01*
X130336374Y-121092617D01*
X130217617Y-121211374D01*
X130075413Y-121300727D01*
X129916891Y-121356196D01*
X129750000Y-121375000D01*
X129583109Y-121356196D01*
X129424587Y-121300727D01*
X129282383Y-121211374D01*
X129163626Y-121092617D01*
X129074273Y-120950413D01*
X129018804Y-120791891D01*
X129000000Y-120625000D01*
X129018804Y-120458109D01*
X129074273Y-120299587D01*
X129163626Y-120157383D01*
X129282383Y-120038626D01*
X129424587Y-119949273D01*
X129583109Y-119893804D01*
X129750000Y-119875000D01*
X129916891Y-119893804D01*
G37*
G36*
X113994796Y-120801419D02*
G01*
X113570532Y-121225683D01*
X112509872Y-120165023D01*
X112799895Y-119875000D01*
X112929961Y-119744933D01*
X112929964Y-119744930D01*
X112934136Y-119740759D01*
X113994796Y-120801419D01*
G37*
G36*
X119439518Y-120165023D02*
G01*
X118378858Y-121225683D01*
X117954594Y-120801419D01*
X118717387Y-120038626D01*
X119011077Y-119744935D01*
X119011080Y-119744932D01*
X119015254Y-119740759D01*
X119439518Y-120165023D01*
G37*
G36*
X134550000Y-121155000D02*
G01*
X132550000Y-121155000D01*
X132550000Y-120155000D01*
X134550000Y-120155000D01*
X134550000Y-121155000D01*
G37*
G36*
X110225000Y-120850000D02*
G01*
X108775000Y-120850000D01*
X108775000Y-119700000D01*
X110225000Y-119700000D01*
X110225000Y-120850000D01*
G37*
G36*
X137650493Y-119517239D02*
G01*
X137789242Y-119590060D01*
X137906532Y-119693970D01*
X137995546Y-119822930D01*
X138051112Y-119969445D01*
X138070000Y-120125000D01*
X138051112Y-120280555D01*
X137995546Y-120427070D01*
X137906532Y-120556030D01*
X137789242Y-120659940D01*
X137650493Y-120732761D01*
X137498349Y-120770261D01*
X137341651Y-120770261D01*
X137189507Y-120732761D01*
X137050758Y-120659940D01*
X136933468Y-120556030D01*
X136844454Y-120427070D01*
X136788888Y-120280555D01*
X136770000Y-120125000D01*
X136788888Y-119969445D01*
X136844454Y-119822930D01*
X136933468Y-119693970D01*
X137050758Y-119590060D01*
X137189507Y-119517239D01*
X137341651Y-119479739D01*
X137498349Y-119479739D01*
X137650493Y-119517239D01*
G37*
G36*
X140190493Y-119517239D02*
G01*
X140329242Y-119590060D01*
X140446532Y-119693970D01*
X140535546Y-119822930D01*
X140591112Y-119969445D01*
X140610000Y-120125000D01*
X140591112Y-120280555D01*
X140535546Y-120427070D01*
X140446532Y-120556030D01*
X140329242Y-120659940D01*
X140190493Y-120732761D01*
X140038349Y-120770261D01*
X139881651Y-120770261D01*
X139729507Y-120732761D01*
X139590758Y-120659940D01*
X139473468Y-120556030D01*
X139384454Y-120427070D01*
X139328888Y-120280555D01*
X139310000Y-120125000D01*
X139328888Y-119969445D01*
X139384454Y-119822930D01*
X139473468Y-119693970D01*
X139590758Y-119590060D01*
X139729507Y-119517239D01*
X139881651Y-119479739D01*
X140038349Y-119479739D01*
X140190493Y-119517239D01*
G37*
G36*
X142730493Y-119517239D02*
G01*
X142869242Y-119590060D01*
X142986532Y-119693970D01*
X143075546Y-119822930D01*
X143131112Y-119969445D01*
X143150000Y-120125000D01*
X143131112Y-120280555D01*
X143075546Y-120427070D01*
X142986532Y-120556030D01*
X142869242Y-120659940D01*
X142730493Y-120732761D01*
X142578349Y-120770261D01*
X142421651Y-120770261D01*
X142269507Y-120732761D01*
X142130758Y-120659940D01*
X142013468Y-120556030D01*
X141924454Y-120427070D01*
X141868888Y-120280555D01*
X141850000Y-120125000D01*
X141868888Y-119969445D01*
X141924454Y-119822930D01*
X142013468Y-119693970D01*
X142130758Y-119590060D01*
X142269507Y-119517239D01*
X142421651Y-119479739D01*
X142578349Y-119479739D01*
X142730493Y-119517239D01*
G37*
G36*
X114560481Y-120235734D02*
G01*
X114136217Y-120659998D01*
X113075557Y-119599338D01*
X113287690Y-119387204D01*
X113495646Y-119179248D01*
X113495649Y-119179245D01*
X113499821Y-119175074D01*
X114560481Y-120235734D01*
G37*
G36*
X118873833Y-119599338D02*
G01*
X117813173Y-120659998D01*
X117388909Y-120235734D01*
X118144904Y-119479739D01*
X118445392Y-119179250D01*
X118445395Y-119179247D01*
X118449569Y-119175074D01*
X118873833Y-119599338D01*
G37*
G36*
X122555635Y-119405330D02*
G01*
X121530330Y-120430635D01*
X120717157Y-119617462D01*
X121460196Y-118874423D01*
X121738285Y-118596333D01*
X121738288Y-118596330D01*
X121742462Y-118592157D01*
X122555635Y-119405330D01*
G37*
G36*
X115126167Y-119670049D02*
G01*
X114701903Y-120094313D01*
X113641243Y-119033653D01*
X113956482Y-118718414D01*
X114061332Y-118613563D01*
X114061335Y-118613560D01*
X114065507Y-118609389D01*
X115126167Y-119670049D01*
G37*
G36*
X118308147Y-119033653D02*
G01*
X117247487Y-120094313D01*
X116823223Y-119670049D01*
X117608272Y-118885000D01*
X117879706Y-118613565D01*
X117879709Y-118613562D01*
X117883883Y-118609389D01*
X118308147Y-119033653D01*
G37*
G36*
X134550000Y-119885000D02*
G01*
X132550000Y-119885000D01*
X132550000Y-118885000D01*
X134550000Y-118885000D01*
X134550000Y-119885000D01*
G37*
G36*
X88354850Y-118425964D02*
G01*
X88405040Y-118431787D01*
X88422189Y-118439359D01*
X88445671Y-118444030D01*
X88470810Y-118460827D01*
X88490696Y-118469608D01*
X88504277Y-118483189D01*
X88526777Y-118498223D01*
X88541810Y-118520722D01*
X88555391Y-118534303D01*
X88564170Y-118554186D01*
X88580970Y-118579329D01*
X88585641Y-118602812D01*
X88593212Y-118619959D01*
X88599033Y-118670139D01*
X88600000Y-118675000D01*
X88600000Y-119575000D01*
X88599032Y-119579863D01*
X88593212Y-119630040D01*
X88585641Y-119647185D01*
X88580970Y-119670671D01*
X88564169Y-119695815D01*
X88555391Y-119715696D01*
X88541812Y-119729274D01*
X88526777Y-119751777D01*
X88504274Y-119766812D01*
X88490696Y-119780391D01*
X88470815Y-119789169D01*
X88445671Y-119805970D01*
X88422185Y-119810641D01*
X88405040Y-119818212D01*
X88354861Y-119824032D01*
X88350000Y-119825000D01*
X87650000Y-119825000D01*
X87645138Y-119824032D01*
X87594959Y-119818212D01*
X87577812Y-119810641D01*
X87554329Y-119805970D01*
X87529186Y-119789170D01*
X87509303Y-119780391D01*
X87495722Y-119766810D01*
X87473223Y-119751777D01*
X87458189Y-119729277D01*
X87444608Y-119715696D01*
X87435827Y-119695810D01*
X87419030Y-119670671D01*
X87414359Y-119647189D01*
X87406787Y-119630040D01*
X87400964Y-119579849D01*
X87400000Y-119575000D01*
X87400000Y-118675000D01*
X87400964Y-118670150D01*
X87406787Y-118619959D01*
X87414359Y-118602808D01*
X87419030Y-118579329D01*
X87435826Y-118554191D01*
X87444608Y-118534303D01*
X87458191Y-118520719D01*
X87473223Y-118498223D01*
X87495719Y-118483191D01*
X87509303Y-118469608D01*
X87529191Y-118460826D01*
X87554329Y-118444030D01*
X87577808Y-118439359D01*
X87594959Y-118431787D01*
X87645151Y-118425964D01*
X87650000Y-118425000D01*
X88350000Y-118425000D01*
X88354850Y-118425964D01*
G37*
G36*
X90354850Y-118425964D02*
G01*
X90405040Y-118431787D01*
X90422189Y-118439359D01*
X90445671Y-118444030D01*
X90470810Y-118460827D01*
X90490696Y-118469608D01*
X90504277Y-118483189D01*
X90526777Y-118498223D01*
X90541810Y-118520722D01*
X90555391Y-118534303D01*
X90564170Y-118554186D01*
X90580970Y-118579329D01*
X90585641Y-118602812D01*
X90593212Y-118619959D01*
X90599033Y-118670139D01*
X90600000Y-118675000D01*
X90600000Y-119575000D01*
X90599032Y-119579863D01*
X90593212Y-119630040D01*
X90585641Y-119647185D01*
X90580970Y-119670671D01*
X90564169Y-119695815D01*
X90555391Y-119715696D01*
X90541812Y-119729274D01*
X90526777Y-119751777D01*
X90504274Y-119766812D01*
X90490696Y-119780391D01*
X90470815Y-119789169D01*
X90445671Y-119805970D01*
X90422185Y-119810641D01*
X90405040Y-119818212D01*
X90354861Y-119824032D01*
X90350000Y-119825000D01*
X89650000Y-119825000D01*
X89645138Y-119824032D01*
X89594959Y-119818212D01*
X89577812Y-119810641D01*
X89554329Y-119805970D01*
X89529186Y-119789170D01*
X89509303Y-119780391D01*
X89495722Y-119766810D01*
X89473223Y-119751777D01*
X89458189Y-119729277D01*
X89444608Y-119715696D01*
X89435827Y-119695810D01*
X89419030Y-119670671D01*
X89414359Y-119647189D01*
X89406787Y-119630040D01*
X89400964Y-119579849D01*
X89400000Y-119575000D01*
X89400000Y-118675000D01*
X89400964Y-118670150D01*
X89406787Y-118619959D01*
X89414359Y-118602808D01*
X89419030Y-118579329D01*
X89435826Y-118554191D01*
X89444608Y-118534303D01*
X89458191Y-118520719D01*
X89473223Y-118498223D01*
X89495719Y-118483191D01*
X89509303Y-118469608D01*
X89529191Y-118460826D01*
X89554329Y-118444030D01*
X89577808Y-118439359D01*
X89594959Y-118431787D01*
X89645151Y-118425964D01*
X89650000Y-118425000D01*
X90350000Y-118425000D01*
X90354850Y-118425964D01*
G37*
G36*
X115691852Y-119104363D02*
G01*
X115267588Y-119528627D01*
X114206928Y-118467967D01*
X114476620Y-118198275D01*
X114627017Y-118047877D01*
X114627020Y-118047874D01*
X114631192Y-118043703D01*
X115691852Y-119104363D01*
G37*
G36*
X117742462Y-118467967D02*
G01*
X116681802Y-119528627D01*
X116257538Y-119104363D01*
X117021408Y-118340493D01*
X117314021Y-118047879D01*
X117314024Y-118047876D01*
X117318198Y-118043703D01*
X117742462Y-118467967D01*
G37*
G36*
X101012664Y-117566602D02*
G01*
X101175000Y-117638878D01*
X101318761Y-117743327D01*
X101437664Y-117875383D01*
X101526514Y-118029274D01*
X101581425Y-118198275D01*
X101600000Y-118375000D01*
X101581425Y-118551725D01*
X101526514Y-118720726D01*
X101437664Y-118874617D01*
X101318761Y-119006673D01*
X101175000Y-119111122D01*
X101012664Y-119183398D01*
X100838849Y-119220344D01*
X100661151Y-119220344D01*
X100487336Y-119183398D01*
X100325000Y-119111122D01*
X100181239Y-119006673D01*
X100062336Y-118874617D01*
X99973486Y-118720726D01*
X99918575Y-118551725D01*
X99900000Y-118375000D01*
X99918575Y-118198275D01*
X99973486Y-118029274D01*
X100062336Y-117875383D01*
X100181239Y-117743327D01*
X100325000Y-117638878D01*
X100487336Y-117566602D01*
X100661151Y-117529656D01*
X100838849Y-117529656D01*
X101012664Y-117566602D01*
G37*
G36*
X121282843Y-118132538D02*
G01*
X120257538Y-119157843D01*
X119444365Y-118344670D01*
X120209706Y-117579329D01*
X120465493Y-117323541D01*
X120465496Y-117323538D01*
X120469670Y-117319365D01*
X121282843Y-118132538D01*
G37*
G36*
X110225000Y-119050000D02*
G01*
X108775000Y-119050000D01*
X108775000Y-117900000D01*
X110225000Y-117900000D01*
X110225000Y-119050000D01*
G37*
G36*
X124354850Y-117425964D02*
G01*
X124405040Y-117431787D01*
X124422189Y-117439359D01*
X124445671Y-117444030D01*
X124470810Y-117460827D01*
X124490696Y-117469608D01*
X124504277Y-117483189D01*
X124526777Y-117498223D01*
X124541810Y-117520722D01*
X124555391Y-117534303D01*
X124564170Y-117554186D01*
X124580970Y-117579329D01*
X124585641Y-117602812D01*
X124593212Y-117619959D01*
X124599033Y-117670139D01*
X124600000Y-117675000D01*
X124600000Y-118575000D01*
X124599032Y-118579863D01*
X124593212Y-118630040D01*
X124585641Y-118647185D01*
X124580970Y-118670671D01*
X124564169Y-118695815D01*
X124555391Y-118715696D01*
X124541812Y-118729274D01*
X124526777Y-118751777D01*
X124504274Y-118766812D01*
X124490696Y-118780391D01*
X124470815Y-118789169D01*
X124445671Y-118805970D01*
X124422185Y-118810641D01*
X124405040Y-118818212D01*
X124354861Y-118824032D01*
X124350000Y-118825000D01*
X123650000Y-118825000D01*
X123645138Y-118824032D01*
X123594959Y-118818212D01*
X123577812Y-118810641D01*
X123554329Y-118805970D01*
X123529186Y-118789170D01*
X123509303Y-118780391D01*
X123495722Y-118766810D01*
X123473223Y-118751777D01*
X123458189Y-118729277D01*
X123444608Y-118715696D01*
X123435827Y-118695810D01*
X123419030Y-118670671D01*
X123414359Y-118647189D01*
X123406787Y-118630040D01*
X123400964Y-118579849D01*
X123400000Y-118575000D01*
X123400000Y-117675000D01*
X123400964Y-117670150D01*
X123406787Y-117619959D01*
X123414359Y-117602808D01*
X123419030Y-117579329D01*
X123435826Y-117554191D01*
X123444608Y-117534303D01*
X123458191Y-117520719D01*
X123473223Y-117498223D01*
X123495719Y-117483191D01*
X123509303Y-117469608D01*
X123529191Y-117460826D01*
X123554329Y-117444030D01*
X123577808Y-117439359D01*
X123594959Y-117431787D01*
X123645151Y-117425964D01*
X123650000Y-117425000D01*
X124350000Y-117425000D01*
X124354850Y-117425964D01*
G37*
G36*
X126354850Y-117425964D02*
G01*
X126405040Y-117431787D01*
X126422189Y-117439359D01*
X126445671Y-117444030D01*
X126470810Y-117460827D01*
X126490696Y-117469608D01*
X126504277Y-117483189D01*
X126526777Y-117498223D01*
X126541810Y-117520722D01*
X126555391Y-117534303D01*
X126564170Y-117554186D01*
X126580970Y-117579329D01*
X126585641Y-117602812D01*
X126593212Y-117619959D01*
X126599033Y-117670139D01*
X126600000Y-117675000D01*
X126600000Y-118575000D01*
X126599032Y-118579863D01*
X126593212Y-118630040D01*
X126585641Y-118647185D01*
X126580970Y-118670671D01*
X126564169Y-118695815D01*
X126555391Y-118715696D01*
X126541812Y-118729274D01*
X126526777Y-118751777D01*
X126504274Y-118766812D01*
X126490696Y-118780391D01*
X126470815Y-118789169D01*
X126445671Y-118805970D01*
X126422185Y-118810641D01*
X126405040Y-118818212D01*
X126354861Y-118824032D01*
X126350000Y-118825000D01*
X125650000Y-118825000D01*
X125645138Y-118824032D01*
X125594959Y-118818212D01*
X125577812Y-118810641D01*
X125554329Y-118805970D01*
X125529186Y-118789170D01*
X125509303Y-118780391D01*
X125495722Y-118766810D01*
X125473223Y-118751777D01*
X125458189Y-118729277D01*
X125444608Y-118715696D01*
X125435827Y-118695810D01*
X125419030Y-118670671D01*
X125414359Y-118647189D01*
X125406787Y-118630040D01*
X125400964Y-118579849D01*
X125400000Y-118575000D01*
X125400000Y-117675000D01*
X125400964Y-117670150D01*
X125406787Y-117619959D01*
X125414359Y-117602808D01*
X125419030Y-117579329D01*
X125435826Y-117554191D01*
X125444608Y-117534303D01*
X125458191Y-117520719D01*
X125473223Y-117498223D01*
X125495719Y-117483191D01*
X125509303Y-117469608D01*
X125529191Y-117460826D01*
X125554329Y-117444030D01*
X125577808Y-117439359D01*
X125594959Y-117431787D01*
X125645151Y-117425964D01*
X125650000Y-117425000D01*
X126350000Y-117425000D01*
X126354850Y-117425964D01*
G37*
G36*
X127998600Y-117425964D02*
G01*
X128047360Y-117431621D01*
X128064020Y-117438977D01*
X128087029Y-117443554D01*
X128111661Y-117460013D01*
X128130914Y-117468514D01*
X128144064Y-117481664D01*
X128166107Y-117496393D01*
X128180835Y-117518435D01*
X128193985Y-117531585D01*
X128202485Y-117550836D01*
X128218946Y-117575471D01*
X128223523Y-117598481D01*
X128230878Y-117615139D01*
X128236533Y-117663889D01*
X128237500Y-117668750D01*
X128237500Y-118581250D01*
X128236532Y-118586112D01*
X128230878Y-118634860D01*
X128223523Y-118651516D01*
X128218946Y-118674529D01*
X128202483Y-118699165D01*
X128193985Y-118718414D01*
X128180837Y-118731561D01*
X128166107Y-118753607D01*
X128144061Y-118768337D01*
X128130914Y-118781485D01*
X128111665Y-118789983D01*
X128087029Y-118806446D01*
X128064016Y-118811023D01*
X128047360Y-118818378D01*
X127998611Y-118824032D01*
X127993750Y-118825000D01*
X127506250Y-118825000D01*
X127501388Y-118824032D01*
X127452639Y-118818378D01*
X127435981Y-118811023D01*
X127412971Y-118806446D01*
X127388336Y-118789985D01*
X127369085Y-118781485D01*
X127355935Y-118768335D01*
X127333893Y-118753607D01*
X127319164Y-118731564D01*
X127306014Y-118718414D01*
X127297513Y-118699161D01*
X127281054Y-118674529D01*
X127276477Y-118651520D01*
X127269121Y-118634860D01*
X127263464Y-118586099D01*
X127262500Y-118581250D01*
X127262500Y-117668750D01*
X127263464Y-117663900D01*
X127269121Y-117615139D01*
X127276477Y-117598477D01*
X127281054Y-117575471D01*
X127297511Y-117550840D01*
X127306014Y-117531585D01*
X127319166Y-117518432D01*
X127333893Y-117496393D01*
X127355932Y-117481666D01*
X127369085Y-117468514D01*
X127388340Y-117460011D01*
X127412971Y-117443554D01*
X127435977Y-117438977D01*
X127452639Y-117431621D01*
X127501401Y-117425964D01*
X127506250Y-117425000D01*
X127993750Y-117425000D01*
X127998600Y-117425964D01*
G37*
G36*
X129873600Y-117425964D02*
G01*
X129922360Y-117431621D01*
X129939020Y-117438977D01*
X129962029Y-117443554D01*
X129986661Y-117460013D01*
X130005914Y-117468514D01*
X130019064Y-117481664D01*
X130041107Y-117496393D01*
X130055835Y-117518435D01*
X130068985Y-117531585D01*
X130077485Y-117550836D01*
X130093946Y-117575471D01*
X130098523Y-117598481D01*
X130105878Y-117615139D01*
X130111533Y-117663889D01*
X130112500Y-117668750D01*
X130112500Y-118581250D01*
X130111532Y-118586112D01*
X130105878Y-118634860D01*
X130098523Y-118651516D01*
X130093946Y-118674529D01*
X130077483Y-118699165D01*
X130068985Y-118718414D01*
X130055837Y-118731561D01*
X130041107Y-118753607D01*
X130019061Y-118768337D01*
X130005914Y-118781485D01*
X129986665Y-118789983D01*
X129962029Y-118806446D01*
X129939016Y-118811023D01*
X129922360Y-118818378D01*
X129873611Y-118824032D01*
X129868750Y-118825000D01*
X129381250Y-118825000D01*
X129376388Y-118824032D01*
X129327639Y-118818378D01*
X129310981Y-118811023D01*
X129287971Y-118806446D01*
X129263336Y-118789985D01*
X129244085Y-118781485D01*
X129230935Y-118768335D01*
X129208893Y-118753607D01*
X129194164Y-118731564D01*
X129181014Y-118718414D01*
X129172513Y-118699161D01*
X129156054Y-118674529D01*
X129151477Y-118651520D01*
X129144121Y-118634860D01*
X129138464Y-118586099D01*
X129137500Y-118581250D01*
X129137500Y-117668750D01*
X129138464Y-117663900D01*
X129144121Y-117615139D01*
X129151477Y-117598477D01*
X129156054Y-117575471D01*
X129172511Y-117550840D01*
X129181014Y-117531585D01*
X129194166Y-117518432D01*
X129208893Y-117496393D01*
X129230932Y-117481666D01*
X129244085Y-117468514D01*
X129263340Y-117460011D01*
X129287971Y-117443554D01*
X129310977Y-117438977D01*
X129327639Y-117431621D01*
X129376401Y-117425964D01*
X129381250Y-117425000D01*
X129868750Y-117425000D01*
X129873600Y-117425964D01*
G37*
G36*
X88446066Y-115249311D02*
G01*
X88634597Y-115306501D01*
X88808348Y-115399373D01*
X88960642Y-115524358D01*
X89085627Y-115676652D01*
X89178499Y-115850403D01*
X89235689Y-116038934D01*
X89255000Y-116235000D01*
X89235689Y-116431066D01*
X89178499Y-116619597D01*
X89085627Y-116793348D01*
X88960642Y-116945642D01*
X88808348Y-117070627D01*
X88634597Y-117163499D01*
X88446066Y-117220689D01*
X88250000Y-117240000D01*
X88053934Y-117220689D01*
X87865403Y-117163499D01*
X87691652Y-117070627D01*
X87539358Y-116945642D01*
X87414373Y-116793348D01*
X87321501Y-116619597D01*
X87264311Y-116431066D01*
X87245000Y-116235000D01*
X87264311Y-116038934D01*
X87321501Y-115850403D01*
X87414373Y-115676652D01*
X87539358Y-115524358D01*
X87691652Y-115399373D01*
X87865403Y-115306501D01*
X88053934Y-115249311D01*
X88250000Y-115230000D01*
X88446066Y-115249311D01*
G37*
G36*
X92246066Y-115249311D02*
G01*
X92434597Y-115306501D01*
X92608348Y-115399373D01*
X92760642Y-115524358D01*
X92885627Y-115676652D01*
X92978499Y-115850403D01*
X93035689Y-116038934D01*
X93055000Y-116235000D01*
X93035689Y-116431066D01*
X92978499Y-116619597D01*
X92885627Y-116793348D01*
X92760642Y-116945642D01*
X92608348Y-117070627D01*
X92434597Y-117163499D01*
X92246066Y-117220689D01*
X92050000Y-117240000D01*
X91853934Y-117220689D01*
X91665403Y-117163499D01*
X91491652Y-117070627D01*
X91339358Y-116945642D01*
X91214373Y-116793348D01*
X91121501Y-116619597D01*
X91064311Y-116431066D01*
X91045000Y-116235000D01*
X91064311Y-116038934D01*
X91121501Y-115850403D01*
X91214373Y-115676652D01*
X91339358Y-115524358D01*
X91491652Y-115399373D01*
X91665403Y-115306501D01*
X91853934Y-115249311D01*
X92050000Y-115230000D01*
X92246066Y-115249311D01*
G37*
G36*
X101600000Y-111425000D02*
G01*
X99900000Y-111425000D01*
X99900000Y-109725000D01*
X101600000Y-109725000D01*
X101600000Y-111425000D01*
G37*
G36*
X112475000Y-110950000D02*
G01*
X111025000Y-110950000D01*
X111025000Y-109800000D01*
X112475000Y-109800000D01*
X112475000Y-110950000D01*
G37*
G36*
X106050000Y-110675000D02*
G01*
X103950000Y-110675000D01*
X103950000Y-105075000D01*
X106050000Y-105075000D01*
X106050000Y-110675000D01*
G37*
G36*
X124354850Y-108425964D02*
G01*
X124405040Y-108431787D01*
X124422189Y-108439359D01*
X124445671Y-108444030D01*
X124470810Y-108460827D01*
X124490696Y-108469608D01*
X124504277Y-108483189D01*
X124526777Y-108498223D01*
X124541810Y-108520722D01*
X124555391Y-108534303D01*
X124564170Y-108554186D01*
X124580970Y-108579329D01*
X124585641Y-108602812D01*
X124593212Y-108619959D01*
X124599033Y-108670139D01*
X124600000Y-108675000D01*
X124600000Y-109575000D01*
X124599032Y-109579863D01*
X124593212Y-109630040D01*
X124585641Y-109647185D01*
X124580970Y-109670671D01*
X124564169Y-109695815D01*
X124555391Y-109715696D01*
X124541812Y-109729274D01*
X124526777Y-109751777D01*
X124504274Y-109766812D01*
X124490696Y-109780391D01*
X124470815Y-109789169D01*
X124445671Y-109805970D01*
X124422185Y-109810641D01*
X124405040Y-109818212D01*
X124354861Y-109824032D01*
X124350000Y-109825000D01*
X123650000Y-109825000D01*
X123645138Y-109824032D01*
X123594959Y-109818212D01*
X123577812Y-109810641D01*
X123554329Y-109805970D01*
X123529186Y-109789170D01*
X123509303Y-109780391D01*
X123495722Y-109766810D01*
X123473223Y-109751777D01*
X123458189Y-109729277D01*
X123444608Y-109715696D01*
X123435827Y-109695810D01*
X123419030Y-109670671D01*
X123414359Y-109647189D01*
X123406787Y-109630040D01*
X123400964Y-109579849D01*
X123400000Y-109575000D01*
X123400000Y-108675000D01*
X123400964Y-108670150D01*
X123406787Y-108619959D01*
X123414359Y-108602808D01*
X123419030Y-108579329D01*
X123435826Y-108554191D01*
X123444608Y-108534303D01*
X123458191Y-108520719D01*
X123473223Y-108498223D01*
X123495719Y-108483191D01*
X123509303Y-108469608D01*
X123529191Y-108460826D01*
X123554329Y-108444030D01*
X123577808Y-108439359D01*
X123594959Y-108431787D01*
X123645151Y-108425964D01*
X123650000Y-108425000D01*
X124350000Y-108425000D01*
X124354850Y-108425964D01*
G37*
G36*
X126354850Y-108425964D02*
G01*
X126405040Y-108431787D01*
X126422189Y-108439359D01*
X126445671Y-108444030D01*
X126470810Y-108460827D01*
X126490696Y-108469608D01*
X126504277Y-108483189D01*
X126526777Y-108498223D01*
X126541810Y-108520722D01*
X126555391Y-108534303D01*
X126564170Y-108554186D01*
X126580970Y-108579329D01*
X126585641Y-108602812D01*
X126593212Y-108619959D01*
X126599033Y-108670139D01*
X126600000Y-108675000D01*
X126600000Y-109575000D01*
X126599032Y-109579863D01*
X126593212Y-109630040D01*
X126585641Y-109647185D01*
X126580970Y-109670671D01*
X126564169Y-109695815D01*
X126555391Y-109715696D01*
X126541812Y-109729274D01*
X126526777Y-109751777D01*
X126504274Y-109766812D01*
X126490696Y-109780391D01*
X126470815Y-109789169D01*
X126445671Y-109805970D01*
X126422185Y-109810641D01*
X126405040Y-109818212D01*
X126354861Y-109824032D01*
X126350000Y-109825000D01*
X125650000Y-109825000D01*
X125645138Y-109824032D01*
X125594959Y-109818212D01*
X125577812Y-109810641D01*
X125554329Y-109805970D01*
X125529186Y-109789170D01*
X125509303Y-109780391D01*
X125495722Y-109766810D01*
X125473223Y-109751777D01*
X125458189Y-109729277D01*
X125444608Y-109715696D01*
X125435827Y-109695810D01*
X125419030Y-109670671D01*
X125414359Y-109647189D01*
X125406787Y-109630040D01*
X125400964Y-109579849D01*
X125400000Y-109575000D01*
X125400000Y-108675000D01*
X125400964Y-108670150D01*
X125406787Y-108619959D01*
X125414359Y-108602808D01*
X125419030Y-108579329D01*
X125435826Y-108554191D01*
X125444608Y-108534303D01*
X125458191Y-108520719D01*
X125473223Y-108498223D01*
X125495719Y-108483191D01*
X125509303Y-108469608D01*
X125529191Y-108460826D01*
X125554329Y-108444030D01*
X125577808Y-108439359D01*
X125594959Y-108431787D01*
X125645151Y-108425964D01*
X125650000Y-108425000D01*
X126350000Y-108425000D01*
X126354850Y-108425964D01*
G37*
G36*
X128061100Y-108425964D02*
G01*
X128109860Y-108431621D01*
X128126520Y-108438977D01*
X128149529Y-108443554D01*
X128174161Y-108460013D01*
X128193414Y-108468514D01*
X128206564Y-108481664D01*
X128228607Y-108496393D01*
X128243335Y-108518435D01*
X128256485Y-108531585D01*
X128264985Y-108550836D01*
X128281446Y-108575471D01*
X128286023Y-108598481D01*
X128293378Y-108615139D01*
X128299033Y-108663889D01*
X128300000Y-108668750D01*
X128300000Y-109581250D01*
X128299032Y-109586112D01*
X128293378Y-109634860D01*
X128286023Y-109651516D01*
X128281446Y-109674529D01*
X128264983Y-109699165D01*
X128256485Y-109718414D01*
X128243337Y-109731561D01*
X128228607Y-109753607D01*
X128206561Y-109768337D01*
X128193414Y-109781485D01*
X128174165Y-109789983D01*
X128149529Y-109806446D01*
X128126516Y-109811023D01*
X128109860Y-109818378D01*
X128061111Y-109824032D01*
X128056250Y-109825000D01*
X127568750Y-109825000D01*
X127563888Y-109824032D01*
X127515139Y-109818378D01*
X127498481Y-109811023D01*
X127475471Y-109806446D01*
X127450836Y-109789985D01*
X127431585Y-109781485D01*
X127418435Y-109768335D01*
X127396393Y-109753607D01*
X127381664Y-109731564D01*
X127368514Y-109718414D01*
X127360013Y-109699161D01*
X127343554Y-109674529D01*
X127338977Y-109651520D01*
X127331621Y-109634860D01*
X127325964Y-109586099D01*
X127325000Y-109581250D01*
X127325000Y-108668750D01*
X127325964Y-108663900D01*
X127331621Y-108615139D01*
X127338977Y-108598477D01*
X127343554Y-108575471D01*
X127360011Y-108550840D01*
X127368514Y-108531585D01*
X127381666Y-108518432D01*
X127396393Y-108496393D01*
X127418432Y-108481666D01*
X127431585Y-108468514D01*
X127450840Y-108460011D01*
X127475471Y-108443554D01*
X127498477Y-108438977D01*
X127515139Y-108431621D01*
X127563901Y-108425964D01*
X127568750Y-108425000D01*
X128056250Y-108425000D01*
X128061100Y-108425964D01*
G37*
G36*
X129936100Y-108425964D02*
G01*
X129984860Y-108431621D01*
X130001520Y-108438977D01*
X130024529Y-108443554D01*
X130049161Y-108460013D01*
X130068414Y-108468514D01*
X130081564Y-108481664D01*
X130103607Y-108496393D01*
X130118335Y-108518435D01*
X130131485Y-108531585D01*
X130139985Y-108550836D01*
X130156446Y-108575471D01*
X130161023Y-108598481D01*
X130168378Y-108615139D01*
X130174033Y-108663889D01*
X130175000Y-108668750D01*
X130175000Y-109581250D01*
X130174032Y-109586112D01*
X130168378Y-109634860D01*
X130161023Y-109651516D01*
X130156446Y-109674529D01*
X130139983Y-109699165D01*
X130131485Y-109718414D01*
X130118337Y-109731561D01*
X130103607Y-109753607D01*
X130081561Y-109768337D01*
X130068414Y-109781485D01*
X130049165Y-109789983D01*
X130024529Y-109806446D01*
X130001516Y-109811023D01*
X129984860Y-109818378D01*
X129936111Y-109824032D01*
X129931250Y-109825000D01*
X129443750Y-109825000D01*
X129438888Y-109824032D01*
X129390139Y-109818378D01*
X129373481Y-109811023D01*
X129350471Y-109806446D01*
X129325836Y-109789985D01*
X129306585Y-109781485D01*
X129293435Y-109768335D01*
X129271393Y-109753607D01*
X129256664Y-109731564D01*
X129243514Y-109718414D01*
X129235013Y-109699161D01*
X129218554Y-109674529D01*
X129213977Y-109651520D01*
X129206621Y-109634860D01*
X129200964Y-109586099D01*
X129200000Y-109581250D01*
X129200000Y-108668750D01*
X129200964Y-108663900D01*
X129206621Y-108615139D01*
X129213977Y-108598477D01*
X129218554Y-108575471D01*
X129235011Y-108550840D01*
X129243514Y-108531585D01*
X129256666Y-108518432D01*
X129271393Y-108496393D01*
X129293432Y-108481666D01*
X129306585Y-108468514D01*
X129325840Y-108460011D01*
X129350471Y-108443554D01*
X129373477Y-108438977D01*
X129390139Y-108431621D01*
X129438901Y-108425964D01*
X129443750Y-108425000D01*
X129931250Y-108425000D01*
X129936100Y-108425964D01*
G37*
G36*
X110225000Y-109600000D02*
G01*
X108775000Y-109600000D01*
X108775000Y-108450000D01*
X110225000Y-108450000D01*
X110225000Y-109600000D01*
G37*
G36*
X92270000Y-109225000D02*
G01*
X90570000Y-109225000D01*
X90570000Y-107525000D01*
X92270000Y-107525000D01*
X92270000Y-109225000D01*
G37*
G36*
X122100000Y-109225000D02*
G01*
X120400000Y-109225000D01*
X120400000Y-107525000D01*
X122100000Y-107525000D01*
X122100000Y-109225000D01*
G37*
G36*
X94222664Y-107566602D02*
G01*
X94385000Y-107638878D01*
X94528761Y-107743327D01*
X94647664Y-107875383D01*
X94736514Y-108029274D01*
X94791425Y-108198275D01*
X94810000Y-108375000D01*
X94791425Y-108551725D01*
X94736514Y-108720726D01*
X94647664Y-108874617D01*
X94528761Y-109006673D01*
X94385000Y-109111122D01*
X94222664Y-109183398D01*
X94048849Y-109220344D01*
X93871151Y-109220344D01*
X93697336Y-109183398D01*
X93535000Y-109111122D01*
X93391239Y-109006673D01*
X93272336Y-108874617D01*
X93183486Y-108720726D01*
X93128575Y-108551725D01*
X93110000Y-108375000D01*
X93128575Y-108198275D01*
X93183486Y-108029274D01*
X93272336Y-107875383D01*
X93391239Y-107743327D01*
X93535000Y-107638878D01*
X93697336Y-107566602D01*
X93871151Y-107529656D01*
X94048849Y-107529656D01*
X94222664Y-107566602D01*
G37*
G36*
X96762664Y-107566602D02*
G01*
X96925000Y-107638878D01*
X97068761Y-107743327D01*
X97187664Y-107875383D01*
X97276514Y-108029274D01*
X97331425Y-108198275D01*
X97350000Y-108375000D01*
X97331425Y-108551725D01*
X97276514Y-108720726D01*
X97187664Y-108874617D01*
X97068761Y-109006673D01*
X96925000Y-109111122D01*
X96762664Y-109183398D01*
X96588849Y-109220344D01*
X96411151Y-109220344D01*
X96237336Y-109183398D01*
X96075000Y-109111122D01*
X95931239Y-109006673D01*
X95812336Y-108874617D01*
X95723486Y-108720726D01*
X95668575Y-108551725D01*
X95650000Y-108375000D01*
X95668575Y-108198275D01*
X95723486Y-108029274D01*
X95812336Y-107875383D01*
X95931239Y-107743327D01*
X96075000Y-107638878D01*
X96237336Y-107566602D01*
X96411151Y-107529656D01*
X96588849Y-107529656D01*
X96762664Y-107566602D01*
G37*
G36*
X112475000Y-109150000D02*
G01*
X111025000Y-109150000D01*
X111025000Y-108000000D01*
X112475000Y-108000000D01*
X112475000Y-109150000D01*
G37*
G36*
X115691852Y-107938173D02*
G01*
X114631192Y-108998833D01*
X114206928Y-108574569D01*
X114987407Y-107794090D01*
X115263411Y-107518085D01*
X115263414Y-107518082D01*
X115267588Y-107513909D01*
X115691852Y-107938173D01*
G37*
G36*
X117742462Y-108574569D02*
G01*
X117318198Y-108998833D01*
X116257538Y-107938173D01*
X116556833Y-107638878D01*
X116677627Y-107518083D01*
X116677630Y-107518080D01*
X116681802Y-107513909D01*
X117742462Y-108574569D01*
G37*
G36*
X101012664Y-107226602D02*
G01*
X101175000Y-107298878D01*
X101318761Y-107403327D01*
X101437664Y-107535383D01*
X101526514Y-107689274D01*
X101581425Y-107858275D01*
X101600000Y-108035000D01*
X101581425Y-108211725D01*
X101526514Y-108380726D01*
X101437664Y-108534617D01*
X101318761Y-108666673D01*
X101175000Y-108771122D01*
X101012664Y-108843398D01*
X100838849Y-108880344D01*
X100661151Y-108880344D01*
X100487336Y-108843398D01*
X100325000Y-108771122D01*
X100181239Y-108666673D01*
X100062336Y-108534617D01*
X99973486Y-108380726D01*
X99918575Y-108211725D01*
X99900000Y-108035000D01*
X99918575Y-107858275D01*
X99973486Y-107689274D01*
X100062336Y-107535383D01*
X100181239Y-107403327D01*
X100325000Y-107298878D01*
X100487336Y-107226602D01*
X100661151Y-107189656D01*
X100838849Y-107189656D01*
X101012664Y-107226602D01*
G37*
G36*
X115126167Y-107372487D02*
G01*
X114065507Y-108433147D01*
X113641243Y-108008883D01*
X114423524Y-107226602D01*
X114697726Y-106952399D01*
X114697729Y-106952396D01*
X114701903Y-106948223D01*
X115126167Y-107372487D01*
G37*
G36*
X118308147Y-108008883D02*
G01*
X117883883Y-108433147D01*
X116823223Y-107372487D01*
X117106265Y-107089445D01*
X117243312Y-106952397D01*
X117243315Y-106952394D01*
X117247487Y-106948223D01*
X118308147Y-108008883D01*
G37*
G36*
X131970000Y-108400000D02*
G01*
X131030000Y-108400000D01*
X131030000Y-107650000D01*
X131970000Y-107650000D01*
X131970000Y-108400000D01*
G37*
G36*
X134550000Y-108275000D02*
G01*
X132550000Y-108275000D01*
X132550000Y-107275000D01*
X134550000Y-107275000D01*
X134550000Y-108275000D01*
G37*
G36*
X137650493Y-106637239D02*
G01*
X137789242Y-106710060D01*
X137906532Y-106813970D01*
X137995546Y-106942930D01*
X138051112Y-107089445D01*
X138070000Y-107245000D01*
X138051112Y-107400555D01*
X137995546Y-107547070D01*
X137906532Y-107676030D01*
X137789242Y-107779940D01*
X137650493Y-107852761D01*
X137498349Y-107890261D01*
X137341651Y-107890261D01*
X137189507Y-107852761D01*
X137050758Y-107779940D01*
X136933468Y-107676030D01*
X136844454Y-107547070D01*
X136788888Y-107400555D01*
X136770000Y-107245000D01*
X136788888Y-107089445D01*
X136844454Y-106942930D01*
X136933468Y-106813970D01*
X137050758Y-106710060D01*
X137189507Y-106637239D01*
X137341651Y-106599739D01*
X137498349Y-106599739D01*
X137650493Y-106637239D01*
G37*
G36*
X140190493Y-106637239D02*
G01*
X140329242Y-106710060D01*
X140446532Y-106813970D01*
X140535546Y-106942930D01*
X140591112Y-107089445D01*
X140610000Y-107245000D01*
X140591112Y-107400555D01*
X140535546Y-107547070D01*
X140446532Y-107676030D01*
X140329242Y-107779940D01*
X140190493Y-107852761D01*
X140038349Y-107890261D01*
X139881651Y-107890261D01*
X139729507Y-107852761D01*
X139590758Y-107779940D01*
X139473468Y-107676030D01*
X139384454Y-107547070D01*
X139328888Y-107400555D01*
X139310000Y-107245000D01*
X139328888Y-107089445D01*
X139384454Y-106942930D01*
X139473468Y-106813970D01*
X139590758Y-106710060D01*
X139729507Y-106637239D01*
X139881651Y-106599739D01*
X140038349Y-106599739D01*
X140190493Y-106637239D01*
G37*
G36*
X142730493Y-106637239D02*
G01*
X142869242Y-106710060D01*
X142986532Y-106813970D01*
X143075546Y-106942930D01*
X143131112Y-107089445D01*
X143150000Y-107245000D01*
X143131112Y-107400555D01*
X143075546Y-107547070D01*
X142986532Y-107676030D01*
X142869242Y-107779940D01*
X142730493Y-107852761D01*
X142578349Y-107890261D01*
X142421651Y-107890261D01*
X142269507Y-107852761D01*
X142130758Y-107779940D01*
X142013468Y-107676030D01*
X141924454Y-107547070D01*
X141868888Y-107400555D01*
X141850000Y-107245000D01*
X141868888Y-107089445D01*
X141924454Y-106942930D01*
X142013468Y-106813970D01*
X142130758Y-106710060D01*
X142269507Y-106637239D01*
X142421651Y-106599739D01*
X142578349Y-106599739D01*
X142730493Y-106637239D01*
G37*
G36*
X114560481Y-106806802D02*
G01*
X113499821Y-107867462D01*
X113075557Y-107443198D01*
X113868755Y-106650000D01*
X114132040Y-106386714D01*
X114132043Y-106386711D01*
X114136217Y-106382538D01*
X114560481Y-106806802D01*
G37*
G36*
X118873833Y-107443198D02*
G01*
X118449569Y-107867462D01*
X117388909Y-106806802D01*
X117601042Y-106594669D01*
X117808998Y-106386712D01*
X117809001Y-106386709D01*
X117813173Y-106382538D01*
X118873833Y-107443198D01*
G37*
G36*
X110225000Y-107800000D02*
G01*
X108775000Y-107800000D01*
X108775000Y-106650000D01*
X110225000Y-106650000D01*
X110225000Y-107800000D01*
G37*
G36*
X126000000Y-107375000D02*
G01*
X124500000Y-107375000D01*
X124500000Y-105875000D01*
X126000000Y-105875000D01*
X126000000Y-107375000D01*
G37*
G36*
X129916891Y-105893804D02*
G01*
X130075413Y-105949273D01*
X130217617Y-106038626D01*
X130336374Y-106157383D01*
X130425727Y-106299587D01*
X130481196Y-106458109D01*
X130500000Y-106625000D01*
X130481196Y-106791891D01*
X130425727Y-106950413D01*
X130336374Y-107092617D01*
X130217617Y-107211374D01*
X130075413Y-107300727D01*
X129916891Y-107356196D01*
X129750000Y-107375000D01*
X129583109Y-107356196D01*
X129424587Y-107300727D01*
X129282383Y-107211374D01*
X129163626Y-107092617D01*
X129074273Y-106950413D01*
X129018804Y-106791891D01*
X129000000Y-106625000D01*
X129018804Y-106458109D01*
X129074273Y-106299587D01*
X129163626Y-106157383D01*
X129282383Y-106038626D01*
X129424587Y-105949273D01*
X129583109Y-105893804D01*
X129750000Y-105875000D01*
X129916891Y-105893804D01*
G37*
G36*
X113994796Y-106241117D02*
G01*
X112934136Y-107301777D01*
X112509872Y-106877513D01*
X113260959Y-106126426D01*
X113566355Y-105821029D01*
X113566358Y-105821026D01*
X113570532Y-105816853D01*
X113994796Y-106241117D01*
G37*
G36*
X119439518Y-106877513D02*
G01*
X119015254Y-107301777D01*
X117954594Y-106241117D01*
X118246438Y-105949273D01*
X118374683Y-105821027D01*
X118374686Y-105821024D01*
X118378858Y-105816853D01*
X119439518Y-106877513D01*
G37*
G36*
X134550000Y-107005000D02*
G01*
X132550000Y-107005000D01*
X132550000Y-106005000D01*
X134550000Y-106005000D01*
X134550000Y-107005000D01*
G37*
G36*
X131970000Y-107000000D02*
G01*
X131030000Y-107000000D01*
X131030000Y-106250000D01*
X131970000Y-106250000D01*
X131970000Y-107000000D01*
G37*
G36*
X113429110Y-105675431D02*
G01*
X112368450Y-106736091D01*
X111944186Y-106311827D01*
X112655472Y-105600541D01*
X113000669Y-105255343D01*
X113000672Y-105255340D01*
X113004846Y-105251167D01*
X113429110Y-105675431D01*
G37*
G36*
X120005204Y-106311827D02*
G01*
X119580940Y-106736091D01*
X118520280Y-105675431D01*
X118835307Y-105360404D01*
X118940369Y-105255341D01*
X118940372Y-105255338D01*
X118944544Y-105251167D01*
X120005204Y-106311827D01*
G37*
G36*
X101012664Y-104686602D02*
G01*
X101175000Y-104758878D01*
X101318761Y-104863327D01*
X101437664Y-104995383D01*
X101526514Y-105149274D01*
X101581425Y-105318275D01*
X101600000Y-105495000D01*
X101581425Y-105671725D01*
X101526514Y-105840726D01*
X101437664Y-105994617D01*
X101318761Y-106126673D01*
X101175000Y-106231122D01*
X101012664Y-106303398D01*
X100838849Y-106340344D01*
X100661151Y-106340344D01*
X100487336Y-106303398D01*
X100325000Y-106231122D01*
X100181239Y-106126673D01*
X100062336Y-105994617D01*
X99973486Y-105840726D01*
X99918575Y-105671725D01*
X99900000Y-105495000D01*
X99918575Y-105318275D01*
X99973486Y-105149274D01*
X100062336Y-104995383D01*
X100181239Y-104863327D01*
X100325000Y-104758878D01*
X100487336Y-104686602D01*
X100661151Y-104649656D01*
X100838849Y-104649656D01*
X101012664Y-104686602D01*
G37*
G36*
X112863425Y-105109746D02*
G01*
X111802765Y-106170406D01*
X111378501Y-105746142D01*
X112129260Y-104995383D01*
X112434984Y-104689658D01*
X112434987Y-104689655D01*
X112439161Y-104685482D01*
X112863425Y-105109746D01*
G37*
G36*
X120570889Y-105746142D02*
G01*
X120146625Y-106170406D01*
X119085965Y-105109746D01*
X119332384Y-104863327D01*
X119506054Y-104689656D01*
X119506057Y-104689653D01*
X119510229Y-104685482D01*
X120570889Y-105746142D01*
G37*
G36*
X134550000Y-105735000D02*
G01*
X132550000Y-105735000D01*
X132550000Y-104735000D01*
X134550000Y-104735000D01*
X134550000Y-105735000D01*
G37*
G36*
X112297740Y-104544060D02*
G01*
X111237080Y-105604720D01*
X110812816Y-105180456D01*
X111534182Y-104459090D01*
X111869299Y-104123972D01*
X111869302Y-104123969D01*
X111873476Y-104119796D01*
X112297740Y-104544060D01*
G37*
G36*
X121136574Y-105180456D02*
G01*
X120712310Y-105604720D01*
X119651650Y-104544060D01*
X119863782Y-104331927D01*
X120071739Y-104123970D01*
X120071742Y-104123967D01*
X120075914Y-104119796D01*
X121136574Y-105180456D01*
G37*
G36*
X88446066Y-103389311D02*
G01*
X88634597Y-103446501D01*
X88808348Y-103539373D01*
X88960642Y-103664358D01*
X89085627Y-103816652D01*
X89178499Y-103990403D01*
X89235689Y-104178934D01*
X89255000Y-104375000D01*
X89235689Y-104571066D01*
X89178499Y-104759597D01*
X89085627Y-104933348D01*
X88960642Y-105085642D01*
X88808348Y-105210627D01*
X88634597Y-105303499D01*
X88446066Y-105360689D01*
X88250000Y-105380000D01*
X88053934Y-105360689D01*
X87865403Y-105303499D01*
X87691652Y-105210627D01*
X87539358Y-105085642D01*
X87414373Y-104933348D01*
X87321501Y-104759597D01*
X87264311Y-104571066D01*
X87245000Y-104375000D01*
X87264311Y-104178934D01*
X87321501Y-103990403D01*
X87414373Y-103816652D01*
X87539358Y-103664358D01*
X87691652Y-103539373D01*
X87865403Y-103446501D01*
X88053934Y-103389311D01*
X88250000Y-103370000D01*
X88446066Y-103389311D01*
G37*
G36*
X92246066Y-103389311D02*
G01*
X92434597Y-103446501D01*
X92608348Y-103539373D01*
X92760642Y-103664358D01*
X92885627Y-103816652D01*
X92978499Y-103990403D01*
X93035689Y-104178934D01*
X93055000Y-104375000D01*
X93035689Y-104571066D01*
X92978499Y-104759597D01*
X92885627Y-104933348D01*
X92760642Y-105085642D01*
X92608348Y-105210627D01*
X92434597Y-105303499D01*
X92246066Y-105360689D01*
X92050000Y-105380000D01*
X91853934Y-105360689D01*
X91665403Y-105303499D01*
X91491652Y-105210627D01*
X91339358Y-105085642D01*
X91214373Y-104933348D01*
X91121501Y-104759597D01*
X91064311Y-104571066D01*
X91045000Y-104375000D01*
X91064311Y-104178934D01*
X91121501Y-103990403D01*
X91214373Y-103816652D01*
X91339358Y-103664358D01*
X91491652Y-103539373D01*
X91665403Y-103446501D01*
X91853934Y-103389311D01*
X92050000Y-103370000D01*
X92246066Y-103389311D01*
G37*
G36*
X111732054Y-103978375D02*
G01*
X110671394Y-105039035D01*
X110247130Y-104614771D01*
X110887702Y-103974199D01*
X111303613Y-103558287D01*
X111303616Y-103558284D01*
X111307790Y-103554111D01*
X111732054Y-103978375D01*
G37*
G36*
X121702260Y-104614771D02*
G01*
X121277996Y-105039035D01*
X120217336Y-103978375D01*
X120531353Y-103664358D01*
X120637425Y-103558285D01*
X120637428Y-103558282D01*
X120641600Y-103554111D01*
X121702260Y-104614771D01*
G37*
G36*
X134550000Y-104465000D02*
G01*
X132550000Y-104465000D01*
X132550000Y-103465000D01*
X134550000Y-103465000D01*
X134550000Y-104465000D01*
G37*
G36*
X101012664Y-102146602D02*
G01*
X101175000Y-102218878D01*
X101318761Y-102323327D01*
X101437664Y-102455383D01*
X101526514Y-102609274D01*
X101581425Y-102778275D01*
X101600000Y-102955000D01*
X101581425Y-103131725D01*
X101526514Y-103300726D01*
X101437664Y-103454617D01*
X101318761Y-103586673D01*
X101175000Y-103691122D01*
X101012664Y-103763398D01*
X100838849Y-103800344D01*
X100661151Y-103800344D01*
X100487336Y-103763398D01*
X100325000Y-103691122D01*
X100181239Y-103586673D01*
X100062336Y-103454617D01*
X99973486Y-103300726D01*
X99918575Y-103131725D01*
X99900000Y-102955000D01*
X99918575Y-102778275D01*
X99973486Y-102609274D01*
X100062336Y-102455383D01*
X100181239Y-102323327D01*
X100325000Y-102218878D01*
X100487336Y-102146602D01*
X100661151Y-102109656D01*
X100838849Y-102109656D01*
X101012664Y-102146602D01*
G37*
G36*
X134550000Y-103195000D02*
G01*
X132550000Y-103195000D01*
X132550000Y-102195000D01*
X134550000Y-102195000D01*
X134550000Y-103195000D01*
G37*
G36*
X111732054Y-102564161D02*
G01*
X111307790Y-102988425D01*
X110247130Y-101927765D01*
X110459262Y-101715631D01*
X110667219Y-101507675D01*
X110667222Y-101507672D01*
X110671394Y-101503501D01*
X111732054Y-102564161D01*
G37*
G36*
X121702260Y-101927765D02*
G01*
X120641600Y-102988425D01*
X120217336Y-102564161D01*
X120959964Y-101821533D01*
X121273819Y-101507677D01*
X121273822Y-101507674D01*
X121277996Y-101503501D01*
X121702260Y-101927765D01*
G37*
G36*
X112297740Y-101998476D02*
G01*
X111873476Y-102422740D01*
X110812816Y-101362080D01*
X111128470Y-101046426D01*
X111232905Y-100941990D01*
X111232908Y-100941987D01*
X111237080Y-100937816D01*
X112297740Y-101998476D01*
G37*
G36*
X121136574Y-101362080D02*
G01*
X120075914Y-102422740D01*
X119651650Y-101998476D01*
X120427043Y-101223083D01*
X120708133Y-100941992D01*
X120708136Y-100941989D01*
X120712310Y-100937816D01*
X121136574Y-101362080D01*
G37*
G36*
X88354850Y-100675964D02*
G01*
X88405040Y-100681787D01*
X88422189Y-100689359D01*
X88445671Y-100694030D01*
X88470810Y-100710827D01*
X88490696Y-100719608D01*
X88504277Y-100733189D01*
X88526777Y-100748223D01*
X88541810Y-100770722D01*
X88555391Y-100784303D01*
X88564170Y-100804186D01*
X88580970Y-100829329D01*
X88585641Y-100852812D01*
X88593212Y-100869959D01*
X88599033Y-100920139D01*
X88600000Y-100925000D01*
X88600000Y-101825000D01*
X88599032Y-101829863D01*
X88593212Y-101880040D01*
X88585641Y-101897185D01*
X88580970Y-101920671D01*
X88564169Y-101945815D01*
X88555391Y-101965696D01*
X88541812Y-101979274D01*
X88526777Y-102001777D01*
X88504274Y-102016812D01*
X88490696Y-102030391D01*
X88470815Y-102039169D01*
X88445671Y-102055970D01*
X88422185Y-102060641D01*
X88405040Y-102068212D01*
X88354861Y-102074032D01*
X88350000Y-102075000D01*
X87650000Y-102075000D01*
X87645138Y-102074032D01*
X87594959Y-102068212D01*
X87577812Y-102060641D01*
X87554329Y-102055970D01*
X87529186Y-102039170D01*
X87509303Y-102030391D01*
X87495722Y-102016810D01*
X87473223Y-102001777D01*
X87458189Y-101979277D01*
X87444608Y-101965696D01*
X87435827Y-101945810D01*
X87419030Y-101920671D01*
X87414359Y-101897189D01*
X87406787Y-101880040D01*
X87400964Y-101829849D01*
X87400000Y-101825000D01*
X87400000Y-100925000D01*
X87400964Y-100920150D01*
X87406787Y-100869959D01*
X87414359Y-100852808D01*
X87419030Y-100829329D01*
X87435826Y-100804191D01*
X87444608Y-100784303D01*
X87458191Y-100770719D01*
X87473223Y-100748223D01*
X87495719Y-100733191D01*
X87509303Y-100719608D01*
X87529191Y-100710826D01*
X87554329Y-100694030D01*
X87577808Y-100689359D01*
X87594959Y-100681787D01*
X87645151Y-100675964D01*
X87650000Y-100675000D01*
X88350000Y-100675000D01*
X88354850Y-100675964D01*
G37*
G36*
X90354850Y-100675964D02*
G01*
X90405040Y-100681787D01*
X90422189Y-100689359D01*
X90445671Y-100694030D01*
X90470810Y-100710827D01*
X90490696Y-100719608D01*
X90504277Y-100733189D01*
X90526777Y-100748223D01*
X90541810Y-100770722D01*
X90555391Y-100784303D01*
X90564170Y-100804186D01*
X90580970Y-100829329D01*
X90585641Y-100852812D01*
X90593212Y-100869959D01*
X90599033Y-100920139D01*
X90600000Y-100925000D01*
X90600000Y-101825000D01*
X90599032Y-101829863D01*
X90593212Y-101880040D01*
X90585641Y-101897185D01*
X90580970Y-101920671D01*
X90564169Y-101945815D01*
X90555391Y-101965696D01*
X90541812Y-101979274D01*
X90526777Y-102001777D01*
X90504274Y-102016812D01*
X90490696Y-102030391D01*
X90470815Y-102039169D01*
X90445671Y-102055970D01*
X90422185Y-102060641D01*
X90405040Y-102068212D01*
X90354861Y-102074032D01*
X90350000Y-102075000D01*
X89650000Y-102075000D01*
X89645138Y-102074032D01*
X89594959Y-102068212D01*
X89577812Y-102060641D01*
X89554329Y-102055970D01*
X89529186Y-102039170D01*
X89509303Y-102030391D01*
X89495722Y-102016810D01*
X89473223Y-102001777D01*
X89458189Y-101979277D01*
X89444608Y-101965696D01*
X89435827Y-101945810D01*
X89419030Y-101920671D01*
X89414359Y-101897189D01*
X89406787Y-101880040D01*
X89400964Y-101829849D01*
X89400000Y-101825000D01*
X89400000Y-100925000D01*
X89400964Y-100920150D01*
X89406787Y-100869959D01*
X89414359Y-100852808D01*
X89419030Y-100829329D01*
X89435826Y-100804191D01*
X89444608Y-100784303D01*
X89458191Y-100770719D01*
X89473223Y-100748223D01*
X89495719Y-100733191D01*
X89509303Y-100719608D01*
X89529191Y-100710826D01*
X89554329Y-100694030D01*
X89577808Y-100689359D01*
X89594959Y-100681787D01*
X89645151Y-100675964D01*
X89650000Y-100675000D01*
X90350000Y-100675000D01*
X90354850Y-100675964D01*
G37*
G36*
X134550000Y-101925000D02*
G01*
X132550000Y-101925000D01*
X132550000Y-100925000D01*
X134550000Y-100925000D01*
X134550000Y-101925000D01*
G37*
G36*
X112863425Y-101432790D02*
G01*
X112439161Y-101857054D01*
X111378501Y-100796394D01*
X111590634Y-100584260D01*
X111798590Y-100376304D01*
X111798593Y-100376301D01*
X111802765Y-100372130D01*
X112863425Y-101432790D01*
G37*
G36*
X120570889Y-100796394D02*
G01*
X119510229Y-101857054D01*
X119085965Y-101432790D01*
X119869665Y-100649090D01*
X120142448Y-100376306D01*
X120142451Y-100376303D01*
X120146625Y-100372130D01*
X120570889Y-100796394D01*
G37*
G36*
X113429110Y-100867105D02*
G01*
X113004846Y-101291369D01*
X111944186Y-100230709D01*
X112259512Y-99915383D01*
X112364275Y-99810619D01*
X112364278Y-99810616D01*
X112368450Y-99806445D01*
X113429110Y-100867105D01*
G37*
G36*
X120005204Y-100230709D02*
G01*
X118944544Y-101291369D01*
X118520280Y-100867105D01*
X119262386Y-100124999D01*
X119576763Y-99810621D01*
X119576766Y-99810618D01*
X119580940Y-99806445D01*
X120005204Y-100230709D01*
G37*
G36*
X101012664Y-99606602D02*
G01*
X101175000Y-99678878D01*
X101318761Y-99783327D01*
X101437664Y-99915383D01*
X101526514Y-100069274D01*
X101581425Y-100238275D01*
X101600000Y-100415000D01*
X101581425Y-100591725D01*
X101526514Y-100760726D01*
X101437664Y-100914617D01*
X101318761Y-101046673D01*
X101175000Y-101151122D01*
X101012664Y-101223398D01*
X100838849Y-101260344D01*
X100661151Y-101260344D01*
X100487336Y-101223398D01*
X100325000Y-101151122D01*
X100181239Y-101046673D01*
X100062336Y-100914617D01*
X99973486Y-100760726D01*
X99918575Y-100591725D01*
X99900000Y-100415000D01*
X99918575Y-100238275D01*
X99973486Y-100069274D01*
X100062336Y-99915383D01*
X100181239Y-99783327D01*
X100325000Y-99678878D01*
X100487336Y-99606602D01*
X100661151Y-99569656D01*
X100838849Y-99569656D01*
X101012664Y-99606602D01*
G37*
G36*
X106050000Y-101175000D02*
G01*
X103950000Y-101175000D01*
X103950000Y-95575000D01*
X106050000Y-95575000D01*
X106050000Y-101175000D01*
G37*
G36*
X125416891Y-99393804D02*
G01*
X125575413Y-99449273D01*
X125717617Y-99538626D01*
X125836374Y-99657383D01*
X125925727Y-99799587D01*
X125981196Y-99958109D01*
X126000000Y-100125000D01*
X125981196Y-100291891D01*
X125925727Y-100450413D01*
X125836374Y-100592617D01*
X125717617Y-100711374D01*
X125575413Y-100800727D01*
X125416891Y-100856196D01*
X125250000Y-100875000D01*
X125083109Y-100856196D01*
X124924587Y-100800727D01*
X124782383Y-100711374D01*
X124663626Y-100592617D01*
X124574273Y-100450413D01*
X124518804Y-100291891D01*
X124500000Y-100125000D01*
X124518804Y-99958109D01*
X124574273Y-99799587D01*
X124663626Y-99657383D01*
X124782383Y-99538626D01*
X124924587Y-99449273D01*
X125083109Y-99393804D01*
X125250000Y-99375000D01*
X125416891Y-99393804D01*
G37*
G36*
X129916891Y-99393804D02*
G01*
X130075413Y-99449273D01*
X130217617Y-99538626D01*
X130336374Y-99657383D01*
X130425727Y-99799587D01*
X130481196Y-99958109D01*
X130500000Y-100125000D01*
X130481196Y-100291891D01*
X130425727Y-100450413D01*
X130336374Y-100592617D01*
X130217617Y-100711374D01*
X130075413Y-100800727D01*
X129916891Y-100856196D01*
X129750000Y-100875000D01*
X129583109Y-100856196D01*
X129424587Y-100800727D01*
X129282383Y-100711374D01*
X129163626Y-100592617D01*
X129074273Y-100450413D01*
X129018804Y-100291891D01*
X129000000Y-100125000D01*
X129018804Y-99958109D01*
X129074273Y-99799587D01*
X129163626Y-99657383D01*
X129282383Y-99538626D01*
X129424587Y-99449273D01*
X129583109Y-99393804D01*
X129750000Y-99375000D01*
X129916891Y-99393804D01*
G37*
G36*
X113994796Y-100301419D02*
G01*
X113570532Y-100725683D01*
X112509872Y-99665023D01*
X112799895Y-99375000D01*
X112929961Y-99244933D01*
X112929964Y-99244930D01*
X112934136Y-99240759D01*
X113994796Y-100301419D01*
G37*
G36*
X119439518Y-99665023D02*
G01*
X118378858Y-100725683D01*
X117954594Y-100301419D01*
X118717387Y-99538626D01*
X119011077Y-99244935D01*
X119011080Y-99244932D01*
X119015254Y-99240759D01*
X119439518Y-99665023D01*
G37*
G36*
X134550000Y-100655000D02*
G01*
X132550000Y-100655000D01*
X132550000Y-99655000D01*
X134550000Y-99655000D01*
X134550000Y-100655000D01*
G37*
G36*
X110225000Y-100350000D02*
G01*
X108775000Y-100350000D01*
X108775000Y-99200000D01*
X110225000Y-99200000D01*
X110225000Y-100350000D01*
G37*
G36*
X137650493Y-99017239D02*
G01*
X137789242Y-99090060D01*
X137906532Y-99193970D01*
X137995546Y-99322930D01*
X138051112Y-99469445D01*
X138070000Y-99625000D01*
X138051112Y-99780555D01*
X137995546Y-99927070D01*
X137906532Y-100056030D01*
X137789242Y-100159940D01*
X137650493Y-100232761D01*
X137498349Y-100270261D01*
X137341651Y-100270261D01*
X137189507Y-100232761D01*
X137050758Y-100159940D01*
X136933468Y-100056030D01*
X136844454Y-99927070D01*
X136788888Y-99780555D01*
X136770000Y-99625000D01*
X136788888Y-99469445D01*
X136844454Y-99322930D01*
X136933468Y-99193970D01*
X137050758Y-99090060D01*
X137189507Y-99017239D01*
X137341651Y-98979739D01*
X137498349Y-98979739D01*
X137650493Y-99017239D01*
G37*
G36*
X140190493Y-99017239D02*
G01*
X140329242Y-99090060D01*
X140446532Y-99193970D01*
X140535546Y-99322930D01*
X140591112Y-99469445D01*
X140610000Y-99625000D01*
X140591112Y-99780555D01*
X140535546Y-99927070D01*
X140446532Y-100056030D01*
X140329242Y-100159940D01*
X140190493Y-100232761D01*
X140038349Y-100270261D01*
X139881651Y-100270261D01*
X139729507Y-100232761D01*
X139590758Y-100159940D01*
X139473468Y-100056030D01*
X139384454Y-99927070D01*
X139328888Y-99780555D01*
X139310000Y-99625000D01*
X139328888Y-99469445D01*
X139384454Y-99322930D01*
X139473468Y-99193970D01*
X139590758Y-99090060D01*
X139729507Y-99017239D01*
X139881651Y-98979739D01*
X140038349Y-98979739D01*
X140190493Y-99017239D01*
G37*
G36*
X142730493Y-99017239D02*
G01*
X142869242Y-99090060D01*
X142986532Y-99193970D01*
X143075546Y-99322930D01*
X143131112Y-99469445D01*
X143150000Y-99625000D01*
X143131112Y-99780555D01*
X143075546Y-99927070D01*
X142986532Y-100056030D01*
X142869242Y-100159940D01*
X142730493Y-100232761D01*
X142578349Y-100270261D01*
X142421651Y-100270261D01*
X142269507Y-100232761D01*
X142130758Y-100159940D01*
X142013468Y-100056030D01*
X141924454Y-99927070D01*
X141868888Y-99780555D01*
X141850000Y-99625000D01*
X141868888Y-99469445D01*
X141924454Y-99322930D01*
X142013468Y-99193970D01*
X142130758Y-99090060D01*
X142269507Y-99017239D01*
X142421651Y-98979739D01*
X142578349Y-98979739D01*
X142730493Y-99017239D01*
G37*
G36*
X114560481Y-99735734D02*
G01*
X114136217Y-100159998D01*
X113075557Y-99099338D01*
X113287690Y-98887204D01*
X113495646Y-98679248D01*
X113495649Y-98679245D01*
X113499821Y-98675074D01*
X114560481Y-99735734D01*
G37*
G36*
X118873833Y-99099338D02*
G01*
X117813173Y-100159998D01*
X117388909Y-99735734D01*
X118144904Y-98979739D01*
X118445392Y-98679250D01*
X118445395Y-98679247D01*
X118449569Y-98675074D01*
X118873833Y-99099338D01*
G37*
G36*
X122555635Y-98905330D02*
G01*
X121530330Y-99930635D01*
X120717157Y-99117462D01*
X121460196Y-98374423D01*
X121738285Y-98096333D01*
X121738288Y-98096330D01*
X121742462Y-98092157D01*
X122555635Y-98905330D01*
G37*
G36*
X115126167Y-99170049D02*
G01*
X114701903Y-99594313D01*
X113641243Y-98533653D01*
X113956482Y-98218414D01*
X114061332Y-98113563D01*
X114061335Y-98113560D01*
X114065507Y-98109389D01*
X115126167Y-99170049D01*
G37*
G36*
X118308147Y-98533653D02*
G01*
X117247487Y-99594313D01*
X116823223Y-99170049D01*
X117608272Y-98385000D01*
X117879706Y-98113565D01*
X117879709Y-98113562D01*
X117883883Y-98109389D01*
X118308147Y-98533653D01*
G37*
G36*
X134550000Y-99385000D02*
G01*
X132550000Y-99385000D01*
X132550000Y-98385000D01*
X134550000Y-98385000D01*
X134550000Y-99385000D01*
G37*
G36*
X88354850Y-97925964D02*
G01*
X88405040Y-97931787D01*
X88422189Y-97939359D01*
X88445671Y-97944030D01*
X88470810Y-97960827D01*
X88490696Y-97969608D01*
X88504277Y-97983189D01*
X88526777Y-97998223D01*
X88541810Y-98020722D01*
X88555391Y-98034303D01*
X88564170Y-98054186D01*
X88580970Y-98079329D01*
X88585641Y-98102812D01*
X88593212Y-98119959D01*
X88599033Y-98170139D01*
X88600000Y-98175000D01*
X88600000Y-99075000D01*
X88599032Y-99079863D01*
X88593212Y-99130040D01*
X88585641Y-99147185D01*
X88580970Y-99170671D01*
X88564169Y-99195815D01*
X88555391Y-99215696D01*
X88541812Y-99229274D01*
X88526777Y-99251777D01*
X88504274Y-99266812D01*
X88490696Y-99280391D01*
X88470815Y-99289169D01*
X88445671Y-99305970D01*
X88422185Y-99310641D01*
X88405040Y-99318212D01*
X88354861Y-99324032D01*
X88350000Y-99325000D01*
X87650000Y-99325000D01*
X87645138Y-99324032D01*
X87594959Y-99318212D01*
X87577812Y-99310641D01*
X87554329Y-99305970D01*
X87529186Y-99289170D01*
X87509303Y-99280391D01*
X87495722Y-99266810D01*
X87473223Y-99251777D01*
X87458189Y-99229277D01*
X87444608Y-99215696D01*
X87435827Y-99195810D01*
X87419030Y-99170671D01*
X87414359Y-99147189D01*
X87406787Y-99130040D01*
X87400964Y-99079849D01*
X87400000Y-99075000D01*
X87400000Y-98175000D01*
X87400964Y-98170150D01*
X87406787Y-98119959D01*
X87414359Y-98102808D01*
X87419030Y-98079329D01*
X87435826Y-98054191D01*
X87444608Y-98034303D01*
X87458191Y-98020719D01*
X87473223Y-97998223D01*
X87495719Y-97983191D01*
X87509303Y-97969608D01*
X87529191Y-97960826D01*
X87554329Y-97944030D01*
X87577808Y-97939359D01*
X87594959Y-97931787D01*
X87645151Y-97925964D01*
X87650000Y-97925000D01*
X88350000Y-97925000D01*
X88354850Y-97925964D01*
G37*
G36*
X90354850Y-97925964D02*
G01*
X90405040Y-97931787D01*
X90422189Y-97939359D01*
X90445671Y-97944030D01*
X90470810Y-97960827D01*
X90490696Y-97969608D01*
X90504277Y-97983189D01*
X90526777Y-97998223D01*
X90541810Y-98020722D01*
X90555391Y-98034303D01*
X90564170Y-98054186D01*
X90580970Y-98079329D01*
X90585641Y-98102812D01*
X90593212Y-98119959D01*
X90599033Y-98170139D01*
X90600000Y-98175000D01*
X90600000Y-99075000D01*
X90599032Y-99079863D01*
X90593212Y-99130040D01*
X90585641Y-99147185D01*
X90580970Y-99170671D01*
X90564169Y-99195815D01*
X90555391Y-99215696D01*
X90541812Y-99229274D01*
X90526777Y-99251777D01*
X90504274Y-99266812D01*
X90490696Y-99280391D01*
X90470815Y-99289169D01*
X90445671Y-99305970D01*
X90422185Y-99310641D01*
X90405040Y-99318212D01*
X90354861Y-99324032D01*
X90350000Y-99325000D01*
X89650000Y-99325000D01*
X89645138Y-99324032D01*
X89594959Y-99318212D01*
X89577812Y-99310641D01*
X89554329Y-99305970D01*
X89529186Y-99289170D01*
X89509303Y-99280391D01*
X89495722Y-99266810D01*
X89473223Y-99251777D01*
X89458189Y-99229277D01*
X89444608Y-99215696D01*
X89435827Y-99195810D01*
X89419030Y-99170671D01*
X89414359Y-99147189D01*
X89406787Y-99130040D01*
X89400964Y-99079849D01*
X89400000Y-99075000D01*
X89400000Y-98175000D01*
X89400964Y-98170150D01*
X89406787Y-98119959D01*
X89414359Y-98102808D01*
X89419030Y-98079329D01*
X89435826Y-98054191D01*
X89444608Y-98034303D01*
X89458191Y-98020719D01*
X89473223Y-97998223D01*
X89495719Y-97983191D01*
X89509303Y-97969608D01*
X89529191Y-97960826D01*
X89554329Y-97944030D01*
X89577808Y-97939359D01*
X89594959Y-97931787D01*
X89645151Y-97925964D01*
X89650000Y-97925000D01*
X90350000Y-97925000D01*
X90354850Y-97925964D01*
G37*
G36*
X115691852Y-98604363D02*
G01*
X115267588Y-99028627D01*
X114206928Y-97967967D01*
X114476620Y-97698275D01*
X114627017Y-97547877D01*
X114627020Y-97547874D01*
X114631192Y-97543703D01*
X115691852Y-98604363D01*
G37*
G36*
X117742462Y-97967967D02*
G01*
X116681802Y-99028627D01*
X116257538Y-98604363D01*
X117021408Y-97840493D01*
X117314021Y-97547879D01*
X117314024Y-97547876D01*
X117318198Y-97543703D01*
X117742462Y-97967967D01*
G37*
G36*
X101012664Y-97066602D02*
G01*
X101175000Y-97138878D01*
X101318761Y-97243327D01*
X101437664Y-97375383D01*
X101526514Y-97529274D01*
X101581425Y-97698275D01*
X101600000Y-97875000D01*
X101581425Y-98051725D01*
X101526514Y-98220726D01*
X101437664Y-98374617D01*
X101318761Y-98506673D01*
X101175000Y-98611122D01*
X101012664Y-98683398D01*
X100838849Y-98720344D01*
X100661151Y-98720344D01*
X100487336Y-98683398D01*
X100325000Y-98611122D01*
X100181239Y-98506673D01*
X100062336Y-98374617D01*
X99973486Y-98220726D01*
X99918575Y-98051725D01*
X99900000Y-97875000D01*
X99918575Y-97698275D01*
X99973486Y-97529274D01*
X100062336Y-97375383D01*
X100181239Y-97243327D01*
X100325000Y-97138878D01*
X100487336Y-97066602D01*
X100661151Y-97029656D01*
X100838849Y-97029656D01*
X101012664Y-97066602D01*
G37*
G36*
X121282843Y-97632538D02*
G01*
X120257538Y-98657843D01*
X119444365Y-97844670D01*
X120209706Y-97079329D01*
X120465493Y-96823541D01*
X120465496Y-96823538D01*
X120469670Y-96819365D01*
X121282843Y-97632538D01*
G37*
G36*
X110225000Y-98550000D02*
G01*
X108775000Y-98550000D01*
X108775000Y-97400000D01*
X110225000Y-97400000D01*
X110225000Y-98550000D01*
G37*
G36*
X124354850Y-96925964D02*
G01*
X124405040Y-96931787D01*
X124422189Y-96939359D01*
X124445671Y-96944030D01*
X124470810Y-96960827D01*
X124490696Y-96969608D01*
X124504277Y-96983189D01*
X124526777Y-96998223D01*
X124541810Y-97020722D01*
X124555391Y-97034303D01*
X124564170Y-97054186D01*
X124580970Y-97079329D01*
X124585641Y-97102812D01*
X124593212Y-97119959D01*
X124599033Y-97170139D01*
X124600000Y-97175000D01*
X124600000Y-98075000D01*
X124599032Y-98079863D01*
X124593212Y-98130040D01*
X124585641Y-98147185D01*
X124580970Y-98170671D01*
X124564169Y-98195815D01*
X124555391Y-98215696D01*
X124541812Y-98229274D01*
X124526777Y-98251777D01*
X124504274Y-98266812D01*
X124490696Y-98280391D01*
X124470815Y-98289169D01*
X124445671Y-98305970D01*
X124422185Y-98310641D01*
X124405040Y-98318212D01*
X124354861Y-98324032D01*
X124350000Y-98325000D01*
X123650000Y-98325000D01*
X123645138Y-98324032D01*
X123594959Y-98318212D01*
X123577812Y-98310641D01*
X123554329Y-98305970D01*
X123529186Y-98289170D01*
X123509303Y-98280391D01*
X123495722Y-98266810D01*
X123473223Y-98251777D01*
X123458189Y-98229277D01*
X123444608Y-98215696D01*
X123435827Y-98195810D01*
X123419030Y-98170671D01*
X123414359Y-98147189D01*
X123406787Y-98130040D01*
X123400964Y-98079849D01*
X123400000Y-98075000D01*
X123400000Y-97175000D01*
X123400964Y-97170150D01*
X123406787Y-97119959D01*
X123414359Y-97102808D01*
X123419030Y-97079329D01*
X123435826Y-97054191D01*
X123444608Y-97034303D01*
X123458191Y-97020719D01*
X123473223Y-96998223D01*
X123495719Y-96983191D01*
X123509303Y-96969608D01*
X123529191Y-96960826D01*
X123554329Y-96944030D01*
X123577808Y-96939359D01*
X123594959Y-96931787D01*
X123645151Y-96925964D01*
X123650000Y-96925000D01*
X124350000Y-96925000D01*
X124354850Y-96925964D01*
G37*
G36*
X126354850Y-96925964D02*
G01*
X126405040Y-96931787D01*
X126422189Y-96939359D01*
X126445671Y-96944030D01*
X126470810Y-96960827D01*
X126490696Y-96969608D01*
X126504277Y-96983189D01*
X126526777Y-96998223D01*
X126541810Y-97020722D01*
X126555391Y-97034303D01*
X126564170Y-97054186D01*
X126580970Y-97079329D01*
X126585641Y-97102812D01*
X126593212Y-97119959D01*
X126599033Y-97170139D01*
X126600000Y-97175000D01*
X126600000Y-98075000D01*
X126599032Y-98079863D01*
X126593212Y-98130040D01*
X126585641Y-98147185D01*
X126580970Y-98170671D01*
X126564169Y-98195815D01*
X126555391Y-98215696D01*
X126541812Y-98229274D01*
X126526777Y-98251777D01*
X126504274Y-98266812D01*
X126490696Y-98280391D01*
X126470815Y-98289169D01*
X126445671Y-98305970D01*
X126422185Y-98310641D01*
X126405040Y-98318212D01*
X126354861Y-98324032D01*
X126350000Y-98325000D01*
X125650000Y-98325000D01*
X125645138Y-98324032D01*
X125594959Y-98318212D01*
X125577812Y-98310641D01*
X125554329Y-98305970D01*
X125529186Y-98289170D01*
X125509303Y-98280391D01*
X125495722Y-98266810D01*
X125473223Y-98251777D01*
X125458189Y-98229277D01*
X125444608Y-98215696D01*
X125435827Y-98195810D01*
X125419030Y-98170671D01*
X125414359Y-98147189D01*
X125406787Y-98130040D01*
X125400964Y-98079849D01*
X125400000Y-98075000D01*
X125400000Y-97175000D01*
X125400964Y-97170150D01*
X125406787Y-97119959D01*
X125414359Y-97102808D01*
X125419030Y-97079329D01*
X125435826Y-97054191D01*
X125444608Y-97034303D01*
X125458191Y-97020719D01*
X125473223Y-96998223D01*
X125495719Y-96983191D01*
X125509303Y-96969608D01*
X125529191Y-96960826D01*
X125554329Y-96944030D01*
X125577808Y-96939359D01*
X125594959Y-96931787D01*
X125645151Y-96925964D01*
X125650000Y-96925000D01*
X126350000Y-96925000D01*
X126354850Y-96925964D01*
G37*
G36*
X127998600Y-96925964D02*
G01*
X128047360Y-96931621D01*
X128064020Y-96938977D01*
X128087029Y-96943554D01*
X128111661Y-96960013D01*
X128130914Y-96968514D01*
X128144064Y-96981664D01*
X128166107Y-96996393D01*
X128180835Y-97018435D01*
X128193985Y-97031585D01*
X128202485Y-97050836D01*
X128218946Y-97075471D01*
X128223523Y-97098481D01*
X128230878Y-97115139D01*
X128236533Y-97163889D01*
X128237500Y-97168750D01*
X128237500Y-98081250D01*
X128236532Y-98086112D01*
X128230878Y-98134860D01*
X128223523Y-98151516D01*
X128218946Y-98174529D01*
X128202483Y-98199165D01*
X128193985Y-98218414D01*
X128180837Y-98231561D01*
X128166107Y-98253607D01*
X128144061Y-98268337D01*
X128130914Y-98281485D01*
X128111665Y-98289983D01*
X128087029Y-98306446D01*
X128064016Y-98311023D01*
X128047360Y-98318378D01*
X127998611Y-98324032D01*
X127993750Y-98325000D01*
X127506250Y-98325000D01*
X127501388Y-98324032D01*
X127452639Y-98318378D01*
X127435981Y-98311023D01*
X127412971Y-98306446D01*
X127388336Y-98289985D01*
X127369085Y-98281485D01*
X127355935Y-98268335D01*
X127333893Y-98253607D01*
X127319164Y-98231564D01*
X127306014Y-98218414D01*
X127297513Y-98199161D01*
X127281054Y-98174529D01*
X127276477Y-98151520D01*
X127269121Y-98134860D01*
X127263464Y-98086099D01*
X127262500Y-98081250D01*
X127262500Y-97168750D01*
X127263464Y-97163900D01*
X127269121Y-97115139D01*
X127276477Y-97098477D01*
X127281054Y-97075471D01*
X127297511Y-97050840D01*
X127306014Y-97031585D01*
X127319166Y-97018432D01*
X127333893Y-96996393D01*
X127355932Y-96981666D01*
X127369085Y-96968514D01*
X127388340Y-96960011D01*
X127412971Y-96943554D01*
X127435977Y-96938977D01*
X127452639Y-96931621D01*
X127501401Y-96925964D01*
X127506250Y-96925000D01*
X127993750Y-96925000D01*
X127998600Y-96925964D01*
G37*
G36*
X129873600Y-96925964D02*
G01*
X129922360Y-96931621D01*
X129939020Y-96938977D01*
X129962029Y-96943554D01*
X129986661Y-96960013D01*
X130005914Y-96968514D01*
X130019064Y-96981664D01*
X130041107Y-96996393D01*
X130055835Y-97018435D01*
X130068985Y-97031585D01*
X130077485Y-97050836D01*
X130093946Y-97075471D01*
X130098523Y-97098481D01*
X130105878Y-97115139D01*
X130111533Y-97163889D01*
X130112500Y-97168750D01*
X130112500Y-98081250D01*
X130111532Y-98086112D01*
X130105878Y-98134860D01*
X130098523Y-98151516D01*
X130093946Y-98174529D01*
X130077483Y-98199165D01*
X130068985Y-98218414D01*
X130055837Y-98231561D01*
X130041107Y-98253607D01*
X130019061Y-98268337D01*
X130005914Y-98281485D01*
X129986665Y-98289983D01*
X129962029Y-98306446D01*
X129939016Y-98311023D01*
X129922360Y-98318378D01*
X129873611Y-98324032D01*
X129868750Y-98325000D01*
X129381250Y-98325000D01*
X129376388Y-98324032D01*
X129327639Y-98318378D01*
X129310981Y-98311023D01*
X129287971Y-98306446D01*
X129263336Y-98289985D01*
X129244085Y-98281485D01*
X129230935Y-98268335D01*
X129208893Y-98253607D01*
X129194164Y-98231564D01*
X129181014Y-98218414D01*
X129172513Y-98199161D01*
X129156054Y-98174529D01*
X129151477Y-98151520D01*
X129144121Y-98134860D01*
X129138464Y-98086099D01*
X129137500Y-98081250D01*
X129137500Y-97168750D01*
X129138464Y-97163900D01*
X129144121Y-97115139D01*
X129151477Y-97098477D01*
X129156054Y-97075471D01*
X129172511Y-97050840D01*
X129181014Y-97031585D01*
X129194166Y-97018432D01*
X129208893Y-96996393D01*
X129230932Y-96981666D01*
X129244085Y-96968514D01*
X129263340Y-96960011D01*
X129287971Y-96943554D01*
X129310977Y-96938977D01*
X129327639Y-96931621D01*
X129376401Y-96925964D01*
X129381250Y-96925000D01*
X129868750Y-96925000D01*
X129873600Y-96925964D01*
G37*
G36*
X88446066Y-94749311D02*
G01*
X88634597Y-94806501D01*
X88808348Y-94899373D01*
X88960642Y-95024358D01*
X89085627Y-95176652D01*
X89178499Y-95350403D01*
X89235689Y-95538934D01*
X89255000Y-95735000D01*
X89235689Y-95931066D01*
X89178499Y-96119597D01*
X89085627Y-96293348D01*
X88960642Y-96445642D01*
X88808348Y-96570627D01*
X88634597Y-96663499D01*
X88446066Y-96720689D01*
X88250000Y-96740000D01*
X88053934Y-96720689D01*
X87865403Y-96663499D01*
X87691652Y-96570627D01*
X87539358Y-96445642D01*
X87414373Y-96293348D01*
X87321501Y-96119597D01*
X87264311Y-95931066D01*
X87245000Y-95735000D01*
X87264311Y-95538934D01*
X87321501Y-95350403D01*
X87414373Y-95176652D01*
X87539358Y-95024358D01*
X87691652Y-94899373D01*
X87865403Y-94806501D01*
X88053934Y-94749311D01*
X88250000Y-94730000D01*
X88446066Y-94749311D01*
G37*
G36*
X92246066Y-94749311D02*
G01*
X92434597Y-94806501D01*
X92608348Y-94899373D01*
X92760642Y-95024358D01*
X92885627Y-95176652D01*
X92978499Y-95350403D01*
X93035689Y-95538934D01*
X93055000Y-95735000D01*
X93035689Y-95931066D01*
X92978499Y-96119597D01*
X92885627Y-96293348D01*
X92760642Y-96445642D01*
X92608348Y-96570627D01*
X92434597Y-96663499D01*
X92246066Y-96720689D01*
X92050000Y-96740000D01*
X91853934Y-96720689D01*
X91665403Y-96663499D01*
X91491652Y-96570627D01*
X91339358Y-96445642D01*
X91214373Y-96293348D01*
X91121501Y-96119597D01*
X91064311Y-95931066D01*
X91045000Y-95735000D01*
X91064311Y-95538934D01*
X91121501Y-95350403D01*
X91214373Y-95176652D01*
X91339358Y-95024358D01*
X91491652Y-94899373D01*
X91665403Y-94806501D01*
X91853934Y-94749311D01*
X92050000Y-94730000D01*
X92246066Y-94749311D01*
G37*
G36*
X101600000Y-90925000D02*
G01*
X99900000Y-90925000D01*
X99900000Y-89225000D01*
X101600000Y-89225000D01*
X101600000Y-90925000D01*
G37*
G36*
X112475000Y-90450000D02*
G01*
X111025000Y-90450000D01*
X111025000Y-89300000D01*
X112475000Y-89300000D01*
X112475000Y-90450000D01*
G37*
G36*
X106050000Y-90175000D02*
G01*
X103950000Y-90175000D01*
X103950000Y-84575000D01*
X106050000Y-84575000D01*
X106050000Y-90175000D01*
G37*
G36*
X124354850Y-87925964D02*
G01*
X124405040Y-87931787D01*
X124422189Y-87939359D01*
X124445671Y-87944030D01*
X124470810Y-87960827D01*
X124490696Y-87969608D01*
X124504277Y-87983189D01*
X124526777Y-87998223D01*
X124541810Y-88020722D01*
X124555391Y-88034303D01*
X124564170Y-88054186D01*
X124580970Y-88079329D01*
X124585641Y-88102812D01*
X124593212Y-88119959D01*
X124599033Y-88170139D01*
X124600000Y-88175000D01*
X124600000Y-89075000D01*
X124599032Y-89079863D01*
X124593212Y-89130040D01*
X124585641Y-89147185D01*
X124580970Y-89170671D01*
X124564169Y-89195815D01*
X124555391Y-89215696D01*
X124541812Y-89229274D01*
X124526777Y-89251777D01*
X124504274Y-89266812D01*
X124490696Y-89280391D01*
X124470815Y-89289169D01*
X124445671Y-89305970D01*
X124422185Y-89310641D01*
X124405040Y-89318212D01*
X124354861Y-89324032D01*
X124350000Y-89325000D01*
X123650000Y-89325000D01*
X123645138Y-89324032D01*
X123594959Y-89318212D01*
X123577812Y-89310641D01*
X123554329Y-89305970D01*
X123529186Y-89289170D01*
X123509303Y-89280391D01*
X123495722Y-89266810D01*
X123473223Y-89251777D01*
X123458189Y-89229277D01*
X123444608Y-89215696D01*
X123435827Y-89195810D01*
X123419030Y-89170671D01*
X123414359Y-89147189D01*
X123406787Y-89130040D01*
X123400964Y-89079849D01*
X123400000Y-89075000D01*
X123400000Y-88175000D01*
X123400964Y-88170150D01*
X123406787Y-88119959D01*
X123414359Y-88102808D01*
X123419030Y-88079329D01*
X123435826Y-88054191D01*
X123444608Y-88034303D01*
X123458191Y-88020719D01*
X123473223Y-87998223D01*
X123495719Y-87983191D01*
X123509303Y-87969608D01*
X123529191Y-87960826D01*
X123554329Y-87944030D01*
X123577808Y-87939359D01*
X123594959Y-87931787D01*
X123645151Y-87925964D01*
X123650000Y-87925000D01*
X124350000Y-87925000D01*
X124354850Y-87925964D01*
G37*
G36*
X126354850Y-87925964D02*
G01*
X126405040Y-87931787D01*
X126422189Y-87939359D01*
X126445671Y-87944030D01*
X126470810Y-87960827D01*
X126490696Y-87969608D01*
X126504277Y-87983189D01*
X126526777Y-87998223D01*
X126541810Y-88020722D01*
X126555391Y-88034303D01*
X126564170Y-88054186D01*
X126580970Y-88079329D01*
X126585641Y-88102812D01*
X126593212Y-88119959D01*
X126599033Y-88170139D01*
X126600000Y-88175000D01*
X126600000Y-89075000D01*
X126599032Y-89079863D01*
X126593212Y-89130040D01*
X126585641Y-89147185D01*
X126580970Y-89170671D01*
X126564169Y-89195815D01*
X126555391Y-89215696D01*
X126541812Y-89229274D01*
X126526777Y-89251777D01*
X126504274Y-89266812D01*
X126490696Y-89280391D01*
X126470815Y-89289169D01*
X126445671Y-89305970D01*
X126422185Y-89310641D01*
X126405040Y-89318212D01*
X126354861Y-89324032D01*
X126350000Y-89325000D01*
X125650000Y-89325000D01*
X125645138Y-89324032D01*
X125594959Y-89318212D01*
X125577812Y-89310641D01*
X125554329Y-89305970D01*
X125529186Y-89289170D01*
X125509303Y-89280391D01*
X125495722Y-89266810D01*
X125473223Y-89251777D01*
X125458189Y-89229277D01*
X125444608Y-89215696D01*
X125435827Y-89195810D01*
X125419030Y-89170671D01*
X125414359Y-89147189D01*
X125406787Y-89130040D01*
X125400964Y-89079849D01*
X125400000Y-89075000D01*
X125400000Y-88175000D01*
X125400964Y-88170150D01*
X125406787Y-88119959D01*
X125414359Y-88102808D01*
X125419030Y-88079329D01*
X125435826Y-88054191D01*
X125444608Y-88034303D01*
X125458191Y-88020719D01*
X125473223Y-87998223D01*
X125495719Y-87983191D01*
X125509303Y-87969608D01*
X125529191Y-87960826D01*
X125554329Y-87944030D01*
X125577808Y-87939359D01*
X125594959Y-87931787D01*
X125645151Y-87925964D01*
X125650000Y-87925000D01*
X126350000Y-87925000D01*
X126354850Y-87925964D01*
G37*
G36*
X128061100Y-87925964D02*
G01*
X128109860Y-87931621D01*
X128126520Y-87938977D01*
X128149529Y-87943554D01*
X128174161Y-87960013D01*
X128193414Y-87968514D01*
X128206564Y-87981664D01*
X128228607Y-87996393D01*
X128243335Y-88018435D01*
X128256485Y-88031585D01*
X128264985Y-88050836D01*
X128281446Y-88075471D01*
X128286023Y-88098481D01*
X128293378Y-88115139D01*
X128299033Y-88163889D01*
X128300000Y-88168750D01*
X128300000Y-89081250D01*
X128299032Y-89086112D01*
X128293378Y-89134860D01*
X128286023Y-89151516D01*
X128281446Y-89174529D01*
X128264983Y-89199165D01*
X128256485Y-89218414D01*
X128243337Y-89231561D01*
X128228607Y-89253607D01*
X128206561Y-89268337D01*
X128193414Y-89281485D01*
X128174165Y-89289983D01*
X128149529Y-89306446D01*
X128126516Y-89311023D01*
X128109860Y-89318378D01*
X128061111Y-89324032D01*
X128056250Y-89325000D01*
X127568750Y-89325000D01*
X127563888Y-89324032D01*
X127515139Y-89318378D01*
X127498481Y-89311023D01*
X127475471Y-89306446D01*
X127450836Y-89289985D01*
X127431585Y-89281485D01*
X127418435Y-89268335D01*
X127396393Y-89253607D01*
X127381664Y-89231564D01*
X127368514Y-89218414D01*
X127360013Y-89199161D01*
X127343554Y-89174529D01*
X127338977Y-89151520D01*
X127331621Y-89134860D01*
X127325964Y-89086099D01*
X127325000Y-89081250D01*
X127325000Y-88168750D01*
X127325964Y-88163900D01*
X127331621Y-88115139D01*
X127338977Y-88098477D01*
X127343554Y-88075471D01*
X127360011Y-88050840D01*
X127368514Y-88031585D01*
X127381666Y-88018432D01*
X127396393Y-87996393D01*
X127418432Y-87981666D01*
X127431585Y-87968514D01*
X127450840Y-87960011D01*
X127475471Y-87943554D01*
X127498477Y-87938977D01*
X127515139Y-87931621D01*
X127563901Y-87925964D01*
X127568750Y-87925000D01*
X128056250Y-87925000D01*
X128061100Y-87925964D01*
G37*
G36*
X129936100Y-87925964D02*
G01*
X129984860Y-87931621D01*
X130001520Y-87938977D01*
X130024529Y-87943554D01*
X130049161Y-87960013D01*
X130068414Y-87968514D01*
X130081564Y-87981664D01*
X130103607Y-87996393D01*
X130118335Y-88018435D01*
X130131485Y-88031585D01*
X130139985Y-88050836D01*
X130156446Y-88075471D01*
X130161023Y-88098481D01*
X130168378Y-88115139D01*
X130174033Y-88163889D01*
X130175000Y-88168750D01*
X130175000Y-89081250D01*
X130174032Y-89086112D01*
X130168378Y-89134860D01*
X130161023Y-89151516D01*
X130156446Y-89174529D01*
X130139983Y-89199165D01*
X130131485Y-89218414D01*
X130118337Y-89231561D01*
X130103607Y-89253607D01*
X130081561Y-89268337D01*
X130068414Y-89281485D01*
X130049165Y-89289983D01*
X130024529Y-89306446D01*
X130001516Y-89311023D01*
X129984860Y-89318378D01*
X129936111Y-89324032D01*
X129931250Y-89325000D01*
X129443750Y-89325000D01*
X129438888Y-89324032D01*
X129390139Y-89318378D01*
X129373481Y-89311023D01*
X129350471Y-89306446D01*
X129325836Y-89289985D01*
X129306585Y-89281485D01*
X129293435Y-89268335D01*
X129271393Y-89253607D01*
X129256664Y-89231564D01*
X129243514Y-89218414D01*
X129235013Y-89199161D01*
X129218554Y-89174529D01*
X129213977Y-89151520D01*
X129206621Y-89134860D01*
X129200964Y-89086099D01*
X129200000Y-89081250D01*
X129200000Y-88168750D01*
X129200964Y-88163900D01*
X129206621Y-88115139D01*
X129213977Y-88098477D01*
X129218554Y-88075471D01*
X129235011Y-88050840D01*
X129243514Y-88031585D01*
X129256666Y-88018432D01*
X129271393Y-87996393D01*
X129293432Y-87981666D01*
X129306585Y-87968514D01*
X129325840Y-87960011D01*
X129350471Y-87943554D01*
X129373477Y-87938977D01*
X129390139Y-87931621D01*
X129438901Y-87925964D01*
X129443750Y-87925000D01*
X129931250Y-87925000D01*
X129936100Y-87925964D01*
G37*
G36*
X110225000Y-89100000D02*
G01*
X108775000Y-89100000D01*
X108775000Y-87950000D01*
X110225000Y-87950000D01*
X110225000Y-89100000D01*
G37*
G36*
X92270000Y-88725000D02*
G01*
X90570000Y-88725000D01*
X90570000Y-87025000D01*
X92270000Y-87025000D01*
X92270000Y-88725000D01*
G37*
G36*
X122100000Y-88725000D02*
G01*
X120400000Y-88725000D01*
X120400000Y-87025000D01*
X122100000Y-87025000D01*
X122100000Y-88725000D01*
G37*
G36*
X94222664Y-87066602D02*
G01*
X94385000Y-87138878D01*
X94528761Y-87243327D01*
X94647664Y-87375383D01*
X94736514Y-87529274D01*
X94791425Y-87698275D01*
X94810000Y-87875000D01*
X94791425Y-88051725D01*
X94736514Y-88220726D01*
X94647664Y-88374617D01*
X94528761Y-88506673D01*
X94385000Y-88611122D01*
X94222664Y-88683398D01*
X94048849Y-88720344D01*
X93871151Y-88720344D01*
X93697336Y-88683398D01*
X93535000Y-88611122D01*
X93391239Y-88506673D01*
X93272336Y-88374617D01*
X93183486Y-88220726D01*
X93128575Y-88051725D01*
X93110000Y-87875000D01*
X93128575Y-87698275D01*
X93183486Y-87529274D01*
X93272336Y-87375383D01*
X93391239Y-87243327D01*
X93535000Y-87138878D01*
X93697336Y-87066602D01*
X93871151Y-87029656D01*
X94048849Y-87029656D01*
X94222664Y-87066602D01*
G37*
G36*
X96762664Y-87066602D02*
G01*
X96925000Y-87138878D01*
X97068761Y-87243327D01*
X97187664Y-87375383D01*
X97276514Y-87529274D01*
X97331425Y-87698275D01*
X97350000Y-87875000D01*
X97331425Y-88051725D01*
X97276514Y-88220726D01*
X97187664Y-88374617D01*
X97068761Y-88506673D01*
X96925000Y-88611122D01*
X96762664Y-88683398D01*
X96588849Y-88720344D01*
X96411151Y-88720344D01*
X96237336Y-88683398D01*
X96075000Y-88611122D01*
X95931239Y-88506673D01*
X95812336Y-88374617D01*
X95723486Y-88220726D01*
X95668575Y-88051725D01*
X95650000Y-87875000D01*
X95668575Y-87698275D01*
X95723486Y-87529274D01*
X95812336Y-87375383D01*
X95931239Y-87243327D01*
X96075000Y-87138878D01*
X96237336Y-87066602D01*
X96411151Y-87029656D01*
X96588849Y-87029656D01*
X96762664Y-87066602D01*
G37*
G36*
X112475000Y-88650000D02*
G01*
X111025000Y-88650000D01*
X111025000Y-87500000D01*
X112475000Y-87500000D01*
X112475000Y-88650000D01*
G37*
G36*
X115691852Y-87438173D02*
G01*
X114631192Y-88498833D01*
X114206928Y-88074569D01*
X114987407Y-87294090D01*
X115263411Y-87018085D01*
X115263414Y-87018082D01*
X115267588Y-87013909D01*
X115691852Y-87438173D01*
G37*
G36*
X117742462Y-88074569D02*
G01*
X117318198Y-88498833D01*
X116257538Y-87438173D01*
X116556833Y-87138878D01*
X116677627Y-87018083D01*
X116677630Y-87018080D01*
X116681802Y-87013909D01*
X117742462Y-88074569D01*
G37*
G36*
X101012664Y-86726602D02*
G01*
X101175000Y-86798878D01*
X101318761Y-86903327D01*
X101437664Y-87035383D01*
X101526514Y-87189274D01*
X101581425Y-87358275D01*
X101600000Y-87535000D01*
X101581425Y-87711725D01*
X101526514Y-87880726D01*
X101437664Y-88034617D01*
X101318761Y-88166673D01*
X101175000Y-88271122D01*
X101012664Y-88343398D01*
X100838849Y-88380344D01*
X100661151Y-88380344D01*
X100487336Y-88343398D01*
X100325000Y-88271122D01*
X100181239Y-88166673D01*
X100062336Y-88034617D01*
X99973486Y-87880726D01*
X99918575Y-87711725D01*
X99900000Y-87535000D01*
X99918575Y-87358275D01*
X99973486Y-87189274D01*
X100062336Y-87035383D01*
X100181239Y-86903327D01*
X100325000Y-86798878D01*
X100487336Y-86726602D01*
X100661151Y-86689656D01*
X100838849Y-86689656D01*
X101012664Y-86726602D01*
G37*
G36*
X115126167Y-86872487D02*
G01*
X114065507Y-87933147D01*
X113641243Y-87508883D01*
X114423524Y-86726602D01*
X114697726Y-86452399D01*
X114697729Y-86452396D01*
X114701903Y-86448223D01*
X115126167Y-86872487D01*
G37*
G36*
X118308147Y-87508883D02*
G01*
X117883883Y-87933147D01*
X116823223Y-86872487D01*
X117106265Y-86589445D01*
X117243312Y-86452397D01*
X117243315Y-86452394D01*
X117247487Y-86448223D01*
X118308147Y-87508883D01*
G37*
G36*
X131970000Y-87900000D02*
G01*
X131030000Y-87900000D01*
X131030000Y-87150000D01*
X131970000Y-87150000D01*
X131970000Y-87900000D01*
G37*
G36*
X134550000Y-87775000D02*
G01*
X132550000Y-87775000D01*
X132550000Y-86775000D01*
X134550000Y-86775000D01*
X134550000Y-87775000D01*
G37*
G36*
X137650493Y-86137239D02*
G01*
X137789242Y-86210060D01*
X137906532Y-86313970D01*
X137995546Y-86442930D01*
X138051112Y-86589445D01*
X138070000Y-86745000D01*
X138051112Y-86900555D01*
X137995546Y-87047070D01*
X137906532Y-87176030D01*
X137789242Y-87279940D01*
X137650493Y-87352761D01*
X137498349Y-87390261D01*
X137341651Y-87390261D01*
X137189507Y-87352761D01*
X137050758Y-87279940D01*
X136933468Y-87176030D01*
X136844454Y-87047070D01*
X136788888Y-86900555D01*
X136770000Y-86745000D01*
X136788888Y-86589445D01*
X136844454Y-86442930D01*
X136933468Y-86313970D01*
X137050758Y-86210060D01*
X137189507Y-86137239D01*
X137341651Y-86099739D01*
X137498349Y-86099739D01*
X137650493Y-86137239D01*
G37*
G36*
X140190493Y-86137239D02*
G01*
X140329242Y-86210060D01*
X140446532Y-86313970D01*
X140535546Y-86442930D01*
X140591112Y-86589445D01*
X140610000Y-86745000D01*
X140591112Y-86900555D01*
X140535546Y-87047070D01*
X140446532Y-87176030D01*
X140329242Y-87279940D01*
X140190493Y-87352761D01*
X140038349Y-87390261D01*
X139881651Y-87390261D01*
X139729507Y-87352761D01*
X139590758Y-87279940D01*
X139473468Y-87176030D01*
X139384454Y-87047070D01*
X139328888Y-86900555D01*
X139310000Y-86745000D01*
X139328888Y-86589445D01*
X139384454Y-86442930D01*
X139473468Y-86313970D01*
X139590758Y-86210060D01*
X139729507Y-86137239D01*
X139881651Y-86099739D01*
X140038349Y-86099739D01*
X140190493Y-86137239D01*
G37*
G36*
X142730493Y-86137239D02*
G01*
X142869242Y-86210060D01*
X142986532Y-86313970D01*
X143075546Y-86442930D01*
X143131112Y-86589445D01*
X143150000Y-86745000D01*
X143131112Y-86900555D01*
X143075546Y-87047070D01*
X142986532Y-87176030D01*
X142869242Y-87279940D01*
X142730493Y-87352761D01*
X142578349Y-87390261D01*
X142421651Y-87390261D01*
X142269507Y-87352761D01*
X142130758Y-87279940D01*
X142013468Y-87176030D01*
X141924454Y-87047070D01*
X141868888Y-86900555D01*
X141850000Y-86745000D01*
X141868888Y-86589445D01*
X141924454Y-86442930D01*
X142013468Y-86313970D01*
X142130758Y-86210060D01*
X142269507Y-86137239D01*
X142421651Y-86099739D01*
X142578349Y-86099739D01*
X142730493Y-86137239D01*
G37*
G36*
X114560481Y-86306802D02*
G01*
X113499821Y-87367462D01*
X113075557Y-86943198D01*
X113868755Y-86150000D01*
X114132040Y-85886714D01*
X114132043Y-85886711D01*
X114136217Y-85882538D01*
X114560481Y-86306802D01*
G37*
G36*
X118873833Y-86943198D02*
G01*
X118449569Y-87367462D01*
X117388909Y-86306802D01*
X117601042Y-86094668D01*
X117808998Y-85886712D01*
X117809001Y-85886709D01*
X117813173Y-85882538D01*
X118873833Y-86943198D01*
G37*
G36*
X110225000Y-87300000D02*
G01*
X108775000Y-87300000D01*
X108775000Y-86150000D01*
X110225000Y-86150000D01*
X110225000Y-87300000D01*
G37*
G36*
X126000000Y-86875000D02*
G01*
X124500000Y-86875000D01*
X124500000Y-85375000D01*
X126000000Y-85375000D01*
X126000000Y-86875000D01*
G37*
G36*
X129916891Y-85393804D02*
G01*
X130075413Y-85449273D01*
X130217617Y-85538626D01*
X130336374Y-85657383D01*
X130425727Y-85799587D01*
X130481196Y-85958109D01*
X130500000Y-86125000D01*
X130481196Y-86291891D01*
X130425727Y-86450413D01*
X130336374Y-86592617D01*
X130217617Y-86711374D01*
X130075413Y-86800727D01*
X129916891Y-86856196D01*
X129750000Y-86875000D01*
X129583109Y-86856196D01*
X129424587Y-86800727D01*
X129282383Y-86711374D01*
X129163626Y-86592617D01*
X129074273Y-86450413D01*
X129018804Y-86291891D01*
X129000000Y-86125000D01*
X129018804Y-85958109D01*
X129074273Y-85799587D01*
X129163626Y-85657383D01*
X129282383Y-85538626D01*
X129424587Y-85449273D01*
X129583109Y-85393804D01*
X129750000Y-85375000D01*
X129916891Y-85393804D01*
G37*
G36*
X113994796Y-85741117D02*
G01*
X112934136Y-86801777D01*
X112509872Y-86377513D01*
X113260959Y-85626426D01*
X113566355Y-85321029D01*
X113566358Y-85321026D01*
X113570532Y-85316853D01*
X113994796Y-85741117D01*
G37*
G36*
X119439518Y-86377513D02*
G01*
X119015254Y-86801777D01*
X117954594Y-85741117D01*
X118246438Y-85449273D01*
X118374683Y-85321027D01*
X118374686Y-85321024D01*
X118378858Y-85316853D01*
X119439518Y-86377513D01*
G37*
G36*
X134550000Y-86505000D02*
G01*
X132550000Y-86505000D01*
X132550000Y-85505000D01*
X134550000Y-85505000D01*
X134550000Y-86505000D01*
G37*
G36*
X131970000Y-86500000D02*
G01*
X131030000Y-86500000D01*
X131030000Y-85750000D01*
X131970000Y-85750000D01*
X131970000Y-86500000D01*
G37*
G36*
X113429110Y-85175431D02*
G01*
X112368450Y-86236091D01*
X111944186Y-85811827D01*
X112655472Y-85100541D01*
X113000669Y-84755343D01*
X113000672Y-84755340D01*
X113004846Y-84751167D01*
X113429110Y-85175431D01*
G37*
G36*
X120005204Y-85811827D02*
G01*
X119580940Y-86236091D01*
X118520280Y-85175431D01*
X118835307Y-84860404D01*
X118940369Y-84755341D01*
X118940372Y-84755338D01*
X118944544Y-84751167D01*
X120005204Y-85811827D01*
G37*
G36*
X101012664Y-84186602D02*
G01*
X101175000Y-84258878D01*
X101318761Y-84363327D01*
X101437664Y-84495383D01*
X101526514Y-84649274D01*
X101581425Y-84818275D01*
X101600000Y-84995000D01*
X101581425Y-85171725D01*
X101526514Y-85340726D01*
X101437664Y-85494617D01*
X101318761Y-85626673D01*
X101175000Y-85731122D01*
X101012664Y-85803398D01*
X100838849Y-85840344D01*
X100661151Y-85840344D01*
X100487336Y-85803398D01*
X100325000Y-85731122D01*
X100181239Y-85626673D01*
X100062336Y-85494617D01*
X99973486Y-85340726D01*
X99918575Y-85171725D01*
X99900000Y-84995000D01*
X99918575Y-84818275D01*
X99973486Y-84649274D01*
X100062336Y-84495383D01*
X100181239Y-84363327D01*
X100325000Y-84258878D01*
X100487336Y-84186602D01*
X100661151Y-84149656D01*
X100838849Y-84149656D01*
X101012664Y-84186602D01*
G37*
G36*
X112863425Y-84609746D02*
G01*
X111802765Y-85670406D01*
X111378501Y-85246142D01*
X112129260Y-84495383D01*
X112434984Y-84189658D01*
X112434987Y-84189655D01*
X112439161Y-84185482D01*
X112863425Y-84609746D01*
G37*
G36*
X120570889Y-85246142D02*
G01*
X120146625Y-85670406D01*
X119085965Y-84609746D01*
X119332384Y-84363327D01*
X119506054Y-84189656D01*
X119506057Y-84189653D01*
X119510229Y-84185482D01*
X120570889Y-85246142D01*
G37*
G36*
X134550000Y-85235000D02*
G01*
X132550000Y-85235000D01*
X132550000Y-84235000D01*
X134550000Y-84235000D01*
X134550000Y-85235000D01*
G37*
G36*
X112297740Y-84044060D02*
G01*
X111237080Y-85104720D01*
X110812816Y-84680456D01*
X111534182Y-83959090D01*
X111869299Y-83623972D01*
X111869302Y-83623969D01*
X111873476Y-83619796D01*
X112297740Y-84044060D01*
G37*
G36*
X121136574Y-84680456D02*
G01*
X120712310Y-85104720D01*
X119651650Y-84044060D01*
X119863783Y-83831926D01*
X120071739Y-83623970D01*
X120071742Y-83623967D01*
X120075914Y-83619796D01*
X121136574Y-84680456D01*
G37*
G36*
X88446066Y-82889311D02*
G01*
X88634597Y-82946501D01*
X88808348Y-83039373D01*
X88960642Y-83164358D01*
X89085627Y-83316652D01*
X89178499Y-83490403D01*
X89235689Y-83678934D01*
X89255000Y-83875000D01*
X89235689Y-84071066D01*
X89178499Y-84259597D01*
X89085627Y-84433348D01*
X88960642Y-84585642D01*
X88808348Y-84710627D01*
X88634597Y-84803499D01*
X88446066Y-84860689D01*
X88250000Y-84880000D01*
X88053934Y-84860689D01*
X87865403Y-84803499D01*
X87691652Y-84710627D01*
X87539358Y-84585642D01*
X87414373Y-84433348D01*
X87321501Y-84259597D01*
X87264311Y-84071066D01*
X87245000Y-83875000D01*
X87264311Y-83678934D01*
X87321501Y-83490403D01*
X87414373Y-83316652D01*
X87539358Y-83164358D01*
X87691652Y-83039373D01*
X87865403Y-82946501D01*
X88053934Y-82889311D01*
X88250000Y-82870000D01*
X88446066Y-82889311D01*
G37*
G36*
X92246066Y-82889311D02*
G01*
X92434597Y-82946501D01*
X92608348Y-83039373D01*
X92760642Y-83164358D01*
X92885627Y-83316652D01*
X92978499Y-83490403D01*
X93035689Y-83678934D01*
X93055000Y-83875000D01*
X93035689Y-84071066D01*
X92978499Y-84259597D01*
X92885627Y-84433348D01*
X92760642Y-84585642D01*
X92608348Y-84710627D01*
X92434597Y-84803499D01*
X92246066Y-84860689D01*
X92050000Y-84880000D01*
X91853934Y-84860689D01*
X91665403Y-84803499D01*
X91491652Y-84710627D01*
X91339358Y-84585642D01*
X91214373Y-84433348D01*
X91121501Y-84259597D01*
X91064311Y-84071066D01*
X91045000Y-83875000D01*
X91064311Y-83678934D01*
X91121501Y-83490403D01*
X91214373Y-83316652D01*
X91339358Y-83164358D01*
X91491652Y-83039373D01*
X91665403Y-82946501D01*
X91853934Y-82889311D01*
X92050000Y-82870000D01*
X92246066Y-82889311D01*
G37*
G36*
X111732054Y-83478375D02*
G01*
X110671394Y-84539035D01*
X110247130Y-84114771D01*
X110887702Y-83474199D01*
X111303613Y-83058287D01*
X111303616Y-83058284D01*
X111307790Y-83054111D01*
X111732054Y-83478375D01*
G37*
G36*
X121702260Y-84114771D02*
G01*
X121277996Y-84539035D01*
X120217336Y-83478375D01*
X120531353Y-83164358D01*
X120637425Y-83058285D01*
X120637428Y-83058282D01*
X120641600Y-83054111D01*
X121702260Y-84114771D01*
G37*
G36*
X134550000Y-83965000D02*
G01*
X132550000Y-83965000D01*
X132550000Y-82965000D01*
X134550000Y-82965000D01*
X134550000Y-83965000D01*
G37*
G36*
X101012664Y-81646602D02*
G01*
X101175000Y-81718878D01*
X101318761Y-81823327D01*
X101437664Y-81955383D01*
X101526514Y-82109274D01*
X101581425Y-82278275D01*
X101600000Y-82455000D01*
X101581425Y-82631725D01*
X101526514Y-82800726D01*
X101437664Y-82954617D01*
X101318761Y-83086673D01*
X101175000Y-83191122D01*
X101012664Y-83263398D01*
X100838849Y-83300344D01*
X100661151Y-83300344D01*
X100487336Y-83263398D01*
X100325000Y-83191122D01*
X100181239Y-83086673D01*
X100062336Y-82954617D01*
X99973486Y-82800726D01*
X99918575Y-82631725D01*
X99900000Y-82455000D01*
X99918575Y-82278275D01*
X99973486Y-82109274D01*
X100062336Y-81955383D01*
X100181239Y-81823327D01*
X100325000Y-81718878D01*
X100487336Y-81646602D01*
X100661151Y-81609656D01*
X100838849Y-81609656D01*
X101012664Y-81646602D01*
G37*
G36*
X134550000Y-82695000D02*
G01*
X132550000Y-82695000D01*
X132550000Y-81695000D01*
X134550000Y-81695000D01*
X134550000Y-82695000D01*
G37*
G36*
X111732054Y-82064161D02*
G01*
X111307790Y-82488425D01*
X110247130Y-81427765D01*
X110459262Y-81215631D01*
X110667219Y-81007675D01*
X110667222Y-81007672D01*
X110671394Y-81003501D01*
X111732054Y-82064161D01*
G37*
G36*
X121702260Y-81427765D02*
G01*
X120641600Y-82488425D01*
X120217336Y-82064161D01*
X120959964Y-81321533D01*
X121273819Y-81007677D01*
X121273822Y-81007674D01*
X121277996Y-81003501D01*
X121702260Y-81427765D01*
G37*
G36*
X112297740Y-81498476D02*
G01*
X111873476Y-81922740D01*
X110812816Y-80862080D01*
X111128470Y-80546426D01*
X111232905Y-80441990D01*
X111232908Y-80441987D01*
X111237080Y-80437816D01*
X112297740Y-81498476D01*
G37*
G36*
X121136574Y-80862080D02*
G01*
X120075914Y-81922740D01*
X119651650Y-81498476D01*
X120427043Y-80723083D01*
X120708133Y-80441992D01*
X120708136Y-80441989D01*
X120712310Y-80437816D01*
X121136574Y-80862080D01*
G37*
G36*
X88354850Y-80175964D02*
G01*
X88405040Y-80181787D01*
X88422189Y-80189359D01*
X88445671Y-80194030D01*
X88470810Y-80210827D01*
X88490696Y-80219608D01*
X88504277Y-80233189D01*
X88526777Y-80248223D01*
X88541810Y-80270722D01*
X88555391Y-80284303D01*
X88564170Y-80304186D01*
X88580970Y-80329329D01*
X88585641Y-80352812D01*
X88593212Y-80369959D01*
X88599033Y-80420139D01*
X88600000Y-80425000D01*
X88600000Y-81325000D01*
X88599032Y-81329863D01*
X88593212Y-81380040D01*
X88585641Y-81397185D01*
X88580970Y-81420671D01*
X88564169Y-81445815D01*
X88555391Y-81465696D01*
X88541812Y-81479274D01*
X88526777Y-81501777D01*
X88504274Y-81516812D01*
X88490696Y-81530391D01*
X88470815Y-81539169D01*
X88445671Y-81555970D01*
X88422185Y-81560641D01*
X88405040Y-81568212D01*
X88354861Y-81574032D01*
X88350000Y-81575000D01*
X87650000Y-81575000D01*
X87645138Y-81574032D01*
X87594959Y-81568212D01*
X87577812Y-81560641D01*
X87554329Y-81555970D01*
X87529186Y-81539170D01*
X87509303Y-81530391D01*
X87495722Y-81516810D01*
X87473223Y-81501777D01*
X87458189Y-81479277D01*
X87444608Y-81465696D01*
X87435827Y-81445810D01*
X87419030Y-81420671D01*
X87414359Y-81397189D01*
X87406787Y-81380040D01*
X87400964Y-81329849D01*
X87400000Y-81325000D01*
X87400000Y-80425000D01*
X87400964Y-80420150D01*
X87406787Y-80369959D01*
X87414359Y-80352808D01*
X87419030Y-80329329D01*
X87435826Y-80304191D01*
X87444608Y-80284303D01*
X87458191Y-80270719D01*
X87473223Y-80248223D01*
X87495719Y-80233191D01*
X87509303Y-80219608D01*
X87529191Y-80210826D01*
X87554329Y-80194030D01*
X87577808Y-80189359D01*
X87594959Y-80181787D01*
X87645151Y-80175964D01*
X87650000Y-80175000D01*
X88350000Y-80175000D01*
X88354850Y-80175964D01*
G37*
G36*
X90354850Y-80175964D02*
G01*
X90405040Y-80181787D01*
X90422189Y-80189359D01*
X90445671Y-80194030D01*
X90470810Y-80210827D01*
X90490696Y-80219608D01*
X90504277Y-80233189D01*
X90526777Y-80248223D01*
X90541810Y-80270722D01*
X90555391Y-80284303D01*
X90564170Y-80304186D01*
X90580970Y-80329329D01*
X90585641Y-80352812D01*
X90593212Y-80369959D01*
X90599033Y-80420139D01*
X90600000Y-80425000D01*
X90600000Y-81325000D01*
X90599032Y-81329863D01*
X90593212Y-81380040D01*
X90585641Y-81397185D01*
X90580970Y-81420671D01*
X90564169Y-81445815D01*
X90555391Y-81465696D01*
X90541812Y-81479274D01*
X90526777Y-81501777D01*
X90504274Y-81516812D01*
X90490696Y-81530391D01*
X90470815Y-81539169D01*
X90445671Y-81555970D01*
X90422185Y-81560641D01*
X90405040Y-81568212D01*
X90354861Y-81574032D01*
X90350000Y-81575000D01*
X89650000Y-81575000D01*
X89645138Y-81574032D01*
X89594959Y-81568212D01*
X89577812Y-81560641D01*
X89554329Y-81555970D01*
X89529186Y-81539170D01*
X89509303Y-81530391D01*
X89495722Y-81516810D01*
X89473223Y-81501777D01*
X89458189Y-81479277D01*
X89444608Y-81465696D01*
X89435827Y-81445810D01*
X89419030Y-81420671D01*
X89414359Y-81397189D01*
X89406787Y-81380040D01*
X89400964Y-81329849D01*
X89400000Y-81325000D01*
X89400000Y-80425000D01*
X89400964Y-80420150D01*
X89406787Y-80369959D01*
X89414359Y-80352808D01*
X89419030Y-80329329D01*
X89435826Y-80304191D01*
X89444608Y-80284303D01*
X89458191Y-80270719D01*
X89473223Y-80248223D01*
X89495719Y-80233191D01*
X89509303Y-80219608D01*
X89529191Y-80210826D01*
X89554329Y-80194030D01*
X89577808Y-80189359D01*
X89594959Y-80181787D01*
X89645151Y-80175964D01*
X89650000Y-80175000D01*
X90350000Y-80175000D01*
X90354850Y-80175964D01*
G37*
G36*
X134550000Y-81425000D02*
G01*
X132550000Y-81425000D01*
X132550000Y-80425000D01*
X134550000Y-80425000D01*
X134550000Y-81425000D01*
G37*
G36*
X112863425Y-80932790D02*
G01*
X112439161Y-81357054D01*
X111378501Y-80296394D01*
X111590633Y-80084261D01*
X111798590Y-79876304D01*
X111798593Y-79876301D01*
X111802765Y-79872130D01*
X112863425Y-80932790D01*
G37*
G36*
X120570889Y-80296394D02*
G01*
X119510229Y-81357054D01*
X119085965Y-80932790D01*
X119869665Y-80149090D01*
X120142448Y-79876306D01*
X120142451Y-79876303D01*
X120146625Y-79872130D01*
X120570889Y-80296394D01*
G37*
G36*
X113429110Y-80367105D02*
G01*
X113004846Y-80791369D01*
X111944186Y-79730709D01*
X112259512Y-79415383D01*
X112364275Y-79310619D01*
X112364278Y-79310616D01*
X112368450Y-79306445D01*
X113429110Y-80367105D01*
G37*
G36*
X120005204Y-79730709D02*
G01*
X118944544Y-80791369D01*
X118520280Y-80367105D01*
X119262386Y-79624999D01*
X119576763Y-79310621D01*
X119576766Y-79310618D01*
X119580940Y-79306445D01*
X120005204Y-79730709D01*
G37*
G36*
X101012664Y-79106602D02*
G01*
X101175000Y-79178878D01*
X101318761Y-79283327D01*
X101437664Y-79415383D01*
X101526514Y-79569274D01*
X101581425Y-79738275D01*
X101600000Y-79915000D01*
X101581425Y-80091725D01*
X101526514Y-80260726D01*
X101437664Y-80414617D01*
X101318761Y-80546673D01*
X101175000Y-80651122D01*
X101012664Y-80723398D01*
X100838849Y-80760344D01*
X100661151Y-80760344D01*
X100487336Y-80723398D01*
X100325000Y-80651122D01*
X100181239Y-80546673D01*
X100062336Y-80414617D01*
X99973486Y-80260726D01*
X99918575Y-80091725D01*
X99900000Y-79915000D01*
X99918575Y-79738275D01*
X99973486Y-79569274D01*
X100062336Y-79415383D01*
X100181239Y-79283327D01*
X100325000Y-79178878D01*
X100487336Y-79106602D01*
X100661151Y-79069656D01*
X100838849Y-79069656D01*
X101012664Y-79106602D01*
G37*
G36*
X106050000Y-80675000D02*
G01*
X103950000Y-80675000D01*
X103950000Y-75075000D01*
X106050000Y-75075000D01*
X106050000Y-80675000D01*
G37*
G36*
X125416891Y-78893804D02*
G01*
X125575413Y-78949273D01*
X125717617Y-79038626D01*
X125836374Y-79157383D01*
X125925727Y-79299587D01*
X125981196Y-79458109D01*
X126000000Y-79625000D01*
X125981196Y-79791891D01*
X125925727Y-79950413D01*
X125836374Y-80092617D01*
X125717617Y-80211374D01*
X125575413Y-80300727D01*
X125416891Y-80356196D01*
X125250000Y-80375000D01*
X125083109Y-80356196D01*
X124924587Y-80300727D01*
X124782383Y-80211374D01*
X124663626Y-80092617D01*
X124574273Y-79950413D01*
X124518804Y-79791891D01*
X124500000Y-79625000D01*
X124518804Y-79458109D01*
X124574273Y-79299587D01*
X124663626Y-79157383D01*
X124782383Y-79038626D01*
X124924587Y-78949273D01*
X125083109Y-78893804D01*
X125250000Y-78875000D01*
X125416891Y-78893804D01*
G37*
G36*
X129916891Y-78893804D02*
G01*
X130075413Y-78949273D01*
X130217617Y-79038626D01*
X130336374Y-79157383D01*
X130425727Y-79299587D01*
X130481196Y-79458109D01*
X130500000Y-79625000D01*
X130481196Y-79791891D01*
X130425727Y-79950413D01*
X130336374Y-80092617D01*
X130217617Y-80211374D01*
X130075413Y-80300727D01*
X129916891Y-80356196D01*
X129750000Y-80375000D01*
X129583109Y-80356196D01*
X129424587Y-80300727D01*
X129282383Y-80211374D01*
X129163626Y-80092617D01*
X129074273Y-79950413D01*
X129018804Y-79791891D01*
X129000000Y-79625000D01*
X129018804Y-79458109D01*
X129074273Y-79299587D01*
X129163626Y-79157383D01*
X129282383Y-79038626D01*
X129424587Y-78949273D01*
X129583109Y-78893804D01*
X129750000Y-78875000D01*
X129916891Y-78893804D01*
G37*
G36*
X113994796Y-79801419D02*
G01*
X113570532Y-80225683D01*
X112509872Y-79165023D01*
X112799895Y-78875000D01*
X112929961Y-78744933D01*
X112929964Y-78744930D01*
X112934136Y-78740759D01*
X113994796Y-79801419D01*
G37*
G36*
X119439518Y-79165023D02*
G01*
X118378858Y-80225683D01*
X117954594Y-79801419D01*
X118717387Y-79038626D01*
X119011077Y-78744935D01*
X119011080Y-78744932D01*
X119015254Y-78740759D01*
X119439518Y-79165023D01*
G37*
G36*
X134550000Y-80155000D02*
G01*
X132550000Y-80155000D01*
X132550000Y-79155000D01*
X134550000Y-79155000D01*
X134550000Y-80155000D01*
G37*
G36*
X110225000Y-79850000D02*
G01*
X108775000Y-79850000D01*
X108775000Y-78700000D01*
X110225000Y-78700000D01*
X110225000Y-79850000D01*
G37*
G36*
X137650493Y-78517239D02*
G01*
X137789242Y-78590060D01*
X137906532Y-78693970D01*
X137995546Y-78822930D01*
X138051112Y-78969445D01*
X138070000Y-79125000D01*
X138051112Y-79280555D01*
X137995546Y-79427070D01*
X137906532Y-79556030D01*
X137789242Y-79659940D01*
X137650493Y-79732761D01*
X137498349Y-79770261D01*
X137341651Y-79770261D01*
X137189507Y-79732761D01*
X137050758Y-79659940D01*
X136933468Y-79556030D01*
X136844454Y-79427070D01*
X136788888Y-79280555D01*
X136770000Y-79125000D01*
X136788888Y-78969445D01*
X136844454Y-78822930D01*
X136933468Y-78693970D01*
X137050758Y-78590060D01*
X137189507Y-78517239D01*
X137341651Y-78479739D01*
X137498349Y-78479739D01*
X137650493Y-78517239D01*
G37*
G36*
X140190493Y-78517239D02*
G01*
X140329242Y-78590060D01*
X140446532Y-78693970D01*
X140535546Y-78822930D01*
X140591112Y-78969445D01*
X140610000Y-79125000D01*
X140591112Y-79280555D01*
X140535546Y-79427070D01*
X140446532Y-79556030D01*
X140329242Y-79659940D01*
X140190493Y-79732761D01*
X140038349Y-79770261D01*
X139881651Y-79770261D01*
X139729507Y-79732761D01*
X139590758Y-79659940D01*
X139473468Y-79556030D01*
X139384454Y-79427070D01*
X139328888Y-79280555D01*
X139310000Y-79125000D01*
X139328888Y-78969445D01*
X139384454Y-78822930D01*
X139473468Y-78693970D01*
X139590758Y-78590060D01*
X139729507Y-78517239D01*
X139881651Y-78479739D01*
X140038349Y-78479739D01*
X140190493Y-78517239D01*
G37*
G36*
X142730493Y-78517239D02*
G01*
X142869242Y-78590060D01*
X142986532Y-78693970D01*
X143075546Y-78822930D01*
X143131112Y-78969445D01*
X143150000Y-79125000D01*
X143131112Y-79280555D01*
X143075546Y-79427070D01*
X142986532Y-79556030D01*
X142869242Y-79659940D01*
X142730493Y-79732761D01*
X142578349Y-79770261D01*
X142421651Y-79770261D01*
X142269507Y-79732761D01*
X142130758Y-79659940D01*
X142013468Y-79556030D01*
X141924454Y-79427070D01*
X141868888Y-79280555D01*
X141850000Y-79125000D01*
X141868888Y-78969445D01*
X141924454Y-78822930D01*
X142013468Y-78693970D01*
X142130758Y-78590060D01*
X142269507Y-78517239D01*
X142421651Y-78479739D01*
X142578349Y-78479739D01*
X142730493Y-78517239D01*
G37*
G36*
X114560481Y-79235734D02*
G01*
X114136217Y-79659998D01*
X113075557Y-78599338D01*
X113287689Y-78387205D01*
X113495646Y-78179248D01*
X113495649Y-78179245D01*
X113499821Y-78175074D01*
X114560481Y-79235734D01*
G37*
G36*
X118873833Y-78599338D02*
G01*
X117813173Y-79659998D01*
X117388909Y-79235734D01*
X118144904Y-78479739D01*
X118445392Y-78179250D01*
X118445395Y-78179247D01*
X118449569Y-78175074D01*
X118873833Y-78599338D01*
G37*
G36*
X122555635Y-78405330D02*
G01*
X121530330Y-79430635D01*
X120717157Y-78617462D01*
X121460196Y-77874423D01*
X121738285Y-77596333D01*
X121738288Y-77596330D01*
X121742462Y-77592157D01*
X122555635Y-78405330D01*
G37*
G36*
X115126167Y-78670049D02*
G01*
X114701903Y-79094313D01*
X113641243Y-78033653D01*
X113956482Y-77718414D01*
X114061332Y-77613563D01*
X114061335Y-77613560D01*
X114065507Y-77609389D01*
X115126167Y-78670049D01*
G37*
G36*
X118308147Y-78033653D02*
G01*
X117247487Y-79094313D01*
X116823223Y-78670049D01*
X117608272Y-77885000D01*
X117879706Y-77613565D01*
X117879709Y-77613562D01*
X117883883Y-77609389D01*
X118308147Y-78033653D01*
G37*
G36*
X134550000Y-78885000D02*
G01*
X132550000Y-78885000D01*
X132550000Y-77885000D01*
X134550000Y-77885000D01*
X134550000Y-78885000D01*
G37*
G36*
X88354850Y-77425964D02*
G01*
X88405040Y-77431787D01*
X88422189Y-77439359D01*
X88445671Y-77444030D01*
X88470810Y-77460827D01*
X88490696Y-77469608D01*
X88504277Y-77483189D01*
X88526777Y-77498223D01*
X88541810Y-77520722D01*
X88555391Y-77534303D01*
X88564170Y-77554186D01*
X88580970Y-77579329D01*
X88585641Y-77602812D01*
X88593212Y-77619959D01*
X88599033Y-77670139D01*
X88600000Y-77675000D01*
X88600000Y-78575000D01*
X88599032Y-78579863D01*
X88593212Y-78630040D01*
X88585641Y-78647185D01*
X88580970Y-78670671D01*
X88564169Y-78695815D01*
X88555391Y-78715696D01*
X88541812Y-78729274D01*
X88526777Y-78751777D01*
X88504274Y-78766812D01*
X88490696Y-78780391D01*
X88470815Y-78789169D01*
X88445671Y-78805970D01*
X88422185Y-78810641D01*
X88405040Y-78818212D01*
X88354861Y-78824032D01*
X88350000Y-78825000D01*
X87650000Y-78825000D01*
X87645138Y-78824032D01*
X87594959Y-78818212D01*
X87577812Y-78810641D01*
X87554329Y-78805970D01*
X87529186Y-78789170D01*
X87509303Y-78780391D01*
X87495722Y-78766810D01*
X87473223Y-78751777D01*
X87458189Y-78729277D01*
X87444608Y-78715696D01*
X87435827Y-78695810D01*
X87419030Y-78670671D01*
X87414359Y-78647189D01*
X87406787Y-78630040D01*
X87400964Y-78579849D01*
X87400000Y-78575000D01*
X87400000Y-77675000D01*
X87400964Y-77670150D01*
X87406787Y-77619959D01*
X87414359Y-77602808D01*
X87419030Y-77579329D01*
X87435826Y-77554191D01*
X87444608Y-77534303D01*
X87458191Y-77520719D01*
X87473223Y-77498223D01*
X87495719Y-77483191D01*
X87509303Y-77469608D01*
X87529191Y-77460826D01*
X87554329Y-77444030D01*
X87577808Y-77439359D01*
X87594959Y-77431787D01*
X87645151Y-77425964D01*
X87650000Y-77425000D01*
X88350000Y-77425000D01*
X88354850Y-77425964D01*
G37*
G36*
X90354850Y-77425964D02*
G01*
X90405040Y-77431787D01*
X90422189Y-77439359D01*
X90445671Y-77444030D01*
X90470810Y-77460827D01*
X90490696Y-77469608D01*
X90504277Y-77483189D01*
X90526777Y-77498223D01*
X90541810Y-77520722D01*
X90555391Y-77534303D01*
X90564170Y-77554186D01*
X90580970Y-77579329D01*
X90585641Y-77602812D01*
X90593212Y-77619959D01*
X90599033Y-77670139D01*
X90600000Y-77675000D01*
X90600000Y-78575000D01*
X90599032Y-78579863D01*
X90593212Y-78630040D01*
X90585641Y-78647185D01*
X90580970Y-78670671D01*
X90564169Y-78695815D01*
X90555391Y-78715696D01*
X90541812Y-78729274D01*
X90526777Y-78751777D01*
X90504274Y-78766812D01*
X90490696Y-78780391D01*
X90470815Y-78789169D01*
X90445671Y-78805970D01*
X90422185Y-78810641D01*
X90405040Y-78818212D01*
X90354861Y-78824032D01*
X90350000Y-78825000D01*
X89650000Y-78825000D01*
X89645138Y-78824032D01*
X89594959Y-78818212D01*
X89577812Y-78810641D01*
X89554329Y-78805970D01*
X89529186Y-78789170D01*
X89509303Y-78780391D01*
X89495722Y-78766810D01*
X89473223Y-78751777D01*
X89458189Y-78729277D01*
X89444608Y-78715696D01*
X89435827Y-78695810D01*
X89419030Y-78670671D01*
X89414359Y-78647189D01*
X89406787Y-78630040D01*
X89400964Y-78579849D01*
X89400000Y-78575000D01*
X89400000Y-77675000D01*
X89400964Y-77670150D01*
X89406787Y-77619959D01*
X89414359Y-77602808D01*
X89419030Y-77579329D01*
X89435826Y-77554191D01*
X89444608Y-77534303D01*
X89458191Y-77520719D01*
X89473223Y-77498223D01*
X89495719Y-77483191D01*
X89509303Y-77469608D01*
X89529191Y-77460826D01*
X89554329Y-77444030D01*
X89577808Y-77439359D01*
X89594959Y-77431787D01*
X89645151Y-77425964D01*
X89650000Y-77425000D01*
X90350000Y-77425000D01*
X90354850Y-77425964D01*
G37*
G36*
X115691852Y-78104363D02*
G01*
X115267588Y-78528627D01*
X114206928Y-77467967D01*
X114476620Y-77198275D01*
X114627017Y-77047877D01*
X114627020Y-77047874D01*
X114631192Y-77043703D01*
X115691852Y-78104363D01*
G37*
G36*
X117742462Y-77467967D02*
G01*
X116681802Y-78528627D01*
X116257538Y-78104363D01*
X117021408Y-77340493D01*
X117314021Y-77047879D01*
X117314024Y-77047876D01*
X117318198Y-77043703D01*
X117742462Y-77467967D01*
G37*
G36*
X101012664Y-76566602D02*
G01*
X101175000Y-76638878D01*
X101318761Y-76743327D01*
X101437664Y-76875383D01*
X101526514Y-77029274D01*
X101581425Y-77198275D01*
X101600000Y-77375000D01*
X101581425Y-77551725D01*
X101526514Y-77720726D01*
X101437664Y-77874617D01*
X101318761Y-78006673D01*
X101175000Y-78111122D01*
X101012664Y-78183398D01*
X100838849Y-78220344D01*
X100661151Y-78220344D01*
X100487336Y-78183398D01*
X100325000Y-78111122D01*
X100181239Y-78006673D01*
X100062336Y-77874617D01*
X99973486Y-77720726D01*
X99918575Y-77551725D01*
X99900000Y-77375000D01*
X99918575Y-77198275D01*
X99973486Y-77029274D01*
X100062336Y-76875383D01*
X100181239Y-76743327D01*
X100325000Y-76638878D01*
X100487336Y-76566602D01*
X100661151Y-76529656D01*
X100838849Y-76529656D01*
X101012664Y-76566602D01*
G37*
G36*
X121282843Y-77132538D02*
G01*
X120257538Y-78157843D01*
X119444365Y-77344670D01*
X120209706Y-76579329D01*
X120465493Y-76323541D01*
X120465496Y-76323538D01*
X120469670Y-76319365D01*
X121282843Y-77132538D01*
G37*
G36*
X110225000Y-78050000D02*
G01*
X108775000Y-78050000D01*
X108775000Y-76900000D01*
X110225000Y-76900000D01*
X110225000Y-78050000D01*
G37*
G36*
X124354850Y-76425964D02*
G01*
X124405040Y-76431787D01*
X124422189Y-76439359D01*
X124445671Y-76444030D01*
X124470810Y-76460827D01*
X124490696Y-76469608D01*
X124504277Y-76483189D01*
X124526777Y-76498223D01*
X124541810Y-76520722D01*
X124555391Y-76534303D01*
X124564170Y-76554186D01*
X124580970Y-76579329D01*
X124585641Y-76602812D01*
X124593212Y-76619959D01*
X124599033Y-76670139D01*
X124600000Y-76675000D01*
X124600000Y-77575000D01*
X124599032Y-77579863D01*
X124593212Y-77630040D01*
X124585641Y-77647185D01*
X124580970Y-77670671D01*
X124564169Y-77695815D01*
X124555391Y-77715696D01*
X124541812Y-77729274D01*
X124526777Y-77751777D01*
X124504274Y-77766812D01*
X124490696Y-77780391D01*
X124470815Y-77789169D01*
X124445671Y-77805970D01*
X124422185Y-77810641D01*
X124405040Y-77818212D01*
X124354861Y-77824032D01*
X124350000Y-77825000D01*
X123650000Y-77825000D01*
X123645138Y-77824032D01*
X123594959Y-77818212D01*
X123577812Y-77810641D01*
X123554329Y-77805970D01*
X123529186Y-77789170D01*
X123509303Y-77780391D01*
X123495722Y-77766810D01*
X123473223Y-77751777D01*
X123458189Y-77729277D01*
X123444608Y-77715696D01*
X123435827Y-77695810D01*
X123419030Y-77670671D01*
X123414359Y-77647189D01*
X123406787Y-77630040D01*
X123400964Y-77579849D01*
X123400000Y-77575000D01*
X123400000Y-76675000D01*
X123400964Y-76670150D01*
X123406787Y-76619959D01*
X123414359Y-76602808D01*
X123419030Y-76579329D01*
X123435826Y-76554191D01*
X123444608Y-76534303D01*
X123458191Y-76520719D01*
X123473223Y-76498223D01*
X123495719Y-76483191D01*
X123509303Y-76469608D01*
X123529191Y-76460826D01*
X123554329Y-76444030D01*
X123577808Y-76439359D01*
X123594959Y-76431787D01*
X123645151Y-76425964D01*
X123650000Y-76425000D01*
X124350000Y-76425000D01*
X124354850Y-76425964D01*
G37*
G36*
X126354850Y-76425964D02*
G01*
X126405040Y-76431787D01*
X126422189Y-76439359D01*
X126445671Y-76444030D01*
X126470810Y-76460827D01*
X126490696Y-76469608D01*
X126504277Y-76483189D01*
X126526777Y-76498223D01*
X126541810Y-76520722D01*
X126555391Y-76534303D01*
X126564170Y-76554186D01*
X126580970Y-76579329D01*
X126585641Y-76602812D01*
X126593212Y-76619959D01*
X126599033Y-76670139D01*
X126600000Y-76675000D01*
X126600000Y-77575000D01*
X126599032Y-77579863D01*
X126593212Y-77630040D01*
X126585641Y-77647185D01*
X126580970Y-77670671D01*
X126564169Y-77695815D01*
X126555391Y-77715696D01*
X126541812Y-77729274D01*
X126526777Y-77751777D01*
X126504274Y-77766812D01*
X126490696Y-77780391D01*
X126470815Y-77789169D01*
X126445671Y-77805970D01*
X126422185Y-77810641D01*
X126405040Y-77818212D01*
X126354861Y-77824032D01*
X126350000Y-77825000D01*
X125650000Y-77825000D01*
X125645138Y-77824032D01*
X125594959Y-77818212D01*
X125577812Y-77810641D01*
X125554329Y-77805970D01*
X125529186Y-77789170D01*
X125509303Y-77780391D01*
X125495722Y-77766810D01*
X125473223Y-77751777D01*
X125458189Y-77729277D01*
X125444608Y-77715696D01*
X125435827Y-77695810D01*
X125419030Y-77670671D01*
X125414359Y-77647189D01*
X125406787Y-77630040D01*
X125400964Y-77579849D01*
X125400000Y-77575000D01*
X125400000Y-76675000D01*
X125400964Y-76670150D01*
X125406787Y-76619959D01*
X125414359Y-76602808D01*
X125419030Y-76579329D01*
X125435826Y-76554191D01*
X125444608Y-76534303D01*
X125458191Y-76520719D01*
X125473223Y-76498223D01*
X125495719Y-76483191D01*
X125509303Y-76469608D01*
X125529191Y-76460826D01*
X125554329Y-76444030D01*
X125577808Y-76439359D01*
X125594959Y-76431787D01*
X125645151Y-76425964D01*
X125650000Y-76425000D01*
X126350000Y-76425000D01*
X126354850Y-76425964D01*
G37*
G36*
X127998600Y-76425964D02*
G01*
X128047360Y-76431621D01*
X128064020Y-76438977D01*
X128087029Y-76443554D01*
X128111661Y-76460013D01*
X128130914Y-76468514D01*
X128144064Y-76481664D01*
X128166107Y-76496393D01*
X128180835Y-76518435D01*
X128193985Y-76531585D01*
X128202485Y-76550836D01*
X128218946Y-76575471D01*
X128223523Y-76598481D01*
X128230878Y-76615139D01*
X128236533Y-76663889D01*
X128237500Y-76668750D01*
X128237500Y-77581250D01*
X128236532Y-77586112D01*
X128230878Y-77634860D01*
X128223523Y-77651516D01*
X128218946Y-77674529D01*
X128202483Y-77699165D01*
X128193985Y-77718414D01*
X128180837Y-77731561D01*
X128166107Y-77753607D01*
X128144061Y-77768337D01*
X128130914Y-77781485D01*
X128111665Y-77789983D01*
X128087029Y-77806446D01*
X128064016Y-77811023D01*
X128047360Y-77818378D01*
X127998611Y-77824032D01*
X127993750Y-77825000D01*
X127506250Y-77825000D01*
X127501388Y-77824032D01*
X127452639Y-77818378D01*
X127435981Y-77811023D01*
X127412971Y-77806446D01*
X127388336Y-77789985D01*
X127369085Y-77781485D01*
X127355935Y-77768335D01*
X127333893Y-77753607D01*
X127319164Y-77731564D01*
X127306014Y-77718414D01*
X127297513Y-77699161D01*
X127281054Y-77674529D01*
X127276477Y-77651520D01*
X127269121Y-77634860D01*
X127263464Y-77586099D01*
X127262500Y-77581250D01*
X127262500Y-76668750D01*
X127263464Y-76663900D01*
X127269121Y-76615139D01*
X127276477Y-76598477D01*
X127281054Y-76575471D01*
X127297511Y-76550840D01*
X127306014Y-76531585D01*
X127319166Y-76518432D01*
X127333893Y-76496393D01*
X127355932Y-76481666D01*
X127369085Y-76468514D01*
X127388340Y-76460011D01*
X127412971Y-76443554D01*
X127435977Y-76438977D01*
X127452639Y-76431621D01*
X127501401Y-76425964D01*
X127506250Y-76425000D01*
X127993750Y-76425000D01*
X127998600Y-76425964D01*
G37*
G36*
X129873600Y-76425964D02*
G01*
X129922360Y-76431621D01*
X129939020Y-76438977D01*
X129962029Y-76443554D01*
X129986661Y-76460013D01*
X130005914Y-76468514D01*
X130019064Y-76481664D01*
X130041107Y-76496393D01*
X130055835Y-76518435D01*
X130068985Y-76531585D01*
X130077485Y-76550836D01*
X130093946Y-76575471D01*
X130098523Y-76598481D01*
X130105878Y-76615139D01*
X130111533Y-76663889D01*
X130112500Y-76668750D01*
X130112500Y-77581250D01*
X130111532Y-77586112D01*
X130105878Y-77634860D01*
X130098523Y-77651516D01*
X130093946Y-77674529D01*
X130077483Y-77699165D01*
X130068985Y-77718414D01*
X130055837Y-77731561D01*
X130041107Y-77753607D01*
X130019061Y-77768337D01*
X130005914Y-77781485D01*
X129986665Y-77789983D01*
X129962029Y-77806446D01*
X129939016Y-77811023D01*
X129922360Y-77818378D01*
X129873611Y-77824032D01*
X129868750Y-77825000D01*
X129381250Y-77825000D01*
X129376388Y-77824032D01*
X129327639Y-77818378D01*
X129310981Y-77811023D01*
X129287971Y-77806446D01*
X129263336Y-77789985D01*
X129244085Y-77781485D01*
X129230935Y-77768335D01*
X129208893Y-77753607D01*
X129194164Y-77731564D01*
X129181014Y-77718414D01*
X129172513Y-77699161D01*
X129156054Y-77674529D01*
X129151477Y-77651520D01*
X129144121Y-77634860D01*
X129138464Y-77586099D01*
X129137500Y-77581250D01*
X129137500Y-76668750D01*
X129138464Y-76663900D01*
X129144121Y-76615139D01*
X129151477Y-76598477D01*
X129156054Y-76575471D01*
X129172511Y-76550840D01*
X129181014Y-76531585D01*
X129194166Y-76518432D01*
X129208893Y-76496393D01*
X129230932Y-76481666D01*
X129244085Y-76468514D01*
X129263340Y-76460011D01*
X129287971Y-76443554D01*
X129310977Y-76438977D01*
X129327639Y-76431621D01*
X129376401Y-76425964D01*
X129381250Y-76425000D01*
X129868750Y-76425000D01*
X129873600Y-76425964D01*
G37*
G36*
X88446066Y-74249311D02*
G01*
X88634597Y-74306501D01*
X88808348Y-74399373D01*
X88960642Y-74524358D01*
X89085627Y-74676652D01*
X89178499Y-74850403D01*
X89235689Y-75038934D01*
X89255000Y-75235000D01*
X89235689Y-75431066D01*
X89178499Y-75619597D01*
X89085627Y-75793348D01*
X88960642Y-75945642D01*
X88808348Y-76070627D01*
X88634597Y-76163499D01*
X88446066Y-76220689D01*
X88250000Y-76240000D01*
X88053934Y-76220689D01*
X87865403Y-76163499D01*
X87691652Y-76070627D01*
X87539358Y-75945642D01*
X87414373Y-75793348D01*
X87321501Y-75619597D01*
X87264311Y-75431066D01*
X87245000Y-75235000D01*
X87264311Y-75038934D01*
X87321501Y-74850403D01*
X87414373Y-74676652D01*
X87539358Y-74524358D01*
X87691652Y-74399373D01*
X87865403Y-74306501D01*
X88053934Y-74249311D01*
X88250000Y-74230000D01*
X88446066Y-74249311D01*
G37*
G36*
X92246066Y-74249311D02*
G01*
X92434597Y-74306501D01*
X92608348Y-74399373D01*
X92760642Y-74524358D01*
X92885627Y-74676652D01*
X92978499Y-74850403D01*
X93035689Y-75038934D01*
X93055000Y-75235000D01*
X93035689Y-75431066D01*
X92978499Y-75619597D01*
X92885627Y-75793348D01*
X92760642Y-75945642D01*
X92608348Y-76070627D01*
X92434597Y-76163499D01*
X92246066Y-76220689D01*
X92050000Y-76240000D01*
X91853934Y-76220689D01*
X91665403Y-76163499D01*
X91491652Y-76070627D01*
X91339358Y-75945642D01*
X91214373Y-75793348D01*
X91121501Y-75619597D01*
X91064311Y-75431066D01*
X91045000Y-75235000D01*
X91064311Y-75038934D01*
X91121501Y-74850403D01*
X91214373Y-74676652D01*
X91339358Y-74524358D01*
X91491652Y-74399373D01*
X91665403Y-74306501D01*
X91853934Y-74249311D01*
X92050000Y-74230000D01*
X92246066Y-74249311D01*
G37*
G36*
X101600000Y-70425000D02*
G01*
X99900000Y-70425000D01*
X99900000Y-68725000D01*
X101600000Y-68725000D01*
X101600000Y-70425000D01*
G37*
G36*
X112475000Y-69950000D02*
G01*
X111025000Y-69950000D01*
X111025000Y-68800000D01*
X112475000Y-68800000D01*
X112475000Y-69950000D01*
G37*
G36*
X106050000Y-69675000D02*
G01*
X103950000Y-69675000D01*
X103950000Y-64075000D01*
X106050000Y-64075000D01*
X106050000Y-69675000D01*
G37*
G36*
X124354850Y-67425964D02*
G01*
X124405040Y-67431787D01*
X124422189Y-67439359D01*
X124445671Y-67444030D01*
X124470810Y-67460827D01*
X124490696Y-67469608D01*
X124504277Y-67483189D01*
X124526777Y-67498223D01*
X124541810Y-67520722D01*
X124555391Y-67534303D01*
X124564170Y-67554186D01*
X124580970Y-67579329D01*
X124585641Y-67602812D01*
X124593212Y-67619959D01*
X124599033Y-67670139D01*
X124600000Y-67675000D01*
X124600000Y-68575000D01*
X124599032Y-68579863D01*
X124593212Y-68630040D01*
X124585641Y-68647185D01*
X124580970Y-68670671D01*
X124564169Y-68695815D01*
X124555391Y-68715696D01*
X124541812Y-68729274D01*
X124526777Y-68751777D01*
X124504274Y-68766812D01*
X124490696Y-68780391D01*
X124470815Y-68789169D01*
X124445671Y-68805970D01*
X124422185Y-68810641D01*
X124405040Y-68818212D01*
X124354861Y-68824032D01*
X124350000Y-68825000D01*
X123650000Y-68825000D01*
X123645138Y-68824032D01*
X123594959Y-68818212D01*
X123577812Y-68810641D01*
X123554329Y-68805970D01*
X123529186Y-68789170D01*
X123509303Y-68780391D01*
X123495722Y-68766810D01*
X123473223Y-68751777D01*
X123458189Y-68729277D01*
X123444608Y-68715696D01*
X123435827Y-68695810D01*
X123419030Y-68670671D01*
X123414359Y-68647189D01*
X123406787Y-68630040D01*
X123400964Y-68579849D01*
X123400000Y-68575000D01*
X123400000Y-67675000D01*
X123400964Y-67670150D01*
X123406787Y-67619959D01*
X123414359Y-67602808D01*
X123419030Y-67579329D01*
X123435826Y-67554191D01*
X123444608Y-67534303D01*
X123458191Y-67520719D01*
X123473223Y-67498223D01*
X123495719Y-67483191D01*
X123509303Y-67469608D01*
X123529191Y-67460826D01*
X123554329Y-67444030D01*
X123577808Y-67439359D01*
X123594959Y-67431787D01*
X123645151Y-67425964D01*
X123650000Y-67425000D01*
X124350000Y-67425000D01*
X124354850Y-67425964D01*
G37*
G36*
X126354850Y-67425964D02*
G01*
X126405040Y-67431787D01*
X126422189Y-67439359D01*
X126445671Y-67444030D01*
X126470810Y-67460827D01*
X126490696Y-67469608D01*
X126504277Y-67483189D01*
X126526777Y-67498223D01*
X126541810Y-67520722D01*
X126555391Y-67534303D01*
X126564170Y-67554186D01*
X126580970Y-67579329D01*
X126585641Y-67602812D01*
X126593212Y-67619959D01*
X126599033Y-67670139D01*
X126600000Y-67675000D01*
X126600000Y-68575000D01*
X126599032Y-68579863D01*
X126593212Y-68630040D01*
X126585641Y-68647185D01*
X126580970Y-68670671D01*
X126564169Y-68695815D01*
X126555391Y-68715696D01*
X126541812Y-68729274D01*
X126526777Y-68751777D01*
X126504274Y-68766812D01*
X126490696Y-68780391D01*
X126470815Y-68789169D01*
X126445671Y-68805970D01*
X126422185Y-68810641D01*
X126405040Y-68818212D01*
X126354861Y-68824032D01*
X126350000Y-68825000D01*
X125650000Y-68825000D01*
X125645138Y-68824032D01*
X125594959Y-68818212D01*
X125577812Y-68810641D01*
X125554329Y-68805970D01*
X125529186Y-68789170D01*
X125509303Y-68780391D01*
X125495722Y-68766810D01*
X125473223Y-68751777D01*
X125458189Y-68729277D01*
X125444608Y-68715696D01*
X125435827Y-68695810D01*
X125419030Y-68670671D01*
X125414359Y-68647189D01*
X125406787Y-68630040D01*
X125400964Y-68579849D01*
X125400000Y-68575000D01*
X125400000Y-67675000D01*
X125400964Y-67670150D01*
X125406787Y-67619959D01*
X125414359Y-67602808D01*
X125419030Y-67579329D01*
X125435826Y-67554191D01*
X125444608Y-67534303D01*
X125458191Y-67520719D01*
X125473223Y-67498223D01*
X125495719Y-67483191D01*
X125509303Y-67469608D01*
X125529191Y-67460826D01*
X125554329Y-67444030D01*
X125577808Y-67439359D01*
X125594959Y-67431787D01*
X125645151Y-67425964D01*
X125650000Y-67425000D01*
X126350000Y-67425000D01*
X126354850Y-67425964D01*
G37*
G36*
X128061100Y-67425964D02*
G01*
X128109860Y-67431621D01*
X128126520Y-67438977D01*
X128149529Y-67443554D01*
X128174161Y-67460013D01*
X128193414Y-67468514D01*
X128206564Y-67481664D01*
X128228607Y-67496393D01*
X128243335Y-67518435D01*
X128256485Y-67531585D01*
X128264985Y-67550836D01*
X128281446Y-67575471D01*
X128286023Y-67598481D01*
X128293378Y-67615139D01*
X128299033Y-67663889D01*
X128300000Y-67668750D01*
X128300000Y-68581250D01*
X128299032Y-68586112D01*
X128293378Y-68634860D01*
X128286023Y-68651516D01*
X128281446Y-68674529D01*
X128264983Y-68699165D01*
X128256485Y-68718414D01*
X128243337Y-68731561D01*
X128228607Y-68753607D01*
X128206561Y-68768337D01*
X128193414Y-68781485D01*
X128174165Y-68789983D01*
X128149529Y-68806446D01*
X128126516Y-68811023D01*
X128109860Y-68818378D01*
X128061111Y-68824032D01*
X128056250Y-68825000D01*
X127568750Y-68825000D01*
X127563888Y-68824032D01*
X127515139Y-68818378D01*
X127498481Y-68811023D01*
X127475471Y-68806446D01*
X127450836Y-68789985D01*
X127431585Y-68781485D01*
X127418435Y-68768335D01*
X127396393Y-68753607D01*
X127381664Y-68731564D01*
X127368514Y-68718414D01*
X127360013Y-68699161D01*
X127343554Y-68674529D01*
X127338977Y-68651520D01*
X127331621Y-68634860D01*
X127325964Y-68586099D01*
X127325000Y-68581250D01*
X127325000Y-67668750D01*
X127325964Y-67663900D01*
X127331621Y-67615139D01*
X127338977Y-67598477D01*
X127343554Y-67575471D01*
X127360011Y-67550840D01*
X127368514Y-67531585D01*
X127381666Y-67518432D01*
X127396393Y-67496393D01*
X127418432Y-67481666D01*
X127431585Y-67468514D01*
X127450840Y-67460011D01*
X127475471Y-67443554D01*
X127498477Y-67438977D01*
X127515139Y-67431621D01*
X127563901Y-67425964D01*
X127568750Y-67425000D01*
X128056250Y-67425000D01*
X128061100Y-67425964D01*
G37*
G36*
X129936100Y-67425964D02*
G01*
X129984860Y-67431621D01*
X130001520Y-67438977D01*
X130024529Y-67443554D01*
X130049161Y-67460013D01*
X130068414Y-67468514D01*
X130081564Y-67481664D01*
X130103607Y-67496393D01*
X130118335Y-67518435D01*
X130131485Y-67531585D01*
X130139985Y-67550836D01*
X130156446Y-67575471D01*
X130161023Y-67598481D01*
X130168378Y-67615139D01*
X130174033Y-67663889D01*
X130175000Y-67668750D01*
X130175000Y-68581250D01*
X130174032Y-68586112D01*
X130168378Y-68634860D01*
X130161023Y-68651516D01*
X130156446Y-68674529D01*
X130139983Y-68699165D01*
X130131485Y-68718414D01*
X130118337Y-68731561D01*
X130103607Y-68753607D01*
X130081561Y-68768337D01*
X130068414Y-68781485D01*
X130049165Y-68789983D01*
X130024529Y-68806446D01*
X130001516Y-68811023D01*
X129984860Y-68818378D01*
X129936111Y-68824032D01*
X129931250Y-68825000D01*
X129443750Y-68825000D01*
X129438888Y-68824032D01*
X129390139Y-68818378D01*
X129373481Y-68811023D01*
X129350471Y-68806446D01*
X129325836Y-68789985D01*
X129306585Y-68781485D01*
X129293435Y-68768335D01*
X129271393Y-68753607D01*
X129256664Y-68731564D01*
X129243514Y-68718414D01*
X129235013Y-68699161D01*
X129218554Y-68674529D01*
X129213977Y-68651520D01*
X129206621Y-68634860D01*
X129200964Y-68586099D01*
X129200000Y-68581250D01*
X129200000Y-67668750D01*
X129200964Y-67663900D01*
X129206621Y-67615139D01*
X129213977Y-67598477D01*
X129218554Y-67575471D01*
X129235011Y-67550840D01*
X129243514Y-67531585D01*
X129256666Y-67518432D01*
X129271393Y-67496393D01*
X129293432Y-67481666D01*
X129306585Y-67468514D01*
X129325840Y-67460011D01*
X129350471Y-67443554D01*
X129373477Y-67438977D01*
X129390139Y-67431621D01*
X129438901Y-67425964D01*
X129443750Y-67425000D01*
X129931250Y-67425000D01*
X129936100Y-67425964D01*
G37*
G36*
X110225000Y-68600000D02*
G01*
X108775000Y-68600000D01*
X108775000Y-67450000D01*
X110225000Y-67450000D01*
X110225000Y-68600000D01*
G37*
G36*
X92270000Y-68225000D02*
G01*
X90570000Y-68225000D01*
X90570000Y-66525000D01*
X92270000Y-66525000D01*
X92270000Y-68225000D01*
G37*
G36*
X122100000Y-68225000D02*
G01*
X120400000Y-68225000D01*
X120400000Y-66525000D01*
X122100000Y-66525000D01*
X122100000Y-68225000D01*
G37*
G36*
X94222664Y-66566602D02*
G01*
X94385000Y-66638878D01*
X94528761Y-66743327D01*
X94647664Y-66875383D01*
X94736514Y-67029274D01*
X94791425Y-67198275D01*
X94810000Y-67375000D01*
X94791425Y-67551725D01*
X94736514Y-67720726D01*
X94647664Y-67874617D01*
X94528761Y-68006673D01*
X94385000Y-68111122D01*
X94222664Y-68183398D01*
X94048849Y-68220344D01*
X93871151Y-68220344D01*
X93697336Y-68183398D01*
X93535000Y-68111122D01*
X93391239Y-68006673D01*
X93272336Y-67874617D01*
X93183486Y-67720726D01*
X93128575Y-67551725D01*
X93110000Y-67375000D01*
X93128575Y-67198275D01*
X93183486Y-67029274D01*
X93272336Y-66875383D01*
X93391239Y-66743327D01*
X93535000Y-66638878D01*
X93697336Y-66566602D01*
X93871151Y-66529656D01*
X94048849Y-66529656D01*
X94222664Y-66566602D01*
G37*
G36*
X96762664Y-66566602D02*
G01*
X96925000Y-66638878D01*
X97068761Y-66743327D01*
X97187664Y-66875383D01*
X97276514Y-67029274D01*
X97331425Y-67198275D01*
X97350000Y-67375000D01*
X97331425Y-67551725D01*
X97276514Y-67720726D01*
X97187664Y-67874617D01*
X97068761Y-68006673D01*
X96925000Y-68111122D01*
X96762664Y-68183398D01*
X96588849Y-68220344D01*
X96411151Y-68220344D01*
X96237336Y-68183398D01*
X96075000Y-68111122D01*
X95931239Y-68006673D01*
X95812336Y-67874617D01*
X95723486Y-67720726D01*
X95668575Y-67551725D01*
X95650000Y-67375000D01*
X95668575Y-67198275D01*
X95723486Y-67029274D01*
X95812336Y-66875383D01*
X95931239Y-66743327D01*
X96075000Y-66638878D01*
X96237336Y-66566602D01*
X96411151Y-66529656D01*
X96588849Y-66529656D01*
X96762664Y-66566602D01*
G37*
G36*
X112475000Y-68150000D02*
G01*
X111025000Y-68150000D01*
X111025000Y-67000000D01*
X112475000Y-67000000D01*
X112475000Y-68150000D01*
G37*
G36*
X115691852Y-66938173D02*
G01*
X114631192Y-67998833D01*
X114206928Y-67574569D01*
X114987407Y-66794090D01*
X115263411Y-66518085D01*
X115263414Y-66518082D01*
X115267588Y-66513909D01*
X115691852Y-66938173D01*
G37*
G36*
X117742462Y-67574569D02*
G01*
X117318198Y-67998833D01*
X116257538Y-66938173D01*
X116556833Y-66638878D01*
X116677627Y-66518083D01*
X116677630Y-66518080D01*
X116681802Y-66513909D01*
X117742462Y-67574569D01*
G37*
G36*
X101012664Y-66226602D02*
G01*
X101175000Y-66298878D01*
X101318761Y-66403327D01*
X101437664Y-66535383D01*
X101526514Y-66689274D01*
X101581425Y-66858275D01*
X101600000Y-67035000D01*
X101581425Y-67211725D01*
X101526514Y-67380726D01*
X101437664Y-67534617D01*
X101318761Y-67666673D01*
X101175000Y-67771122D01*
X101012664Y-67843398D01*
X100838849Y-67880344D01*
X100661151Y-67880344D01*
X100487336Y-67843398D01*
X100325000Y-67771122D01*
X100181239Y-67666673D01*
X100062336Y-67534617D01*
X99973486Y-67380726D01*
X99918575Y-67211725D01*
X99900000Y-67035000D01*
X99918575Y-66858275D01*
X99973486Y-66689274D01*
X100062336Y-66535383D01*
X100181239Y-66403327D01*
X100325000Y-66298878D01*
X100487336Y-66226602D01*
X100661151Y-66189656D01*
X100838849Y-66189656D01*
X101012664Y-66226602D01*
G37*
G36*
X115126167Y-66372487D02*
G01*
X114065507Y-67433147D01*
X113641243Y-67008883D01*
X114423524Y-66226602D01*
X114697726Y-65952399D01*
X114697729Y-65952396D01*
X114701903Y-65948223D01*
X115126167Y-66372487D01*
G37*
G36*
X118308147Y-67008883D02*
G01*
X117883883Y-67433147D01*
X116823223Y-66372487D01*
X117106265Y-66089445D01*
X117243312Y-65952397D01*
X117243315Y-65952394D01*
X117247487Y-65948223D01*
X118308147Y-67008883D01*
G37*
G36*
X131970000Y-67400000D02*
G01*
X131030000Y-67400000D01*
X131030000Y-66650000D01*
X131970000Y-66650000D01*
X131970000Y-67400000D01*
G37*
G36*
X134550000Y-67275000D02*
G01*
X132550000Y-67275000D01*
X132550000Y-66275000D01*
X134550000Y-66275000D01*
X134550000Y-67275000D01*
G37*
G36*
X137650493Y-65637239D02*
G01*
X137789242Y-65710060D01*
X137906532Y-65813970D01*
X137995546Y-65942930D01*
X138051112Y-66089445D01*
X138070000Y-66245000D01*
X138051112Y-66400555D01*
X137995546Y-66547070D01*
X137906532Y-66676030D01*
X137789242Y-66779940D01*
X137650493Y-66852761D01*
X137498349Y-66890261D01*
X137341651Y-66890261D01*
X137189507Y-66852761D01*
X137050758Y-66779940D01*
X136933468Y-66676030D01*
X136844454Y-66547070D01*
X136788888Y-66400555D01*
X136770000Y-66245000D01*
X136788888Y-66089445D01*
X136844454Y-65942930D01*
X136933468Y-65813970D01*
X137050758Y-65710060D01*
X137189507Y-65637239D01*
X137341651Y-65599739D01*
X137498349Y-65599739D01*
X137650493Y-65637239D01*
G37*
G36*
X140190493Y-65637239D02*
G01*
X140329242Y-65710060D01*
X140446532Y-65813970D01*
X140535546Y-65942930D01*
X140591112Y-66089445D01*
X140610000Y-66245000D01*
X140591112Y-66400555D01*
X140535546Y-66547070D01*
X140446532Y-66676030D01*
X140329242Y-66779940D01*
X140190493Y-66852761D01*
X140038349Y-66890261D01*
X139881651Y-66890261D01*
X139729507Y-66852761D01*
X139590758Y-66779940D01*
X139473468Y-66676030D01*
X139384454Y-66547070D01*
X139328888Y-66400555D01*
X139310000Y-66245000D01*
X139328888Y-66089445D01*
X139384454Y-65942930D01*
X139473468Y-65813970D01*
X139590758Y-65710060D01*
X139729507Y-65637239D01*
X139881651Y-65599739D01*
X140038349Y-65599739D01*
X140190493Y-65637239D01*
G37*
G36*
X142730493Y-65637239D02*
G01*
X142869242Y-65710060D01*
X142986532Y-65813970D01*
X143075546Y-65942930D01*
X143131112Y-66089445D01*
X143150000Y-66245000D01*
X143131112Y-66400555D01*
X143075546Y-66547070D01*
X142986532Y-66676030D01*
X142869242Y-66779940D01*
X142730493Y-66852761D01*
X142578349Y-66890261D01*
X142421651Y-66890261D01*
X142269507Y-66852761D01*
X142130758Y-66779940D01*
X142013468Y-66676030D01*
X141924454Y-66547070D01*
X141868888Y-66400555D01*
X141850000Y-66245000D01*
X141868888Y-66089445D01*
X141924454Y-65942930D01*
X142013468Y-65813970D01*
X142130758Y-65710060D01*
X142269507Y-65637239D01*
X142421651Y-65599739D01*
X142578349Y-65599739D01*
X142730493Y-65637239D01*
G37*
G36*
X114560481Y-65806802D02*
G01*
X113499821Y-66867462D01*
X113075557Y-66443198D01*
X113868755Y-65650000D01*
X114132040Y-65386714D01*
X114132043Y-65386711D01*
X114136217Y-65382538D01*
X114560481Y-65806802D01*
G37*
G36*
X118873833Y-66443198D02*
G01*
X118449569Y-66867462D01*
X117388909Y-65806802D01*
X117601041Y-65594669D01*
X117808998Y-65386712D01*
X117809001Y-65386709D01*
X117813173Y-65382538D01*
X118873833Y-66443198D01*
G37*
G36*
X110225000Y-66800000D02*
G01*
X108775000Y-66800000D01*
X108775000Y-65650000D01*
X110225000Y-65650000D01*
X110225000Y-66800000D01*
G37*
G36*
X126000000Y-66375000D02*
G01*
X124500000Y-66375000D01*
X124500000Y-64875000D01*
X126000000Y-64875000D01*
X126000000Y-66375000D01*
G37*
G36*
X129916891Y-64893804D02*
G01*
X130075413Y-64949273D01*
X130217617Y-65038626D01*
X130336374Y-65157383D01*
X130425727Y-65299587D01*
X130481196Y-65458109D01*
X130500000Y-65625000D01*
X130481196Y-65791891D01*
X130425727Y-65950413D01*
X130336374Y-66092617D01*
X130217617Y-66211374D01*
X130075413Y-66300727D01*
X129916891Y-66356196D01*
X129750000Y-66375000D01*
X129583109Y-66356196D01*
X129424587Y-66300727D01*
X129282383Y-66211374D01*
X129163626Y-66092617D01*
X129074273Y-65950413D01*
X129018804Y-65791891D01*
X129000000Y-65625000D01*
X129018804Y-65458109D01*
X129074273Y-65299587D01*
X129163626Y-65157383D01*
X129282383Y-65038626D01*
X129424587Y-64949273D01*
X129583109Y-64893804D01*
X129750000Y-64875000D01*
X129916891Y-64893804D01*
G37*
G36*
X113994796Y-65241117D02*
G01*
X112934136Y-66301777D01*
X112509872Y-65877513D01*
X113260959Y-65126426D01*
X113566355Y-64821029D01*
X113566358Y-64821026D01*
X113570532Y-64816853D01*
X113994796Y-65241117D01*
G37*
G36*
X119439518Y-65877513D02*
G01*
X119015254Y-66301777D01*
X117954594Y-65241117D01*
X118246438Y-64949273D01*
X118374683Y-64821027D01*
X118374686Y-64821024D01*
X118378858Y-64816853D01*
X119439518Y-65877513D01*
G37*
G36*
X134550000Y-66005000D02*
G01*
X132550000Y-66005000D01*
X132550000Y-65005000D01*
X134550000Y-65005000D01*
X134550000Y-66005000D01*
G37*
G36*
X131970000Y-66000000D02*
G01*
X131030000Y-66000000D01*
X131030000Y-65250000D01*
X131970000Y-65250000D01*
X131970000Y-66000000D01*
G37*
G36*
X113429110Y-64675431D02*
G01*
X112368450Y-65736091D01*
X111944186Y-65311827D01*
X112655472Y-64600541D01*
X113000669Y-64255343D01*
X113000672Y-64255340D01*
X113004846Y-64251167D01*
X113429110Y-64675431D01*
G37*
G36*
X120005204Y-65311827D02*
G01*
X119580940Y-65736091D01*
X118520280Y-64675431D01*
X118835307Y-64360404D01*
X118940369Y-64255341D01*
X118940372Y-64255338D01*
X118944544Y-64251167D01*
X120005204Y-65311827D01*
G37*
G36*
X101012664Y-63686602D02*
G01*
X101175000Y-63758878D01*
X101318761Y-63863327D01*
X101437664Y-63995383D01*
X101526514Y-64149274D01*
X101581425Y-64318275D01*
X101600000Y-64495000D01*
X101581425Y-64671725D01*
X101526514Y-64840726D01*
X101437664Y-64994617D01*
X101318761Y-65126673D01*
X101175000Y-65231122D01*
X101012664Y-65303398D01*
X100838849Y-65340344D01*
X100661151Y-65340344D01*
X100487336Y-65303398D01*
X100325000Y-65231122D01*
X100181239Y-65126673D01*
X100062336Y-64994617D01*
X99973486Y-64840726D01*
X99918575Y-64671725D01*
X99900000Y-64495000D01*
X99918575Y-64318275D01*
X99973486Y-64149274D01*
X100062336Y-63995383D01*
X100181239Y-63863327D01*
X100325000Y-63758878D01*
X100487336Y-63686602D01*
X100661151Y-63649656D01*
X100838849Y-63649656D01*
X101012664Y-63686602D01*
G37*
G36*
X112863425Y-64109746D02*
G01*
X111802765Y-65170406D01*
X111378501Y-64746142D01*
X112129260Y-63995383D01*
X112434984Y-63689658D01*
X112434987Y-63689655D01*
X112439161Y-63685482D01*
X112863425Y-64109746D01*
G37*
G36*
X120570889Y-64746142D02*
G01*
X120146625Y-65170406D01*
X119085965Y-64109746D01*
X119332384Y-63863327D01*
X119506054Y-63689656D01*
X119506057Y-63689653D01*
X119510229Y-63685482D01*
X120570889Y-64746142D01*
G37*
G36*
X134550000Y-64735000D02*
G01*
X132550000Y-64735000D01*
X132550000Y-63735000D01*
X134550000Y-63735000D01*
X134550000Y-64735000D01*
G37*
G36*
X112297740Y-63544060D02*
G01*
X111237080Y-64604720D01*
X110812816Y-64180456D01*
X111534182Y-63459090D01*
X111869299Y-63123972D01*
X111869302Y-63123969D01*
X111873476Y-63119796D01*
X112297740Y-63544060D01*
G37*
G36*
X121136574Y-64180456D02*
G01*
X120712310Y-64604720D01*
X119651650Y-63544060D01*
X119863783Y-63331927D01*
X120071739Y-63123970D01*
X120071742Y-63123967D01*
X120075914Y-63119796D01*
X121136574Y-64180456D01*
G37*
G36*
X88446066Y-62389311D02*
G01*
X88634597Y-62446501D01*
X88808348Y-62539373D01*
X88960642Y-62664358D01*
X89085627Y-62816652D01*
X89178499Y-62990403D01*
X89235689Y-63178934D01*
X89255000Y-63375000D01*
X89235689Y-63571066D01*
X89178499Y-63759597D01*
X89085627Y-63933348D01*
X88960642Y-64085642D01*
X88808348Y-64210627D01*
X88634597Y-64303499D01*
X88446066Y-64360689D01*
X88250000Y-64380000D01*
X88053934Y-64360689D01*
X87865403Y-64303499D01*
X87691652Y-64210627D01*
X87539358Y-64085642D01*
X87414373Y-63933348D01*
X87321501Y-63759597D01*
X87264311Y-63571066D01*
X87245000Y-63375000D01*
X87264311Y-63178934D01*
X87321501Y-62990403D01*
X87414373Y-62816652D01*
X87539358Y-62664358D01*
X87691652Y-62539373D01*
X87865403Y-62446501D01*
X88053934Y-62389311D01*
X88250000Y-62370000D01*
X88446066Y-62389311D01*
G37*
G36*
X92246066Y-62389311D02*
G01*
X92434597Y-62446501D01*
X92608348Y-62539373D01*
X92760642Y-62664358D01*
X92885627Y-62816652D01*
X92978499Y-62990403D01*
X93035689Y-63178934D01*
X93055000Y-63375000D01*
X93035689Y-63571066D01*
X92978499Y-63759597D01*
X92885627Y-63933348D01*
X92760642Y-64085642D01*
X92608348Y-64210627D01*
X92434597Y-64303499D01*
X92246066Y-64360689D01*
X92050000Y-64380000D01*
X91853934Y-64360689D01*
X91665403Y-64303499D01*
X91491652Y-64210627D01*
X91339358Y-64085642D01*
X91214373Y-63933348D01*
X91121501Y-63759597D01*
X91064311Y-63571066D01*
X91045000Y-63375000D01*
X91064311Y-63178934D01*
X91121501Y-62990403D01*
X91214373Y-62816652D01*
X91339358Y-62664358D01*
X91491652Y-62539373D01*
X91665403Y-62446501D01*
X91853934Y-62389311D01*
X92050000Y-62370000D01*
X92246066Y-62389311D01*
G37*
G36*
X111732054Y-62978375D02*
G01*
X110671394Y-64039035D01*
X110247130Y-63614771D01*
X110887702Y-62974199D01*
X111303613Y-62558287D01*
X111303616Y-62558284D01*
X111307790Y-62554111D01*
X111732054Y-62978375D01*
G37*
G36*
X121702260Y-63614771D02*
G01*
X121277996Y-64039035D01*
X120217336Y-62978375D01*
X120531353Y-62664358D01*
X120637425Y-62558285D01*
X120637428Y-62558282D01*
X120641600Y-62554111D01*
X121702260Y-63614771D01*
G37*
G36*
X134550000Y-63465000D02*
G01*
X132550000Y-63465000D01*
X132550000Y-62465000D01*
X134550000Y-62465000D01*
X134550000Y-63465000D01*
G37*
G36*
X101012664Y-61146602D02*
G01*
X101175000Y-61218878D01*
X101318761Y-61323327D01*
X101437664Y-61455383D01*
X101526514Y-61609274D01*
X101581425Y-61778275D01*
X101600000Y-61955000D01*
X101581425Y-62131725D01*
X101526514Y-62300726D01*
X101437664Y-62454617D01*
X101318761Y-62586673D01*
X101175000Y-62691122D01*
X101012664Y-62763398D01*
X100838849Y-62800344D01*
X100661151Y-62800344D01*
X100487336Y-62763398D01*
X100325000Y-62691122D01*
X100181239Y-62586673D01*
X100062336Y-62454617D01*
X99973486Y-62300726D01*
X99918575Y-62131725D01*
X99900000Y-61955000D01*
X99918575Y-61778275D01*
X99973486Y-61609274D01*
X100062336Y-61455383D01*
X100181239Y-61323327D01*
X100325000Y-61218878D01*
X100487336Y-61146602D01*
X100661151Y-61109656D01*
X100838849Y-61109656D01*
X101012664Y-61146602D01*
G37*
G36*
X134550000Y-62195000D02*
G01*
X132550000Y-62195000D01*
X132550000Y-61195000D01*
X134550000Y-61195000D01*
X134550000Y-62195000D01*
G37*
G36*
X111732054Y-61564161D02*
G01*
X111307790Y-61988425D01*
X110247130Y-60927765D01*
X110459263Y-60715632D01*
X110667219Y-60507675D01*
X110667222Y-60507672D01*
X110671394Y-60503501D01*
X111732054Y-61564161D01*
G37*
G36*
X121702260Y-60927765D02*
G01*
X120641600Y-61988425D01*
X120217336Y-61564161D01*
X120959964Y-60821533D01*
X121273819Y-60507677D01*
X121273822Y-60507674D01*
X121277996Y-60503501D01*
X121702260Y-60927765D01*
G37*
G36*
X112297740Y-60998476D02*
G01*
X111873476Y-61422740D01*
X110812816Y-60362080D01*
X111128470Y-60046426D01*
X111232905Y-59941990D01*
X111232908Y-59941987D01*
X111237080Y-59937816D01*
X112297740Y-60998476D01*
G37*
G36*
X121136574Y-60362080D02*
G01*
X120075914Y-61422740D01*
X119651650Y-60998476D01*
X120427043Y-60223083D01*
X120708133Y-59941992D01*
X120708136Y-59941989D01*
X120712310Y-59937816D01*
X121136574Y-60362080D01*
G37*
G36*
X88354850Y-59675964D02*
G01*
X88405040Y-59681787D01*
X88422189Y-59689359D01*
X88445671Y-59694030D01*
X88470810Y-59710827D01*
X88490696Y-59719608D01*
X88504277Y-59733189D01*
X88526777Y-59748223D01*
X88541810Y-59770722D01*
X88555391Y-59784303D01*
X88564170Y-59804186D01*
X88580970Y-59829329D01*
X88585641Y-59852812D01*
X88593212Y-59869959D01*
X88599033Y-59920139D01*
X88600000Y-59925000D01*
X88600000Y-60825000D01*
X88599032Y-60829863D01*
X88593212Y-60880040D01*
X88585641Y-60897185D01*
X88580970Y-60920671D01*
X88564169Y-60945815D01*
X88555391Y-60965696D01*
X88541812Y-60979274D01*
X88526777Y-61001777D01*
X88504274Y-61016812D01*
X88490696Y-61030391D01*
X88470815Y-61039169D01*
X88445671Y-61055970D01*
X88422185Y-61060641D01*
X88405040Y-61068212D01*
X88354861Y-61074032D01*
X88350000Y-61075000D01*
X87650000Y-61075000D01*
X87645138Y-61074032D01*
X87594959Y-61068212D01*
X87577812Y-61060641D01*
X87554329Y-61055970D01*
X87529186Y-61039170D01*
X87509303Y-61030391D01*
X87495722Y-61016810D01*
X87473223Y-61001777D01*
X87458189Y-60979277D01*
X87444608Y-60965696D01*
X87435827Y-60945810D01*
X87419030Y-60920671D01*
X87414359Y-60897189D01*
X87406787Y-60880040D01*
X87400964Y-60829849D01*
X87400000Y-60825000D01*
X87400000Y-59925000D01*
X87400964Y-59920150D01*
X87406787Y-59869959D01*
X87414359Y-59852808D01*
X87419030Y-59829329D01*
X87435826Y-59804191D01*
X87444608Y-59784303D01*
X87458191Y-59770719D01*
X87473223Y-59748223D01*
X87495719Y-59733191D01*
X87509303Y-59719608D01*
X87529191Y-59710826D01*
X87554329Y-59694030D01*
X87577808Y-59689359D01*
X87594959Y-59681787D01*
X87645151Y-59675964D01*
X87650000Y-59675000D01*
X88350000Y-59675000D01*
X88354850Y-59675964D01*
G37*
G36*
X90354850Y-59675964D02*
G01*
X90405040Y-59681787D01*
X90422189Y-59689359D01*
X90445671Y-59694030D01*
X90470810Y-59710827D01*
X90490696Y-59719608D01*
X90504277Y-59733189D01*
X90526777Y-59748223D01*
X90541810Y-59770722D01*
X90555391Y-59784303D01*
X90564170Y-59804186D01*
X90580970Y-59829329D01*
X90585641Y-59852812D01*
X90593212Y-59869959D01*
X90599033Y-59920139D01*
X90600000Y-59925000D01*
X90600000Y-60825000D01*
X90599032Y-60829863D01*
X90593212Y-60880040D01*
X90585641Y-60897185D01*
X90580970Y-60920671D01*
X90564169Y-60945815D01*
X90555391Y-60965696D01*
X90541812Y-60979274D01*
X90526777Y-61001777D01*
X90504274Y-61016812D01*
X90490696Y-61030391D01*
X90470815Y-61039169D01*
X90445671Y-61055970D01*
X90422185Y-61060641D01*
X90405040Y-61068212D01*
X90354861Y-61074032D01*
X90350000Y-61075000D01*
X89650000Y-61075000D01*
X89645138Y-61074032D01*
X89594959Y-61068212D01*
X89577812Y-61060641D01*
X89554329Y-61055970D01*
X89529186Y-61039170D01*
X89509303Y-61030391D01*
X89495722Y-61016810D01*
X89473223Y-61001777D01*
X89458189Y-60979277D01*
X89444608Y-60965696D01*
X89435827Y-60945810D01*
X89419030Y-60920671D01*
X89414359Y-60897189D01*
X89406787Y-60880040D01*
X89400964Y-60829849D01*
X89400000Y-60825000D01*
X89400000Y-59925000D01*
X89400964Y-59920150D01*
X89406787Y-59869959D01*
X89414359Y-59852808D01*
X89419030Y-59829329D01*
X89435826Y-59804191D01*
X89444608Y-59784303D01*
X89458191Y-59770719D01*
X89473223Y-59748223D01*
X89495719Y-59733191D01*
X89509303Y-59719608D01*
X89529191Y-59710826D01*
X89554329Y-59694030D01*
X89577808Y-59689359D01*
X89594959Y-59681787D01*
X89645151Y-59675964D01*
X89650000Y-59675000D01*
X90350000Y-59675000D01*
X90354850Y-59675964D01*
G37*
G36*
X134550000Y-60925000D02*
G01*
X132550000Y-60925000D01*
X132550000Y-59925000D01*
X134550000Y-59925000D01*
X134550000Y-60925000D01*
G37*
G36*
X112863425Y-60432790D02*
G01*
X112439161Y-60857054D01*
X111378501Y-59796394D01*
X111590634Y-59584261D01*
X111798590Y-59376304D01*
X111798593Y-59376301D01*
X111802765Y-59372130D01*
X112863425Y-60432790D01*
G37*
G36*
X120570889Y-59796394D02*
G01*
X119510229Y-60857054D01*
X119085965Y-60432790D01*
X119869665Y-59649090D01*
X120142448Y-59376306D01*
X120142451Y-59376303D01*
X120146625Y-59372130D01*
X120570889Y-59796394D01*
G37*
G36*
X113429110Y-59867105D02*
G01*
X113004846Y-60291369D01*
X111944186Y-59230709D01*
X112259512Y-58915383D01*
X112364275Y-58810619D01*
X112364278Y-58810616D01*
X112368450Y-58806445D01*
X113429110Y-59867105D01*
G37*
G36*
X120005204Y-59230709D02*
G01*
X118944544Y-60291369D01*
X118520280Y-59867105D01*
X119262386Y-59124999D01*
X119576763Y-58810621D01*
X119576766Y-58810618D01*
X119580940Y-58806445D01*
X120005204Y-59230709D01*
G37*
G36*
X101012664Y-58606602D02*
G01*
X101175000Y-58678878D01*
X101318761Y-58783327D01*
X101437664Y-58915383D01*
X101526514Y-59069274D01*
X101581425Y-59238275D01*
X101600000Y-59415000D01*
X101581425Y-59591725D01*
X101526514Y-59760726D01*
X101437664Y-59914617D01*
X101318761Y-60046673D01*
X101175000Y-60151122D01*
X101012664Y-60223398D01*
X100838849Y-60260344D01*
X100661151Y-60260344D01*
X100487336Y-60223398D01*
X100325000Y-60151122D01*
X100181239Y-60046673D01*
X100062336Y-59914617D01*
X99973486Y-59760726D01*
X99918575Y-59591725D01*
X99900000Y-59415000D01*
X99918575Y-59238275D01*
X99973486Y-59069274D01*
X100062336Y-58915383D01*
X100181239Y-58783327D01*
X100325000Y-58678878D01*
X100487336Y-58606602D01*
X100661151Y-58569656D01*
X100838849Y-58569656D01*
X101012664Y-58606602D01*
G37*
G36*
X106050000Y-60175000D02*
G01*
X103950000Y-60175000D01*
X103950000Y-54575000D01*
X106050000Y-54575000D01*
X106050000Y-60175000D01*
G37*
G36*
X125416891Y-58393804D02*
G01*
X125575413Y-58449273D01*
X125717617Y-58538626D01*
X125836374Y-58657383D01*
X125925727Y-58799587D01*
X125981196Y-58958109D01*
X126000000Y-59125000D01*
X125981196Y-59291891D01*
X125925727Y-59450413D01*
X125836374Y-59592617D01*
X125717617Y-59711374D01*
X125575413Y-59800727D01*
X125416891Y-59856196D01*
X125250000Y-59875000D01*
X125083109Y-59856196D01*
X124924587Y-59800727D01*
X124782383Y-59711374D01*
X124663626Y-59592617D01*
X124574273Y-59450413D01*
X124518804Y-59291891D01*
X124500000Y-59125000D01*
X124518804Y-58958109D01*
X124574273Y-58799587D01*
X124663626Y-58657383D01*
X124782383Y-58538626D01*
X124924587Y-58449273D01*
X125083109Y-58393804D01*
X125250000Y-58375000D01*
X125416891Y-58393804D01*
G37*
G36*
X129916891Y-58393804D02*
G01*
X130075413Y-58449273D01*
X130217617Y-58538626D01*
X130336374Y-58657383D01*
X130425727Y-58799587D01*
X130481196Y-58958109D01*
X130500000Y-59125000D01*
X130481196Y-59291891D01*
X130425727Y-59450413D01*
X130336374Y-59592617D01*
X130217617Y-59711374D01*
X130075413Y-59800727D01*
X129916891Y-59856196D01*
X129750000Y-59875000D01*
X129583109Y-59856196D01*
X129424587Y-59800727D01*
X129282383Y-59711374D01*
X129163626Y-59592617D01*
X129074273Y-59450413D01*
X129018804Y-59291891D01*
X129000000Y-59125000D01*
X129018804Y-58958109D01*
X129074273Y-58799587D01*
X129163626Y-58657383D01*
X129282383Y-58538626D01*
X129424587Y-58449273D01*
X129583109Y-58393804D01*
X129750000Y-58375000D01*
X129916891Y-58393804D01*
G37*
G36*
X113994796Y-59301419D02*
G01*
X113570532Y-59725683D01*
X112509872Y-58665023D01*
X112799895Y-58375000D01*
X112929961Y-58244933D01*
X112929964Y-58244930D01*
X112934136Y-58240759D01*
X113994796Y-59301419D01*
G37*
G36*
X119439518Y-58665023D02*
G01*
X118378858Y-59725683D01*
X117954594Y-59301419D01*
X118717387Y-58538626D01*
X119011077Y-58244935D01*
X119011080Y-58244932D01*
X119015254Y-58240759D01*
X119439518Y-58665023D01*
G37*
G36*
X134550000Y-59655000D02*
G01*
X132550000Y-59655000D01*
X132550000Y-58655000D01*
X134550000Y-58655000D01*
X134550000Y-59655000D01*
G37*
G36*
X110225000Y-59350000D02*
G01*
X108775000Y-59350000D01*
X108775000Y-58200000D01*
X110225000Y-58200000D01*
X110225000Y-59350000D01*
G37*
G36*
X137650493Y-58017239D02*
G01*
X137789242Y-58090060D01*
X137906532Y-58193970D01*
X137995546Y-58322930D01*
X138051112Y-58469445D01*
X138070000Y-58625000D01*
X138051112Y-58780555D01*
X137995546Y-58927070D01*
X137906532Y-59056030D01*
X137789242Y-59159940D01*
X137650493Y-59232761D01*
X137498349Y-59270261D01*
X137341651Y-59270261D01*
X137189507Y-59232761D01*
X137050758Y-59159940D01*
X136933468Y-59056030D01*
X136844454Y-58927070D01*
X136788888Y-58780555D01*
X136770000Y-58625000D01*
X136788888Y-58469445D01*
X136844454Y-58322930D01*
X136933468Y-58193970D01*
X137050758Y-58090060D01*
X137189507Y-58017239D01*
X137341651Y-57979739D01*
X137498349Y-57979739D01*
X137650493Y-58017239D01*
G37*
G36*
X140190493Y-58017239D02*
G01*
X140329242Y-58090060D01*
X140446532Y-58193970D01*
X140535546Y-58322930D01*
X140591112Y-58469445D01*
X140610000Y-58625000D01*
X140591112Y-58780555D01*
X140535546Y-58927070D01*
X140446532Y-59056030D01*
X140329242Y-59159940D01*
X140190493Y-59232761D01*
X140038349Y-59270261D01*
X139881651Y-59270261D01*
X139729507Y-59232761D01*
X139590758Y-59159940D01*
X139473468Y-59056030D01*
X139384454Y-58927070D01*
X139328888Y-58780555D01*
X139310000Y-58625000D01*
X139328888Y-58469445D01*
X139384454Y-58322930D01*
X139473468Y-58193970D01*
X139590758Y-58090060D01*
X139729507Y-58017239D01*
X139881651Y-57979739D01*
X140038349Y-57979739D01*
X140190493Y-58017239D01*
G37*
G36*
X142730493Y-58017239D02*
G01*
X142869242Y-58090060D01*
X142986532Y-58193970D01*
X143075546Y-58322930D01*
X143131112Y-58469445D01*
X143150000Y-58625000D01*
X143131112Y-58780555D01*
X143075546Y-58927070D01*
X142986532Y-59056030D01*
X142869242Y-59159940D01*
X142730493Y-59232761D01*
X142578349Y-59270261D01*
X142421651Y-59270261D01*
X142269507Y-59232761D01*
X142130758Y-59159940D01*
X142013468Y-59056030D01*
X141924454Y-58927070D01*
X141868888Y-58780555D01*
X141850000Y-58625000D01*
X141868888Y-58469445D01*
X141924454Y-58322930D01*
X142013468Y-58193970D01*
X142130758Y-58090060D01*
X142269507Y-58017239D01*
X142421651Y-57979739D01*
X142578349Y-57979739D01*
X142730493Y-58017239D01*
G37*
G36*
X114560481Y-58735734D02*
G01*
X114136217Y-59159998D01*
X113075557Y-58099338D01*
X113287690Y-57887205D01*
X113495646Y-57679248D01*
X113495649Y-57679245D01*
X113499821Y-57675074D01*
X114560481Y-58735734D01*
G37*
G36*
X118873833Y-58099338D02*
G01*
X117813173Y-59159998D01*
X117388909Y-58735734D01*
X118144904Y-57979739D01*
X118445392Y-57679250D01*
X118445395Y-57679247D01*
X118449569Y-57675074D01*
X118873833Y-58099338D01*
G37*
G36*
X122555635Y-57905330D02*
G01*
X121530330Y-58930635D01*
X120717157Y-58117462D01*
X121460196Y-57374423D01*
X121738285Y-57096333D01*
X121738288Y-57096330D01*
X121742462Y-57092157D01*
X122555635Y-57905330D01*
G37*
G36*
X115126167Y-58170049D02*
G01*
X114701903Y-58594313D01*
X113641243Y-57533653D01*
X113956482Y-57218414D01*
X114061332Y-57113563D01*
X114061335Y-57113560D01*
X114065507Y-57109389D01*
X115126167Y-58170049D01*
G37*
G36*
X118308147Y-57533653D02*
G01*
X117247487Y-58594313D01*
X116823223Y-58170049D01*
X117608272Y-57385000D01*
X117879706Y-57113565D01*
X117879709Y-57113562D01*
X117883883Y-57109389D01*
X118308147Y-57533653D01*
G37*
G36*
X134550000Y-58385000D02*
G01*
X132550000Y-58385000D01*
X132550000Y-57385000D01*
X134550000Y-57385000D01*
X134550000Y-58385000D01*
G37*
G36*
X88354850Y-56925964D02*
G01*
X88405040Y-56931787D01*
X88422189Y-56939359D01*
X88445671Y-56944030D01*
X88470810Y-56960827D01*
X88490696Y-56969608D01*
X88504277Y-56983189D01*
X88526777Y-56998223D01*
X88541810Y-57020722D01*
X88555391Y-57034303D01*
X88564170Y-57054186D01*
X88580970Y-57079329D01*
X88585641Y-57102812D01*
X88593212Y-57119959D01*
X88599033Y-57170139D01*
X88600000Y-57175000D01*
X88600000Y-58075000D01*
X88599032Y-58079863D01*
X88593212Y-58130040D01*
X88585641Y-58147185D01*
X88580970Y-58170671D01*
X88564169Y-58195815D01*
X88555391Y-58215696D01*
X88541812Y-58229274D01*
X88526777Y-58251777D01*
X88504274Y-58266812D01*
X88490696Y-58280391D01*
X88470815Y-58289169D01*
X88445671Y-58305970D01*
X88422185Y-58310641D01*
X88405040Y-58318212D01*
X88354861Y-58324032D01*
X88350000Y-58325000D01*
X87650000Y-58325000D01*
X87645138Y-58324032D01*
X87594959Y-58318212D01*
X87577812Y-58310641D01*
X87554329Y-58305970D01*
X87529186Y-58289170D01*
X87509303Y-58280391D01*
X87495722Y-58266810D01*
X87473223Y-58251777D01*
X87458189Y-58229277D01*
X87444608Y-58215696D01*
X87435827Y-58195810D01*
X87419030Y-58170671D01*
X87414359Y-58147189D01*
X87406787Y-58130040D01*
X87400964Y-58079849D01*
X87400000Y-58075000D01*
X87400000Y-57175000D01*
X87400964Y-57170150D01*
X87406787Y-57119959D01*
X87414359Y-57102808D01*
X87419030Y-57079329D01*
X87435826Y-57054191D01*
X87444608Y-57034303D01*
X87458191Y-57020719D01*
X87473223Y-56998223D01*
X87495719Y-56983191D01*
X87509303Y-56969608D01*
X87529191Y-56960826D01*
X87554329Y-56944030D01*
X87577808Y-56939359D01*
X87594959Y-56931787D01*
X87645151Y-56925964D01*
X87650000Y-56925000D01*
X88350000Y-56925000D01*
X88354850Y-56925964D01*
G37*
G36*
X90354850Y-56925964D02*
G01*
X90405040Y-56931787D01*
X90422189Y-56939359D01*
X90445671Y-56944030D01*
X90470810Y-56960827D01*
X90490696Y-56969608D01*
X90504277Y-56983189D01*
X90526777Y-56998223D01*
X90541810Y-57020722D01*
X90555391Y-57034303D01*
X90564170Y-57054186D01*
X90580970Y-57079329D01*
X90585641Y-57102812D01*
X90593212Y-57119959D01*
X90599033Y-57170139D01*
X90600000Y-57175000D01*
X90600000Y-58075000D01*
X90599032Y-58079863D01*
X90593212Y-58130040D01*
X90585641Y-58147185D01*
X90580970Y-58170671D01*
X90564169Y-58195815D01*
X90555391Y-58215696D01*
X90541812Y-58229274D01*
X90526777Y-58251777D01*
X90504274Y-58266812D01*
X90490696Y-58280391D01*
X90470815Y-58289169D01*
X90445671Y-58305970D01*
X90422185Y-58310641D01*
X90405040Y-58318212D01*
X90354861Y-58324032D01*
X90350000Y-58325000D01*
X89650000Y-58325000D01*
X89645138Y-58324032D01*
X89594959Y-58318212D01*
X89577812Y-58310641D01*
X89554329Y-58305970D01*
X89529186Y-58289170D01*
X89509303Y-58280391D01*
X89495722Y-58266810D01*
X89473223Y-58251777D01*
X89458189Y-58229277D01*
X89444608Y-58215696D01*
X89435827Y-58195810D01*
X89419030Y-58170671D01*
X89414359Y-58147189D01*
X89406787Y-58130040D01*
X89400964Y-58079849D01*
X89400000Y-58075000D01*
X89400000Y-57175000D01*
X89400964Y-57170150D01*
X89406787Y-57119959D01*
X89414359Y-57102808D01*
X89419030Y-57079329D01*
X89435826Y-57054191D01*
X89444608Y-57034303D01*
X89458191Y-57020719D01*
X89473223Y-56998223D01*
X89495719Y-56983191D01*
X89509303Y-56969608D01*
X89529191Y-56960826D01*
X89554329Y-56944030D01*
X89577808Y-56939359D01*
X89594959Y-56931787D01*
X89645151Y-56925964D01*
X89650000Y-56925000D01*
X90350000Y-56925000D01*
X90354850Y-56925964D01*
G37*
G36*
X115691852Y-57604363D02*
G01*
X115267588Y-58028627D01*
X114206928Y-56967967D01*
X114476620Y-56698275D01*
X114627017Y-56547877D01*
X114627020Y-56547874D01*
X114631192Y-56543703D01*
X115691852Y-57604363D01*
G37*
G36*
X117742462Y-56967967D02*
G01*
X116681802Y-58028627D01*
X116257538Y-57604363D01*
X117021408Y-56840493D01*
X117314021Y-56547879D01*
X117314024Y-56547876D01*
X117318198Y-56543703D01*
X117742462Y-56967967D01*
G37*
G36*
X101012664Y-56066602D02*
G01*
X101175000Y-56138878D01*
X101318761Y-56243327D01*
X101437664Y-56375383D01*
X101526514Y-56529274D01*
X101581425Y-56698275D01*
X101600000Y-56875000D01*
X101581425Y-57051725D01*
X101526514Y-57220726D01*
X101437664Y-57374617D01*
X101318761Y-57506673D01*
X101175000Y-57611122D01*
X101012664Y-57683398D01*
X100838849Y-57720344D01*
X100661151Y-57720344D01*
X100487336Y-57683398D01*
X100325000Y-57611122D01*
X100181239Y-57506673D01*
X100062336Y-57374617D01*
X99973486Y-57220726D01*
X99918575Y-57051725D01*
X99900000Y-56875000D01*
X99918575Y-56698275D01*
X99973486Y-56529274D01*
X100062336Y-56375383D01*
X100181239Y-56243327D01*
X100325000Y-56138878D01*
X100487336Y-56066602D01*
X100661151Y-56029656D01*
X100838849Y-56029656D01*
X101012664Y-56066602D01*
G37*
G36*
X121282843Y-56632538D02*
G01*
X120257538Y-57657843D01*
X119444365Y-56844670D01*
X120209706Y-56079329D01*
X120465493Y-55823541D01*
X120465496Y-55823538D01*
X120469670Y-55819365D01*
X121282843Y-56632538D01*
G37*
G36*
X110225000Y-57550000D02*
G01*
X108775000Y-57550000D01*
X108775000Y-56400000D01*
X110225000Y-56400000D01*
X110225000Y-57550000D01*
G37*
G36*
X124354850Y-55925964D02*
G01*
X124405040Y-55931787D01*
X124422189Y-55939359D01*
X124445671Y-55944030D01*
X124470810Y-55960827D01*
X124490696Y-55969608D01*
X124504277Y-55983189D01*
X124526777Y-55998223D01*
X124541810Y-56020722D01*
X124555391Y-56034303D01*
X124564170Y-56054186D01*
X124580970Y-56079329D01*
X124585641Y-56102812D01*
X124593212Y-56119959D01*
X124599033Y-56170139D01*
X124600000Y-56175000D01*
X124600000Y-57075000D01*
X124599032Y-57079863D01*
X124593212Y-57130040D01*
X124585641Y-57147185D01*
X124580970Y-57170671D01*
X124564169Y-57195815D01*
X124555391Y-57215696D01*
X124541812Y-57229274D01*
X124526777Y-57251777D01*
X124504274Y-57266812D01*
X124490696Y-57280391D01*
X124470815Y-57289169D01*
X124445671Y-57305970D01*
X124422185Y-57310641D01*
X124405040Y-57318212D01*
X124354861Y-57324032D01*
X124350000Y-57325000D01*
X123650000Y-57325000D01*
X123645138Y-57324032D01*
X123594959Y-57318212D01*
X123577812Y-57310641D01*
X123554329Y-57305970D01*
X123529186Y-57289170D01*
X123509303Y-57280391D01*
X123495722Y-57266810D01*
X123473223Y-57251777D01*
X123458189Y-57229277D01*
X123444608Y-57215696D01*
X123435827Y-57195810D01*
X123419030Y-57170671D01*
X123414359Y-57147189D01*
X123406787Y-57130040D01*
X123400964Y-57079849D01*
X123400000Y-57075000D01*
X123400000Y-56175000D01*
X123400964Y-56170150D01*
X123406787Y-56119959D01*
X123414359Y-56102808D01*
X123419030Y-56079329D01*
X123435826Y-56054191D01*
X123444608Y-56034303D01*
X123458191Y-56020719D01*
X123473223Y-55998223D01*
X123495719Y-55983191D01*
X123509303Y-55969608D01*
X123529191Y-55960826D01*
X123554329Y-55944030D01*
X123577808Y-55939359D01*
X123594959Y-55931787D01*
X123645151Y-55925964D01*
X123650000Y-55925000D01*
X124350000Y-55925000D01*
X124354850Y-55925964D01*
G37*
G36*
X126354850Y-55925964D02*
G01*
X126405040Y-55931787D01*
X126422189Y-55939359D01*
X126445671Y-55944030D01*
X126470810Y-55960827D01*
X126490696Y-55969608D01*
X126504277Y-55983189D01*
X126526777Y-55998223D01*
X126541810Y-56020722D01*
X126555391Y-56034303D01*
X126564170Y-56054186D01*
X126580970Y-56079329D01*
X126585641Y-56102812D01*
X126593212Y-56119959D01*
X126599033Y-56170139D01*
X126600000Y-56175000D01*
X126600000Y-57075000D01*
X126599032Y-57079863D01*
X126593212Y-57130040D01*
X126585641Y-57147185D01*
X126580970Y-57170671D01*
X126564169Y-57195815D01*
X126555391Y-57215696D01*
X126541812Y-57229274D01*
X126526777Y-57251777D01*
X126504274Y-57266812D01*
X126490696Y-57280391D01*
X126470815Y-57289169D01*
X126445671Y-57305970D01*
X126422185Y-57310641D01*
X126405040Y-57318212D01*
X126354861Y-57324032D01*
X126350000Y-57325000D01*
X125650000Y-57325000D01*
X125645138Y-57324032D01*
X125594959Y-57318212D01*
X125577812Y-57310641D01*
X125554329Y-57305970D01*
X125529186Y-57289170D01*
X125509303Y-57280391D01*
X125495722Y-57266810D01*
X125473223Y-57251777D01*
X125458189Y-57229277D01*
X125444608Y-57215696D01*
X125435827Y-57195810D01*
X125419030Y-57170671D01*
X125414359Y-57147189D01*
X125406787Y-57130040D01*
X125400964Y-57079849D01*
X125400000Y-57075000D01*
X125400000Y-56175000D01*
X125400964Y-56170150D01*
X125406787Y-56119959D01*
X125414359Y-56102808D01*
X125419030Y-56079329D01*
X125435826Y-56054191D01*
X125444608Y-56034303D01*
X125458191Y-56020719D01*
X125473223Y-55998223D01*
X125495719Y-55983191D01*
X125509303Y-55969608D01*
X125529191Y-55960826D01*
X125554329Y-55944030D01*
X125577808Y-55939359D01*
X125594959Y-55931787D01*
X125645151Y-55925964D01*
X125650000Y-55925000D01*
X126350000Y-55925000D01*
X126354850Y-55925964D01*
G37*
G36*
X127998600Y-55925964D02*
G01*
X128047360Y-55931621D01*
X128064020Y-55938977D01*
X128087029Y-55943554D01*
X128111661Y-55960013D01*
X128130914Y-55968514D01*
X128144064Y-55981664D01*
X128166107Y-55996393D01*
X128180835Y-56018435D01*
X128193985Y-56031585D01*
X128202485Y-56050836D01*
X128218946Y-56075471D01*
X128223523Y-56098481D01*
X128230878Y-56115139D01*
X128236533Y-56163889D01*
X128237500Y-56168750D01*
X128237500Y-57081250D01*
X128236532Y-57086112D01*
X128230878Y-57134860D01*
X128223523Y-57151516D01*
X128218946Y-57174529D01*
X128202483Y-57199165D01*
X128193985Y-57218414D01*
X128180837Y-57231561D01*
X128166107Y-57253607D01*
X128144061Y-57268337D01*
X128130914Y-57281485D01*
X128111665Y-57289983D01*
X128087029Y-57306446D01*
X128064016Y-57311023D01*
X128047360Y-57318378D01*
X127998611Y-57324032D01*
X127993750Y-57325000D01*
X127506250Y-57325000D01*
X127501388Y-57324032D01*
X127452639Y-57318378D01*
X127435981Y-57311023D01*
X127412971Y-57306446D01*
X127388336Y-57289985D01*
X127369085Y-57281485D01*
X127355935Y-57268335D01*
X127333893Y-57253607D01*
X127319164Y-57231564D01*
X127306014Y-57218414D01*
X127297513Y-57199161D01*
X127281054Y-57174529D01*
X127276477Y-57151520D01*
X127269121Y-57134860D01*
X127263464Y-57086099D01*
X127262500Y-57081250D01*
X127262500Y-56168750D01*
X127263464Y-56163900D01*
X127269121Y-56115139D01*
X127276477Y-56098477D01*
X127281054Y-56075471D01*
X127297511Y-56050840D01*
X127306014Y-56031585D01*
X127319166Y-56018432D01*
X127333893Y-55996393D01*
X127355932Y-55981666D01*
X127369085Y-55968514D01*
X127388340Y-55960011D01*
X127412971Y-55943554D01*
X127435977Y-55938977D01*
X127452639Y-55931621D01*
X127501401Y-55925964D01*
X127506250Y-55925000D01*
X127993750Y-55925000D01*
X127998600Y-55925964D01*
G37*
G36*
X129873600Y-55925964D02*
G01*
X129922360Y-55931621D01*
X129939020Y-55938977D01*
X129962029Y-55943554D01*
X129986661Y-55960013D01*
X130005914Y-55968514D01*
X130019064Y-55981664D01*
X130041107Y-55996393D01*
X130055835Y-56018435D01*
X130068985Y-56031585D01*
X130077485Y-56050836D01*
X130093946Y-56075471D01*
X130098523Y-56098481D01*
X130105878Y-56115139D01*
X130111533Y-56163889D01*
X130112500Y-56168750D01*
X130112500Y-57081250D01*
X130111532Y-57086112D01*
X130105878Y-57134860D01*
X130098523Y-57151516D01*
X130093946Y-57174529D01*
X130077483Y-57199165D01*
X130068985Y-57218414D01*
X130055837Y-57231561D01*
X130041107Y-57253607D01*
X130019061Y-57268337D01*
X130005914Y-57281485D01*
X129986665Y-57289983D01*
X129962029Y-57306446D01*
X129939016Y-57311023D01*
X129922360Y-57318378D01*
X129873611Y-57324032D01*
X129868750Y-57325000D01*
X129381250Y-57325000D01*
X129376388Y-57324032D01*
X129327639Y-57318378D01*
X129310981Y-57311023D01*
X129287971Y-57306446D01*
X129263336Y-57289985D01*
X129244085Y-57281485D01*
X129230935Y-57268335D01*
X129208893Y-57253607D01*
X129194164Y-57231564D01*
X129181014Y-57218414D01*
X129172513Y-57199161D01*
X129156054Y-57174529D01*
X129151477Y-57151520D01*
X129144121Y-57134860D01*
X129138464Y-57086099D01*
X129137500Y-57081250D01*
X129137500Y-56168750D01*
X129138464Y-56163900D01*
X129144121Y-56115139D01*
X129151477Y-56098477D01*
X129156054Y-56075471D01*
X129172511Y-56050840D01*
X129181014Y-56031585D01*
X129194166Y-56018432D01*
X129208893Y-55996393D01*
X129230932Y-55981666D01*
X129244085Y-55968514D01*
X129263340Y-55960011D01*
X129287971Y-55943554D01*
X129310977Y-55938977D01*
X129327639Y-55931621D01*
X129376401Y-55925964D01*
X129381250Y-55925000D01*
X129868750Y-55925000D01*
X129873600Y-55925964D01*
G37*
G36*
X88446066Y-53749311D02*
G01*
X88634597Y-53806501D01*
X88808348Y-53899373D01*
X88960642Y-54024358D01*
X89085627Y-54176652D01*
X89178499Y-54350403D01*
X89235689Y-54538934D01*
X89255000Y-54735000D01*
X89235689Y-54931066D01*
X89178499Y-55119597D01*
X89085627Y-55293348D01*
X88960642Y-55445642D01*
X88808348Y-55570627D01*
X88634597Y-55663499D01*
X88446066Y-55720689D01*
X88250000Y-55740000D01*
X88053934Y-55720689D01*
X87865403Y-55663499D01*
X87691652Y-55570627D01*
X87539358Y-55445642D01*
X87414373Y-55293348D01*
X87321501Y-55119597D01*
X87264311Y-54931066D01*
X87245000Y-54735000D01*
X87264311Y-54538934D01*
X87321501Y-54350403D01*
X87414373Y-54176652D01*
X87539358Y-54024358D01*
X87691652Y-53899373D01*
X87865403Y-53806501D01*
X88053934Y-53749311D01*
X88250000Y-53730000D01*
X88446066Y-53749311D01*
G37*
G36*
X92246066Y-53749311D02*
G01*
X92434597Y-53806501D01*
X92608348Y-53899373D01*
X92760642Y-54024358D01*
X92885627Y-54176652D01*
X92978499Y-54350403D01*
X93035689Y-54538934D01*
X93055000Y-54735000D01*
X93035689Y-54931066D01*
X92978499Y-55119597D01*
X92885627Y-55293348D01*
X92760642Y-55445642D01*
X92608348Y-55570627D01*
X92434597Y-55663499D01*
X92246066Y-55720689D01*
X92050000Y-55740000D01*
X91853934Y-55720689D01*
X91665403Y-55663499D01*
X91491652Y-55570627D01*
X91339358Y-55445642D01*
X91214373Y-55293348D01*
X91121501Y-55119597D01*
X91064311Y-54931066D01*
X91045000Y-54735000D01*
X91064311Y-54538934D01*
X91121501Y-54350403D01*
X91214373Y-54176652D01*
X91339358Y-54024358D01*
X91491652Y-53899373D01*
X91665403Y-53806501D01*
X91853934Y-53749311D01*
X92050000Y-53730000D01*
X92246066Y-53749311D01*
G37*
M02*
