M48
; DRILL file {KiCad 7.0.5} date Mon Nov  6 22:38:07 2023
; FORMAT={-:-/ absolute / metric / decimal}
; #@! TF.CreationDate,2023-11-06T22:38:07+10:00
; #@! TF.GenerationSoftware,Kicad,Pcbnew,7.0.5
; #@! TF.FileFunction,Plated,1,4,PTH
FMAT,2
METRIC
; #@! TA.AperFunction,Plated,PTH,ViaDrill
T1C0.300
; #@! TA.AperFunction,Plated,PTH,ComponentDrill
T2C0.800
; #@! TA.AperFunction,Plated,PTH,ComponentDrill
T3C1.000
; #@! TA.AperFunction,Plated,PTH,ComponentDrill
T4C1.340
%
G90
G05
T1
X87.75Y-59.125
X87.75Y-65.875
X87.75Y-68.375
X87.75Y-70.875
X87.75Y-79.625
X87.75Y-86.375
X87.75Y-88.875
X87.75Y-91.375
X87.75Y-100.125
X87.75Y-106.875
X87.75Y-109.375
X87.75Y-111.875
X87.75Y-120.625
X87.75Y-127.375
X87.75Y-129.875
X87.75Y-132.375
X89.0Y-67.125
X89.0Y-69.875
X89.0Y-87.625
X89.0Y-90.375
X89.0Y-108.125
X89.0Y-110.875
X89.0Y-128.625
X89.0Y-131.375
X89.5Y-65.375
X89.5Y-85.875
X89.5Y-106.375
X89.5Y-126.875
X90.0Y-53.625
X90.0Y-56.125
X90.0Y-57.625
X90.0Y-60.375
X90.0Y-74.125
X90.0Y-76.625
X90.0Y-78.125
X90.0Y-80.875
X90.0Y-94.625
X90.0Y-97.125
X90.0Y-98.625
X90.0Y-101.375
X90.0Y-115.125
X90.0Y-117.625
X90.0Y-119.125
X90.0Y-121.875
X90.25Y-59.125
X90.25Y-79.625
X90.25Y-100.125
X90.25Y-120.625
X93.75Y-53.625
X93.75Y-56.375
X93.75Y-61.875
X93.75Y-65.125
X93.75Y-74.125
X93.75Y-76.875
X93.75Y-82.375
X93.75Y-85.625
X93.75Y-94.625
X93.75Y-97.375
X93.75Y-102.875
X93.75Y-106.125
X93.75Y-115.125
X93.75Y-117.875
X93.75Y-123.375
X93.75Y-126.625
X94.5Y-69.125
X94.5Y-89.625
X94.5Y-110.125
X94.5Y-130.625
X95.75Y-55.473
X95.75Y-75.973
X95.75Y-96.473
X95.75Y-116.973
X96.5Y-63.375
X96.5Y-83.875
X96.5Y-104.375
X96.5Y-124.875
X97.25Y-58.375
X97.25Y-78.875
X97.25Y-99.375
X97.25Y-119.875
X98.0Y-64.875
X98.0Y-85.375
X98.0Y-105.875
X98.0Y-126.375
X98.5Y-66.875
X98.5Y-69.125
X98.5Y-87.375
X98.5Y-89.625
X98.5Y-107.875
X98.5Y-110.125
X98.5Y-128.375
X98.5Y-130.625
X98.75Y-61.875
X98.75Y-82.375
X98.75Y-102.875
X98.75Y-123.375
X100.0Y-54.375
X100.0Y-74.875
X100.0Y-95.375
X100.0Y-115.875
X102.25Y-54.375
X102.25Y-74.875
X102.25Y-95.375
X102.25Y-115.875
X102.5Y-57.875
X102.5Y-64.875
X102.5Y-78.375
X102.5Y-85.375
X102.5Y-98.875
X102.5Y-105.875
X102.5Y-119.375
X102.5Y-126.375
X106.75Y-65.625
X106.75Y-86.125
X106.75Y-106.625
X106.75Y-127.125
X107.25Y-60.375
X107.25Y-80.875
X107.25Y-101.375
X107.25Y-121.875
X107.5Y-70.125
X107.5Y-90.625
X107.5Y-111.125
X107.5Y-131.625
X108.25Y-54.375
X108.25Y-74.875
X108.25Y-95.375
X108.25Y-115.875
X109.0Y-63.375
X109.0Y-64.375
X109.0Y-83.875
X109.0Y-84.875
X109.0Y-104.375
X109.0Y-105.375
X109.0Y-124.875
X109.0Y-125.875
X109.75Y-60.125
X109.75Y-80.625
X109.75Y-101.125
X109.75Y-121.625
X111.25Y-57.125
X111.25Y-59.375
X111.25Y-65.375
X111.25Y-66.625
X111.25Y-77.625
X111.25Y-79.875
X111.25Y-85.875
X111.25Y-87.125
X111.25Y-98.125
X111.25Y-100.375
X111.25Y-106.375
X111.25Y-107.625
X111.25Y-118.625
X111.25Y-120.875
X111.25Y-126.875
X111.25Y-128.125
X113.25Y-56.625
X113.25Y-77.125
X113.25Y-97.625
X113.25Y-118.125
X113.75Y-68.125
X113.75Y-88.625
X113.75Y-109.125
X113.75Y-129.625
X114.25Y-59.625
X114.25Y-70.873
X114.25Y-80.125
X114.25Y-91.373
X114.25Y-100.625
X114.25Y-111.873
X114.25Y-121.125
X114.25Y-132.374
X114.486Y-64.361
X114.486Y-84.861
X114.486Y-105.361
X114.486Y-125.861
X114.75Y-62.875
X114.75Y-83.375
X114.75Y-103.875
X114.75Y-124.375
X115.0Y-59.625
X115.0Y-80.125
X115.0Y-100.625
X115.0Y-121.125
X115.25Y-58.625
X115.25Y-79.125
X115.25Y-99.625
X115.25Y-120.125
X115.5Y-56.625
X115.5Y-77.125
X115.5Y-97.625
X115.5Y-118.125
X115.75Y-65.125
X115.75Y-85.625
X115.75Y-106.125
X115.75Y-126.625
X116.248Y-68.125
X116.248Y-88.625
X116.248Y-109.125
X116.248Y-129.625
X116.25Y-55.625
X116.25Y-60.375
X116.25Y-76.125
X116.25Y-80.875
X116.25Y-96.625
X116.25Y-101.375
X116.25Y-117.125
X116.25Y-121.875
X116.276Y-66.125
X116.276Y-86.625
X116.276Y-107.125
X116.276Y-127.625
X117.404Y-60.722
X117.404Y-81.222
X117.404Y-101.722
X117.404Y-122.222
X117.853Y-62.403
X117.853Y-82.903
X117.853Y-103.403
X117.853Y-123.903
X118.002Y-64.178
X118.002Y-84.678
X118.002Y-105.178
X118.002Y-125.678
X118.45Y-56.97
X118.45Y-77.47
X118.45Y-97.97
X118.45Y-118.47
X118.5Y-63.125
X118.5Y-68.498
X118.5Y-69.875
X118.5Y-83.625
X118.5Y-88.998
X118.5Y-90.375
X118.5Y-104.125
X118.5Y-109.498
X118.5Y-110.875
X118.5Y-124.625
X118.5Y-129.999
X118.5Y-131.375
X119.0Y-54.125
X119.0Y-61.901
X119.0Y-74.625
X119.0Y-82.401
X119.0Y-95.125
X119.0Y-102.901
X119.0Y-115.625
X119.0Y-123.401
X119.25Y-67.625
X119.25Y-88.125
X119.25Y-108.625
X119.25Y-129.125
X119.75Y-70.375
X119.75Y-90.875
X119.75Y-111.375
X119.75Y-131.875
X121.724Y-62.875
X121.724Y-83.375
X121.724Y-103.875
X121.724Y-124.375
X121.75Y-65.625
X121.75Y-86.125
X121.75Y-106.625
X121.75Y-127.125
X122.5Y-60.625
X122.5Y-81.125
X122.5Y-101.625
X122.5Y-122.125
X122.79Y-61.335
X122.79Y-81.835
X122.79Y-102.335
X122.79Y-122.835
X123.0Y-63.125
X123.0Y-83.625
X123.0Y-104.125
X123.0Y-124.625
X123.25Y-64.375
X123.25Y-84.875
X123.25Y-105.375
X123.25Y-125.875
X123.846Y-66.375
X123.846Y-86.875
X123.846Y-107.375
X123.846Y-127.875
X124.25Y-54.375
X124.25Y-74.875
X124.25Y-95.375
X124.25Y-115.875
X127.5Y-58.875
X127.5Y-64.875
X127.5Y-79.375
X127.5Y-85.375
X127.5Y-99.875
X127.5Y-105.875
X127.5Y-120.375
X127.5Y-126.375
X128.594Y-67.031
X128.594Y-87.531
X128.594Y-108.031
X128.594Y-128.531
X130.25Y-55.625
X130.25Y-76.125
X130.25Y-96.625
X130.25Y-117.125
X130.75Y-54.375
X130.75Y-74.875
X130.75Y-95.375
X130.75Y-115.875
X131.25Y-63.625
X131.25Y-70.375
X131.25Y-84.125
X131.25Y-90.875
X131.25Y-104.625
X131.25Y-111.375
X131.25Y-125.125
X131.25Y-131.875
X132.0Y-56.625
X132.0Y-59.375
X132.0Y-60.375
X132.0Y-61.875
X132.0Y-62.875
X132.0Y-64.125
X132.0Y-77.125
X132.0Y-79.875
X132.0Y-80.875
X132.0Y-82.375
X132.0Y-83.375
X132.0Y-84.625
X132.0Y-97.625
X132.0Y-100.375
X132.0Y-101.375
X132.0Y-102.875
X132.0Y-103.875
X132.0Y-105.125
X132.0Y-118.125
X132.0Y-120.875
X132.0Y-121.875
X132.0Y-123.375
X132.0Y-124.375
X132.0Y-125.625
X132.5Y-68.125
X132.5Y-88.625
X132.5Y-109.125
X132.5Y-129.625
X133.5Y-70.375
X133.5Y-90.875
X133.5Y-111.375
X133.5Y-131.875
X134.25Y-54.375
X134.25Y-74.875
X134.25Y-95.375
X134.25Y-115.875
X135.75Y-56.875
X135.75Y-60.875
X135.75Y-63.125
X135.75Y-68.125
X135.75Y-77.375
X135.75Y-81.375
X135.75Y-83.625
X135.75Y-88.625
X135.75Y-97.875
X135.75Y-101.875
X135.75Y-104.125
X135.75Y-109.125
X135.75Y-118.375
X135.75Y-122.375
X135.75Y-124.625
X135.75Y-129.625
X139.25Y-54.375
X139.25Y-64.125
X139.25Y-74.875
X139.25Y-84.625
X139.25Y-95.375
X139.25Y-105.125
X139.25Y-115.875
X139.25Y-125.625
X140.0Y-56.875
X140.0Y-77.375
X140.0Y-97.875
X140.0Y-118.375
X140.5Y-68.375
X140.5Y-88.875
X140.5Y-109.375
X140.5Y-129.875
X142.5Y-61.125
X142.5Y-64.125
X142.5Y-81.625
X142.5Y-84.625
X142.5Y-102.125
X142.5Y-105.125
X142.5Y-122.625
X142.5Y-125.625
X144.0Y-53.625
X144.0Y-68.625
X144.0Y-74.125
X144.0Y-89.125
X144.0Y-94.625
X144.0Y-109.625
X144.0Y-115.125
X144.0Y-130.125
T2
X137.42Y-58.625
X137.42Y-66.245
X137.42Y-79.125
X137.42Y-86.745
X137.42Y-99.625
X137.42Y-107.245
X137.42Y-120.125
X137.42Y-127.745
X139.96Y-58.625
X139.96Y-66.245
X139.96Y-79.125
X139.96Y-86.745
X139.96Y-99.625
X139.96Y-107.245
X139.96Y-120.125
X139.96Y-127.745
X142.5Y-58.625
X142.5Y-66.245
X142.5Y-79.125
X142.5Y-86.745
X142.5Y-99.625
X142.5Y-107.245
X142.5Y-120.125
X142.5Y-127.745
T3
X91.42Y-67.375
X91.42Y-87.875
X91.42Y-108.375
X91.42Y-128.875
X93.96Y-67.375
X93.96Y-87.875
X93.96Y-108.375
X93.96Y-128.875
X96.5Y-67.375
X96.5Y-87.875
X96.5Y-108.375
X96.5Y-128.875
X100.75Y-56.875
X100.75Y-59.415
X100.75Y-61.955
X100.75Y-64.495
X100.75Y-67.035
X100.75Y-69.575
X100.75Y-77.375
X100.75Y-79.915
X100.75Y-82.455
X100.75Y-84.995
X100.75Y-87.535
X100.75Y-90.075
X100.75Y-97.875
X100.75Y-100.415
X100.75Y-102.955
X100.75Y-105.495
X100.75Y-108.035
X100.75Y-110.575
X100.75Y-118.375
X100.75Y-120.915
X100.75Y-123.455
X100.75Y-125.995
X100.75Y-128.535
X100.75Y-131.075
X121.25Y-67.375
X121.25Y-87.875
X121.25Y-108.375
X121.25Y-128.875
X125.25Y-59.125
X125.25Y-65.625
X125.25Y-79.625
X125.25Y-86.125
X125.25Y-100.125
X125.25Y-106.625
X125.25Y-120.625
X125.25Y-127.125
X129.75Y-59.125
X129.75Y-65.625
X129.75Y-79.625
X129.75Y-86.125
X129.75Y-100.125
X129.75Y-106.625
X129.75Y-120.625
X129.75Y-127.125
T4
X88.25Y-54.735
X88.25Y-63.375
X88.25Y-75.235
X88.25Y-83.875
X88.25Y-95.735
X88.25Y-104.375
X88.25Y-116.235
X88.25Y-124.875
X92.05Y-54.735
X92.05Y-63.375
X92.05Y-75.235
X92.05Y-83.875
X92.05Y-95.735
X92.05Y-104.375
X92.05Y-116.235
X92.05Y-124.875
T0
M30
