%TF.GenerationSoftware,KiCad,Pcbnew,7.0.5*%
%TF.CreationDate,2023-11-06T22:38:09+10:00*%
%TF.ProjectId,TallyLight_Panel,54616c6c-794c-4696-9768-745f50616e65,rev?*%
%TF.SameCoordinates,Original*%
%TF.FileFunction,Drillmap*%
%TF.FilePolarity,Positive*%
%FSLAX45Y45*%
G04 Gerber Fmt 4.5, Leading zero omitted, Abs format (unit mm)*
G04 Created by KiCad (PCBNEW 7.0.5) date 2023-11-06 22:38:09*
%MOMM*%
%LPD*%
G01*
G04 APERTURE LIST*
%ADD10C,1.000000*%
%ADD11C,0.100000*%
%ADD12C,0.200000*%
%ADD13C,0.030000*%
%ADD14C,0.080000*%
%ADD15C,0.134000*%
G04 APERTURE END LIST*
D10*
X14600000Y-14100000D02*
X14600000Y-4600000D01*
X8550000Y-14100000D02*
X8550000Y-4600000D01*
X6750000Y-13400000D02*
X16300000Y-13400000D01*
X6750000Y-5200000D02*
X16300000Y-5200000D01*
D11*
X6750000Y-4600000D02*
X16300000Y-4600000D01*
X16300000Y-14100000D01*
X6750000Y-14100000D01*
X6750000Y-4600000D01*
D10*
X6750000Y-11350000D02*
X16300000Y-11350000D01*
X6750000Y-9300000D02*
X16300000Y-9300000D01*
X6750000Y-7250000D02*
X16300000Y-7250000D01*
D12*
D13*
X8760000Y-5897500D02*
X8790000Y-5927500D01*
X8790000Y-5897500D02*
X8760000Y-5927500D01*
X8760000Y-6572500D02*
X8790000Y-6602500D01*
X8790000Y-6572500D02*
X8760000Y-6602500D01*
X8760000Y-6822500D02*
X8790000Y-6852500D01*
X8790000Y-6822500D02*
X8760000Y-6852500D01*
X8760000Y-7072500D02*
X8790000Y-7102500D01*
X8790000Y-7072500D02*
X8760000Y-7102500D01*
X8760000Y-7947500D02*
X8790000Y-7977500D01*
X8790000Y-7947500D02*
X8760000Y-7977500D01*
X8760000Y-8622500D02*
X8790000Y-8652500D01*
X8790000Y-8622500D02*
X8760000Y-8652500D01*
X8760000Y-8872500D02*
X8790000Y-8902500D01*
X8790000Y-8872500D02*
X8760000Y-8902500D01*
X8760000Y-9122500D02*
X8790000Y-9152500D01*
X8790000Y-9122500D02*
X8760000Y-9152500D01*
X8760000Y-9997500D02*
X8790000Y-10027500D01*
X8790000Y-9997500D02*
X8760000Y-10027500D01*
X8760000Y-10672500D02*
X8790000Y-10702500D01*
X8790000Y-10672500D02*
X8760000Y-10702500D01*
X8760000Y-10922500D02*
X8790000Y-10952500D01*
X8790000Y-10922500D02*
X8760000Y-10952500D01*
X8760000Y-11172500D02*
X8790000Y-11202500D01*
X8790000Y-11172500D02*
X8760000Y-11202500D01*
X8760000Y-12047500D02*
X8790000Y-12077500D01*
X8790000Y-12047500D02*
X8760000Y-12077500D01*
X8760000Y-12722500D02*
X8790000Y-12752500D01*
X8790000Y-12722500D02*
X8760000Y-12752500D01*
X8760000Y-12972500D02*
X8790000Y-13002500D01*
X8790000Y-12972500D02*
X8760000Y-13002500D01*
X8760000Y-13222500D02*
X8790000Y-13252500D01*
X8790000Y-13222500D02*
X8760000Y-13252500D01*
X8885000Y-6697500D02*
X8915000Y-6727500D01*
X8915000Y-6697500D02*
X8885000Y-6727500D01*
X8885000Y-6972500D02*
X8915000Y-7002500D01*
X8915000Y-6972500D02*
X8885000Y-7002500D01*
X8885000Y-8747500D02*
X8915000Y-8777500D01*
X8915000Y-8747500D02*
X8885000Y-8777500D01*
X8885000Y-9022500D02*
X8915000Y-9052500D01*
X8915000Y-9022500D02*
X8885000Y-9052500D01*
X8885000Y-10797500D02*
X8915000Y-10827500D01*
X8915000Y-10797500D02*
X8885000Y-10827500D01*
X8885000Y-11072500D02*
X8915000Y-11102500D01*
X8915000Y-11072500D02*
X8885000Y-11102500D01*
X8885000Y-12847500D02*
X8915000Y-12877500D01*
X8915000Y-12847500D02*
X8885000Y-12877500D01*
X8885000Y-13122500D02*
X8915000Y-13152500D01*
X8915000Y-13122500D02*
X8885000Y-13152500D01*
X8935000Y-6522500D02*
X8965000Y-6552500D01*
X8965000Y-6522500D02*
X8935000Y-6552500D01*
X8935000Y-8572500D02*
X8965000Y-8602500D01*
X8965000Y-8572500D02*
X8935000Y-8602500D01*
X8935000Y-10622500D02*
X8965000Y-10652500D01*
X8965000Y-10622500D02*
X8935000Y-10652500D01*
X8935000Y-12672500D02*
X8965000Y-12702500D01*
X8965000Y-12672500D02*
X8935000Y-12702500D01*
X8985000Y-5347500D02*
X9015000Y-5377500D01*
X9015000Y-5347500D02*
X8985000Y-5377500D01*
X8985000Y-5597500D02*
X9015000Y-5627500D01*
X9015000Y-5597500D02*
X8985000Y-5627500D01*
X8985000Y-5747500D02*
X9015000Y-5777500D01*
X9015000Y-5747500D02*
X8985000Y-5777500D01*
X8985000Y-6022500D02*
X9015000Y-6052500D01*
X9015000Y-6022500D02*
X8985000Y-6052500D01*
X8985000Y-7397500D02*
X9015000Y-7427500D01*
X9015000Y-7397500D02*
X8985000Y-7427500D01*
X8985000Y-7647500D02*
X9015000Y-7677500D01*
X9015000Y-7647500D02*
X8985000Y-7677500D01*
X8985000Y-7797500D02*
X9015000Y-7827500D01*
X9015000Y-7797500D02*
X8985000Y-7827500D01*
X8985000Y-8072500D02*
X9015000Y-8102500D01*
X9015000Y-8072500D02*
X8985000Y-8102500D01*
X8985000Y-9447500D02*
X9015000Y-9477500D01*
X9015000Y-9447500D02*
X8985000Y-9477500D01*
X8985000Y-9697500D02*
X9015000Y-9727500D01*
X9015000Y-9697500D02*
X8985000Y-9727500D01*
X8985000Y-9847500D02*
X9015000Y-9877500D01*
X9015000Y-9847500D02*
X8985000Y-9877500D01*
X8985000Y-10122500D02*
X9015000Y-10152500D01*
X9015000Y-10122500D02*
X8985000Y-10152500D01*
X8985000Y-11497500D02*
X9015000Y-11527500D01*
X9015000Y-11497500D02*
X8985000Y-11527500D01*
X8985000Y-11747500D02*
X9015000Y-11777500D01*
X9015000Y-11747500D02*
X8985000Y-11777500D01*
X8985000Y-11897500D02*
X9015000Y-11927500D01*
X9015000Y-11897500D02*
X8985000Y-11927500D01*
X8985000Y-12172500D02*
X9015000Y-12202500D01*
X9015000Y-12172500D02*
X8985000Y-12202500D01*
X9010000Y-5897500D02*
X9040000Y-5927500D01*
X9040000Y-5897500D02*
X9010000Y-5927500D01*
X9010000Y-7947500D02*
X9040000Y-7977500D01*
X9040000Y-7947500D02*
X9010000Y-7977500D01*
X9010000Y-9997500D02*
X9040000Y-10027500D01*
X9040000Y-9997500D02*
X9010000Y-10027500D01*
X9010000Y-12047500D02*
X9040000Y-12077500D01*
X9040000Y-12047500D02*
X9010000Y-12077500D01*
X9360000Y-5347500D02*
X9390000Y-5377500D01*
X9390000Y-5347500D02*
X9360000Y-5377500D01*
X9360000Y-5622500D02*
X9390000Y-5652500D01*
X9390000Y-5622500D02*
X9360000Y-5652500D01*
X9360000Y-6172500D02*
X9390000Y-6202500D01*
X9390000Y-6172500D02*
X9360000Y-6202500D01*
X9360000Y-6497500D02*
X9390000Y-6527500D01*
X9390000Y-6497500D02*
X9360000Y-6527500D01*
X9360000Y-7397500D02*
X9390000Y-7427500D01*
X9390000Y-7397500D02*
X9360000Y-7427500D01*
X9360000Y-7672500D02*
X9390000Y-7702500D01*
X9390000Y-7672500D02*
X9360000Y-7702500D01*
X9360000Y-8222500D02*
X9390000Y-8252500D01*
X9390000Y-8222500D02*
X9360000Y-8252500D01*
X9360000Y-8547500D02*
X9390000Y-8577500D01*
X9390000Y-8547500D02*
X9360000Y-8577500D01*
X9360000Y-9447500D02*
X9390000Y-9477500D01*
X9390000Y-9447500D02*
X9360000Y-9477500D01*
X9360000Y-9722500D02*
X9390000Y-9752500D01*
X9390000Y-9722500D02*
X9360000Y-9752500D01*
X9360000Y-10272500D02*
X9390000Y-10302500D01*
X9390000Y-10272500D02*
X9360000Y-10302500D01*
X9360000Y-10597500D02*
X9390000Y-10627500D01*
X9390000Y-10597500D02*
X9360000Y-10627500D01*
X9360000Y-11497500D02*
X9390000Y-11527500D01*
X9390000Y-11497500D02*
X9360000Y-11527500D01*
X9360000Y-11772500D02*
X9390000Y-11802500D01*
X9390000Y-11772500D02*
X9360000Y-11802500D01*
X9360000Y-12322500D02*
X9390000Y-12352500D01*
X9390000Y-12322500D02*
X9360000Y-12352500D01*
X9360000Y-12647500D02*
X9390000Y-12677500D01*
X9390000Y-12647500D02*
X9360000Y-12677500D01*
X9435000Y-6897500D02*
X9465000Y-6927500D01*
X9465000Y-6897500D02*
X9435000Y-6927500D01*
X9435000Y-8947500D02*
X9465000Y-8977500D01*
X9465000Y-8947500D02*
X9435000Y-8977500D01*
X9435000Y-10997500D02*
X9465000Y-11027500D01*
X9465000Y-10997500D02*
X9435000Y-11027500D01*
X9435000Y-13047500D02*
X9465000Y-13077500D01*
X9465000Y-13047500D02*
X9435000Y-13077500D01*
X9560000Y-5532350D02*
X9590000Y-5562350D01*
X9590000Y-5532350D02*
X9560000Y-5562350D01*
X9560000Y-7582350D02*
X9590000Y-7612350D01*
X9590000Y-7582350D02*
X9560000Y-7612350D01*
X9560000Y-9632350D02*
X9590000Y-9662350D01*
X9590000Y-9632350D02*
X9560000Y-9662350D01*
X9560000Y-11682350D02*
X9590000Y-11712350D01*
X9590000Y-11682350D02*
X9560000Y-11712350D01*
X9635000Y-6322500D02*
X9665000Y-6352500D01*
X9665000Y-6322500D02*
X9635000Y-6352500D01*
X9635000Y-8372500D02*
X9665000Y-8402500D01*
X9665000Y-8372500D02*
X9635000Y-8402500D01*
X9635000Y-10422500D02*
X9665000Y-10452500D01*
X9665000Y-10422500D02*
X9635000Y-10452500D01*
X9635000Y-12472500D02*
X9665000Y-12502500D01*
X9665000Y-12472500D02*
X9635000Y-12502500D01*
X9710000Y-5822500D02*
X9740000Y-5852500D01*
X9740000Y-5822500D02*
X9710000Y-5852500D01*
X9710000Y-7872500D02*
X9740000Y-7902500D01*
X9740000Y-7872500D02*
X9710000Y-7902500D01*
X9710000Y-9922500D02*
X9740000Y-9952500D01*
X9740000Y-9922500D02*
X9710000Y-9952500D01*
X9710000Y-11972500D02*
X9740000Y-12002500D01*
X9740000Y-11972500D02*
X9710000Y-12002500D01*
X9785000Y-6472500D02*
X9815000Y-6502500D01*
X9815000Y-6472500D02*
X9785000Y-6502500D01*
X9785000Y-8522500D02*
X9815000Y-8552500D01*
X9815000Y-8522500D02*
X9785000Y-8552500D01*
X9785000Y-10572500D02*
X9815000Y-10602500D01*
X9815000Y-10572500D02*
X9785000Y-10602500D01*
X9785000Y-12622500D02*
X9815000Y-12652500D01*
X9815000Y-12622500D02*
X9785000Y-12652500D01*
X9835000Y-6672500D02*
X9865000Y-6702500D01*
X9865000Y-6672500D02*
X9835000Y-6702500D01*
X9835000Y-6897500D02*
X9865000Y-6927500D01*
X9865000Y-6897500D02*
X9835000Y-6927500D01*
X9835000Y-8722500D02*
X9865000Y-8752500D01*
X9865000Y-8722500D02*
X9835000Y-8752500D01*
X9835000Y-8947500D02*
X9865000Y-8977500D01*
X9865000Y-8947500D02*
X9835000Y-8977500D01*
X9835000Y-10772500D02*
X9865000Y-10802500D01*
X9865000Y-10772500D02*
X9835000Y-10802500D01*
X9835000Y-10997500D02*
X9865000Y-11027500D01*
X9865000Y-10997500D02*
X9835000Y-11027500D01*
X9835000Y-12822500D02*
X9865000Y-12852500D01*
X9865000Y-12822500D02*
X9835000Y-12852500D01*
X9835000Y-13047500D02*
X9865000Y-13077500D01*
X9865000Y-13047500D02*
X9835000Y-13077500D01*
X9860000Y-6172500D02*
X9890000Y-6202500D01*
X9890000Y-6172500D02*
X9860000Y-6202500D01*
X9860000Y-8222500D02*
X9890000Y-8252500D01*
X9890000Y-8222500D02*
X9860000Y-8252500D01*
X9860000Y-10272500D02*
X9890000Y-10302500D01*
X9890000Y-10272500D02*
X9860000Y-10302500D01*
X9860000Y-12322500D02*
X9890000Y-12352500D01*
X9890000Y-12322500D02*
X9860000Y-12352500D01*
X9985000Y-5422500D02*
X10015000Y-5452500D01*
X10015000Y-5422500D02*
X9985000Y-5452500D01*
X9985000Y-7472500D02*
X10015000Y-7502500D01*
X10015000Y-7472500D02*
X9985000Y-7502500D01*
X9985000Y-9522500D02*
X10015000Y-9552500D01*
X10015000Y-9522500D02*
X9985000Y-9552500D01*
X9985000Y-11572500D02*
X10015000Y-11602500D01*
X10015000Y-11572500D02*
X9985000Y-11602500D01*
X10210000Y-5422500D02*
X10240000Y-5452500D01*
X10240000Y-5422500D02*
X10210000Y-5452500D01*
X10210000Y-7472500D02*
X10240000Y-7502500D01*
X10240000Y-7472500D02*
X10210000Y-7502500D01*
X10210000Y-9522500D02*
X10240000Y-9552500D01*
X10240000Y-9522500D02*
X10210000Y-9552500D01*
X10210000Y-11572500D02*
X10240000Y-11602500D01*
X10240000Y-11572500D02*
X10210000Y-11602500D01*
X10235000Y-5772500D02*
X10265000Y-5802500D01*
X10265000Y-5772500D02*
X10235000Y-5802500D01*
X10235000Y-6472500D02*
X10265000Y-6502500D01*
X10265000Y-6472500D02*
X10235000Y-6502500D01*
X10235000Y-7822500D02*
X10265000Y-7852500D01*
X10265000Y-7822500D02*
X10235000Y-7852500D01*
X10235000Y-8522500D02*
X10265000Y-8552500D01*
X10265000Y-8522500D02*
X10235000Y-8552500D01*
X10235000Y-9872500D02*
X10265000Y-9902500D01*
X10265000Y-9872500D02*
X10235000Y-9902500D01*
X10235000Y-10572500D02*
X10265000Y-10602500D01*
X10265000Y-10572500D02*
X10235000Y-10602500D01*
X10235000Y-11922500D02*
X10265000Y-11952500D01*
X10265000Y-11922500D02*
X10235000Y-11952500D01*
X10235000Y-12622500D02*
X10265000Y-12652500D01*
X10265000Y-12622500D02*
X10235000Y-12652500D01*
X10660000Y-6547500D02*
X10690000Y-6577500D01*
X10690000Y-6547500D02*
X10660000Y-6577500D01*
X10660000Y-8597500D02*
X10690000Y-8627500D01*
X10690000Y-8597500D02*
X10660000Y-8627500D01*
X10660000Y-10647500D02*
X10690000Y-10677500D01*
X10690000Y-10647500D02*
X10660000Y-10677500D01*
X10660000Y-12697500D02*
X10690000Y-12727500D01*
X10690000Y-12697500D02*
X10660000Y-12727500D01*
X10710000Y-6022500D02*
X10740000Y-6052500D01*
X10740000Y-6022500D02*
X10710000Y-6052500D01*
X10710000Y-8072500D02*
X10740000Y-8102500D01*
X10740000Y-8072500D02*
X10710000Y-8102500D01*
X10710000Y-10122500D02*
X10740000Y-10152500D01*
X10740000Y-10122500D02*
X10710000Y-10152500D01*
X10710000Y-12172500D02*
X10740000Y-12202500D01*
X10740000Y-12172500D02*
X10710000Y-12202500D01*
X10735000Y-6997500D02*
X10765000Y-7027500D01*
X10765000Y-6997500D02*
X10735000Y-7027500D01*
X10735000Y-9047500D02*
X10765000Y-9077500D01*
X10765000Y-9047500D02*
X10735000Y-9077500D01*
X10735000Y-11097500D02*
X10765000Y-11127500D01*
X10765000Y-11097500D02*
X10735000Y-11127500D01*
X10735000Y-13147500D02*
X10765000Y-13177500D01*
X10765000Y-13147500D02*
X10735000Y-13177500D01*
X10810000Y-5422500D02*
X10840000Y-5452500D01*
X10840000Y-5422500D02*
X10810000Y-5452500D01*
X10810000Y-7472500D02*
X10840000Y-7502500D01*
X10840000Y-7472500D02*
X10810000Y-7502500D01*
X10810000Y-9522500D02*
X10840000Y-9552500D01*
X10840000Y-9522500D02*
X10810000Y-9552500D01*
X10810000Y-11572500D02*
X10840000Y-11602500D01*
X10840000Y-11572500D02*
X10810000Y-11602500D01*
X10885000Y-6322500D02*
X10915000Y-6352500D01*
X10915000Y-6322500D02*
X10885000Y-6352500D01*
X10885000Y-6422500D02*
X10915000Y-6452500D01*
X10915000Y-6422500D02*
X10885000Y-6452500D01*
X10885000Y-8372500D02*
X10915000Y-8402500D01*
X10915000Y-8372500D02*
X10885000Y-8402500D01*
X10885000Y-8472500D02*
X10915000Y-8502500D01*
X10915000Y-8472500D02*
X10885000Y-8502500D01*
X10885000Y-10422500D02*
X10915000Y-10452500D01*
X10915000Y-10422500D02*
X10885000Y-10452500D01*
X10885000Y-10522500D02*
X10915000Y-10552500D01*
X10915000Y-10522500D02*
X10885000Y-10552500D01*
X10885000Y-12472500D02*
X10915000Y-12502500D01*
X10915000Y-12472500D02*
X10885000Y-12502500D01*
X10885000Y-12572500D02*
X10915000Y-12602500D01*
X10915000Y-12572500D02*
X10885000Y-12602500D01*
X10960000Y-5997500D02*
X10990000Y-6027500D01*
X10990000Y-5997500D02*
X10960000Y-6027500D01*
X10960000Y-8047500D02*
X10990000Y-8077500D01*
X10990000Y-8047500D02*
X10960000Y-8077500D01*
X10960000Y-10097500D02*
X10990000Y-10127500D01*
X10990000Y-10097500D02*
X10960000Y-10127500D01*
X10960000Y-12147500D02*
X10990000Y-12177500D01*
X10990000Y-12147500D02*
X10960000Y-12177500D01*
X11110000Y-5697500D02*
X11140000Y-5727500D01*
X11140000Y-5697500D02*
X11110000Y-5727500D01*
X11110000Y-5922500D02*
X11140000Y-5952500D01*
X11140000Y-5922500D02*
X11110000Y-5952500D01*
X11110000Y-6522500D02*
X11140000Y-6552500D01*
X11140000Y-6522500D02*
X11110000Y-6552500D01*
X11110000Y-6647500D02*
X11140000Y-6677500D01*
X11140000Y-6647500D02*
X11110000Y-6677500D01*
X11110000Y-7747500D02*
X11140000Y-7777500D01*
X11140000Y-7747500D02*
X11110000Y-7777500D01*
X11110000Y-7972500D02*
X11140000Y-8002500D01*
X11140000Y-7972500D02*
X11110000Y-8002500D01*
X11110000Y-8572500D02*
X11140000Y-8602500D01*
X11140000Y-8572500D02*
X11110000Y-8602500D01*
X11110000Y-8697500D02*
X11140000Y-8727500D01*
X11140000Y-8697500D02*
X11110000Y-8727500D01*
X11110000Y-9797500D02*
X11140000Y-9827500D01*
X11140000Y-9797500D02*
X11110000Y-9827500D01*
X11110000Y-10022500D02*
X11140000Y-10052500D01*
X11140000Y-10022500D02*
X11110000Y-10052500D01*
X11110000Y-10622500D02*
X11140000Y-10652500D01*
X11140000Y-10622500D02*
X11110000Y-10652500D01*
X11110000Y-10747500D02*
X11140000Y-10777500D01*
X11140000Y-10747500D02*
X11110000Y-10777500D01*
X11110000Y-11847500D02*
X11140000Y-11877500D01*
X11140000Y-11847500D02*
X11110000Y-11877500D01*
X11110000Y-12072500D02*
X11140000Y-12102500D01*
X11140000Y-12072500D02*
X11110000Y-12102500D01*
X11110000Y-12672500D02*
X11140000Y-12702500D01*
X11140000Y-12672500D02*
X11110000Y-12702500D01*
X11110000Y-12797500D02*
X11140000Y-12827500D01*
X11140000Y-12797500D02*
X11110000Y-12827500D01*
X11310000Y-5647500D02*
X11340000Y-5677500D01*
X11340000Y-5647500D02*
X11310000Y-5677500D01*
X11310000Y-7697500D02*
X11340000Y-7727500D01*
X11340000Y-7697500D02*
X11310000Y-7727500D01*
X11310000Y-9747500D02*
X11340000Y-9777500D01*
X11340000Y-9747500D02*
X11310000Y-9777500D01*
X11310000Y-11797500D02*
X11340000Y-11827500D01*
X11340000Y-11797500D02*
X11310000Y-11827500D01*
X11360000Y-6797500D02*
X11390000Y-6827500D01*
X11390000Y-6797500D02*
X11360000Y-6827500D01*
X11360000Y-8847500D02*
X11390000Y-8877500D01*
X11390000Y-8847500D02*
X11360000Y-8877500D01*
X11360000Y-10897500D02*
X11390000Y-10927500D01*
X11390000Y-10897500D02*
X11360000Y-10927500D01*
X11360000Y-12947500D02*
X11390000Y-12977500D01*
X11390000Y-12947500D02*
X11360000Y-12977500D01*
X11410000Y-5947500D02*
X11440000Y-5977500D01*
X11440000Y-5947500D02*
X11410000Y-5977500D01*
X11410000Y-7072350D02*
X11440000Y-7102350D01*
X11440000Y-7072350D02*
X11410000Y-7102350D01*
X11410000Y-7997500D02*
X11440000Y-8027500D01*
X11440000Y-7997500D02*
X11410000Y-8027500D01*
X11410000Y-9122350D02*
X11440000Y-9152350D01*
X11440000Y-9122350D02*
X11410000Y-9152350D01*
X11410000Y-10047500D02*
X11440000Y-10077500D01*
X11440000Y-10047500D02*
X11410000Y-10077500D01*
X11410000Y-11172350D02*
X11440000Y-11202350D01*
X11440000Y-11172350D02*
X11410000Y-11202350D01*
X11410000Y-12097500D02*
X11440000Y-12127500D01*
X11440000Y-12097500D02*
X11410000Y-12127500D01*
X11410000Y-13222350D02*
X11440000Y-13252350D01*
X11440000Y-13222350D02*
X11410000Y-13252350D01*
X11433628Y-6421128D02*
X11463628Y-6451128D01*
X11463628Y-6421128D02*
X11433628Y-6451128D01*
X11433628Y-8471129D02*
X11463628Y-8501129D01*
X11463628Y-8471129D02*
X11433628Y-8501129D01*
X11433628Y-10521129D02*
X11463628Y-10551129D01*
X11463628Y-10521129D02*
X11433628Y-10551129D01*
X11433628Y-12571128D02*
X11463628Y-12601128D01*
X11463628Y-12571128D02*
X11433628Y-12601128D01*
X11460000Y-6272500D02*
X11490000Y-6302500D01*
X11490000Y-6272500D02*
X11460000Y-6302500D01*
X11460000Y-8322500D02*
X11490000Y-8352500D01*
X11490000Y-8322500D02*
X11460000Y-8352500D01*
X11460000Y-10372500D02*
X11490000Y-10402500D01*
X11490000Y-10372500D02*
X11460000Y-10402500D01*
X11460000Y-12422500D02*
X11490000Y-12452500D01*
X11490000Y-12422500D02*
X11460000Y-12452500D01*
X11485000Y-5947500D02*
X11515000Y-5977500D01*
X11515000Y-5947500D02*
X11485000Y-5977500D01*
X11485000Y-7997500D02*
X11515000Y-8027500D01*
X11515000Y-7997500D02*
X11485000Y-8027500D01*
X11485000Y-10047500D02*
X11515000Y-10077500D01*
X11515000Y-10047500D02*
X11485000Y-10077500D01*
X11485000Y-12097500D02*
X11515000Y-12127500D01*
X11515000Y-12097500D02*
X11485000Y-12127500D01*
X11510000Y-5847500D02*
X11540000Y-5877500D01*
X11540000Y-5847500D02*
X11510000Y-5877500D01*
X11510000Y-7897500D02*
X11540000Y-7927500D01*
X11540000Y-7897500D02*
X11510000Y-7927500D01*
X11510000Y-9947500D02*
X11540000Y-9977500D01*
X11540000Y-9947500D02*
X11510000Y-9977500D01*
X11510000Y-11997500D02*
X11540000Y-12027500D01*
X11540000Y-11997500D02*
X11510000Y-12027500D01*
X11535000Y-5647500D02*
X11565000Y-5677500D01*
X11565000Y-5647500D02*
X11535000Y-5677500D01*
X11535000Y-7697500D02*
X11565000Y-7727500D01*
X11565000Y-7697500D02*
X11535000Y-7727500D01*
X11535000Y-9747500D02*
X11565000Y-9777500D01*
X11565000Y-9747500D02*
X11535000Y-9777500D01*
X11535000Y-11797500D02*
X11565000Y-11827500D01*
X11565000Y-11797500D02*
X11535000Y-11827500D01*
X11560000Y-6497500D02*
X11590000Y-6527500D01*
X11590000Y-6497500D02*
X11560000Y-6527500D01*
X11560000Y-8547500D02*
X11590000Y-8577500D01*
X11590000Y-8547500D02*
X11560000Y-8577500D01*
X11560000Y-10597500D02*
X11590000Y-10627500D01*
X11590000Y-10597500D02*
X11560000Y-10627500D01*
X11560000Y-12647500D02*
X11590000Y-12677500D01*
X11590000Y-12647500D02*
X11560000Y-12677500D01*
X11609850Y-6797500D02*
X11639850Y-6827500D01*
X11639850Y-6797500D02*
X11609850Y-6827500D01*
X11609850Y-8847500D02*
X11639850Y-8877500D01*
X11639850Y-8847500D02*
X11609850Y-8877500D01*
X11609850Y-10897500D02*
X11639850Y-10927500D01*
X11639850Y-10897500D02*
X11609850Y-10927500D01*
X11609850Y-12947500D02*
X11639850Y-12977500D01*
X11639850Y-12947500D02*
X11609850Y-12977500D01*
X11610000Y-5547500D02*
X11640000Y-5577500D01*
X11640000Y-5547500D02*
X11610000Y-5577500D01*
X11610000Y-6022500D02*
X11640000Y-6052500D01*
X11640000Y-6022500D02*
X11610000Y-6052500D01*
X11610000Y-7597500D02*
X11640000Y-7627500D01*
X11640000Y-7597500D02*
X11610000Y-7627500D01*
X11610000Y-8072500D02*
X11640000Y-8102500D01*
X11640000Y-8072500D02*
X11610000Y-8102500D01*
X11610000Y-9647500D02*
X11640000Y-9677500D01*
X11640000Y-9647500D02*
X11610000Y-9677500D01*
X11610000Y-10122500D02*
X11640000Y-10152500D01*
X11640000Y-10122500D02*
X11610000Y-10152500D01*
X11610000Y-11697500D02*
X11640000Y-11727500D01*
X11640000Y-11697500D02*
X11610000Y-11727500D01*
X11610000Y-12172500D02*
X11640000Y-12202500D01*
X11640000Y-12172500D02*
X11610000Y-12202500D01*
X11612650Y-6597500D02*
X11642650Y-6627500D01*
X11642650Y-6597500D02*
X11612650Y-6627500D01*
X11612650Y-8647500D02*
X11642650Y-8677500D01*
X11642650Y-8647500D02*
X11612650Y-8677500D01*
X11612650Y-10697500D02*
X11642650Y-10727500D01*
X11642650Y-10697500D02*
X11612650Y-10727500D01*
X11612650Y-12747500D02*
X11642650Y-12777500D01*
X11642650Y-12747500D02*
X11612650Y-12777500D01*
X11725406Y-6057165D02*
X11755406Y-6087165D01*
X11755406Y-6057165D02*
X11725406Y-6087165D01*
X11725406Y-8107165D02*
X11755406Y-8137165D01*
X11755406Y-8107165D02*
X11725406Y-8137165D01*
X11725406Y-10157165D02*
X11755406Y-10187165D01*
X11755406Y-10157165D02*
X11725406Y-10187165D01*
X11725406Y-12207165D02*
X11755406Y-12237165D01*
X11755406Y-12207165D02*
X11725406Y-12237165D01*
X11770350Y-6225309D02*
X11800350Y-6255309D01*
X11800350Y-6225309D02*
X11770350Y-6255309D01*
X11770350Y-8275309D02*
X11800350Y-8305309D01*
X11800350Y-8275309D02*
X11770350Y-8305309D01*
X11770350Y-10325309D02*
X11800350Y-10355309D01*
X11800350Y-10325309D02*
X11770350Y-10355309D01*
X11770350Y-12375309D02*
X11800350Y-12405309D01*
X11800350Y-12375309D02*
X11770350Y-12405309D01*
X11785152Y-6402850D02*
X11815152Y-6432850D01*
X11815152Y-6402850D02*
X11785152Y-6432850D01*
X11785152Y-8452850D02*
X11815152Y-8482850D01*
X11815152Y-8452850D02*
X11785152Y-8482850D01*
X11785152Y-10502850D02*
X11815152Y-10532850D01*
X11815152Y-10502850D02*
X11785152Y-10532850D01*
X11785152Y-12552850D02*
X11815152Y-12582850D01*
X11815152Y-12552850D02*
X11785152Y-12582850D01*
X11829956Y-5682023D02*
X11859956Y-5712023D01*
X11859956Y-5682023D02*
X11829956Y-5712023D01*
X11829956Y-7732023D02*
X11859956Y-7762023D01*
X11859956Y-7732023D02*
X11829956Y-7762023D01*
X11829956Y-9782023D02*
X11859956Y-9812023D01*
X11859956Y-9782023D02*
X11829956Y-9812023D01*
X11829956Y-11832023D02*
X11859956Y-11862023D01*
X11859956Y-11832023D02*
X11829956Y-11862023D01*
X11835000Y-6297500D02*
X11865000Y-6327500D01*
X11865000Y-6297500D02*
X11835000Y-6327500D01*
X11835000Y-6834850D02*
X11865000Y-6864850D01*
X11865000Y-6834850D02*
X11835000Y-6864850D01*
X11835000Y-6972500D02*
X11865000Y-7002500D01*
X11865000Y-6972500D02*
X11835000Y-7002500D01*
X11835000Y-8347500D02*
X11865000Y-8377500D01*
X11865000Y-8347500D02*
X11835000Y-8377500D01*
X11835000Y-8884850D02*
X11865000Y-8914850D01*
X11865000Y-8884850D02*
X11835000Y-8914850D01*
X11835000Y-9022500D02*
X11865000Y-9052500D01*
X11865000Y-9022500D02*
X11835000Y-9052500D01*
X11835000Y-10397500D02*
X11865000Y-10427500D01*
X11865000Y-10397500D02*
X11835000Y-10427500D01*
X11835000Y-10934850D02*
X11865000Y-10964850D01*
X11865000Y-10934850D02*
X11835000Y-10964850D01*
X11835000Y-11072500D02*
X11865000Y-11102500D01*
X11865000Y-11072500D02*
X11835000Y-11102500D01*
X11835000Y-12447500D02*
X11865000Y-12477500D01*
X11865000Y-12447500D02*
X11835000Y-12477500D01*
X11835000Y-12984850D02*
X11865000Y-13014850D01*
X11865000Y-12984850D02*
X11835000Y-13014850D01*
X11835000Y-13122500D02*
X11865000Y-13152500D01*
X11865000Y-13122500D02*
X11835000Y-13152500D01*
X11885000Y-5397500D02*
X11915000Y-5427500D01*
X11915000Y-5397500D02*
X11885000Y-5427500D01*
X11885000Y-6175150D02*
X11915000Y-6205150D01*
X11915000Y-6175150D02*
X11885000Y-6205150D01*
X11885000Y-7447500D02*
X11915000Y-7477500D01*
X11915000Y-7447500D02*
X11885000Y-7477500D01*
X11885000Y-8225150D02*
X11915000Y-8255150D01*
X11915000Y-8225150D02*
X11885000Y-8255150D01*
X11885000Y-9497500D02*
X11915000Y-9527500D01*
X11915000Y-9497500D02*
X11885000Y-9527500D01*
X11885000Y-10275150D02*
X11915000Y-10305150D01*
X11915000Y-10275150D02*
X11885000Y-10305150D01*
X11885000Y-11547500D02*
X11915000Y-11577500D01*
X11915000Y-11547500D02*
X11885000Y-11577500D01*
X11885000Y-12325150D02*
X11915000Y-12355150D01*
X11915000Y-12325150D02*
X11885000Y-12355150D01*
X11910000Y-6747500D02*
X11940000Y-6777500D01*
X11940000Y-6747500D02*
X11910000Y-6777500D01*
X11910000Y-8797500D02*
X11940000Y-8827500D01*
X11940000Y-8797500D02*
X11910000Y-8827500D01*
X11910000Y-10847500D02*
X11940000Y-10877500D01*
X11940000Y-10847500D02*
X11910000Y-10877500D01*
X11910000Y-12897500D02*
X11940000Y-12927500D01*
X11940000Y-12897500D02*
X11910000Y-12927500D01*
X11960000Y-7022500D02*
X11990000Y-7052500D01*
X11990000Y-7022500D02*
X11960000Y-7052500D01*
X11960000Y-9072500D02*
X11990000Y-9102500D01*
X11990000Y-9072500D02*
X11960000Y-9102500D01*
X11960000Y-11122500D02*
X11990000Y-11152500D01*
X11990000Y-11122500D02*
X11960000Y-11152500D01*
X11960000Y-13172500D02*
X11990000Y-13202500D01*
X11990000Y-13172500D02*
X11960000Y-13202500D01*
X12157350Y-6272500D02*
X12187350Y-6302500D01*
X12187350Y-6272500D02*
X12157350Y-6302500D01*
X12157350Y-8322500D02*
X12187350Y-8352500D01*
X12187350Y-8322500D02*
X12157350Y-8352500D01*
X12157350Y-10372500D02*
X12187350Y-10402500D01*
X12187350Y-10372500D02*
X12157350Y-10402500D01*
X12157350Y-12422500D02*
X12187350Y-12452500D01*
X12187350Y-12422500D02*
X12157350Y-12452500D01*
X12160000Y-6547500D02*
X12190000Y-6577500D01*
X12190000Y-6547500D02*
X12160000Y-6577500D01*
X12160000Y-8597500D02*
X12190000Y-8627500D01*
X12190000Y-8597500D02*
X12160000Y-8627500D01*
X12160000Y-10647500D02*
X12190000Y-10677500D01*
X12190000Y-10647500D02*
X12160000Y-10677500D01*
X12160000Y-12697500D02*
X12190000Y-12727500D01*
X12190000Y-12697500D02*
X12160000Y-12727500D01*
X12235000Y-6047500D02*
X12265000Y-6077500D01*
X12265000Y-6047500D02*
X12235000Y-6077500D01*
X12235000Y-8097500D02*
X12265000Y-8127500D01*
X12265000Y-8097500D02*
X12235000Y-8127500D01*
X12235000Y-10147500D02*
X12265000Y-10177500D01*
X12265000Y-10147500D02*
X12235000Y-10177500D01*
X12235000Y-12197500D02*
X12265000Y-12227500D01*
X12265000Y-12197500D02*
X12235000Y-12227500D01*
X12264026Y-6118474D02*
X12294026Y-6148474D01*
X12294026Y-6118474D02*
X12264026Y-6148474D01*
X12264026Y-8168474D02*
X12294026Y-8198474D01*
X12294026Y-8168474D02*
X12264026Y-8198474D01*
X12264026Y-10218474D02*
X12294026Y-10248474D01*
X12294026Y-10218474D02*
X12264026Y-10248474D01*
X12264026Y-12268474D02*
X12294026Y-12298474D01*
X12294026Y-12268474D02*
X12264026Y-12298474D01*
X12285000Y-6297500D02*
X12315000Y-6327500D01*
X12315000Y-6297500D02*
X12285000Y-6327500D01*
X12285000Y-8347500D02*
X12315000Y-8377500D01*
X12315000Y-8347500D02*
X12285000Y-8377500D01*
X12285000Y-10397500D02*
X12315000Y-10427500D01*
X12315000Y-10397500D02*
X12285000Y-10427500D01*
X12285000Y-12447500D02*
X12315000Y-12477500D01*
X12315000Y-12447500D02*
X12285000Y-12477500D01*
X12310000Y-6422500D02*
X12340000Y-6452500D01*
X12340000Y-6422500D02*
X12310000Y-6452500D01*
X12310000Y-8472500D02*
X12340000Y-8502500D01*
X12340000Y-8472500D02*
X12310000Y-8502500D01*
X12310000Y-10522500D02*
X12340000Y-10552500D01*
X12340000Y-10522500D02*
X12310000Y-10552500D01*
X12310000Y-12572500D02*
X12340000Y-12602500D01*
X12340000Y-12572500D02*
X12310000Y-12602500D01*
X12369600Y-6622500D02*
X12399600Y-6652500D01*
X12399600Y-6622500D02*
X12369600Y-6652500D01*
X12369600Y-8672500D02*
X12399600Y-8702500D01*
X12399600Y-8672500D02*
X12369600Y-8702500D01*
X12369600Y-10722500D02*
X12399600Y-10752500D01*
X12399600Y-10722500D02*
X12369600Y-10752500D01*
X12369600Y-12772500D02*
X12399600Y-12802500D01*
X12399600Y-12772500D02*
X12369600Y-12802500D01*
X12410000Y-5422500D02*
X12440000Y-5452500D01*
X12440000Y-5422500D02*
X12410000Y-5452500D01*
X12410000Y-7472500D02*
X12440000Y-7502500D01*
X12440000Y-7472500D02*
X12410000Y-7502500D01*
X12410000Y-9522500D02*
X12440000Y-9552500D01*
X12440000Y-9522500D02*
X12410000Y-9552500D01*
X12410000Y-11572500D02*
X12440000Y-11602500D01*
X12440000Y-11572500D02*
X12410000Y-11602500D01*
X12735000Y-5872500D02*
X12765000Y-5902500D01*
X12765000Y-5872500D02*
X12735000Y-5902500D01*
X12735000Y-6472500D02*
X12765000Y-6502500D01*
X12765000Y-6472500D02*
X12735000Y-6502500D01*
X12735000Y-7922500D02*
X12765000Y-7952500D01*
X12765000Y-7922500D02*
X12735000Y-7952500D01*
X12735000Y-8522500D02*
X12765000Y-8552500D01*
X12765000Y-8522500D02*
X12735000Y-8552500D01*
X12735000Y-9972500D02*
X12765000Y-10002500D01*
X12765000Y-9972500D02*
X12735000Y-10002500D01*
X12735000Y-10572500D02*
X12765000Y-10602500D01*
X12765000Y-10572500D02*
X12735000Y-10602500D01*
X12735000Y-12022500D02*
X12765000Y-12052500D01*
X12765000Y-12022500D02*
X12735000Y-12052500D01*
X12735000Y-12622500D02*
X12765000Y-12652500D01*
X12765000Y-12622500D02*
X12735000Y-12652500D01*
X12844375Y-6688125D02*
X12874375Y-6718125D01*
X12874375Y-6688125D02*
X12844375Y-6718125D01*
X12844375Y-8738125D02*
X12874375Y-8768125D01*
X12874375Y-8738125D02*
X12844375Y-8768125D01*
X12844375Y-10788125D02*
X12874375Y-10818125D01*
X12874375Y-10788125D02*
X12844375Y-10818125D01*
X12844375Y-12838125D02*
X12874375Y-12868125D01*
X12874375Y-12838125D02*
X12844375Y-12868125D01*
X13010000Y-5547500D02*
X13040000Y-5577500D01*
X13040000Y-5547500D02*
X13010000Y-5577500D01*
X13010000Y-7597500D02*
X13040000Y-7627500D01*
X13040000Y-7597500D02*
X13010000Y-7627500D01*
X13010000Y-9647500D02*
X13040000Y-9677500D01*
X13040000Y-9647500D02*
X13010000Y-9677500D01*
X13010000Y-11697500D02*
X13040000Y-11727500D01*
X13040000Y-11697500D02*
X13010000Y-11727500D01*
X13060000Y-5422500D02*
X13090000Y-5452500D01*
X13090000Y-5422500D02*
X13060000Y-5452500D01*
X13060000Y-7472500D02*
X13090000Y-7502500D01*
X13090000Y-7472500D02*
X13060000Y-7502500D01*
X13060000Y-9522500D02*
X13090000Y-9552500D01*
X13090000Y-9522500D02*
X13060000Y-9552500D01*
X13060000Y-11572500D02*
X13090000Y-11602500D01*
X13090000Y-11572500D02*
X13060000Y-11602500D01*
X13110000Y-6347500D02*
X13140000Y-6377500D01*
X13140000Y-6347500D02*
X13110000Y-6377500D01*
X13110000Y-7022500D02*
X13140000Y-7052500D01*
X13140000Y-7022500D02*
X13110000Y-7052500D01*
X13110000Y-8397500D02*
X13140000Y-8427500D01*
X13140000Y-8397500D02*
X13110000Y-8427500D01*
X13110000Y-9072500D02*
X13140000Y-9102500D01*
X13140000Y-9072500D02*
X13110000Y-9102500D01*
X13110000Y-10447500D02*
X13140000Y-10477500D01*
X13140000Y-10447500D02*
X13110000Y-10477500D01*
X13110000Y-11122500D02*
X13140000Y-11152500D01*
X13140000Y-11122500D02*
X13110000Y-11152500D01*
X13110000Y-12497500D02*
X13140000Y-12527500D01*
X13140000Y-12497500D02*
X13110000Y-12527500D01*
X13110000Y-13172500D02*
X13140000Y-13202500D01*
X13140000Y-13172500D02*
X13110000Y-13202500D01*
X13185000Y-5647500D02*
X13215000Y-5677500D01*
X13215000Y-5647500D02*
X13185000Y-5677500D01*
X13185000Y-5922500D02*
X13215000Y-5952500D01*
X13215000Y-5922500D02*
X13185000Y-5952500D01*
X13185000Y-6022500D02*
X13215000Y-6052500D01*
X13215000Y-6022500D02*
X13185000Y-6052500D01*
X13185000Y-6172500D02*
X13215000Y-6202500D01*
X13215000Y-6172500D02*
X13185000Y-6202500D01*
X13185000Y-6272500D02*
X13215000Y-6302500D01*
X13215000Y-6272500D02*
X13185000Y-6302500D01*
X13185000Y-6397500D02*
X13215000Y-6427500D01*
X13215000Y-6397500D02*
X13185000Y-6427500D01*
X13185000Y-7697500D02*
X13215000Y-7727500D01*
X13215000Y-7697500D02*
X13185000Y-7727500D01*
X13185000Y-7972500D02*
X13215000Y-8002500D01*
X13215000Y-7972500D02*
X13185000Y-8002500D01*
X13185000Y-8072500D02*
X13215000Y-8102500D01*
X13215000Y-8072500D02*
X13185000Y-8102500D01*
X13185000Y-8222500D02*
X13215000Y-8252500D01*
X13215000Y-8222500D02*
X13185000Y-8252500D01*
X13185000Y-8322500D02*
X13215000Y-8352500D01*
X13215000Y-8322500D02*
X13185000Y-8352500D01*
X13185000Y-8447500D02*
X13215000Y-8477500D01*
X13215000Y-8447500D02*
X13185000Y-8477500D01*
X13185000Y-9747500D02*
X13215000Y-9777500D01*
X13215000Y-9747500D02*
X13185000Y-9777500D01*
X13185000Y-10022500D02*
X13215000Y-10052500D01*
X13215000Y-10022500D02*
X13185000Y-10052500D01*
X13185000Y-10122500D02*
X13215000Y-10152500D01*
X13215000Y-10122500D02*
X13185000Y-10152500D01*
X13185000Y-10272500D02*
X13215000Y-10302500D01*
X13215000Y-10272500D02*
X13185000Y-10302500D01*
X13185000Y-10372500D02*
X13215000Y-10402500D01*
X13215000Y-10372500D02*
X13185000Y-10402500D01*
X13185000Y-10497500D02*
X13215000Y-10527500D01*
X13215000Y-10497500D02*
X13185000Y-10527500D01*
X13185000Y-11797500D02*
X13215000Y-11827500D01*
X13215000Y-11797500D02*
X13185000Y-11827500D01*
X13185000Y-12072500D02*
X13215000Y-12102500D01*
X13215000Y-12072500D02*
X13185000Y-12102500D01*
X13185000Y-12172500D02*
X13215000Y-12202500D01*
X13215000Y-12172500D02*
X13185000Y-12202500D01*
X13185000Y-12322500D02*
X13215000Y-12352500D01*
X13215000Y-12322500D02*
X13185000Y-12352500D01*
X13185000Y-12422500D02*
X13215000Y-12452500D01*
X13215000Y-12422500D02*
X13185000Y-12452500D01*
X13185000Y-12547500D02*
X13215000Y-12577500D01*
X13215000Y-12547500D02*
X13185000Y-12577500D01*
X13235000Y-6797500D02*
X13265000Y-6827500D01*
X13265000Y-6797500D02*
X13235000Y-6827500D01*
X13235000Y-8847500D02*
X13265000Y-8877500D01*
X13265000Y-8847500D02*
X13235000Y-8877500D01*
X13235000Y-10897500D02*
X13265000Y-10927500D01*
X13265000Y-10897500D02*
X13235000Y-10927500D01*
X13235000Y-12947500D02*
X13265000Y-12977500D01*
X13265000Y-12947500D02*
X13235000Y-12977500D01*
X13335000Y-7022500D02*
X13365000Y-7052500D01*
X13365000Y-7022500D02*
X13335000Y-7052500D01*
X13335000Y-9072500D02*
X13365000Y-9102500D01*
X13365000Y-9072500D02*
X13335000Y-9102500D01*
X13335000Y-11122500D02*
X13365000Y-11152500D01*
X13365000Y-11122500D02*
X13335000Y-11152500D01*
X13335000Y-13172500D02*
X13365000Y-13202500D01*
X13365000Y-13172500D02*
X13335000Y-13202500D01*
X13410000Y-5422500D02*
X13440000Y-5452500D01*
X13440000Y-5422500D02*
X13410000Y-5452500D01*
X13410000Y-7472500D02*
X13440000Y-7502500D01*
X13440000Y-7472500D02*
X13410000Y-7502500D01*
X13410000Y-9522500D02*
X13440000Y-9552500D01*
X13440000Y-9522500D02*
X13410000Y-9552500D01*
X13410000Y-11572500D02*
X13440000Y-11602500D01*
X13440000Y-11572500D02*
X13410000Y-11602500D01*
X13560000Y-5672500D02*
X13590000Y-5702500D01*
X13590000Y-5672500D02*
X13560000Y-5702500D01*
X13560000Y-6072500D02*
X13590000Y-6102500D01*
X13590000Y-6072500D02*
X13560000Y-6102500D01*
X13560000Y-6297500D02*
X13590000Y-6327500D01*
X13590000Y-6297500D02*
X13560000Y-6327500D01*
X13560000Y-6797500D02*
X13590000Y-6827500D01*
X13590000Y-6797500D02*
X13560000Y-6827500D01*
X13560000Y-7722500D02*
X13590000Y-7752500D01*
X13590000Y-7722500D02*
X13560000Y-7752500D01*
X13560000Y-8122500D02*
X13590000Y-8152500D01*
X13590000Y-8122500D02*
X13560000Y-8152500D01*
X13560000Y-8347500D02*
X13590000Y-8377500D01*
X13590000Y-8347500D02*
X13560000Y-8377500D01*
X13560000Y-8847500D02*
X13590000Y-8877500D01*
X13590000Y-8847500D02*
X13560000Y-8877500D01*
X13560000Y-9772500D02*
X13590000Y-9802500D01*
X13590000Y-9772500D02*
X13560000Y-9802500D01*
X13560000Y-10172500D02*
X13590000Y-10202500D01*
X13590000Y-10172500D02*
X13560000Y-10202500D01*
X13560000Y-10397500D02*
X13590000Y-10427500D01*
X13590000Y-10397500D02*
X13560000Y-10427500D01*
X13560000Y-10897500D02*
X13590000Y-10927500D01*
X13590000Y-10897500D02*
X13560000Y-10927500D01*
X13560000Y-11822500D02*
X13590000Y-11852500D01*
X13590000Y-11822500D02*
X13560000Y-11852500D01*
X13560000Y-12222500D02*
X13590000Y-12252500D01*
X13590000Y-12222500D02*
X13560000Y-12252500D01*
X13560000Y-12447500D02*
X13590000Y-12477500D01*
X13590000Y-12447500D02*
X13560000Y-12477500D01*
X13560000Y-12947500D02*
X13590000Y-12977500D01*
X13590000Y-12947500D02*
X13560000Y-12977500D01*
X13910000Y-5422500D02*
X13940000Y-5452500D01*
X13940000Y-5422500D02*
X13910000Y-5452500D01*
X13910000Y-6397500D02*
X13940000Y-6427500D01*
X13940000Y-6397500D02*
X13910000Y-6427500D01*
X13910000Y-7472500D02*
X13940000Y-7502500D01*
X13940000Y-7472500D02*
X13910000Y-7502500D01*
X13910000Y-8447500D02*
X13940000Y-8477500D01*
X13940000Y-8447500D02*
X13910000Y-8477500D01*
X13910000Y-9522500D02*
X13940000Y-9552500D01*
X13940000Y-9522500D02*
X13910000Y-9552500D01*
X13910000Y-10497500D02*
X13940000Y-10527500D01*
X13940000Y-10497500D02*
X13910000Y-10527500D01*
X13910000Y-11572500D02*
X13940000Y-11602500D01*
X13940000Y-11572500D02*
X13910000Y-11602500D01*
X13910000Y-12547500D02*
X13940000Y-12577500D01*
X13940000Y-12547500D02*
X13910000Y-12577500D01*
X13985000Y-5672500D02*
X14015000Y-5702500D01*
X14015000Y-5672500D02*
X13985000Y-5702500D01*
X13985000Y-7722500D02*
X14015000Y-7752500D01*
X14015000Y-7722500D02*
X13985000Y-7752500D01*
X13985000Y-9772500D02*
X14015000Y-9802500D01*
X14015000Y-9772500D02*
X13985000Y-9802500D01*
X13985000Y-11822500D02*
X14015000Y-11852500D01*
X14015000Y-11822500D02*
X13985000Y-11852500D01*
X14035000Y-6822500D02*
X14065000Y-6852500D01*
X14065000Y-6822500D02*
X14035000Y-6852500D01*
X14035000Y-8872500D02*
X14065000Y-8902500D01*
X14065000Y-8872500D02*
X14035000Y-8902500D01*
X14035000Y-10922500D02*
X14065000Y-10952500D01*
X14065000Y-10922500D02*
X14035000Y-10952500D01*
X14035000Y-12972500D02*
X14065000Y-13002500D01*
X14065000Y-12972500D02*
X14035000Y-13002500D01*
X14235000Y-6097500D02*
X14265000Y-6127500D01*
X14265000Y-6097500D02*
X14235000Y-6127500D01*
X14235000Y-6397500D02*
X14265000Y-6427500D01*
X14265000Y-6397500D02*
X14235000Y-6427500D01*
X14235000Y-8147500D02*
X14265000Y-8177500D01*
X14265000Y-8147500D02*
X14235000Y-8177500D01*
X14235000Y-8447500D02*
X14265000Y-8477500D01*
X14265000Y-8447500D02*
X14235000Y-8477500D01*
X14235000Y-10197500D02*
X14265000Y-10227500D01*
X14265000Y-10197500D02*
X14235000Y-10227500D01*
X14235000Y-10497500D02*
X14265000Y-10527500D01*
X14265000Y-10497500D02*
X14235000Y-10527500D01*
X14235000Y-12247500D02*
X14265000Y-12277500D01*
X14265000Y-12247500D02*
X14235000Y-12277500D01*
X14235000Y-12547500D02*
X14265000Y-12577500D01*
X14265000Y-12547500D02*
X14235000Y-12577500D01*
X14385000Y-5347500D02*
X14415000Y-5377500D01*
X14415000Y-5347500D02*
X14385000Y-5377500D01*
X14385000Y-6847500D02*
X14415000Y-6877500D01*
X14415000Y-6847500D02*
X14385000Y-6877500D01*
X14385000Y-7397500D02*
X14415000Y-7427500D01*
X14415000Y-7397500D02*
X14385000Y-7427500D01*
X14385000Y-8897500D02*
X14415000Y-8927500D01*
X14415000Y-8897500D02*
X14385000Y-8927500D01*
X14385000Y-9447500D02*
X14415000Y-9477500D01*
X14415000Y-9447500D02*
X14385000Y-9477500D01*
X14385000Y-10947500D02*
X14415000Y-10977500D01*
X14415000Y-10947500D02*
X14385000Y-10977500D01*
X14385000Y-11497500D02*
X14415000Y-11527500D01*
X14415000Y-11497500D02*
X14385000Y-11527500D01*
X14385000Y-12997500D02*
X14415000Y-13027500D01*
X14415000Y-12997500D02*
X14385000Y-13027500D01*
D14*
X13782000Y-5862500D02*
G75*
G03*
X13782000Y-5862500I-40000J0D01*
G01*
X13782000Y-6624500D02*
G75*
G03*
X13782000Y-6624500I-40000J0D01*
G01*
X13782000Y-7912500D02*
G75*
G03*
X13782000Y-7912500I-40000J0D01*
G01*
X13782000Y-8674500D02*
G75*
G03*
X13782000Y-8674500I-40000J0D01*
G01*
X13782000Y-9962500D02*
G75*
G03*
X13782000Y-9962500I-40000J0D01*
G01*
X13782000Y-10724500D02*
G75*
G03*
X13782000Y-10724500I-40000J0D01*
G01*
X13782000Y-12012500D02*
G75*
G03*
X13782000Y-12012500I-40000J0D01*
G01*
X13782000Y-12774500D02*
G75*
G03*
X13782000Y-12774500I-40000J0D01*
G01*
X14036000Y-5862500D02*
G75*
G03*
X14036000Y-5862500I-40000J0D01*
G01*
X14036000Y-6624500D02*
G75*
G03*
X14036000Y-6624500I-40000J0D01*
G01*
X14036000Y-7912500D02*
G75*
G03*
X14036000Y-7912500I-40000J0D01*
G01*
X14036000Y-8674500D02*
G75*
G03*
X14036000Y-8674500I-40000J0D01*
G01*
X14036000Y-9962500D02*
G75*
G03*
X14036000Y-9962500I-40000J0D01*
G01*
X14036000Y-10724500D02*
G75*
G03*
X14036000Y-10724500I-40000J0D01*
G01*
X14036000Y-12012500D02*
G75*
G03*
X14036000Y-12012500I-40000J0D01*
G01*
X14036000Y-12774500D02*
G75*
G03*
X14036000Y-12774500I-40000J0D01*
G01*
X14290000Y-5862500D02*
G75*
G03*
X14290000Y-5862500I-40000J0D01*
G01*
X14290000Y-6624500D02*
G75*
G03*
X14290000Y-6624500I-40000J0D01*
G01*
X14290000Y-7912500D02*
G75*
G03*
X14290000Y-7912500I-40000J0D01*
G01*
X14290000Y-8674500D02*
G75*
G03*
X14290000Y-8674500I-40000J0D01*
G01*
X14290000Y-9962500D02*
G75*
G03*
X14290000Y-9962500I-40000J0D01*
G01*
X14290000Y-10724500D02*
G75*
G03*
X14290000Y-10724500I-40000J0D01*
G01*
X14290000Y-12012500D02*
G75*
G03*
X14290000Y-12012500I-40000J0D01*
G01*
X14290000Y-12774500D02*
G75*
G03*
X14290000Y-12774500I-40000J0D01*
G01*
D11*
X9142000Y-6687500D02*
X9142000Y-6787500D01*
X9092000Y-6737500D02*
X9192000Y-6737500D01*
X9142000Y-8737500D02*
X9142000Y-8837500D01*
X9092000Y-8787500D02*
X9192000Y-8787500D01*
X9142000Y-10787500D02*
X9142000Y-10887500D01*
X9092000Y-10837500D02*
X9192000Y-10837500D01*
X9142000Y-12837500D02*
X9142000Y-12937500D01*
X9092000Y-12887500D02*
X9192000Y-12887500D01*
X9396000Y-6687500D02*
X9396000Y-6787500D01*
X9346000Y-6737500D02*
X9446000Y-6737500D01*
X9396000Y-8737500D02*
X9396000Y-8837500D01*
X9346000Y-8787500D02*
X9446000Y-8787500D01*
X9396000Y-10787500D02*
X9396000Y-10887500D01*
X9346000Y-10837500D02*
X9446000Y-10837500D01*
X9396000Y-12837500D02*
X9396000Y-12937500D01*
X9346000Y-12887500D02*
X9446000Y-12887500D01*
X9650000Y-6687500D02*
X9650000Y-6787500D01*
X9600000Y-6737500D02*
X9700000Y-6737500D01*
X9650000Y-8737500D02*
X9650000Y-8837500D01*
X9600000Y-8787500D02*
X9700000Y-8787500D01*
X9650000Y-10787500D02*
X9650000Y-10887500D01*
X9600000Y-10837500D02*
X9700000Y-10837500D01*
X9650000Y-12837500D02*
X9650000Y-12937500D01*
X9600000Y-12887500D02*
X9700000Y-12887500D01*
X10075000Y-5637500D02*
X10075000Y-5737500D01*
X10025000Y-5687500D02*
X10125000Y-5687500D01*
X10075000Y-5891500D02*
X10075000Y-5991500D01*
X10025000Y-5941500D02*
X10125000Y-5941500D01*
X10075000Y-6145500D02*
X10075000Y-6245500D01*
X10025000Y-6195500D02*
X10125000Y-6195500D01*
X10075000Y-6399500D02*
X10075000Y-6499500D01*
X10025000Y-6449500D02*
X10125000Y-6449500D01*
X10075000Y-6653500D02*
X10075000Y-6753500D01*
X10025000Y-6703500D02*
X10125000Y-6703500D01*
X10075000Y-6907500D02*
X10075000Y-7007500D01*
X10025000Y-6957500D02*
X10125000Y-6957500D01*
X10075000Y-7687500D02*
X10075000Y-7787500D01*
X10025000Y-7737500D02*
X10125000Y-7737500D01*
X10075000Y-7941500D02*
X10075000Y-8041500D01*
X10025000Y-7991500D02*
X10125000Y-7991500D01*
X10075000Y-8195500D02*
X10075000Y-8295500D01*
X10025000Y-8245500D02*
X10125000Y-8245500D01*
X10075000Y-8449500D02*
X10075000Y-8549500D01*
X10025000Y-8499500D02*
X10125000Y-8499500D01*
X10075000Y-8703500D02*
X10075000Y-8803500D01*
X10025000Y-8753500D02*
X10125000Y-8753500D01*
X10075000Y-8957500D02*
X10075000Y-9057500D01*
X10025000Y-9007500D02*
X10125000Y-9007500D01*
X10075000Y-9737500D02*
X10075000Y-9837500D01*
X10025000Y-9787500D02*
X10125000Y-9787500D01*
X10075000Y-9991500D02*
X10075000Y-10091500D01*
X10025000Y-10041500D02*
X10125000Y-10041500D01*
X10075000Y-10245500D02*
X10075000Y-10345500D01*
X10025000Y-10295500D02*
X10125000Y-10295500D01*
X10075000Y-10499500D02*
X10075000Y-10599500D01*
X10025000Y-10549500D02*
X10125000Y-10549500D01*
X10075000Y-10753500D02*
X10075000Y-10853500D01*
X10025000Y-10803500D02*
X10125000Y-10803500D01*
X10075000Y-11007500D02*
X10075000Y-11107500D01*
X10025000Y-11057500D02*
X10125000Y-11057500D01*
X10075000Y-11787500D02*
X10075000Y-11887500D01*
X10025000Y-11837500D02*
X10125000Y-11837500D01*
X10075000Y-12041500D02*
X10075000Y-12141500D01*
X10025000Y-12091500D02*
X10125000Y-12091500D01*
X10075000Y-12295500D02*
X10075000Y-12395500D01*
X10025000Y-12345500D02*
X10125000Y-12345500D01*
X10075000Y-12549500D02*
X10075000Y-12649500D01*
X10025000Y-12599500D02*
X10125000Y-12599500D01*
X10075000Y-12803500D02*
X10075000Y-12903500D01*
X10025000Y-12853500D02*
X10125000Y-12853500D01*
X10075000Y-13057500D02*
X10075000Y-13157500D01*
X10025000Y-13107500D02*
X10125000Y-13107500D01*
X12125000Y-6687500D02*
X12125000Y-6787500D01*
X12075000Y-6737500D02*
X12175000Y-6737500D01*
X12125000Y-8737500D02*
X12125000Y-8837500D01*
X12075000Y-8787500D02*
X12175000Y-8787500D01*
X12125000Y-10787500D02*
X12125000Y-10887500D01*
X12075000Y-10837500D02*
X12175000Y-10837500D01*
X12125000Y-12837500D02*
X12125000Y-12937500D01*
X12075000Y-12887500D02*
X12175000Y-12887500D01*
X12525000Y-5862500D02*
X12525000Y-5962500D01*
X12475000Y-5912500D02*
X12575000Y-5912500D01*
X12525000Y-6512500D02*
X12525000Y-6612500D01*
X12475000Y-6562500D02*
X12575000Y-6562500D01*
X12525000Y-7912500D02*
X12525000Y-8012500D01*
X12475000Y-7962500D02*
X12575000Y-7962500D01*
X12525000Y-8562500D02*
X12525000Y-8662500D01*
X12475000Y-8612500D02*
X12575000Y-8612500D01*
X12525000Y-9962500D02*
X12525000Y-10062500D01*
X12475000Y-10012500D02*
X12575000Y-10012500D01*
X12525000Y-10612500D02*
X12525000Y-10712500D01*
X12475000Y-10662500D02*
X12575000Y-10662500D01*
X12525000Y-12012500D02*
X12525000Y-12112500D01*
X12475000Y-12062500D02*
X12575000Y-12062500D01*
X12525000Y-12662500D02*
X12525000Y-12762500D01*
X12475000Y-12712500D02*
X12575000Y-12712500D01*
X12975000Y-5862500D02*
X12975000Y-5962500D01*
X12925000Y-5912500D02*
X13025000Y-5912500D01*
X12975000Y-6512500D02*
X12975000Y-6612500D01*
X12925000Y-6562500D02*
X13025000Y-6562500D01*
X12975000Y-7912500D02*
X12975000Y-8012500D01*
X12925000Y-7962500D02*
X13025000Y-7962500D01*
X12975000Y-8562500D02*
X12975000Y-8662500D01*
X12925000Y-8612500D02*
X13025000Y-8612500D01*
X12975000Y-9962500D02*
X12975000Y-10062500D01*
X12925000Y-10012500D02*
X13025000Y-10012500D01*
X12975000Y-10612500D02*
X12975000Y-10712500D01*
X12925000Y-10662500D02*
X13025000Y-10662500D01*
X12975000Y-12012500D02*
X12975000Y-12112500D01*
X12925000Y-12062500D02*
X13025000Y-12062500D01*
X12975000Y-12662500D02*
X12975000Y-12762500D01*
X12925000Y-12712500D02*
X13025000Y-12712500D01*
D15*
X8872377Y-5520877D02*
X8872377Y-5426123D01*
X8777623Y-5426123D01*
X8777623Y-5520877D01*
X8872377Y-5520877D01*
X8872377Y-6384877D02*
X8872377Y-6290123D01*
X8777623Y-6290123D01*
X8777623Y-6384877D01*
X8872377Y-6384877D01*
X8872377Y-7570877D02*
X8872377Y-7476123D01*
X8777623Y-7476123D01*
X8777623Y-7570877D01*
X8872377Y-7570877D01*
X8872377Y-8434877D02*
X8872377Y-8340123D01*
X8777623Y-8340123D01*
X8777623Y-8434877D01*
X8872377Y-8434877D01*
X8872377Y-9620877D02*
X8872377Y-9526123D01*
X8777623Y-9526123D01*
X8777623Y-9620877D01*
X8872377Y-9620877D01*
X8872377Y-10484877D02*
X8872377Y-10390123D01*
X8777623Y-10390123D01*
X8777623Y-10484877D01*
X8872377Y-10484877D01*
X8872377Y-11670877D02*
X8872377Y-11576123D01*
X8777623Y-11576123D01*
X8777623Y-11670877D01*
X8872377Y-11670877D01*
X8872377Y-12534877D02*
X8872377Y-12440123D01*
X8777623Y-12440123D01*
X8777623Y-12534877D01*
X8872377Y-12534877D01*
X9252377Y-5520877D02*
X9252377Y-5426123D01*
X9157623Y-5426123D01*
X9157623Y-5520877D01*
X9252377Y-5520877D01*
X9252377Y-6384877D02*
X9252377Y-6290123D01*
X9157623Y-6290123D01*
X9157623Y-6384877D01*
X9252377Y-6384877D01*
X9252377Y-7570877D02*
X9252377Y-7476123D01*
X9157623Y-7476123D01*
X9157623Y-7570877D01*
X9252377Y-7570877D01*
X9252377Y-8434877D02*
X9252377Y-8340123D01*
X9157623Y-8340123D01*
X9157623Y-8434877D01*
X9252377Y-8434877D01*
X9252377Y-9620877D02*
X9252377Y-9526123D01*
X9157623Y-9526123D01*
X9157623Y-9620877D01*
X9252377Y-9620877D01*
X9252377Y-10484877D02*
X9252377Y-10390123D01*
X9157623Y-10390123D01*
X9157623Y-10484877D01*
X9252377Y-10484877D01*
X9252377Y-11670877D02*
X9252377Y-11576123D01*
X9157623Y-11576123D01*
X9157623Y-11670877D01*
X9252377Y-11670877D01*
X9252377Y-12534877D02*
X9252377Y-12440123D01*
X9157623Y-12440123D01*
X9157623Y-12534877D01*
X9252377Y-12534877D01*
D12*
X6960777Y-14461484D02*
X6960777Y-14261484D01*
X6960777Y-14261484D02*
X7008396Y-14261484D01*
X7008396Y-14261484D02*
X7036967Y-14271008D01*
X7036967Y-14271008D02*
X7056015Y-14290055D01*
X7056015Y-14290055D02*
X7065539Y-14309103D01*
X7065539Y-14309103D02*
X7075062Y-14347198D01*
X7075062Y-14347198D02*
X7075062Y-14375769D01*
X7075062Y-14375769D02*
X7065539Y-14413865D01*
X7065539Y-14413865D02*
X7056015Y-14432912D01*
X7056015Y-14432912D02*
X7036967Y-14451960D01*
X7036967Y-14451960D02*
X7008396Y-14461484D01*
X7008396Y-14461484D02*
X6960777Y-14461484D01*
X7160777Y-14461484D02*
X7160777Y-14328150D01*
X7160777Y-14366246D02*
X7170301Y-14347198D01*
X7170301Y-14347198D02*
X7179824Y-14337674D01*
X7179824Y-14337674D02*
X7198872Y-14328150D01*
X7198872Y-14328150D02*
X7217920Y-14328150D01*
X7284586Y-14461484D02*
X7284586Y-14328150D01*
X7284586Y-14261484D02*
X7275062Y-14271008D01*
X7275062Y-14271008D02*
X7284586Y-14280531D01*
X7284586Y-14280531D02*
X7294110Y-14271008D01*
X7294110Y-14271008D02*
X7284586Y-14261484D01*
X7284586Y-14261484D02*
X7284586Y-14280531D01*
X7408396Y-14461484D02*
X7389348Y-14451960D01*
X7389348Y-14451960D02*
X7379824Y-14432912D01*
X7379824Y-14432912D02*
X7379824Y-14261484D01*
X7513158Y-14461484D02*
X7494110Y-14451960D01*
X7494110Y-14451960D02*
X7484586Y-14432912D01*
X7484586Y-14432912D02*
X7484586Y-14261484D01*
X7741729Y-14461484D02*
X7741729Y-14261484D01*
X7741729Y-14261484D02*
X7808396Y-14404341D01*
X7808396Y-14404341D02*
X7875062Y-14261484D01*
X7875062Y-14261484D02*
X7875062Y-14461484D01*
X8056015Y-14461484D02*
X8056015Y-14356722D01*
X8056015Y-14356722D02*
X8046491Y-14337674D01*
X8046491Y-14337674D02*
X8027443Y-14328150D01*
X8027443Y-14328150D02*
X7989348Y-14328150D01*
X7989348Y-14328150D02*
X7970301Y-14337674D01*
X8056015Y-14451960D02*
X8036967Y-14461484D01*
X8036967Y-14461484D02*
X7989348Y-14461484D01*
X7989348Y-14461484D02*
X7970301Y-14451960D01*
X7970301Y-14451960D02*
X7960777Y-14432912D01*
X7960777Y-14432912D02*
X7960777Y-14413865D01*
X7960777Y-14413865D02*
X7970301Y-14394817D01*
X7970301Y-14394817D02*
X7989348Y-14385293D01*
X7989348Y-14385293D02*
X8036967Y-14385293D01*
X8036967Y-14385293D02*
X8056015Y-14375769D01*
X8151253Y-14328150D02*
X8151253Y-14528150D01*
X8151253Y-14337674D02*
X8170301Y-14328150D01*
X8170301Y-14328150D02*
X8208396Y-14328150D01*
X8208396Y-14328150D02*
X8227443Y-14337674D01*
X8227443Y-14337674D02*
X8236967Y-14347198D01*
X8236967Y-14347198D02*
X8246491Y-14366246D01*
X8246491Y-14366246D02*
X8246491Y-14423388D01*
X8246491Y-14423388D02*
X8236967Y-14442436D01*
X8236967Y-14442436D02*
X8227443Y-14451960D01*
X8227443Y-14451960D02*
X8208396Y-14461484D01*
X8208396Y-14461484D02*
X8170301Y-14461484D01*
X8170301Y-14461484D02*
X8151253Y-14451960D01*
X8332205Y-14442436D02*
X8341729Y-14451960D01*
X8341729Y-14451960D02*
X8332205Y-14461484D01*
X8332205Y-14461484D02*
X8322682Y-14451960D01*
X8322682Y-14451960D02*
X8332205Y-14442436D01*
X8332205Y-14442436D02*
X8332205Y-14461484D01*
X8332205Y-14337674D02*
X8341729Y-14347198D01*
X8341729Y-14347198D02*
X8332205Y-14356722D01*
X8332205Y-14356722D02*
X8322682Y-14347198D01*
X8322682Y-14347198D02*
X8332205Y-14337674D01*
X8332205Y-14337674D02*
X8332205Y-14356722D01*
D13*
X6670000Y-14775000D02*
X6700000Y-14805000D01*
X6700000Y-14775000D02*
X6670000Y-14805000D01*
D12*
X6998872Y-14681484D02*
X7017920Y-14681484D01*
X7017920Y-14681484D02*
X7036967Y-14691008D01*
X7036967Y-14691008D02*
X7046491Y-14700531D01*
X7046491Y-14700531D02*
X7056015Y-14719579D01*
X7056015Y-14719579D02*
X7065539Y-14757674D01*
X7065539Y-14757674D02*
X7065539Y-14805293D01*
X7065539Y-14805293D02*
X7056015Y-14843388D01*
X7056015Y-14843388D02*
X7046491Y-14862436D01*
X7046491Y-14862436D02*
X7036967Y-14871960D01*
X7036967Y-14871960D02*
X7017920Y-14881484D01*
X7017920Y-14881484D02*
X6998872Y-14881484D01*
X6998872Y-14881484D02*
X6979824Y-14871960D01*
X6979824Y-14871960D02*
X6970301Y-14862436D01*
X6970301Y-14862436D02*
X6960777Y-14843388D01*
X6960777Y-14843388D02*
X6951253Y-14805293D01*
X6951253Y-14805293D02*
X6951253Y-14757674D01*
X6951253Y-14757674D02*
X6960777Y-14719579D01*
X6960777Y-14719579D02*
X6970301Y-14700531D01*
X6970301Y-14700531D02*
X6979824Y-14691008D01*
X6979824Y-14691008D02*
X6998872Y-14681484D01*
X7151253Y-14862436D02*
X7160777Y-14871960D01*
X7160777Y-14871960D02*
X7151253Y-14881484D01*
X7151253Y-14881484D02*
X7141729Y-14871960D01*
X7141729Y-14871960D02*
X7151253Y-14862436D01*
X7151253Y-14862436D02*
X7151253Y-14881484D01*
X7227443Y-14681484D02*
X7351253Y-14681484D01*
X7351253Y-14681484D02*
X7284586Y-14757674D01*
X7284586Y-14757674D02*
X7313158Y-14757674D01*
X7313158Y-14757674D02*
X7332205Y-14767198D01*
X7332205Y-14767198D02*
X7341729Y-14776722D01*
X7341729Y-14776722D02*
X7351253Y-14795769D01*
X7351253Y-14795769D02*
X7351253Y-14843388D01*
X7351253Y-14843388D02*
X7341729Y-14862436D01*
X7341729Y-14862436D02*
X7332205Y-14871960D01*
X7332205Y-14871960D02*
X7313158Y-14881484D01*
X7313158Y-14881484D02*
X7256015Y-14881484D01*
X7256015Y-14881484D02*
X7236967Y-14871960D01*
X7236967Y-14871960D02*
X7227443Y-14862436D01*
X7475062Y-14681484D02*
X7494110Y-14681484D01*
X7494110Y-14681484D02*
X7513158Y-14691008D01*
X7513158Y-14691008D02*
X7522682Y-14700531D01*
X7522682Y-14700531D02*
X7532205Y-14719579D01*
X7532205Y-14719579D02*
X7541729Y-14757674D01*
X7541729Y-14757674D02*
X7541729Y-14805293D01*
X7541729Y-14805293D02*
X7532205Y-14843388D01*
X7532205Y-14843388D02*
X7522682Y-14862436D01*
X7522682Y-14862436D02*
X7513158Y-14871960D01*
X7513158Y-14871960D02*
X7494110Y-14881484D01*
X7494110Y-14881484D02*
X7475062Y-14881484D01*
X7475062Y-14881484D02*
X7456015Y-14871960D01*
X7456015Y-14871960D02*
X7446491Y-14862436D01*
X7446491Y-14862436D02*
X7436967Y-14843388D01*
X7436967Y-14843388D02*
X7427443Y-14805293D01*
X7427443Y-14805293D02*
X7427443Y-14757674D01*
X7427443Y-14757674D02*
X7436967Y-14719579D01*
X7436967Y-14719579D02*
X7446491Y-14700531D01*
X7446491Y-14700531D02*
X7456015Y-14691008D01*
X7456015Y-14691008D02*
X7475062Y-14681484D01*
X7665539Y-14681484D02*
X7684586Y-14681484D01*
X7684586Y-14681484D02*
X7703634Y-14691008D01*
X7703634Y-14691008D02*
X7713158Y-14700531D01*
X7713158Y-14700531D02*
X7722682Y-14719579D01*
X7722682Y-14719579D02*
X7732205Y-14757674D01*
X7732205Y-14757674D02*
X7732205Y-14805293D01*
X7732205Y-14805293D02*
X7722682Y-14843388D01*
X7722682Y-14843388D02*
X7713158Y-14862436D01*
X7713158Y-14862436D02*
X7703634Y-14871960D01*
X7703634Y-14871960D02*
X7684586Y-14881484D01*
X7684586Y-14881484D02*
X7665539Y-14881484D01*
X7665539Y-14881484D02*
X7646491Y-14871960D01*
X7646491Y-14871960D02*
X7636967Y-14862436D01*
X7636967Y-14862436D02*
X7627443Y-14843388D01*
X7627443Y-14843388D02*
X7617920Y-14805293D01*
X7617920Y-14805293D02*
X7617920Y-14757674D01*
X7617920Y-14757674D02*
X7627443Y-14719579D01*
X7627443Y-14719579D02*
X7636967Y-14700531D01*
X7636967Y-14700531D02*
X7646491Y-14691008D01*
X7646491Y-14691008D02*
X7665539Y-14681484D01*
X7817920Y-14881484D02*
X7817920Y-14748150D01*
X7817920Y-14767198D02*
X7827443Y-14757674D01*
X7827443Y-14757674D02*
X7846491Y-14748150D01*
X7846491Y-14748150D02*
X7875063Y-14748150D01*
X7875063Y-14748150D02*
X7894110Y-14757674D01*
X7894110Y-14757674D02*
X7903634Y-14776722D01*
X7903634Y-14776722D02*
X7903634Y-14881484D01*
X7903634Y-14776722D02*
X7913158Y-14757674D01*
X7913158Y-14757674D02*
X7932205Y-14748150D01*
X7932205Y-14748150D02*
X7960777Y-14748150D01*
X7960777Y-14748150D02*
X7979824Y-14757674D01*
X7979824Y-14757674D02*
X7989348Y-14776722D01*
X7989348Y-14776722D02*
X7989348Y-14881484D01*
X8084586Y-14881484D02*
X8084586Y-14748150D01*
X8084586Y-14767198D02*
X8094110Y-14757674D01*
X8094110Y-14757674D02*
X8113158Y-14748150D01*
X8113158Y-14748150D02*
X8141729Y-14748150D01*
X8141729Y-14748150D02*
X8160777Y-14757674D01*
X8160777Y-14757674D02*
X8170301Y-14776722D01*
X8170301Y-14776722D02*
X8170301Y-14881484D01*
X8170301Y-14776722D02*
X8179824Y-14757674D01*
X8179824Y-14757674D02*
X8198872Y-14748150D01*
X8198872Y-14748150D02*
X8227443Y-14748150D01*
X8227443Y-14748150D02*
X8246491Y-14757674D01*
X8246491Y-14757674D02*
X8256015Y-14776722D01*
X8256015Y-14776722D02*
X8256015Y-14881484D01*
X8646491Y-14671960D02*
X8475063Y-14929103D01*
X8903634Y-14681484D02*
X8922682Y-14681484D01*
X8922682Y-14681484D02*
X8941729Y-14691008D01*
X8941729Y-14691008D02*
X8951253Y-14700531D01*
X8951253Y-14700531D02*
X8960777Y-14719579D01*
X8960777Y-14719579D02*
X8970301Y-14757674D01*
X8970301Y-14757674D02*
X8970301Y-14805293D01*
X8970301Y-14805293D02*
X8960777Y-14843388D01*
X8960777Y-14843388D02*
X8951253Y-14862436D01*
X8951253Y-14862436D02*
X8941729Y-14871960D01*
X8941729Y-14871960D02*
X8922682Y-14881484D01*
X8922682Y-14881484D02*
X8903634Y-14881484D01*
X8903634Y-14881484D02*
X8884587Y-14871960D01*
X8884587Y-14871960D02*
X8875063Y-14862436D01*
X8875063Y-14862436D02*
X8865539Y-14843388D01*
X8865539Y-14843388D02*
X8856015Y-14805293D01*
X8856015Y-14805293D02*
X8856015Y-14757674D01*
X8856015Y-14757674D02*
X8865539Y-14719579D01*
X8865539Y-14719579D02*
X8875063Y-14700531D01*
X8875063Y-14700531D02*
X8884587Y-14691008D01*
X8884587Y-14691008D02*
X8903634Y-14681484D01*
X9056015Y-14862436D02*
X9065539Y-14871960D01*
X9065539Y-14871960D02*
X9056015Y-14881484D01*
X9056015Y-14881484D02*
X9046491Y-14871960D01*
X9046491Y-14871960D02*
X9056015Y-14862436D01*
X9056015Y-14862436D02*
X9056015Y-14881484D01*
X9189348Y-14681484D02*
X9208396Y-14681484D01*
X9208396Y-14681484D02*
X9227444Y-14691008D01*
X9227444Y-14691008D02*
X9236968Y-14700531D01*
X9236968Y-14700531D02*
X9246491Y-14719579D01*
X9246491Y-14719579D02*
X9256015Y-14757674D01*
X9256015Y-14757674D02*
X9256015Y-14805293D01*
X9256015Y-14805293D02*
X9246491Y-14843388D01*
X9246491Y-14843388D02*
X9236968Y-14862436D01*
X9236968Y-14862436D02*
X9227444Y-14871960D01*
X9227444Y-14871960D02*
X9208396Y-14881484D01*
X9208396Y-14881484D02*
X9189348Y-14881484D01*
X9189348Y-14881484D02*
X9170301Y-14871960D01*
X9170301Y-14871960D02*
X9160777Y-14862436D01*
X9160777Y-14862436D02*
X9151253Y-14843388D01*
X9151253Y-14843388D02*
X9141729Y-14805293D01*
X9141729Y-14805293D02*
X9141729Y-14757674D01*
X9141729Y-14757674D02*
X9151253Y-14719579D01*
X9151253Y-14719579D02*
X9160777Y-14700531D01*
X9160777Y-14700531D02*
X9170301Y-14691008D01*
X9170301Y-14691008D02*
X9189348Y-14681484D01*
X9446491Y-14881484D02*
X9332206Y-14881484D01*
X9389348Y-14881484D02*
X9389348Y-14681484D01*
X9389348Y-14681484D02*
X9370301Y-14710055D01*
X9370301Y-14710055D02*
X9351253Y-14729103D01*
X9351253Y-14729103D02*
X9332206Y-14738627D01*
X9636968Y-14881484D02*
X9522682Y-14881484D01*
X9579825Y-14881484D02*
X9579825Y-14681484D01*
X9579825Y-14681484D02*
X9560777Y-14710055D01*
X9560777Y-14710055D02*
X9541729Y-14729103D01*
X9541729Y-14729103D02*
X9522682Y-14738627D01*
X9751253Y-14767198D02*
X9732206Y-14757674D01*
X9732206Y-14757674D02*
X9722682Y-14748150D01*
X9722682Y-14748150D02*
X9713158Y-14729103D01*
X9713158Y-14729103D02*
X9713158Y-14719579D01*
X9713158Y-14719579D02*
X9722682Y-14700531D01*
X9722682Y-14700531D02*
X9732206Y-14691008D01*
X9732206Y-14691008D02*
X9751253Y-14681484D01*
X9751253Y-14681484D02*
X9789349Y-14681484D01*
X9789349Y-14681484D02*
X9808396Y-14691008D01*
X9808396Y-14691008D02*
X9817920Y-14700531D01*
X9817920Y-14700531D02*
X9827444Y-14719579D01*
X9827444Y-14719579D02*
X9827444Y-14729103D01*
X9827444Y-14729103D02*
X9817920Y-14748150D01*
X9817920Y-14748150D02*
X9808396Y-14757674D01*
X9808396Y-14757674D02*
X9789349Y-14767198D01*
X9789349Y-14767198D02*
X9751253Y-14767198D01*
X9751253Y-14767198D02*
X9732206Y-14776722D01*
X9732206Y-14776722D02*
X9722682Y-14786246D01*
X9722682Y-14786246D02*
X9713158Y-14805293D01*
X9713158Y-14805293D02*
X9713158Y-14843388D01*
X9713158Y-14843388D02*
X9722682Y-14862436D01*
X9722682Y-14862436D02*
X9732206Y-14871960D01*
X9732206Y-14871960D02*
X9751253Y-14881484D01*
X9751253Y-14881484D02*
X9789349Y-14881484D01*
X9789349Y-14881484D02*
X9808396Y-14871960D01*
X9808396Y-14871960D02*
X9817920Y-14862436D01*
X9817920Y-14862436D02*
X9827444Y-14843388D01*
X9827444Y-14843388D02*
X9827444Y-14805293D01*
X9827444Y-14805293D02*
X9817920Y-14786246D01*
X9817920Y-14786246D02*
X9808396Y-14776722D01*
X9808396Y-14776722D02*
X9789349Y-14767198D01*
X9903634Y-14681484D02*
X9903634Y-14719579D01*
X9979825Y-14681484D02*
X9979825Y-14719579D01*
X10275063Y-14957674D02*
X10265539Y-14948150D01*
X10265539Y-14948150D02*
X10246491Y-14919579D01*
X10246491Y-14919579D02*
X10236968Y-14900531D01*
X10236968Y-14900531D02*
X10227444Y-14871960D01*
X10227444Y-14871960D02*
X10217920Y-14824341D01*
X10217920Y-14824341D02*
X10217920Y-14786246D01*
X10217920Y-14786246D02*
X10227444Y-14738627D01*
X10227444Y-14738627D02*
X10236968Y-14710055D01*
X10236968Y-14710055D02*
X10246491Y-14691008D01*
X10246491Y-14691008D02*
X10265539Y-14662436D01*
X10265539Y-14662436D02*
X10275063Y-14652912D01*
X10436968Y-14748150D02*
X10436968Y-14881484D01*
X10389349Y-14671960D02*
X10341730Y-14814817D01*
X10341730Y-14814817D02*
X10465539Y-14814817D01*
X10579825Y-14681484D02*
X10598872Y-14681484D01*
X10598872Y-14681484D02*
X10617920Y-14691008D01*
X10617920Y-14691008D02*
X10627444Y-14700531D01*
X10627444Y-14700531D02*
X10636968Y-14719579D01*
X10636968Y-14719579D02*
X10646491Y-14757674D01*
X10646491Y-14757674D02*
X10646491Y-14805293D01*
X10646491Y-14805293D02*
X10636968Y-14843388D01*
X10636968Y-14843388D02*
X10627444Y-14862436D01*
X10627444Y-14862436D02*
X10617920Y-14871960D01*
X10617920Y-14871960D02*
X10598872Y-14881484D01*
X10598872Y-14881484D02*
X10579825Y-14881484D01*
X10579825Y-14881484D02*
X10560777Y-14871960D01*
X10560777Y-14871960D02*
X10551253Y-14862436D01*
X10551253Y-14862436D02*
X10541730Y-14843388D01*
X10541730Y-14843388D02*
X10532206Y-14805293D01*
X10532206Y-14805293D02*
X10532206Y-14757674D01*
X10532206Y-14757674D02*
X10541730Y-14719579D01*
X10541730Y-14719579D02*
X10551253Y-14700531D01*
X10551253Y-14700531D02*
X10560777Y-14691008D01*
X10560777Y-14691008D02*
X10579825Y-14681484D01*
X10770301Y-14681484D02*
X10789349Y-14681484D01*
X10789349Y-14681484D02*
X10808396Y-14691008D01*
X10808396Y-14691008D02*
X10817920Y-14700531D01*
X10817920Y-14700531D02*
X10827444Y-14719579D01*
X10827444Y-14719579D02*
X10836968Y-14757674D01*
X10836968Y-14757674D02*
X10836968Y-14805293D01*
X10836968Y-14805293D02*
X10827444Y-14843388D01*
X10827444Y-14843388D02*
X10817920Y-14862436D01*
X10817920Y-14862436D02*
X10808396Y-14871960D01*
X10808396Y-14871960D02*
X10789349Y-14881484D01*
X10789349Y-14881484D02*
X10770301Y-14881484D01*
X10770301Y-14881484D02*
X10751253Y-14871960D01*
X10751253Y-14871960D02*
X10741730Y-14862436D01*
X10741730Y-14862436D02*
X10732206Y-14843388D01*
X10732206Y-14843388D02*
X10722682Y-14805293D01*
X10722682Y-14805293D02*
X10722682Y-14757674D01*
X10722682Y-14757674D02*
X10732206Y-14719579D01*
X10732206Y-14719579D02*
X10741730Y-14700531D01*
X10741730Y-14700531D02*
X10751253Y-14691008D01*
X10751253Y-14691008D02*
X10770301Y-14681484D01*
X11075063Y-14881484D02*
X11075063Y-14681484D01*
X11160777Y-14881484D02*
X11160777Y-14776722D01*
X11160777Y-14776722D02*
X11151253Y-14757674D01*
X11151253Y-14757674D02*
X11132206Y-14748150D01*
X11132206Y-14748150D02*
X11103634Y-14748150D01*
X11103634Y-14748150D02*
X11084587Y-14757674D01*
X11084587Y-14757674D02*
X11075063Y-14767198D01*
X11284587Y-14881484D02*
X11265539Y-14871960D01*
X11265539Y-14871960D02*
X11256015Y-14862436D01*
X11256015Y-14862436D02*
X11246491Y-14843388D01*
X11246491Y-14843388D02*
X11246491Y-14786246D01*
X11246491Y-14786246D02*
X11256015Y-14767198D01*
X11256015Y-14767198D02*
X11265539Y-14757674D01*
X11265539Y-14757674D02*
X11284587Y-14748150D01*
X11284587Y-14748150D02*
X11313158Y-14748150D01*
X11313158Y-14748150D02*
X11332206Y-14757674D01*
X11332206Y-14757674D02*
X11341730Y-14767198D01*
X11341730Y-14767198D02*
X11351253Y-14786246D01*
X11351253Y-14786246D02*
X11351253Y-14843388D01*
X11351253Y-14843388D02*
X11341730Y-14862436D01*
X11341730Y-14862436D02*
X11332206Y-14871960D01*
X11332206Y-14871960D02*
X11313158Y-14881484D01*
X11313158Y-14881484D02*
X11284587Y-14881484D01*
X11465539Y-14881484D02*
X11446491Y-14871960D01*
X11446491Y-14871960D02*
X11436968Y-14852912D01*
X11436968Y-14852912D02*
X11436968Y-14681484D01*
X11617920Y-14871960D02*
X11598872Y-14881484D01*
X11598872Y-14881484D02*
X11560777Y-14881484D01*
X11560777Y-14881484D02*
X11541730Y-14871960D01*
X11541730Y-14871960D02*
X11532206Y-14852912D01*
X11532206Y-14852912D02*
X11532206Y-14776722D01*
X11532206Y-14776722D02*
X11541730Y-14757674D01*
X11541730Y-14757674D02*
X11560777Y-14748150D01*
X11560777Y-14748150D02*
X11598872Y-14748150D01*
X11598872Y-14748150D02*
X11617920Y-14757674D01*
X11617920Y-14757674D02*
X11627444Y-14776722D01*
X11627444Y-14776722D02*
X11627444Y-14795769D01*
X11627444Y-14795769D02*
X11532206Y-14814817D01*
X11703634Y-14871960D02*
X11722682Y-14881484D01*
X11722682Y-14881484D02*
X11760777Y-14881484D01*
X11760777Y-14881484D02*
X11779825Y-14871960D01*
X11779825Y-14871960D02*
X11789349Y-14852912D01*
X11789349Y-14852912D02*
X11789349Y-14843388D01*
X11789349Y-14843388D02*
X11779825Y-14824341D01*
X11779825Y-14824341D02*
X11760777Y-14814817D01*
X11760777Y-14814817D02*
X11732206Y-14814817D01*
X11732206Y-14814817D02*
X11713158Y-14805293D01*
X11713158Y-14805293D02*
X11703634Y-14786246D01*
X11703634Y-14786246D02*
X11703634Y-14776722D01*
X11703634Y-14776722D02*
X11713158Y-14757674D01*
X11713158Y-14757674D02*
X11732206Y-14748150D01*
X11732206Y-14748150D02*
X11760777Y-14748150D01*
X11760777Y-14748150D02*
X11779825Y-14757674D01*
X11856015Y-14957674D02*
X11865539Y-14948150D01*
X11865539Y-14948150D02*
X11884587Y-14919579D01*
X11884587Y-14919579D02*
X11894111Y-14900531D01*
X11894111Y-14900531D02*
X11903634Y-14871960D01*
X11903634Y-14871960D02*
X11913158Y-14824341D01*
X11913158Y-14824341D02*
X11913158Y-14786246D01*
X11913158Y-14786246D02*
X11903634Y-14738627D01*
X11903634Y-14738627D02*
X11894111Y-14710055D01*
X11894111Y-14710055D02*
X11884587Y-14691008D01*
X11884587Y-14691008D02*
X11865539Y-14662436D01*
X11865539Y-14662436D02*
X11856015Y-14652912D01*
D14*
X6700000Y-15054000D02*
G75*
G03*
X6700000Y-15054000I-40000J0D01*
G01*
D12*
X6998872Y-14945484D02*
X7017920Y-14945484D01*
X7017920Y-14945484D02*
X7036967Y-14955008D01*
X7036967Y-14955008D02*
X7046491Y-14964531D01*
X7046491Y-14964531D02*
X7056015Y-14983579D01*
X7056015Y-14983579D02*
X7065539Y-15021674D01*
X7065539Y-15021674D02*
X7065539Y-15069293D01*
X7065539Y-15069293D02*
X7056015Y-15107388D01*
X7056015Y-15107388D02*
X7046491Y-15126436D01*
X7046491Y-15126436D02*
X7036967Y-15135960D01*
X7036967Y-15135960D02*
X7017920Y-15145484D01*
X7017920Y-15145484D02*
X6998872Y-15145484D01*
X6998872Y-15145484D02*
X6979824Y-15135960D01*
X6979824Y-15135960D02*
X6970301Y-15126436D01*
X6970301Y-15126436D02*
X6960777Y-15107388D01*
X6960777Y-15107388D02*
X6951253Y-15069293D01*
X6951253Y-15069293D02*
X6951253Y-15021674D01*
X6951253Y-15021674D02*
X6960777Y-14983579D01*
X6960777Y-14983579D02*
X6970301Y-14964531D01*
X6970301Y-14964531D02*
X6979824Y-14955008D01*
X6979824Y-14955008D02*
X6998872Y-14945484D01*
X7151253Y-15126436D02*
X7160777Y-15135960D01*
X7160777Y-15135960D02*
X7151253Y-15145484D01*
X7151253Y-15145484D02*
X7141729Y-15135960D01*
X7141729Y-15135960D02*
X7151253Y-15126436D01*
X7151253Y-15126436D02*
X7151253Y-15145484D01*
X7275062Y-15031198D02*
X7256015Y-15021674D01*
X7256015Y-15021674D02*
X7246491Y-15012150D01*
X7246491Y-15012150D02*
X7236967Y-14993103D01*
X7236967Y-14993103D02*
X7236967Y-14983579D01*
X7236967Y-14983579D02*
X7246491Y-14964531D01*
X7246491Y-14964531D02*
X7256015Y-14955008D01*
X7256015Y-14955008D02*
X7275062Y-14945484D01*
X7275062Y-14945484D02*
X7313158Y-14945484D01*
X7313158Y-14945484D02*
X7332205Y-14955008D01*
X7332205Y-14955008D02*
X7341729Y-14964531D01*
X7341729Y-14964531D02*
X7351253Y-14983579D01*
X7351253Y-14983579D02*
X7351253Y-14993103D01*
X7351253Y-14993103D02*
X7341729Y-15012150D01*
X7341729Y-15012150D02*
X7332205Y-15021674D01*
X7332205Y-15021674D02*
X7313158Y-15031198D01*
X7313158Y-15031198D02*
X7275062Y-15031198D01*
X7275062Y-15031198D02*
X7256015Y-15040722D01*
X7256015Y-15040722D02*
X7246491Y-15050246D01*
X7246491Y-15050246D02*
X7236967Y-15069293D01*
X7236967Y-15069293D02*
X7236967Y-15107388D01*
X7236967Y-15107388D02*
X7246491Y-15126436D01*
X7246491Y-15126436D02*
X7256015Y-15135960D01*
X7256015Y-15135960D02*
X7275062Y-15145484D01*
X7275062Y-15145484D02*
X7313158Y-15145484D01*
X7313158Y-15145484D02*
X7332205Y-15135960D01*
X7332205Y-15135960D02*
X7341729Y-15126436D01*
X7341729Y-15126436D02*
X7351253Y-15107388D01*
X7351253Y-15107388D02*
X7351253Y-15069293D01*
X7351253Y-15069293D02*
X7341729Y-15050246D01*
X7341729Y-15050246D02*
X7332205Y-15040722D01*
X7332205Y-15040722D02*
X7313158Y-15031198D01*
X7475062Y-14945484D02*
X7494110Y-14945484D01*
X7494110Y-14945484D02*
X7513158Y-14955008D01*
X7513158Y-14955008D02*
X7522682Y-14964531D01*
X7522682Y-14964531D02*
X7532205Y-14983579D01*
X7532205Y-14983579D02*
X7541729Y-15021674D01*
X7541729Y-15021674D02*
X7541729Y-15069293D01*
X7541729Y-15069293D02*
X7532205Y-15107388D01*
X7532205Y-15107388D02*
X7522682Y-15126436D01*
X7522682Y-15126436D02*
X7513158Y-15135960D01*
X7513158Y-15135960D02*
X7494110Y-15145484D01*
X7494110Y-15145484D02*
X7475062Y-15145484D01*
X7475062Y-15145484D02*
X7456015Y-15135960D01*
X7456015Y-15135960D02*
X7446491Y-15126436D01*
X7446491Y-15126436D02*
X7436967Y-15107388D01*
X7436967Y-15107388D02*
X7427443Y-15069293D01*
X7427443Y-15069293D02*
X7427443Y-15021674D01*
X7427443Y-15021674D02*
X7436967Y-14983579D01*
X7436967Y-14983579D02*
X7446491Y-14964531D01*
X7446491Y-14964531D02*
X7456015Y-14955008D01*
X7456015Y-14955008D02*
X7475062Y-14945484D01*
X7665539Y-14945484D02*
X7684586Y-14945484D01*
X7684586Y-14945484D02*
X7703634Y-14955008D01*
X7703634Y-14955008D02*
X7713158Y-14964531D01*
X7713158Y-14964531D02*
X7722682Y-14983579D01*
X7722682Y-14983579D02*
X7732205Y-15021674D01*
X7732205Y-15021674D02*
X7732205Y-15069293D01*
X7732205Y-15069293D02*
X7722682Y-15107388D01*
X7722682Y-15107388D02*
X7713158Y-15126436D01*
X7713158Y-15126436D02*
X7703634Y-15135960D01*
X7703634Y-15135960D02*
X7684586Y-15145484D01*
X7684586Y-15145484D02*
X7665539Y-15145484D01*
X7665539Y-15145484D02*
X7646491Y-15135960D01*
X7646491Y-15135960D02*
X7636967Y-15126436D01*
X7636967Y-15126436D02*
X7627443Y-15107388D01*
X7627443Y-15107388D02*
X7617920Y-15069293D01*
X7617920Y-15069293D02*
X7617920Y-15021674D01*
X7617920Y-15021674D02*
X7627443Y-14983579D01*
X7627443Y-14983579D02*
X7636967Y-14964531D01*
X7636967Y-14964531D02*
X7646491Y-14955008D01*
X7646491Y-14955008D02*
X7665539Y-14945484D01*
X7817920Y-15145484D02*
X7817920Y-15012150D01*
X7817920Y-15031198D02*
X7827443Y-15021674D01*
X7827443Y-15021674D02*
X7846491Y-15012150D01*
X7846491Y-15012150D02*
X7875063Y-15012150D01*
X7875063Y-15012150D02*
X7894110Y-15021674D01*
X7894110Y-15021674D02*
X7903634Y-15040722D01*
X7903634Y-15040722D02*
X7903634Y-15145484D01*
X7903634Y-15040722D02*
X7913158Y-15021674D01*
X7913158Y-15021674D02*
X7932205Y-15012150D01*
X7932205Y-15012150D02*
X7960777Y-15012150D01*
X7960777Y-15012150D02*
X7979824Y-15021674D01*
X7979824Y-15021674D02*
X7989348Y-15040722D01*
X7989348Y-15040722D02*
X7989348Y-15145484D01*
X8084586Y-15145484D02*
X8084586Y-15012150D01*
X8084586Y-15031198D02*
X8094110Y-15021674D01*
X8094110Y-15021674D02*
X8113158Y-15012150D01*
X8113158Y-15012150D02*
X8141729Y-15012150D01*
X8141729Y-15012150D02*
X8160777Y-15021674D01*
X8160777Y-15021674D02*
X8170301Y-15040722D01*
X8170301Y-15040722D02*
X8170301Y-15145484D01*
X8170301Y-15040722D02*
X8179824Y-15021674D01*
X8179824Y-15021674D02*
X8198872Y-15012150D01*
X8198872Y-15012150D02*
X8227443Y-15012150D01*
X8227443Y-15012150D02*
X8246491Y-15021674D01*
X8246491Y-15021674D02*
X8256015Y-15040722D01*
X8256015Y-15040722D02*
X8256015Y-15145484D01*
X8646491Y-14935960D02*
X8475063Y-15193103D01*
X8903634Y-14945484D02*
X8922682Y-14945484D01*
X8922682Y-14945484D02*
X8941729Y-14955008D01*
X8941729Y-14955008D02*
X8951253Y-14964531D01*
X8951253Y-14964531D02*
X8960777Y-14983579D01*
X8960777Y-14983579D02*
X8970301Y-15021674D01*
X8970301Y-15021674D02*
X8970301Y-15069293D01*
X8970301Y-15069293D02*
X8960777Y-15107388D01*
X8960777Y-15107388D02*
X8951253Y-15126436D01*
X8951253Y-15126436D02*
X8941729Y-15135960D01*
X8941729Y-15135960D02*
X8922682Y-15145484D01*
X8922682Y-15145484D02*
X8903634Y-15145484D01*
X8903634Y-15145484D02*
X8884587Y-15135960D01*
X8884587Y-15135960D02*
X8875063Y-15126436D01*
X8875063Y-15126436D02*
X8865539Y-15107388D01*
X8865539Y-15107388D02*
X8856015Y-15069293D01*
X8856015Y-15069293D02*
X8856015Y-15021674D01*
X8856015Y-15021674D02*
X8865539Y-14983579D01*
X8865539Y-14983579D02*
X8875063Y-14964531D01*
X8875063Y-14964531D02*
X8884587Y-14955008D01*
X8884587Y-14955008D02*
X8903634Y-14945484D01*
X9056015Y-15126436D02*
X9065539Y-15135960D01*
X9065539Y-15135960D02*
X9056015Y-15145484D01*
X9056015Y-15145484D02*
X9046491Y-15135960D01*
X9046491Y-15135960D02*
X9056015Y-15126436D01*
X9056015Y-15126436D02*
X9056015Y-15145484D01*
X9189348Y-14945484D02*
X9208396Y-14945484D01*
X9208396Y-14945484D02*
X9227444Y-14955008D01*
X9227444Y-14955008D02*
X9236968Y-14964531D01*
X9236968Y-14964531D02*
X9246491Y-14983579D01*
X9246491Y-14983579D02*
X9256015Y-15021674D01*
X9256015Y-15021674D02*
X9256015Y-15069293D01*
X9256015Y-15069293D02*
X9246491Y-15107388D01*
X9246491Y-15107388D02*
X9236968Y-15126436D01*
X9236968Y-15126436D02*
X9227444Y-15135960D01*
X9227444Y-15135960D02*
X9208396Y-15145484D01*
X9208396Y-15145484D02*
X9189348Y-15145484D01*
X9189348Y-15145484D02*
X9170301Y-15135960D01*
X9170301Y-15135960D02*
X9160777Y-15126436D01*
X9160777Y-15126436D02*
X9151253Y-15107388D01*
X9151253Y-15107388D02*
X9141729Y-15069293D01*
X9141729Y-15069293D02*
X9141729Y-15021674D01*
X9141729Y-15021674D02*
X9151253Y-14983579D01*
X9151253Y-14983579D02*
X9160777Y-14964531D01*
X9160777Y-14964531D02*
X9170301Y-14955008D01*
X9170301Y-14955008D02*
X9189348Y-14945484D01*
X9322682Y-14945484D02*
X9446491Y-14945484D01*
X9446491Y-14945484D02*
X9379825Y-15021674D01*
X9379825Y-15021674D02*
X9408396Y-15021674D01*
X9408396Y-15021674D02*
X9427444Y-15031198D01*
X9427444Y-15031198D02*
X9436968Y-15040722D01*
X9436968Y-15040722D02*
X9446491Y-15059769D01*
X9446491Y-15059769D02*
X9446491Y-15107388D01*
X9446491Y-15107388D02*
X9436968Y-15126436D01*
X9436968Y-15126436D02*
X9427444Y-15135960D01*
X9427444Y-15135960D02*
X9408396Y-15145484D01*
X9408396Y-15145484D02*
X9351253Y-15145484D01*
X9351253Y-15145484D02*
X9332206Y-15135960D01*
X9332206Y-15135960D02*
X9322682Y-15126436D01*
X9636968Y-15145484D02*
X9522682Y-15145484D01*
X9579825Y-15145484D02*
X9579825Y-14945484D01*
X9579825Y-14945484D02*
X9560777Y-14974055D01*
X9560777Y-14974055D02*
X9541729Y-14993103D01*
X9541729Y-14993103D02*
X9522682Y-15002627D01*
X9817920Y-14945484D02*
X9722682Y-14945484D01*
X9722682Y-14945484D02*
X9713158Y-15040722D01*
X9713158Y-15040722D02*
X9722682Y-15031198D01*
X9722682Y-15031198D02*
X9741729Y-15021674D01*
X9741729Y-15021674D02*
X9789349Y-15021674D01*
X9789349Y-15021674D02*
X9808396Y-15031198D01*
X9808396Y-15031198D02*
X9817920Y-15040722D01*
X9817920Y-15040722D02*
X9827444Y-15059769D01*
X9827444Y-15059769D02*
X9827444Y-15107388D01*
X9827444Y-15107388D02*
X9817920Y-15126436D01*
X9817920Y-15126436D02*
X9808396Y-15135960D01*
X9808396Y-15135960D02*
X9789349Y-15145484D01*
X9789349Y-15145484D02*
X9741729Y-15145484D01*
X9741729Y-15145484D02*
X9722682Y-15135960D01*
X9722682Y-15135960D02*
X9713158Y-15126436D01*
X9903634Y-14945484D02*
X9903634Y-14983579D01*
X9979825Y-14945484D02*
X9979825Y-14983579D01*
X10275063Y-15221674D02*
X10265539Y-15212150D01*
X10265539Y-15212150D02*
X10246491Y-15183579D01*
X10246491Y-15183579D02*
X10236968Y-15164531D01*
X10236968Y-15164531D02*
X10227444Y-15135960D01*
X10227444Y-15135960D02*
X10217920Y-15088341D01*
X10217920Y-15088341D02*
X10217920Y-15050246D01*
X10217920Y-15050246D02*
X10227444Y-15002627D01*
X10227444Y-15002627D02*
X10236968Y-14974055D01*
X10236968Y-14974055D02*
X10246491Y-14955008D01*
X10246491Y-14955008D02*
X10265539Y-14926436D01*
X10265539Y-14926436D02*
X10275063Y-14916912D01*
X10341730Y-14964531D02*
X10351253Y-14955008D01*
X10351253Y-14955008D02*
X10370301Y-14945484D01*
X10370301Y-14945484D02*
X10417920Y-14945484D01*
X10417920Y-14945484D02*
X10436968Y-14955008D01*
X10436968Y-14955008D02*
X10446491Y-14964531D01*
X10446491Y-14964531D02*
X10456015Y-14983579D01*
X10456015Y-14983579D02*
X10456015Y-15002627D01*
X10456015Y-15002627D02*
X10446491Y-15031198D01*
X10446491Y-15031198D02*
X10332206Y-15145484D01*
X10332206Y-15145484D02*
X10456015Y-15145484D01*
X10627444Y-15012150D02*
X10627444Y-15145484D01*
X10579825Y-14935960D02*
X10532206Y-15078817D01*
X10532206Y-15078817D02*
X10656015Y-15078817D01*
X10884587Y-15145484D02*
X10884587Y-14945484D01*
X10970301Y-15145484D02*
X10970301Y-15040722D01*
X10970301Y-15040722D02*
X10960777Y-15021674D01*
X10960777Y-15021674D02*
X10941730Y-15012150D01*
X10941730Y-15012150D02*
X10913158Y-15012150D01*
X10913158Y-15012150D02*
X10894111Y-15021674D01*
X10894111Y-15021674D02*
X10884587Y-15031198D01*
X11094111Y-15145484D02*
X11075063Y-15135960D01*
X11075063Y-15135960D02*
X11065539Y-15126436D01*
X11065539Y-15126436D02*
X11056015Y-15107388D01*
X11056015Y-15107388D02*
X11056015Y-15050246D01*
X11056015Y-15050246D02*
X11065539Y-15031198D01*
X11065539Y-15031198D02*
X11075063Y-15021674D01*
X11075063Y-15021674D02*
X11094111Y-15012150D01*
X11094111Y-15012150D02*
X11122682Y-15012150D01*
X11122682Y-15012150D02*
X11141730Y-15021674D01*
X11141730Y-15021674D02*
X11151253Y-15031198D01*
X11151253Y-15031198D02*
X11160777Y-15050246D01*
X11160777Y-15050246D02*
X11160777Y-15107388D01*
X11160777Y-15107388D02*
X11151253Y-15126436D01*
X11151253Y-15126436D02*
X11141730Y-15135960D01*
X11141730Y-15135960D02*
X11122682Y-15145484D01*
X11122682Y-15145484D02*
X11094111Y-15145484D01*
X11275063Y-15145484D02*
X11256015Y-15135960D01*
X11256015Y-15135960D02*
X11246491Y-15116912D01*
X11246491Y-15116912D02*
X11246491Y-14945484D01*
X11427444Y-15135960D02*
X11408396Y-15145484D01*
X11408396Y-15145484D02*
X11370301Y-15145484D01*
X11370301Y-15145484D02*
X11351253Y-15135960D01*
X11351253Y-15135960D02*
X11341730Y-15116912D01*
X11341730Y-15116912D02*
X11341730Y-15040722D01*
X11341730Y-15040722D02*
X11351253Y-15021674D01*
X11351253Y-15021674D02*
X11370301Y-15012150D01*
X11370301Y-15012150D02*
X11408396Y-15012150D01*
X11408396Y-15012150D02*
X11427444Y-15021674D01*
X11427444Y-15021674D02*
X11436968Y-15040722D01*
X11436968Y-15040722D02*
X11436968Y-15059769D01*
X11436968Y-15059769D02*
X11341730Y-15078817D01*
X11513158Y-15135960D02*
X11532206Y-15145484D01*
X11532206Y-15145484D02*
X11570301Y-15145484D01*
X11570301Y-15145484D02*
X11589349Y-15135960D01*
X11589349Y-15135960D02*
X11598872Y-15116912D01*
X11598872Y-15116912D02*
X11598872Y-15107388D01*
X11598872Y-15107388D02*
X11589349Y-15088341D01*
X11589349Y-15088341D02*
X11570301Y-15078817D01*
X11570301Y-15078817D02*
X11541730Y-15078817D01*
X11541730Y-15078817D02*
X11522682Y-15069293D01*
X11522682Y-15069293D02*
X11513158Y-15050246D01*
X11513158Y-15050246D02*
X11513158Y-15040722D01*
X11513158Y-15040722D02*
X11522682Y-15021674D01*
X11522682Y-15021674D02*
X11541730Y-15012150D01*
X11541730Y-15012150D02*
X11570301Y-15012150D01*
X11570301Y-15012150D02*
X11589349Y-15021674D01*
X11665539Y-15221674D02*
X11675063Y-15212150D01*
X11675063Y-15212150D02*
X11694111Y-15183579D01*
X11694111Y-15183579D02*
X11703634Y-15164531D01*
X11703634Y-15164531D02*
X11713158Y-15135960D01*
X11713158Y-15135960D02*
X11722682Y-15088341D01*
X11722682Y-15088341D02*
X11722682Y-15050246D01*
X11722682Y-15050246D02*
X11713158Y-15002627D01*
X11713158Y-15002627D02*
X11703634Y-14974055D01*
X11703634Y-14974055D02*
X11694111Y-14955008D01*
X11694111Y-14955008D02*
X11675063Y-14926436D01*
X11675063Y-14926436D02*
X11665539Y-14916912D01*
D11*
X6650000Y-15268000D02*
X6650000Y-15368000D01*
X6600000Y-15318000D02*
X6700000Y-15318000D01*
D12*
X7065539Y-15409484D02*
X6951253Y-15409484D01*
X7008396Y-15409484D02*
X7008396Y-15209484D01*
X7008396Y-15209484D02*
X6989348Y-15238055D01*
X6989348Y-15238055D02*
X6970301Y-15257103D01*
X6970301Y-15257103D02*
X6951253Y-15266627D01*
X7151253Y-15390436D02*
X7160777Y-15399960D01*
X7160777Y-15399960D02*
X7151253Y-15409484D01*
X7151253Y-15409484D02*
X7141729Y-15399960D01*
X7141729Y-15399960D02*
X7151253Y-15390436D01*
X7151253Y-15390436D02*
X7151253Y-15409484D01*
X7284586Y-15209484D02*
X7303634Y-15209484D01*
X7303634Y-15209484D02*
X7322682Y-15219008D01*
X7322682Y-15219008D02*
X7332205Y-15228531D01*
X7332205Y-15228531D02*
X7341729Y-15247579D01*
X7341729Y-15247579D02*
X7351253Y-15285674D01*
X7351253Y-15285674D02*
X7351253Y-15333293D01*
X7351253Y-15333293D02*
X7341729Y-15371388D01*
X7341729Y-15371388D02*
X7332205Y-15390436D01*
X7332205Y-15390436D02*
X7322682Y-15399960D01*
X7322682Y-15399960D02*
X7303634Y-15409484D01*
X7303634Y-15409484D02*
X7284586Y-15409484D01*
X7284586Y-15409484D02*
X7265539Y-15399960D01*
X7265539Y-15399960D02*
X7256015Y-15390436D01*
X7256015Y-15390436D02*
X7246491Y-15371388D01*
X7246491Y-15371388D02*
X7236967Y-15333293D01*
X7236967Y-15333293D02*
X7236967Y-15285674D01*
X7236967Y-15285674D02*
X7246491Y-15247579D01*
X7246491Y-15247579D02*
X7256015Y-15228531D01*
X7256015Y-15228531D02*
X7265539Y-15219008D01*
X7265539Y-15219008D02*
X7284586Y-15209484D01*
X7475062Y-15209484D02*
X7494110Y-15209484D01*
X7494110Y-15209484D02*
X7513158Y-15219008D01*
X7513158Y-15219008D02*
X7522682Y-15228531D01*
X7522682Y-15228531D02*
X7532205Y-15247579D01*
X7532205Y-15247579D02*
X7541729Y-15285674D01*
X7541729Y-15285674D02*
X7541729Y-15333293D01*
X7541729Y-15333293D02*
X7532205Y-15371388D01*
X7532205Y-15371388D02*
X7522682Y-15390436D01*
X7522682Y-15390436D02*
X7513158Y-15399960D01*
X7513158Y-15399960D02*
X7494110Y-15409484D01*
X7494110Y-15409484D02*
X7475062Y-15409484D01*
X7475062Y-15409484D02*
X7456015Y-15399960D01*
X7456015Y-15399960D02*
X7446491Y-15390436D01*
X7446491Y-15390436D02*
X7436967Y-15371388D01*
X7436967Y-15371388D02*
X7427443Y-15333293D01*
X7427443Y-15333293D02*
X7427443Y-15285674D01*
X7427443Y-15285674D02*
X7436967Y-15247579D01*
X7436967Y-15247579D02*
X7446491Y-15228531D01*
X7446491Y-15228531D02*
X7456015Y-15219008D01*
X7456015Y-15219008D02*
X7475062Y-15209484D01*
X7665539Y-15209484D02*
X7684586Y-15209484D01*
X7684586Y-15209484D02*
X7703634Y-15219008D01*
X7703634Y-15219008D02*
X7713158Y-15228531D01*
X7713158Y-15228531D02*
X7722682Y-15247579D01*
X7722682Y-15247579D02*
X7732205Y-15285674D01*
X7732205Y-15285674D02*
X7732205Y-15333293D01*
X7732205Y-15333293D02*
X7722682Y-15371388D01*
X7722682Y-15371388D02*
X7713158Y-15390436D01*
X7713158Y-15390436D02*
X7703634Y-15399960D01*
X7703634Y-15399960D02*
X7684586Y-15409484D01*
X7684586Y-15409484D02*
X7665539Y-15409484D01*
X7665539Y-15409484D02*
X7646491Y-15399960D01*
X7646491Y-15399960D02*
X7636967Y-15390436D01*
X7636967Y-15390436D02*
X7627443Y-15371388D01*
X7627443Y-15371388D02*
X7617920Y-15333293D01*
X7617920Y-15333293D02*
X7617920Y-15285674D01*
X7617920Y-15285674D02*
X7627443Y-15247579D01*
X7627443Y-15247579D02*
X7636967Y-15228531D01*
X7636967Y-15228531D02*
X7646491Y-15219008D01*
X7646491Y-15219008D02*
X7665539Y-15209484D01*
X7817920Y-15409484D02*
X7817920Y-15276150D01*
X7817920Y-15295198D02*
X7827443Y-15285674D01*
X7827443Y-15285674D02*
X7846491Y-15276150D01*
X7846491Y-15276150D02*
X7875063Y-15276150D01*
X7875063Y-15276150D02*
X7894110Y-15285674D01*
X7894110Y-15285674D02*
X7903634Y-15304722D01*
X7903634Y-15304722D02*
X7903634Y-15409484D01*
X7903634Y-15304722D02*
X7913158Y-15285674D01*
X7913158Y-15285674D02*
X7932205Y-15276150D01*
X7932205Y-15276150D02*
X7960777Y-15276150D01*
X7960777Y-15276150D02*
X7979824Y-15285674D01*
X7979824Y-15285674D02*
X7989348Y-15304722D01*
X7989348Y-15304722D02*
X7989348Y-15409484D01*
X8084586Y-15409484D02*
X8084586Y-15276150D01*
X8084586Y-15295198D02*
X8094110Y-15285674D01*
X8094110Y-15285674D02*
X8113158Y-15276150D01*
X8113158Y-15276150D02*
X8141729Y-15276150D01*
X8141729Y-15276150D02*
X8160777Y-15285674D01*
X8160777Y-15285674D02*
X8170301Y-15304722D01*
X8170301Y-15304722D02*
X8170301Y-15409484D01*
X8170301Y-15304722D02*
X8179824Y-15285674D01*
X8179824Y-15285674D02*
X8198872Y-15276150D01*
X8198872Y-15276150D02*
X8227443Y-15276150D01*
X8227443Y-15276150D02*
X8246491Y-15285674D01*
X8246491Y-15285674D02*
X8256015Y-15304722D01*
X8256015Y-15304722D02*
X8256015Y-15409484D01*
X8646491Y-15199960D02*
X8475063Y-15457103D01*
X8903634Y-15209484D02*
X8922682Y-15209484D01*
X8922682Y-15209484D02*
X8941729Y-15219008D01*
X8941729Y-15219008D02*
X8951253Y-15228531D01*
X8951253Y-15228531D02*
X8960777Y-15247579D01*
X8960777Y-15247579D02*
X8970301Y-15285674D01*
X8970301Y-15285674D02*
X8970301Y-15333293D01*
X8970301Y-15333293D02*
X8960777Y-15371388D01*
X8960777Y-15371388D02*
X8951253Y-15390436D01*
X8951253Y-15390436D02*
X8941729Y-15399960D01*
X8941729Y-15399960D02*
X8922682Y-15409484D01*
X8922682Y-15409484D02*
X8903634Y-15409484D01*
X8903634Y-15409484D02*
X8884587Y-15399960D01*
X8884587Y-15399960D02*
X8875063Y-15390436D01*
X8875063Y-15390436D02*
X8865539Y-15371388D01*
X8865539Y-15371388D02*
X8856015Y-15333293D01*
X8856015Y-15333293D02*
X8856015Y-15285674D01*
X8856015Y-15285674D02*
X8865539Y-15247579D01*
X8865539Y-15247579D02*
X8875063Y-15228531D01*
X8875063Y-15228531D02*
X8884587Y-15219008D01*
X8884587Y-15219008D02*
X8903634Y-15209484D01*
X9056015Y-15390436D02*
X9065539Y-15399960D01*
X9065539Y-15399960D02*
X9056015Y-15409484D01*
X9056015Y-15409484D02*
X9046491Y-15399960D01*
X9046491Y-15399960D02*
X9056015Y-15390436D01*
X9056015Y-15390436D02*
X9056015Y-15409484D01*
X9189348Y-15209484D02*
X9208396Y-15209484D01*
X9208396Y-15209484D02*
X9227444Y-15219008D01*
X9227444Y-15219008D02*
X9236968Y-15228531D01*
X9236968Y-15228531D02*
X9246491Y-15247579D01*
X9246491Y-15247579D02*
X9256015Y-15285674D01*
X9256015Y-15285674D02*
X9256015Y-15333293D01*
X9256015Y-15333293D02*
X9246491Y-15371388D01*
X9246491Y-15371388D02*
X9236968Y-15390436D01*
X9236968Y-15390436D02*
X9227444Y-15399960D01*
X9227444Y-15399960D02*
X9208396Y-15409484D01*
X9208396Y-15409484D02*
X9189348Y-15409484D01*
X9189348Y-15409484D02*
X9170301Y-15399960D01*
X9170301Y-15399960D02*
X9160777Y-15390436D01*
X9160777Y-15390436D02*
X9151253Y-15371388D01*
X9151253Y-15371388D02*
X9141729Y-15333293D01*
X9141729Y-15333293D02*
X9141729Y-15285674D01*
X9141729Y-15285674D02*
X9151253Y-15247579D01*
X9151253Y-15247579D02*
X9160777Y-15228531D01*
X9160777Y-15228531D02*
X9170301Y-15219008D01*
X9170301Y-15219008D02*
X9189348Y-15209484D01*
X9322682Y-15209484D02*
X9446491Y-15209484D01*
X9446491Y-15209484D02*
X9379825Y-15285674D01*
X9379825Y-15285674D02*
X9408396Y-15285674D01*
X9408396Y-15285674D02*
X9427444Y-15295198D01*
X9427444Y-15295198D02*
X9436968Y-15304722D01*
X9436968Y-15304722D02*
X9446491Y-15323769D01*
X9446491Y-15323769D02*
X9446491Y-15371388D01*
X9446491Y-15371388D02*
X9436968Y-15390436D01*
X9436968Y-15390436D02*
X9427444Y-15399960D01*
X9427444Y-15399960D02*
X9408396Y-15409484D01*
X9408396Y-15409484D02*
X9351253Y-15409484D01*
X9351253Y-15409484D02*
X9332206Y-15399960D01*
X9332206Y-15399960D02*
X9322682Y-15390436D01*
X9541729Y-15409484D02*
X9579825Y-15409484D01*
X9579825Y-15409484D02*
X9598872Y-15399960D01*
X9598872Y-15399960D02*
X9608396Y-15390436D01*
X9608396Y-15390436D02*
X9627444Y-15361865D01*
X9627444Y-15361865D02*
X9636968Y-15323769D01*
X9636968Y-15323769D02*
X9636968Y-15247579D01*
X9636968Y-15247579D02*
X9627444Y-15228531D01*
X9627444Y-15228531D02*
X9617920Y-15219008D01*
X9617920Y-15219008D02*
X9598872Y-15209484D01*
X9598872Y-15209484D02*
X9560777Y-15209484D01*
X9560777Y-15209484D02*
X9541729Y-15219008D01*
X9541729Y-15219008D02*
X9532206Y-15228531D01*
X9532206Y-15228531D02*
X9522682Y-15247579D01*
X9522682Y-15247579D02*
X9522682Y-15295198D01*
X9522682Y-15295198D02*
X9532206Y-15314246D01*
X9532206Y-15314246D02*
X9541729Y-15323769D01*
X9541729Y-15323769D02*
X9560777Y-15333293D01*
X9560777Y-15333293D02*
X9598872Y-15333293D01*
X9598872Y-15333293D02*
X9617920Y-15323769D01*
X9617920Y-15323769D02*
X9627444Y-15314246D01*
X9627444Y-15314246D02*
X9636968Y-15295198D01*
X9808396Y-15276150D02*
X9808396Y-15409484D01*
X9760777Y-15199960D02*
X9713158Y-15342817D01*
X9713158Y-15342817D02*
X9836968Y-15342817D01*
X9903634Y-15209484D02*
X9903634Y-15247579D01*
X9979825Y-15209484D02*
X9979825Y-15247579D01*
X10275063Y-15485674D02*
X10265539Y-15476150D01*
X10265539Y-15476150D02*
X10246491Y-15447579D01*
X10246491Y-15447579D02*
X10236968Y-15428531D01*
X10236968Y-15428531D02*
X10227444Y-15399960D01*
X10227444Y-15399960D02*
X10217920Y-15352341D01*
X10217920Y-15352341D02*
X10217920Y-15314246D01*
X10217920Y-15314246D02*
X10227444Y-15266627D01*
X10227444Y-15266627D02*
X10236968Y-15238055D01*
X10236968Y-15238055D02*
X10246491Y-15219008D01*
X10246491Y-15219008D02*
X10265539Y-15190436D01*
X10265539Y-15190436D02*
X10275063Y-15180912D01*
X10446491Y-15209484D02*
X10351253Y-15209484D01*
X10351253Y-15209484D02*
X10341730Y-15304722D01*
X10341730Y-15304722D02*
X10351253Y-15295198D01*
X10351253Y-15295198D02*
X10370301Y-15285674D01*
X10370301Y-15285674D02*
X10417920Y-15285674D01*
X10417920Y-15285674D02*
X10436968Y-15295198D01*
X10436968Y-15295198D02*
X10446491Y-15304722D01*
X10446491Y-15304722D02*
X10456015Y-15323769D01*
X10456015Y-15323769D02*
X10456015Y-15371388D01*
X10456015Y-15371388D02*
X10446491Y-15390436D01*
X10446491Y-15390436D02*
X10436968Y-15399960D01*
X10436968Y-15399960D02*
X10417920Y-15409484D01*
X10417920Y-15409484D02*
X10370301Y-15409484D01*
X10370301Y-15409484D02*
X10351253Y-15399960D01*
X10351253Y-15399960D02*
X10341730Y-15390436D01*
X10627444Y-15209484D02*
X10589349Y-15209484D01*
X10589349Y-15209484D02*
X10570301Y-15219008D01*
X10570301Y-15219008D02*
X10560777Y-15228531D01*
X10560777Y-15228531D02*
X10541730Y-15257103D01*
X10541730Y-15257103D02*
X10532206Y-15295198D01*
X10532206Y-15295198D02*
X10532206Y-15371388D01*
X10532206Y-15371388D02*
X10541730Y-15390436D01*
X10541730Y-15390436D02*
X10551253Y-15399960D01*
X10551253Y-15399960D02*
X10570301Y-15409484D01*
X10570301Y-15409484D02*
X10608396Y-15409484D01*
X10608396Y-15409484D02*
X10627444Y-15399960D01*
X10627444Y-15399960D02*
X10636968Y-15390436D01*
X10636968Y-15390436D02*
X10646491Y-15371388D01*
X10646491Y-15371388D02*
X10646491Y-15323769D01*
X10646491Y-15323769D02*
X10636968Y-15304722D01*
X10636968Y-15304722D02*
X10627444Y-15295198D01*
X10627444Y-15295198D02*
X10608396Y-15285674D01*
X10608396Y-15285674D02*
X10570301Y-15285674D01*
X10570301Y-15285674D02*
X10551253Y-15295198D01*
X10551253Y-15295198D02*
X10541730Y-15304722D01*
X10541730Y-15304722D02*
X10532206Y-15323769D01*
X10884587Y-15409484D02*
X10884587Y-15209484D01*
X10970301Y-15409484D02*
X10970301Y-15304722D01*
X10970301Y-15304722D02*
X10960777Y-15285674D01*
X10960777Y-15285674D02*
X10941730Y-15276150D01*
X10941730Y-15276150D02*
X10913158Y-15276150D01*
X10913158Y-15276150D02*
X10894111Y-15285674D01*
X10894111Y-15285674D02*
X10884587Y-15295198D01*
X11094111Y-15409484D02*
X11075063Y-15399960D01*
X11075063Y-15399960D02*
X11065539Y-15390436D01*
X11065539Y-15390436D02*
X11056015Y-15371388D01*
X11056015Y-15371388D02*
X11056015Y-15314246D01*
X11056015Y-15314246D02*
X11065539Y-15295198D01*
X11065539Y-15295198D02*
X11075063Y-15285674D01*
X11075063Y-15285674D02*
X11094111Y-15276150D01*
X11094111Y-15276150D02*
X11122682Y-15276150D01*
X11122682Y-15276150D02*
X11141730Y-15285674D01*
X11141730Y-15285674D02*
X11151253Y-15295198D01*
X11151253Y-15295198D02*
X11160777Y-15314246D01*
X11160777Y-15314246D02*
X11160777Y-15371388D01*
X11160777Y-15371388D02*
X11151253Y-15390436D01*
X11151253Y-15390436D02*
X11141730Y-15399960D01*
X11141730Y-15399960D02*
X11122682Y-15409484D01*
X11122682Y-15409484D02*
X11094111Y-15409484D01*
X11275063Y-15409484D02*
X11256015Y-15399960D01*
X11256015Y-15399960D02*
X11246491Y-15380912D01*
X11246491Y-15380912D02*
X11246491Y-15209484D01*
X11427444Y-15399960D02*
X11408396Y-15409484D01*
X11408396Y-15409484D02*
X11370301Y-15409484D01*
X11370301Y-15409484D02*
X11351253Y-15399960D01*
X11351253Y-15399960D02*
X11341730Y-15380912D01*
X11341730Y-15380912D02*
X11341730Y-15304722D01*
X11341730Y-15304722D02*
X11351253Y-15285674D01*
X11351253Y-15285674D02*
X11370301Y-15276150D01*
X11370301Y-15276150D02*
X11408396Y-15276150D01*
X11408396Y-15276150D02*
X11427444Y-15285674D01*
X11427444Y-15285674D02*
X11436968Y-15304722D01*
X11436968Y-15304722D02*
X11436968Y-15323769D01*
X11436968Y-15323769D02*
X11341730Y-15342817D01*
X11513158Y-15399960D02*
X11532206Y-15409484D01*
X11532206Y-15409484D02*
X11570301Y-15409484D01*
X11570301Y-15409484D02*
X11589349Y-15399960D01*
X11589349Y-15399960D02*
X11598872Y-15380912D01*
X11598872Y-15380912D02*
X11598872Y-15371388D01*
X11598872Y-15371388D02*
X11589349Y-15352341D01*
X11589349Y-15352341D02*
X11570301Y-15342817D01*
X11570301Y-15342817D02*
X11541730Y-15342817D01*
X11541730Y-15342817D02*
X11522682Y-15333293D01*
X11522682Y-15333293D02*
X11513158Y-15314246D01*
X11513158Y-15314246D02*
X11513158Y-15304722D01*
X11513158Y-15304722D02*
X11522682Y-15285674D01*
X11522682Y-15285674D02*
X11541730Y-15276150D01*
X11541730Y-15276150D02*
X11570301Y-15276150D01*
X11570301Y-15276150D02*
X11589349Y-15285674D01*
X11665539Y-15485674D02*
X11675063Y-15476150D01*
X11675063Y-15476150D02*
X11694111Y-15447579D01*
X11694111Y-15447579D02*
X11703634Y-15428531D01*
X11703634Y-15428531D02*
X11713158Y-15399960D01*
X11713158Y-15399960D02*
X11722682Y-15352341D01*
X11722682Y-15352341D02*
X11722682Y-15314246D01*
X11722682Y-15314246D02*
X11713158Y-15266627D01*
X11713158Y-15266627D02*
X11703634Y-15238055D01*
X11703634Y-15238055D02*
X11694111Y-15219008D01*
X11694111Y-15219008D02*
X11675063Y-15190436D01*
X11675063Y-15190436D02*
X11665539Y-15180912D01*
D15*
X6680377Y-15629377D02*
X6680377Y-15534623D01*
X6585623Y-15534623D01*
X6585623Y-15629377D01*
X6680377Y-15629377D01*
D12*
X7065539Y-15673484D02*
X6951253Y-15673484D01*
X7008396Y-15673484D02*
X7008396Y-15473484D01*
X7008396Y-15473484D02*
X6989348Y-15502055D01*
X6989348Y-15502055D02*
X6970301Y-15521103D01*
X6970301Y-15521103D02*
X6951253Y-15530627D01*
X7151253Y-15654436D02*
X7160777Y-15663960D01*
X7160777Y-15663960D02*
X7151253Y-15673484D01*
X7151253Y-15673484D02*
X7141729Y-15663960D01*
X7141729Y-15663960D02*
X7151253Y-15654436D01*
X7151253Y-15654436D02*
X7151253Y-15673484D01*
X7227443Y-15473484D02*
X7351253Y-15473484D01*
X7351253Y-15473484D02*
X7284586Y-15549674D01*
X7284586Y-15549674D02*
X7313158Y-15549674D01*
X7313158Y-15549674D02*
X7332205Y-15559198D01*
X7332205Y-15559198D02*
X7341729Y-15568722D01*
X7341729Y-15568722D02*
X7351253Y-15587769D01*
X7351253Y-15587769D02*
X7351253Y-15635388D01*
X7351253Y-15635388D02*
X7341729Y-15654436D01*
X7341729Y-15654436D02*
X7332205Y-15663960D01*
X7332205Y-15663960D02*
X7313158Y-15673484D01*
X7313158Y-15673484D02*
X7256015Y-15673484D01*
X7256015Y-15673484D02*
X7236967Y-15663960D01*
X7236967Y-15663960D02*
X7227443Y-15654436D01*
X7522682Y-15540150D02*
X7522682Y-15673484D01*
X7475062Y-15463960D02*
X7427443Y-15606817D01*
X7427443Y-15606817D02*
X7551253Y-15606817D01*
X7665539Y-15473484D02*
X7684586Y-15473484D01*
X7684586Y-15473484D02*
X7703634Y-15483008D01*
X7703634Y-15483008D02*
X7713158Y-15492531D01*
X7713158Y-15492531D02*
X7722682Y-15511579D01*
X7722682Y-15511579D02*
X7732205Y-15549674D01*
X7732205Y-15549674D02*
X7732205Y-15597293D01*
X7732205Y-15597293D02*
X7722682Y-15635388D01*
X7722682Y-15635388D02*
X7713158Y-15654436D01*
X7713158Y-15654436D02*
X7703634Y-15663960D01*
X7703634Y-15663960D02*
X7684586Y-15673484D01*
X7684586Y-15673484D02*
X7665539Y-15673484D01*
X7665539Y-15673484D02*
X7646491Y-15663960D01*
X7646491Y-15663960D02*
X7636967Y-15654436D01*
X7636967Y-15654436D02*
X7627443Y-15635388D01*
X7627443Y-15635388D02*
X7617920Y-15597293D01*
X7617920Y-15597293D02*
X7617920Y-15549674D01*
X7617920Y-15549674D02*
X7627443Y-15511579D01*
X7627443Y-15511579D02*
X7636967Y-15492531D01*
X7636967Y-15492531D02*
X7646491Y-15483008D01*
X7646491Y-15483008D02*
X7665539Y-15473484D01*
X7817920Y-15673484D02*
X7817920Y-15540150D01*
X7817920Y-15559198D02*
X7827443Y-15549674D01*
X7827443Y-15549674D02*
X7846491Y-15540150D01*
X7846491Y-15540150D02*
X7875063Y-15540150D01*
X7875063Y-15540150D02*
X7894110Y-15549674D01*
X7894110Y-15549674D02*
X7903634Y-15568722D01*
X7903634Y-15568722D02*
X7903634Y-15673484D01*
X7903634Y-15568722D02*
X7913158Y-15549674D01*
X7913158Y-15549674D02*
X7932205Y-15540150D01*
X7932205Y-15540150D02*
X7960777Y-15540150D01*
X7960777Y-15540150D02*
X7979824Y-15549674D01*
X7979824Y-15549674D02*
X7989348Y-15568722D01*
X7989348Y-15568722D02*
X7989348Y-15673484D01*
X8084586Y-15673484D02*
X8084586Y-15540150D01*
X8084586Y-15559198D02*
X8094110Y-15549674D01*
X8094110Y-15549674D02*
X8113158Y-15540150D01*
X8113158Y-15540150D02*
X8141729Y-15540150D01*
X8141729Y-15540150D02*
X8160777Y-15549674D01*
X8160777Y-15549674D02*
X8170301Y-15568722D01*
X8170301Y-15568722D02*
X8170301Y-15673484D01*
X8170301Y-15568722D02*
X8179824Y-15549674D01*
X8179824Y-15549674D02*
X8198872Y-15540150D01*
X8198872Y-15540150D02*
X8227443Y-15540150D01*
X8227443Y-15540150D02*
X8246491Y-15549674D01*
X8246491Y-15549674D02*
X8256015Y-15568722D01*
X8256015Y-15568722D02*
X8256015Y-15673484D01*
X8646491Y-15463960D02*
X8475063Y-15721103D01*
X8903634Y-15473484D02*
X8922682Y-15473484D01*
X8922682Y-15473484D02*
X8941729Y-15483008D01*
X8941729Y-15483008D02*
X8951253Y-15492531D01*
X8951253Y-15492531D02*
X8960777Y-15511579D01*
X8960777Y-15511579D02*
X8970301Y-15549674D01*
X8970301Y-15549674D02*
X8970301Y-15597293D01*
X8970301Y-15597293D02*
X8960777Y-15635388D01*
X8960777Y-15635388D02*
X8951253Y-15654436D01*
X8951253Y-15654436D02*
X8941729Y-15663960D01*
X8941729Y-15663960D02*
X8922682Y-15673484D01*
X8922682Y-15673484D02*
X8903634Y-15673484D01*
X8903634Y-15673484D02*
X8884587Y-15663960D01*
X8884587Y-15663960D02*
X8875063Y-15654436D01*
X8875063Y-15654436D02*
X8865539Y-15635388D01*
X8865539Y-15635388D02*
X8856015Y-15597293D01*
X8856015Y-15597293D02*
X8856015Y-15549674D01*
X8856015Y-15549674D02*
X8865539Y-15511579D01*
X8865539Y-15511579D02*
X8875063Y-15492531D01*
X8875063Y-15492531D02*
X8884587Y-15483008D01*
X8884587Y-15483008D02*
X8903634Y-15473484D01*
X9056015Y-15654436D02*
X9065539Y-15663960D01*
X9065539Y-15663960D02*
X9056015Y-15673484D01*
X9056015Y-15673484D02*
X9046491Y-15663960D01*
X9046491Y-15663960D02*
X9056015Y-15654436D01*
X9056015Y-15654436D02*
X9056015Y-15673484D01*
X9189348Y-15473484D02*
X9208396Y-15473484D01*
X9208396Y-15473484D02*
X9227444Y-15483008D01*
X9227444Y-15483008D02*
X9236968Y-15492531D01*
X9236968Y-15492531D02*
X9246491Y-15511579D01*
X9246491Y-15511579D02*
X9256015Y-15549674D01*
X9256015Y-15549674D02*
X9256015Y-15597293D01*
X9256015Y-15597293D02*
X9246491Y-15635388D01*
X9246491Y-15635388D02*
X9236968Y-15654436D01*
X9236968Y-15654436D02*
X9227444Y-15663960D01*
X9227444Y-15663960D02*
X9208396Y-15673484D01*
X9208396Y-15673484D02*
X9189348Y-15673484D01*
X9189348Y-15673484D02*
X9170301Y-15663960D01*
X9170301Y-15663960D02*
X9160777Y-15654436D01*
X9160777Y-15654436D02*
X9151253Y-15635388D01*
X9151253Y-15635388D02*
X9141729Y-15597293D01*
X9141729Y-15597293D02*
X9141729Y-15549674D01*
X9141729Y-15549674D02*
X9151253Y-15511579D01*
X9151253Y-15511579D02*
X9160777Y-15492531D01*
X9160777Y-15492531D02*
X9170301Y-15483008D01*
X9170301Y-15483008D02*
X9189348Y-15473484D01*
X9436968Y-15473484D02*
X9341729Y-15473484D01*
X9341729Y-15473484D02*
X9332206Y-15568722D01*
X9332206Y-15568722D02*
X9341729Y-15559198D01*
X9341729Y-15559198D02*
X9360777Y-15549674D01*
X9360777Y-15549674D02*
X9408396Y-15549674D01*
X9408396Y-15549674D02*
X9427444Y-15559198D01*
X9427444Y-15559198D02*
X9436968Y-15568722D01*
X9436968Y-15568722D02*
X9446491Y-15587769D01*
X9446491Y-15587769D02*
X9446491Y-15635388D01*
X9446491Y-15635388D02*
X9436968Y-15654436D01*
X9436968Y-15654436D02*
X9427444Y-15663960D01*
X9427444Y-15663960D02*
X9408396Y-15673484D01*
X9408396Y-15673484D02*
X9360777Y-15673484D01*
X9360777Y-15673484D02*
X9341729Y-15663960D01*
X9341729Y-15663960D02*
X9332206Y-15654436D01*
X9522682Y-15492531D02*
X9532206Y-15483008D01*
X9532206Y-15483008D02*
X9551253Y-15473484D01*
X9551253Y-15473484D02*
X9598872Y-15473484D01*
X9598872Y-15473484D02*
X9617920Y-15483008D01*
X9617920Y-15483008D02*
X9627444Y-15492531D01*
X9627444Y-15492531D02*
X9636968Y-15511579D01*
X9636968Y-15511579D02*
X9636968Y-15530627D01*
X9636968Y-15530627D02*
X9627444Y-15559198D01*
X9627444Y-15559198D02*
X9513158Y-15673484D01*
X9513158Y-15673484D02*
X9636968Y-15673484D01*
X9751253Y-15559198D02*
X9732206Y-15549674D01*
X9732206Y-15549674D02*
X9722682Y-15540150D01*
X9722682Y-15540150D02*
X9713158Y-15521103D01*
X9713158Y-15521103D02*
X9713158Y-15511579D01*
X9713158Y-15511579D02*
X9722682Y-15492531D01*
X9722682Y-15492531D02*
X9732206Y-15483008D01*
X9732206Y-15483008D02*
X9751253Y-15473484D01*
X9751253Y-15473484D02*
X9789349Y-15473484D01*
X9789349Y-15473484D02*
X9808396Y-15483008D01*
X9808396Y-15483008D02*
X9817920Y-15492531D01*
X9817920Y-15492531D02*
X9827444Y-15511579D01*
X9827444Y-15511579D02*
X9827444Y-15521103D01*
X9827444Y-15521103D02*
X9817920Y-15540150D01*
X9817920Y-15540150D02*
X9808396Y-15549674D01*
X9808396Y-15549674D02*
X9789349Y-15559198D01*
X9789349Y-15559198D02*
X9751253Y-15559198D01*
X9751253Y-15559198D02*
X9732206Y-15568722D01*
X9732206Y-15568722D02*
X9722682Y-15578246D01*
X9722682Y-15578246D02*
X9713158Y-15597293D01*
X9713158Y-15597293D02*
X9713158Y-15635388D01*
X9713158Y-15635388D02*
X9722682Y-15654436D01*
X9722682Y-15654436D02*
X9732206Y-15663960D01*
X9732206Y-15663960D02*
X9751253Y-15673484D01*
X9751253Y-15673484D02*
X9789349Y-15673484D01*
X9789349Y-15673484D02*
X9808396Y-15663960D01*
X9808396Y-15663960D02*
X9817920Y-15654436D01*
X9817920Y-15654436D02*
X9827444Y-15635388D01*
X9827444Y-15635388D02*
X9827444Y-15597293D01*
X9827444Y-15597293D02*
X9817920Y-15578246D01*
X9817920Y-15578246D02*
X9808396Y-15568722D01*
X9808396Y-15568722D02*
X9789349Y-15559198D01*
X9903634Y-15473484D02*
X9903634Y-15511579D01*
X9979825Y-15473484D02*
X9979825Y-15511579D01*
X10275063Y-15749674D02*
X10265539Y-15740150D01*
X10265539Y-15740150D02*
X10246491Y-15711579D01*
X10246491Y-15711579D02*
X10236968Y-15692531D01*
X10236968Y-15692531D02*
X10227444Y-15663960D01*
X10227444Y-15663960D02*
X10217920Y-15616341D01*
X10217920Y-15616341D02*
X10217920Y-15578246D01*
X10217920Y-15578246D02*
X10227444Y-15530627D01*
X10227444Y-15530627D02*
X10236968Y-15502055D01*
X10236968Y-15502055D02*
X10246491Y-15483008D01*
X10246491Y-15483008D02*
X10265539Y-15454436D01*
X10265539Y-15454436D02*
X10275063Y-15444912D01*
X10456015Y-15673484D02*
X10341730Y-15673484D01*
X10398872Y-15673484D02*
X10398872Y-15473484D01*
X10398872Y-15473484D02*
X10379825Y-15502055D01*
X10379825Y-15502055D02*
X10360777Y-15521103D01*
X10360777Y-15521103D02*
X10341730Y-15530627D01*
X10627444Y-15473484D02*
X10589349Y-15473484D01*
X10589349Y-15473484D02*
X10570301Y-15483008D01*
X10570301Y-15483008D02*
X10560777Y-15492531D01*
X10560777Y-15492531D02*
X10541730Y-15521103D01*
X10541730Y-15521103D02*
X10532206Y-15559198D01*
X10532206Y-15559198D02*
X10532206Y-15635388D01*
X10532206Y-15635388D02*
X10541730Y-15654436D01*
X10541730Y-15654436D02*
X10551253Y-15663960D01*
X10551253Y-15663960D02*
X10570301Y-15673484D01*
X10570301Y-15673484D02*
X10608396Y-15673484D01*
X10608396Y-15673484D02*
X10627444Y-15663960D01*
X10627444Y-15663960D02*
X10636968Y-15654436D01*
X10636968Y-15654436D02*
X10646491Y-15635388D01*
X10646491Y-15635388D02*
X10646491Y-15587769D01*
X10646491Y-15587769D02*
X10636968Y-15568722D01*
X10636968Y-15568722D02*
X10627444Y-15559198D01*
X10627444Y-15559198D02*
X10608396Y-15549674D01*
X10608396Y-15549674D02*
X10570301Y-15549674D01*
X10570301Y-15549674D02*
X10551253Y-15559198D01*
X10551253Y-15559198D02*
X10541730Y-15568722D01*
X10541730Y-15568722D02*
X10532206Y-15587769D01*
X10884587Y-15673484D02*
X10884587Y-15473484D01*
X10970301Y-15673484D02*
X10970301Y-15568722D01*
X10970301Y-15568722D02*
X10960777Y-15549674D01*
X10960777Y-15549674D02*
X10941730Y-15540150D01*
X10941730Y-15540150D02*
X10913158Y-15540150D01*
X10913158Y-15540150D02*
X10894111Y-15549674D01*
X10894111Y-15549674D02*
X10884587Y-15559198D01*
X11094111Y-15673484D02*
X11075063Y-15663960D01*
X11075063Y-15663960D02*
X11065539Y-15654436D01*
X11065539Y-15654436D02*
X11056015Y-15635388D01*
X11056015Y-15635388D02*
X11056015Y-15578246D01*
X11056015Y-15578246D02*
X11065539Y-15559198D01*
X11065539Y-15559198D02*
X11075063Y-15549674D01*
X11075063Y-15549674D02*
X11094111Y-15540150D01*
X11094111Y-15540150D02*
X11122682Y-15540150D01*
X11122682Y-15540150D02*
X11141730Y-15549674D01*
X11141730Y-15549674D02*
X11151253Y-15559198D01*
X11151253Y-15559198D02*
X11160777Y-15578246D01*
X11160777Y-15578246D02*
X11160777Y-15635388D01*
X11160777Y-15635388D02*
X11151253Y-15654436D01*
X11151253Y-15654436D02*
X11141730Y-15663960D01*
X11141730Y-15663960D02*
X11122682Y-15673484D01*
X11122682Y-15673484D02*
X11094111Y-15673484D01*
X11275063Y-15673484D02*
X11256015Y-15663960D01*
X11256015Y-15663960D02*
X11246491Y-15644912D01*
X11246491Y-15644912D02*
X11246491Y-15473484D01*
X11427444Y-15663960D02*
X11408396Y-15673484D01*
X11408396Y-15673484D02*
X11370301Y-15673484D01*
X11370301Y-15673484D02*
X11351253Y-15663960D01*
X11351253Y-15663960D02*
X11341730Y-15644912D01*
X11341730Y-15644912D02*
X11341730Y-15568722D01*
X11341730Y-15568722D02*
X11351253Y-15549674D01*
X11351253Y-15549674D02*
X11370301Y-15540150D01*
X11370301Y-15540150D02*
X11408396Y-15540150D01*
X11408396Y-15540150D02*
X11427444Y-15549674D01*
X11427444Y-15549674D02*
X11436968Y-15568722D01*
X11436968Y-15568722D02*
X11436968Y-15587769D01*
X11436968Y-15587769D02*
X11341730Y-15606817D01*
X11513158Y-15663960D02*
X11532206Y-15673484D01*
X11532206Y-15673484D02*
X11570301Y-15673484D01*
X11570301Y-15673484D02*
X11589349Y-15663960D01*
X11589349Y-15663960D02*
X11598872Y-15644912D01*
X11598872Y-15644912D02*
X11598872Y-15635388D01*
X11598872Y-15635388D02*
X11589349Y-15616341D01*
X11589349Y-15616341D02*
X11570301Y-15606817D01*
X11570301Y-15606817D02*
X11541730Y-15606817D01*
X11541730Y-15606817D02*
X11522682Y-15597293D01*
X11522682Y-15597293D02*
X11513158Y-15578246D01*
X11513158Y-15578246D02*
X11513158Y-15568722D01*
X11513158Y-15568722D02*
X11522682Y-15549674D01*
X11522682Y-15549674D02*
X11541730Y-15540150D01*
X11541730Y-15540150D02*
X11570301Y-15540150D01*
X11570301Y-15540150D02*
X11589349Y-15549674D01*
X11665539Y-15749674D02*
X11675063Y-15740150D01*
X11675063Y-15740150D02*
X11694111Y-15711579D01*
X11694111Y-15711579D02*
X11703634Y-15692531D01*
X11703634Y-15692531D02*
X11713158Y-15663960D01*
X11713158Y-15663960D02*
X11722682Y-15616341D01*
X11722682Y-15616341D02*
X11722682Y-15578246D01*
X11722682Y-15578246D02*
X11713158Y-15530627D01*
X11713158Y-15530627D02*
X11703634Y-15502055D01*
X11703634Y-15502055D02*
X11694111Y-15483008D01*
X11694111Y-15483008D02*
X11675063Y-15454436D01*
X11675063Y-15454436D02*
X11665539Y-15444912D01*
M02*
