%TF.GenerationSoftware,KiCad,Pcbnew,7.0.5*%
%TF.CreationDate,2023-11-06T22:37:59+10:00*%
%TF.ProjectId,TallyLight_Panel,54616c6c-794c-4696-9768-745f50616e65,rev?*%
%TF.SameCoordinates,Original*%
%TF.FileFunction,Paste,Top*%
%TF.FilePolarity,Positive*%
%FSLAX46Y46*%
G04 Gerber Fmt 4.6, Leading zero omitted, Abs format (unit mm)*
G04 Created by KiCad (PCBNEW 7.0.5) date 2023-11-06 22:37:59*
%MOMM*%
%LPD*%
G01*
G04 APERTURE LIST*
G04 Aperture macros list*
%AMRoundRect*
0 Rectangle with rounded corners*
0 $1 Rounding radius*
0 $2 $3 $4 $5 $6 $7 $8 $9 X,Y pos of 4 corners*
0 Add a 4 corners polygon primitive as box body*
4,1,4,$2,$3,$4,$5,$6,$7,$8,$9,$2,$3,0*
0 Add four circle primitives for the rounded corners*
1,1,$1+$1,$2,$3*
1,1,$1+$1,$4,$5*
1,1,$1+$1,$6,$7*
1,1,$1+$1,$8,$9*
0 Add four rect primitives between the rounded corners*
20,1,$1+$1,$2,$3,$4,$5,0*
20,1,$1+$1,$4,$5,$6,$7,0*
20,1,$1+$1,$6,$7,$8,$9,0*
20,1,$1+$1,$8,$9,$2,$3,0*%
G04 Aperture macros list end*
%ADD10R,1.000000X0.550000*%
%ADD11R,0.550000X1.200000*%
%ADD12R,0.700000X1.200000*%
%ADD13R,0.450000X1.200000*%
%ADD14R,0.910000X1.390000*%
%ADD15R,0.750000X0.940000*%
%ADD16R,1.150000X1.450000*%
%ADD17RoundRect,0.243750X-0.243750X-0.456250X0.243750X-0.456250X0.243750X0.456250X-0.243750X0.456250X0*%
%ADD18R,0.650000X0.300000*%
%ADD19R,1.600000X0.700000*%
%ADD20RoundRect,0.250000X-0.350000X-0.450000X0.350000X-0.450000X0.350000X0.450000X-0.350000X0.450000X0*%
%ADD21R,1.200000X0.700000*%
%ADD22R,1.200000X0.760000*%
%ADD23R,1.200000X0.800000*%
%ADD24RoundRect,0.250000X0.350000X0.450000X-0.350000X0.450000X-0.350000X-0.450000X0.350000X-0.450000X0*%
%ADD25R,1.450000X1.150000*%
%ADD26R,1.390000X0.910000*%
%ADD27R,0.400000X1.000000*%
%ADD28R,0.700000X1.550000*%
G04 APERTURE END LIST*
D10*
%TO.C,U5*%
X94350000Y-131650000D03*
D11*
X94575000Y-131725000D03*
D12*
X95700000Y-131725000D03*
D13*
X96726000Y-131725000D03*
D11*
X97725000Y-131725000D03*
D10*
X97950000Y-131650000D03*
%TD*%
D14*
%TO.C,C11*%
X107070000Y-117625000D03*
X105430000Y-117625000D03*
%TD*%
D15*
%TO.C,C13*%
X106700000Y-115875000D03*
X105300000Y-115875000D03*
%TD*%
D16*
%TO.C,C7*%
X136000000Y-131875000D03*
X137800000Y-131875000D03*
%TD*%
%TO.C,C3*%
X117050000Y-115875000D03*
X115250000Y-115875000D03*
%TD*%
%TO.C,C2*%
X121100000Y-115875000D03*
X122900000Y-115875000D03*
%TD*%
%TO.C,C8*%
X90450000Y-131875000D03*
X92250000Y-131875000D03*
%TD*%
%TO.C,C15*%
X117250000Y-129375000D03*
X115450000Y-129375000D03*
%TD*%
D17*
%TO.C,D5*%
X95250000Y-123625000D03*
X97125000Y-123625000D03*
%TD*%
D10*
%TO.C,U6*%
X109590000Y-131650000D03*
D11*
X109815000Y-131725000D03*
D12*
X110940000Y-131725000D03*
D13*
X111966000Y-131725000D03*
D11*
X112965000Y-131725000D03*
D10*
X113190000Y-131650000D03*
%TD*%
D18*
%TO.C,RN1*%
X119250000Y-124125000D03*
X119250000Y-124625000D03*
X119250000Y-125125000D03*
X119250000Y-125625000D03*
X120400000Y-125625000D03*
X120400000Y-125125000D03*
X120400000Y-124625000D03*
X120400000Y-124125000D03*
%TD*%
D10*
%TO.C,U2*%
X128556000Y-115960000D03*
D11*
X128331000Y-115885000D03*
D12*
X127206000Y-115885000D03*
D13*
X126180000Y-115885000D03*
D11*
X125181000Y-115885000D03*
D10*
X124956000Y-115960000D03*
%TD*%
%TO.C,U8*%
X140070000Y-131650000D03*
D11*
X140295000Y-131725000D03*
D12*
X141420000Y-131725000D03*
D13*
X142446000Y-131725000D03*
D11*
X143445000Y-131725000D03*
D10*
X143670000Y-131650000D03*
%TD*%
%TO.C,U3*%
X113480000Y-115960000D03*
D11*
X113255000Y-115885000D03*
D12*
X112130000Y-115885000D03*
D13*
X111104000Y-115885000D03*
D11*
X110105000Y-115885000D03*
D10*
X109880000Y-115960000D03*
%TD*%
D19*
%TO.C,VEML7700*%
X113100000Y-121870000D03*
X113100000Y-123140000D03*
X113100000Y-124410000D03*
X113100000Y-125680000D03*
%TD*%
D16*
%TO.C,C4*%
X95450000Y-118125000D03*
X97250000Y-118125000D03*
%TD*%
D20*
%TO.C,R3*%
X115500000Y-131875000D03*
X117500000Y-131875000D03*
%TD*%
D10*
%TO.C,U7*%
X125120000Y-131650000D03*
D11*
X125345000Y-131725000D03*
D12*
X126470000Y-131725000D03*
D13*
X127496000Y-131725000D03*
D11*
X128495000Y-131725000D03*
D10*
X128720000Y-131650000D03*
%TD*%
D16*
%TO.C,C6*%
X121200000Y-131875000D03*
X123000000Y-131875000D03*
%TD*%
D10*
%TO.C,U4*%
X98076000Y-115960000D03*
D11*
X97851000Y-115885000D03*
D12*
X96726000Y-115885000D03*
D13*
X95700000Y-115885000D03*
D11*
X94701000Y-115885000D03*
D10*
X94476000Y-115960000D03*
%TD*%
D21*
%TO.C,USB*%
X92130000Y-120055000D03*
D22*
X92130000Y-122075000D03*
D23*
X92130000Y-123305000D03*
D21*
X92130000Y-121055000D03*
D22*
X92130000Y-119035000D03*
D23*
X92130000Y-117805000D03*
%TD*%
D24*
%TO.C,R6*%
X97250000Y-121125000D03*
X95250000Y-121125000D03*
%TD*%
D10*
%TO.C,U1*%
X143796000Y-115960000D03*
D11*
X143571000Y-115885000D03*
D12*
X142446000Y-115885000D03*
D13*
X141420000Y-115885000D03*
D11*
X140421000Y-115885000D03*
D10*
X140196000Y-115960000D03*
%TD*%
D25*
%TO.C,C10*%
X107750000Y-128475000D03*
X107750000Y-130275000D03*
%TD*%
D16*
%TO.C,C1*%
X136350000Y-115875000D03*
X138150000Y-115875000D03*
%TD*%
%TO.C,C5*%
X112750000Y-129375000D03*
X110950000Y-129375000D03*
%TD*%
D26*
%TO.C,C9*%
X104000000Y-127805000D03*
X104000000Y-129445000D03*
%TD*%
D27*
%TO.C,Q1*%
X119200000Y-122125000D03*
X119850000Y-122125000D03*
X120500000Y-122125000D03*
X120500000Y-120125000D03*
X119850000Y-120125000D03*
X119200000Y-120125000D03*
%TD*%
D28*
%TO.C,TC1263*%
X103960000Y-125775000D03*
X105230000Y-125775000D03*
X106500000Y-125775000D03*
X107770000Y-125775000D03*
X107770000Y-120375000D03*
X106500000Y-120375000D03*
X105230000Y-120375000D03*
X103960000Y-120375000D03*
%TD*%
D10*
%TO.C,U5*%
X94350000Y-111150000D03*
D11*
X94575000Y-111225000D03*
D12*
X95700000Y-111225000D03*
D13*
X96726000Y-111225000D03*
D11*
X97725000Y-111225000D03*
D10*
X97950000Y-111150000D03*
%TD*%
%TO.C,U4*%
X98076000Y-95460000D03*
D11*
X97851000Y-95385000D03*
D12*
X96726000Y-95385000D03*
D13*
X95700000Y-95385000D03*
D11*
X94701000Y-95385000D03*
D10*
X94476000Y-95460000D03*
%TD*%
D15*
%TO.C,C13*%
X106700000Y-95375000D03*
X105300000Y-95375000D03*
%TD*%
D16*
%TO.C,C3*%
X117050000Y-95375000D03*
X115250000Y-95375000D03*
%TD*%
%TO.C,C2*%
X121100000Y-95375000D03*
X122900000Y-95375000D03*
%TD*%
D17*
%TO.C,D5*%
X95250000Y-103125000D03*
X97125000Y-103125000D03*
%TD*%
D10*
%TO.C,U6*%
X109590000Y-111150000D03*
D11*
X109815000Y-111225000D03*
D12*
X110940000Y-111225000D03*
D13*
X111966000Y-111225000D03*
D11*
X112965000Y-111225000D03*
D10*
X113190000Y-111150000D03*
%TD*%
D18*
%TO.C,RN1*%
X119250000Y-103625000D03*
X119250000Y-104125000D03*
X119250000Y-104625000D03*
X119250000Y-105125000D03*
X120400000Y-105125000D03*
X120400000Y-104625000D03*
X120400000Y-104125000D03*
X120400000Y-103625000D03*
%TD*%
D10*
%TO.C,U2*%
X128556000Y-95460000D03*
D11*
X128331000Y-95385000D03*
D12*
X127206000Y-95385000D03*
D13*
X126180000Y-95385000D03*
D11*
X125181000Y-95385000D03*
D10*
X124956000Y-95460000D03*
%TD*%
%TO.C,U8*%
X140070000Y-111150000D03*
D11*
X140295000Y-111225000D03*
D12*
X141420000Y-111225000D03*
D13*
X142446000Y-111225000D03*
D11*
X143445000Y-111225000D03*
D10*
X143670000Y-111150000D03*
%TD*%
%TO.C,U3*%
X113480000Y-95460000D03*
D11*
X113255000Y-95385000D03*
D12*
X112130000Y-95385000D03*
D13*
X111104000Y-95385000D03*
D11*
X110105000Y-95385000D03*
D10*
X109880000Y-95460000D03*
%TD*%
D20*
%TO.C,R3*%
X115500000Y-111375000D03*
X117500000Y-111375000D03*
%TD*%
D19*
%TO.C,VEML7700*%
X113100000Y-101370000D03*
X113100000Y-102640000D03*
X113100000Y-103910000D03*
X113100000Y-105180000D03*
%TD*%
D16*
%TO.C,C4*%
X95450000Y-97625000D03*
X97250000Y-97625000D03*
%TD*%
D10*
%TO.C,U7*%
X125120000Y-111150000D03*
D11*
X125345000Y-111225000D03*
D12*
X126470000Y-111225000D03*
D13*
X127496000Y-111225000D03*
D11*
X128495000Y-111225000D03*
D10*
X128720000Y-111150000D03*
%TD*%
D14*
%TO.C,C11*%
X107070000Y-97125000D03*
X105430000Y-97125000D03*
%TD*%
D16*
%TO.C,C6*%
X121200000Y-111375000D03*
X123000000Y-111375000D03*
%TD*%
D21*
%TO.C,USB*%
X92130000Y-99555000D03*
D22*
X92130000Y-101575000D03*
D23*
X92130000Y-102805000D03*
D21*
X92130000Y-100555000D03*
D22*
X92130000Y-98535000D03*
D23*
X92130000Y-97305000D03*
%TD*%
D24*
%TO.C,R6*%
X97250000Y-100625000D03*
X95250000Y-100625000D03*
%TD*%
D16*
%TO.C,C7*%
X136000000Y-111375000D03*
X137800000Y-111375000D03*
%TD*%
D10*
%TO.C,U1*%
X143796000Y-95460000D03*
D11*
X143571000Y-95385000D03*
D12*
X142446000Y-95385000D03*
D13*
X141420000Y-95385000D03*
D11*
X140421000Y-95385000D03*
D10*
X140196000Y-95460000D03*
%TD*%
D25*
%TO.C,C10*%
X107750000Y-107975000D03*
X107750000Y-109775000D03*
%TD*%
D16*
%TO.C,C15*%
X117250000Y-108875000D03*
X115450000Y-108875000D03*
%TD*%
%TO.C,C1*%
X136350000Y-95375000D03*
X138150000Y-95375000D03*
%TD*%
%TO.C,C8*%
X90450000Y-111375000D03*
X92250000Y-111375000D03*
%TD*%
%TO.C,C5*%
X112750000Y-108875000D03*
X110950000Y-108875000D03*
%TD*%
D26*
%TO.C,C9*%
X104000000Y-107305000D03*
X104000000Y-108945000D03*
%TD*%
D27*
%TO.C,Q1*%
X119200000Y-101625000D03*
X119850000Y-101625000D03*
X120500000Y-101625000D03*
X120500000Y-99625000D03*
X119850000Y-99625000D03*
X119200000Y-99625000D03*
%TD*%
D28*
%TO.C,TC1263*%
X103960000Y-105275000D03*
X105230000Y-105275000D03*
X106500000Y-105275000D03*
X107770000Y-105275000D03*
X107770000Y-99875000D03*
X106500000Y-99875000D03*
X105230000Y-99875000D03*
X103960000Y-99875000D03*
%TD*%
D10*
%TO.C,U5*%
X94350000Y-90650000D03*
D11*
X94575000Y-90725000D03*
D12*
X95700000Y-90725000D03*
D13*
X96726000Y-90725000D03*
D11*
X97725000Y-90725000D03*
D10*
X97950000Y-90650000D03*
%TD*%
%TO.C,U4*%
X98076000Y-74960000D03*
D11*
X97851000Y-74885000D03*
D12*
X96726000Y-74885000D03*
D13*
X95700000Y-74885000D03*
D11*
X94701000Y-74885000D03*
D10*
X94476000Y-74960000D03*
%TD*%
D14*
%TO.C,C11*%
X107070000Y-76625000D03*
X105430000Y-76625000D03*
%TD*%
D15*
%TO.C,C13*%
X106700000Y-74875000D03*
X105300000Y-74875000D03*
%TD*%
D16*
%TO.C,C7*%
X136000000Y-90875000D03*
X137800000Y-90875000D03*
%TD*%
%TO.C,C8*%
X90450000Y-90875000D03*
X92250000Y-90875000D03*
%TD*%
%TO.C,C2*%
X121100000Y-74875000D03*
X122900000Y-74875000D03*
%TD*%
%TO.C,C15*%
X117250000Y-88375000D03*
X115450000Y-88375000D03*
%TD*%
D17*
%TO.C,D5*%
X95250000Y-82625000D03*
X97125000Y-82625000D03*
%TD*%
D10*
%TO.C,U6*%
X109590000Y-90650000D03*
D11*
X109815000Y-90725000D03*
D12*
X110940000Y-90725000D03*
D13*
X111966000Y-90725000D03*
D11*
X112965000Y-90725000D03*
D10*
X113190000Y-90650000D03*
%TD*%
D18*
%TO.C,RN1*%
X119250000Y-83125000D03*
X119250000Y-83625000D03*
X119250000Y-84125000D03*
X119250000Y-84625000D03*
X120400000Y-84625000D03*
X120400000Y-84125000D03*
X120400000Y-83625000D03*
X120400000Y-83125000D03*
%TD*%
D10*
%TO.C,U2*%
X128556000Y-74960000D03*
D11*
X128331000Y-74885000D03*
D12*
X127206000Y-74885000D03*
D13*
X126180000Y-74885000D03*
D11*
X125181000Y-74885000D03*
D10*
X124956000Y-74960000D03*
%TD*%
D20*
%TO.C,R3*%
X115500000Y-90875000D03*
X117500000Y-90875000D03*
%TD*%
D19*
%TO.C,VEML7700*%
X113100000Y-80870000D03*
X113100000Y-82140000D03*
X113100000Y-83410000D03*
X113100000Y-84680000D03*
%TD*%
D16*
%TO.C,C4*%
X95450000Y-77125000D03*
X97250000Y-77125000D03*
%TD*%
%TO.C,C3*%
X117050000Y-74875000D03*
X115250000Y-74875000D03*
%TD*%
D10*
%TO.C,U7*%
X125120000Y-90650000D03*
D11*
X125345000Y-90725000D03*
D12*
X126470000Y-90725000D03*
D13*
X127496000Y-90725000D03*
D11*
X128495000Y-90725000D03*
D10*
X128720000Y-90650000D03*
%TD*%
%TO.C,U3*%
X113480000Y-74960000D03*
D11*
X113255000Y-74885000D03*
D12*
X112130000Y-74885000D03*
D13*
X111104000Y-74885000D03*
D11*
X110105000Y-74885000D03*
D10*
X109880000Y-74960000D03*
%TD*%
D16*
%TO.C,C6*%
X121200000Y-90875000D03*
X123000000Y-90875000D03*
%TD*%
D10*
%TO.C,U8*%
X140070000Y-90650000D03*
D11*
X140295000Y-90725000D03*
D12*
X141420000Y-90725000D03*
D13*
X142446000Y-90725000D03*
D11*
X143445000Y-90725000D03*
D10*
X143670000Y-90650000D03*
%TD*%
D21*
%TO.C,USB*%
X92130000Y-79055000D03*
D22*
X92130000Y-81075000D03*
D23*
X92130000Y-82305000D03*
D21*
X92130000Y-80055000D03*
D22*
X92130000Y-78035000D03*
D23*
X92130000Y-76805000D03*
%TD*%
D24*
%TO.C,R6*%
X97250000Y-80125000D03*
X95250000Y-80125000D03*
%TD*%
D10*
%TO.C,U1*%
X143796000Y-74960000D03*
D11*
X143571000Y-74885000D03*
D12*
X142446000Y-74885000D03*
D13*
X141420000Y-74885000D03*
D11*
X140421000Y-74885000D03*
D10*
X140196000Y-74960000D03*
%TD*%
D25*
%TO.C,C10*%
X107750000Y-87475000D03*
X107750000Y-89275000D03*
%TD*%
D16*
%TO.C,C1*%
X136350000Y-74875000D03*
X138150000Y-74875000D03*
%TD*%
%TO.C,C5*%
X112750000Y-88375000D03*
X110950000Y-88375000D03*
%TD*%
D26*
%TO.C,C9*%
X104000000Y-86805000D03*
X104000000Y-88445000D03*
%TD*%
D27*
%TO.C,Q1*%
X119200000Y-81125000D03*
X119850000Y-81125000D03*
X120500000Y-81125000D03*
X120500000Y-79125000D03*
X119850000Y-79125000D03*
X119200000Y-79125000D03*
%TD*%
D28*
%TO.C,TC1263*%
X103960000Y-84775000D03*
X105230000Y-84775000D03*
X106500000Y-84775000D03*
X107770000Y-84775000D03*
X107770000Y-79375000D03*
X106500000Y-79375000D03*
X105230000Y-79375000D03*
X103960000Y-79375000D03*
%TD*%
D21*
%TO.C,USB*%
X92130000Y-58555000D03*
D22*
X92130000Y-60575000D03*
D23*
X92130000Y-61805000D03*
D21*
X92130000Y-59555000D03*
D22*
X92130000Y-57535000D03*
D23*
X92130000Y-56305000D03*
%TD*%
D27*
%TO.C,Q1*%
X119200000Y-60625000D03*
X119850000Y-60625000D03*
X120500000Y-60625000D03*
X120500000Y-58625000D03*
X119850000Y-58625000D03*
X119200000Y-58625000D03*
%TD*%
D28*
%TO.C,TC1263*%
X103960000Y-64275000D03*
X105230000Y-64275000D03*
X106500000Y-64275000D03*
X107770000Y-64275000D03*
X107770000Y-58875000D03*
X106500000Y-58875000D03*
X105230000Y-58875000D03*
X103960000Y-58875000D03*
%TD*%
D16*
%TO.C,C1*%
X136350000Y-54375000D03*
X138150000Y-54375000D03*
%TD*%
D10*
%TO.C,U3*%
X113480000Y-54460000D03*
D11*
X113255000Y-54385000D03*
D12*
X112130000Y-54385000D03*
D13*
X111104000Y-54385000D03*
D11*
X110105000Y-54385000D03*
D10*
X109880000Y-54460000D03*
%TD*%
%TO.C,U8*%
X140070000Y-70150000D03*
D11*
X140295000Y-70225000D03*
D12*
X141420000Y-70225000D03*
D13*
X142446000Y-70225000D03*
D11*
X143445000Y-70225000D03*
D10*
X143670000Y-70150000D03*
%TD*%
D24*
%TO.C,R6*%
X97250000Y-59625000D03*
X95250000Y-59625000D03*
%TD*%
D16*
%TO.C,C6*%
X121200000Y-70375000D03*
X123000000Y-70375000D03*
%TD*%
D20*
%TO.C,R3*%
X115500000Y-70375000D03*
X117500000Y-70375000D03*
%TD*%
D25*
%TO.C,C10*%
X107750000Y-66975000D03*
X107750000Y-68775000D03*
%TD*%
D16*
%TO.C,C5*%
X112750000Y-67875000D03*
X110950000Y-67875000D03*
%TD*%
D18*
%TO.C,RN1*%
X119250000Y-62625000D03*
X119250000Y-63125000D03*
X119250000Y-63625000D03*
X119250000Y-64125000D03*
X120400000Y-64125000D03*
X120400000Y-63625000D03*
X120400000Y-63125000D03*
X120400000Y-62625000D03*
%TD*%
D10*
%TO.C,U2*%
X128556000Y-54460000D03*
D11*
X128331000Y-54385000D03*
D12*
X127206000Y-54385000D03*
D13*
X126180000Y-54385000D03*
D11*
X125181000Y-54385000D03*
D10*
X124956000Y-54460000D03*
%TD*%
D16*
%TO.C,C3*%
X117050000Y-54375000D03*
X115250000Y-54375000D03*
%TD*%
D14*
%TO.C,C11*%
X107070000Y-56125000D03*
X105430000Y-56125000D03*
%TD*%
D26*
%TO.C,C9*%
X104000000Y-66305000D03*
X104000000Y-67945000D03*
%TD*%
D16*
%TO.C,C7*%
X136000000Y-70375000D03*
X137800000Y-70375000D03*
%TD*%
D10*
%TO.C,U5*%
X94350000Y-70150000D03*
D11*
X94575000Y-70225000D03*
D12*
X95700000Y-70225000D03*
D13*
X96726000Y-70225000D03*
D11*
X97725000Y-70225000D03*
D10*
X97950000Y-70150000D03*
%TD*%
%TO.C,U4*%
X98076000Y-54460000D03*
D11*
X97851000Y-54385000D03*
D12*
X96726000Y-54385000D03*
D13*
X95700000Y-54385000D03*
D11*
X94701000Y-54385000D03*
D10*
X94476000Y-54460000D03*
%TD*%
D15*
%TO.C,C13*%
X106700000Y-54375000D03*
X105300000Y-54375000D03*
%TD*%
D10*
%TO.C,U1*%
X143796000Y-54460000D03*
D11*
X143571000Y-54385000D03*
D12*
X142446000Y-54385000D03*
D13*
X141420000Y-54385000D03*
D11*
X140421000Y-54385000D03*
D10*
X140196000Y-54460000D03*
%TD*%
D19*
%TO.C,VEML7700*%
X113100000Y-60370000D03*
X113100000Y-61640000D03*
X113100000Y-62910000D03*
X113100000Y-64180000D03*
%TD*%
D17*
%TO.C,D5*%
X95250000Y-62125000D03*
X97125000Y-62125000D03*
%TD*%
D10*
%TO.C,U7*%
X125120000Y-70150000D03*
D11*
X125345000Y-70225000D03*
D12*
X126470000Y-70225000D03*
D13*
X127496000Y-70225000D03*
D11*
X128495000Y-70225000D03*
D10*
X128720000Y-70150000D03*
%TD*%
%TO.C,U6*%
X109590000Y-70150000D03*
D11*
X109815000Y-70225000D03*
D12*
X110940000Y-70225000D03*
D13*
X111966000Y-70225000D03*
D11*
X112965000Y-70225000D03*
D10*
X113190000Y-70150000D03*
%TD*%
D16*
%TO.C,C2*%
X121100000Y-54375000D03*
X122900000Y-54375000D03*
%TD*%
%TO.C,C4*%
X95450000Y-56625000D03*
X97250000Y-56625000D03*
%TD*%
%TO.C,C8*%
X90450000Y-70375000D03*
X92250000Y-70375000D03*
%TD*%
%TO.C,C15*%
X117250000Y-67875000D03*
X115450000Y-67875000D03*
%TD*%
M02*
